<svg viewBox="0 0 40 43" fill="none" xmlns="http://www.w3.org/2000/svg">
  <path
    d="M17.6033 41.9386C12.1234 41.4765 7.96502 40.3982 3.41868 38.2546C1.39405 37.2919 0.884857 36.9581 0.436285 36.2393C-0.048658 35.4948 -0.0971523 34.8273 0.133196 32.4141C1.30918 19.9629 7.46795 8.74398 17.1789 1.37595C18.7186 0.207854 19.1672 -0.0103628 20.028 0.00247348C20.9251 0.00247348 21.2646 0.182181 23.1801 1.65835C32.4789 8.84667 38.3952 19.4879 39.7894 31.5027C40.2743 35.7387 40.044 36.4575 37.789 37.6641C33.5336 39.9361 28.1629 41.4508 22.8891 41.8872C21.3737 42.0156 18.7671 42.0413 17.6033 41.9386ZM24.938 39.5254C26.6596 39.2686 28.3932 38.9092 29.9451 38.4728L31.121 38.139V36.1623C31.121 33.8646 30.9756 32.3499 30.5634 30.0394C29.7874 25.8162 28.1265 21.5674 25.7988 17.8706C24.9501 16.5099 24.744 16.266 24.5743 16.3559C24.2955 16.5228 22.0405 18.8846 21.6283 19.4623L21.2888 19.9244L22.0284 21.1181C23.6529 23.7496 25.0593 27.3181 25.7139 30.4886C26.1019 32.3499 26.114 32.8762 25.7503 33.441C25.0593 34.5192 24.4288 34.6476 19.7249 34.6476C17.3972 34.6347 16.306 34.5834 15.2998 34.4165C11.1656 33.7234 7.63769 32.5039 4.0976 30.5271C3.2732 30.065 2.58216 29.7185 2.54579 29.757C2.41243 29.8853 2.13358 32.5553 2.10934 33.8132L2.08509 35.161L2.69127 35.5076C4.5098 36.573 8.17112 37.9979 10.7898 38.691C12.4992 39.1274 14.7663 39.5382 16.5121 39.7051C18.2337 39.8848 23.2528 39.7693 24.938 39.5254ZM36.2129 36.0852C38.0557 35.1995 38.0678 35.1995 37.9709 33.9673C37.2798 25.1359 34.5035 17.5625 29.545 10.9775C28.3326 9.36012 26.0655 6.85705 25.8109 6.85705C25.5806 6.85705 23.3135 8.29471 22.1132 9.19325C17.9063 12.351 14.3784 16.7923 12.0022 21.9397L11.2384 23.6084L11.7112 23.8394C12.2931 24.109 15.3725 24.9562 15.7605 24.9562C15.9787 24.9434 16.1363 24.7123 16.5849 23.6982C17.2032 22.3504 18.5004 20.1939 19.5673 18.7434C20.5008 17.4855 23.3377 14.5331 23.8711 14.2636C24.1136 14.1481 24.5137 14.0454 24.7804 14.0454C25.6291 14.0454 26.1746 14.5845 27.5688 16.8052C31.0847 22.4146 33.182 29.5131 33.182 35.8285V37.4074L34.0065 37.0736C34.455 36.9068 35.4492 36.4575 36.2129 36.0852ZM22.683 32.4526L23.9924 32.3756L23.9196 31.8364C23.8105 31.1048 23.3013 29.0125 23.0225 28.1653L22.7921 27.4593L20.1977 27.4464C16.694 27.4336 14.5602 27.087 11.5657 26.0344C10.0745 25.5082 9.50471 25.0717 9.28649 24.3144C9.08039 23.5827 9.21375 23.1334 10.317 20.7587C11.3717 18.5124 13.0448 15.7269 14.3905 13.9812C16.7546 10.8876 19.7855 8.10216 23.0346 6.00985L24.2227 5.25251L23.7014 4.76473C22.7073 3.84052 20.3068 2.10762 20.028 2.10762C19.7128 2.10762 18.7065 2.80078 17.0335 4.16143C11.1414 8.93652 6.53444 15.7397 4.07336 23.2746C3.49142 25.0717 2.95799 27.2154 3.05498 27.3823C3.16409 27.5748 5.16448 28.7557 6.53444 29.4361C10.0624 31.1818 14.0632 32.26 17.9912 32.5296C19.5067 32.6323 20.0037 32.6195 22.683 32.4526ZM21.6889 25.2386C21.8829 25.1616 21.8223 24.9947 21.2282 23.8651C20.8524 23.1591 20.4281 22.4018 20.2704 22.1707L20.0037 21.7343L19.5188 22.543C19.2399 22.9922 18.8156 23.7496 18.5731 24.2374C18.1973 24.9434 18.1488 25.1359 18.2822 25.2258C18.4762 25.3541 21.3858 25.367 21.6889 25.2386Z"
    fill="#F8F5ED" />
</svg>