 <svg id="logo-text" viewBox="0 0 83 20" fill="none" xmlns="http://www.w3.org/2000/svg">
  <path
    d="M69.7159 0.217803H82.1609V2.80793H72.651V8.57684H80.7521V11.167H72.651V17.1713H82.1609V19.8792H69.7159V0.217803Z"
    fill="#0F190C" />
  <path
    d="M46.5868 0.217803H50.9661C55.7093 0.217803 56.0733 0.253123 57.306 0.877108C58.1514 1.31272 58.7032 1.77188 59.2198 2.4665C60.3821 4.0559 60.6169 6.42233 59.795 8.29428C59.3137 9.37743 58.0457 10.5312 56.8951 10.9433C56.6486 11.0257 56.449 11.1434 56.449 11.2023C56.449 11.3082 59.478 17.2184 60.4643 19.0315L60.9221 19.8792H57.5056L55.4275 15.6997L53.3377 11.5202H49.522V19.8792H46.5868V0.217803ZM55.6389 8.74167C56.8364 8.17655 57.4821 7.01099 57.353 5.62175C57.2473 4.44442 56.6603 3.59674 55.6271 3.11403C55.1458 2.89034 54.8405 2.86679 52.3163 2.83147L49.522 2.79615V9.07132L52.3163 9.02423C54.8522 8.98891 55.1458 8.96536 55.6389 8.74167Z"
    fill="#0F190C" />
  <path
    d="M28.9172 19.8203C26.3225 19.2552 24.444 17.3597 23.8452 14.6872C23.5517 13.4039 23.5517 6.57539 23.8452 5.28032C24.444 2.61956 26.5103 0.629871 29.152 0.158939C30.3261 -0.0529798 30.9131 -0.0529798 32.0637 0.158939C34.5175 0.594551 36.3607 2.20749 37.2413 4.66811C37.7344 6.05736 37.7931 5.98672 36.1024 5.98672H34.6583L34.447 5.35096C34.177 4.57393 33.5312 3.69093 32.909 3.26709C32.2515 2.8197 31.5353 2.63133 30.5022 2.6431C29.3868 2.65488 28.5063 3.03162 27.7549 3.80866C27.0739 4.50329 26.7686 5.32742 26.616 6.91681C26.4399 8.56507 26.5456 13.4628 26.7804 14.3575C27.0974 15.629 27.8605 16.5827 28.9641 17.0889C29.3868 17.2773 29.7508 17.3362 30.6196 17.3362C31.5823 17.3479 31.8171 17.3126 32.3924 17.0418C33.4256 16.5474 34.1887 15.5937 34.6583 14.2045C34.717 14.0161 34.8932 13.9926 36.1494 13.9926H37.5818L37.4996 14.487C37.2765 15.8645 36.1377 17.7129 34.9636 18.5959C33.3434 19.8203 31.0305 20.2913 28.9172 19.8203Z"
    fill="#0F190C" />
  <path
    d="M1.27973 16.3825C1.98417 14.4517 3.60437 10.025 4.8841 6.55184L7.19701 0.217803H9.56862L12.8912 9.31856C14.7228 14.3104 16.3312 18.7372 16.4839 19.1493L16.7656 19.8792H13.6544L12.9617 17.8777L12.2807 15.8763H4.46144L3.79222 17.8777L3.11127 19.8792H0L1.27973 16.3825ZM11.4589 13.3097C11.4471 13.2508 10.7662 11.2729 9.95606 8.89472C9.14595 6.52829 8.45326 4.62102 8.41803 4.66811C8.34759 4.75052 5.37721 13.2155 5.37721 13.3333C5.37721 13.3686 6.75086 13.4039 8.44151 13.4039C10.1204 13.4039 11.4823 13.3568 11.4589 13.3097Z"
    fill="#0F190C" />
</svg>