<svg width="22" height="14" viewBox="0 0 22 14" fill="none" xmlns="http://www.w3.org/2000/svg">
<path d="M10.8531 13.694C10.8717 13.7635 10.8409 13.8339 10.7606 13.9051C10.7034 13.9701 10.6455 13.9856 10.5867 13.9517L1.16873 9.54302C1.05736 9.49832 0.989259 9.4296 0.964412 9.33688C0.945777 9.26733 0.970401 9.17377 1.03828 9.05619L7.00877 0.598735C7.02574 0.569342 7.069 0.545327 7.13855 0.526692C7.20809 0.508057 7.26067 0.518816 7.29628 0.558969C7.36128 0.616092 7.37991 0.685639 7.35218 0.767609L4.10016 7.8258L21.1739 3.25091C21.2202 3.23849 21.2736 3.29872 21.3341 3.4316C21.4239 3.58145 21.4906 3.73751 21.5341 3.89979C21.5776 4.06206 21.6032 4.20426 21.6111 4.32639C21.6252 4.47169 21.6091 4.55056 21.5627 4.56298L4.489 9.13786L10.7997 13.6337L10.8531 13.694Z" fill="#0F190C"/>
</svg>
