<svg width="86" height="68" viewBox="0 0 86 68" fill="none" xmlns="http://www.w3.org/2000/svg">
<path d="M75.3921 28.7031C74.3928 28.6937 73.3986 28.8529 72.4482 29.1744C73.0543 27.2744 73.3603 25.2845 73.354 23.2825C73.3493 19.6264 72.3576 16.0453 70.4919 12.9475C68.6261 9.8497 65.9615 7.35986 62.8018 5.7619C59.6421 4.16394 56.1146 3.52217 52.6214 3.90979C49.1282 4.29741 45.81 5.69881 43.0451 7.95418C41.2119 5.02847 38.5528 2.76572 35.4334 1.47713C32.3141 0.188542 28.8877 -0.0625735 25.6256 0.758318C22.3635 1.57921 19.4259 3.43178 17.2169 6.06124C15.0078 8.6907 13.6358 11.9679 13.2896 15.442C11.4985 16.4314 10.0001 17.9095 8.95492 19.7178C7.90974 21.5261 7.35728 23.5964 7.35677 25.7067C7.35304 26.9037 7.53594 28.0935 7.89835 29.2296C7.33008 29.0373 6.73564 28.9422 6.13814 28.9477C4.51072 28.9495 2.95044 29.6231 1.79968 30.8207C0.648925 32.0184 0.00168874 33.6422 0 35.3359C0 38.8588 2.75311 41.1604 6.13814 41.1604H21.4929L21.4928 41.1602C22.8094 43.5792 24.7192 45.5914 27.0272 46.9913C29.3353 48.3912 31.9589 49.1286 34.6303 49.1284H75.3921C81.0535 49.1284 85.6581 45.279 85.6581 39.3871C85.6552 36.5544 84.5727 33.8386 82.6481 31.8356C80.7235 29.8326 78.114 28.706 75.3921 28.7031ZM29.4488 1.42373C31.9719 1.45914 34.4496 2.12668 36.6722 3.36984C38.8948 4.613 40.7969 6.39517 42.2175 8.5655C41.5257 9.20197 40.8938 9.90564 40.3304 10.667C38.6099 12.7634 37.3361 15.2157 36.5929 17.8619C35.9421 17.7706 35.2868 17.7181 34.6303 17.7048C32.6016 17.6982 30.5925 18.1187 28.724 18.941C26.8554 19.7633 25.166 20.9705 23.7573 22.4899C23.5243 22.7134 23.3028 22.9491 23.085 23.1891C23.0633 23.2131 23.041 23.2362 23.0194 23.2603C22.8364 23.4649 22.6594 23.6753 22.4883 23.8916C22.4282 23.9672 22.3703 24.0448 22.3116 24.1217C22.1592 24.3226 22.0074 24.5237 21.8651 24.7341C21.7753 24.8662 21.6935 25.0055 21.6079 25.1413C21.4344 25.4179 21.2685 25.7006 21.1127 25.9925C21.002 26.1991 20.8932 26.4072 20.7917 26.6216C20.7245 26.7639 20.6612 26.9091 20.5982 27.0548C20.4934 27.2962 20.3948 27.5424 20.3023 27.7933C20.2555 27.9198 20.207 28.0448 20.1632 28.1736C20.0324 28.558 19.9111 28.9494 19.8085 29.3545C18.0831 27.8774 16.6938 26.0204 15.7409 23.9174C14.7879 21.8143 14.2949 19.5175 14.2973 17.1923C14.2973 16.8342 14.3126 16.4799 14.3357 16.1278C14.3406 16.052 14.3464 15.9766 14.3523 15.9012C14.3798 15.5546 14.4145 15.21 14.4629 14.8699C15.0022 11.1336 16.8108 7.72229 19.5604 5.25518C22.31 2.78808 25.8184 1.42869 29.4488 1.42374L29.4488 1.42373ZM6.13814 40.0216C3.2155 40.0216 1.09424 38.051 1.09424 35.3359C1.09575 33.9442 1.62764 32.6099 2.57323 31.6258C3.51882 30.6417 4.80087 30.0881 6.13814 30.0865C6.618 30.0815 7.0955 30.1569 7.55232 30.3099L9.62847 31.0302L8.93645 28.8695C8.61211 27.8493 8.44818 26.7813 8.45101 25.7067C8.4446 23.9213 8.87859 22.164 9.71143 20.6031C10.5443 19.0422 11.7481 17.7298 13.2077 16.7916C13.2046 16.9254 13.2031 17.059 13.203 17.1923C13.203 17.5365 13.215 17.8789 13.2347 18.2198C13.2414 18.3364 13.2534 18.4514 13.2624 18.5673C13.2797 18.7905 13.2986 19.0133 13.3242 19.2346C13.3398 19.3689 13.3591 19.5018 13.3777 19.6351C13.4059 19.8375 13.4363 20.039 13.4714 20.2396C13.495 20.3742 13.5202 20.5082 13.547 20.6415C13.5872 20.8435 13.6311 21.0443 13.6786 21.2439C13.7077 21.3669 13.7365 21.4898 13.7681 21.6117C13.8255 21.8331 13.8889 22.0522 13.9548 22.2705C13.9834 22.3651 14.01 22.4606 14.0402 22.5545C14.1325 22.8424 14.2322 23.1272 14.3392 23.409C14.3473 23.4302 14.3542 23.4521 14.3624 23.4733C14.7305 24.4297 15.1825 25.3489 15.7126 26.2191C15.7202 26.2317 15.7282 26.2439 15.7359 26.2564C15.9007 26.5258 16.0729 26.7903 16.2528 27.0499C16.2723 27.0781 16.2923 27.1059 16.312 27.134C16.4803 27.3742 16.6549 27.6101 16.8357 27.8415C16.866 27.8802 16.8965 27.9187 16.9271 27.9571C17.0983 28.1722 17.2749 28.383 17.4569 28.5897C17.499 28.6377 17.541 28.6857 17.5836 28.7332C17.7548 28.9233 17.9308 29.1095 18.1116 29.2916C18.1676 29.3485 18.2229 29.4061 18.2797 29.4621C18.4491 29.6288 18.6237 29.7907 18.8009 29.9506C18.8707 30.0138 18.939 30.0783 19.0099 30.1402C19.0448 30.1707 19.0774 30.2032 19.1125 30.2334L19.7466 30.7772C19.6055 31.6493 19.5342 32.5322 19.5333 33.4166C19.5307 35.6979 20.0073 37.9521 20.9298 40.0215L6.13814 40.0216ZM75.3921 47.9896H34.6303C32.7888 47.9939 30.9645 47.6202 29.262 46.8897C27.5594 46.1593 26.0121 45.0866 24.7084 43.7329C23.4048 42.3792 22.3706 40.7713 21.6649 39.001C20.9592 37.2308 20.596 35.3331 20.596 33.4166C20.596 31.5001 20.9592 29.6024 21.6649 27.8322C22.3706 26.0619 23.4048 24.454 24.7084 23.1003C26.0121 21.7467 27.5594 20.6739 29.262 19.9435C30.9645 19.213 32.7888 18.8393 34.6303 18.8436C35.1838 18.8534 35.7364 18.8963 36.2852 18.972L36.4721 18.9938L37.3862 19.0995L37.6435 18.1804C38.8312 13.9347 41.4498 10.2771 45.0191 7.87821C48.5884 5.47936 52.8691 4.50017 57.076 5.12022C61.2829 5.74028 65.134 7.91803 67.9229 11.254C70.7118 14.59 72.2516 18.8606 72.2598 23.2825C72.2645 25.162 71.9776 27.03 71.4101 28.8143L70.7181 30.975L72.7942 30.2548C73.6333 29.9728 74.5105 29.8334 75.3921 29.8419C77.8238 29.8447 80.155 30.8513 81.8745 32.6408C83.5939 34.4302 84.5611 36.8564 84.5638 39.3871C84.5638 44.3717 80.7066 47.9896 75.3921 47.9896ZM66.5644 55.1008L67.5336 55.6291L61.4453 67.7239L60.4761 67.1956L66.5644 55.1008ZM52.124 55.1008L53.0932 55.6291L47.0049 67.7239L46.0356 67.1956L52.124 55.1008ZM37.683 55.1008L38.6522 55.6291L32.5639 67.7239L31.5947 67.1956L37.683 55.1008Z" fill="#F8F5ED"/>
</svg>
