<svg width="79" height="88" viewBox="0 0 79 88" fill="none" xmlns="http://www.w3.org/2000/svg">
<path d="M78.4185 63.3352C77.9743 62.573 77.324 61.9374 76.5349 61.4941C75.7457 61.0509 74.8463 60.8161 73.9297 60.8141C73.756 60.814 73.5824 60.8226 73.4097 60.8396C71.5716 61.0802 69.8115 61.7016 68.2538 62.6599C66.1539 63.858 63.3667 65.265 60.4593 66.5599L59.6357 65.1954C60.2605 64.6367 60.7438 63.9506 61.0492 63.1887C61.0492 63.1887 63.2376 56.7989 56.1717 56.7982C55.8379 56.7981 55.4848 56.8123 55.1086 56.8422C54.939 56.8556 54.7782 56.8595 54.61 56.8715L51.9372 52.4442C51.3204 51.3945 50.45 50.4991 49.3977 49.832C48.3454 49.1649 47.1415 48.7451 45.885 48.6072V44.5558H55.374C62.9227 44.5558 69.0421 38.9827 69.0421 32.1079V22.2806H58.2515C55.6913 22.2588 53.1758 22.9192 50.9902 24.1868C48.8045 25.4545 47.036 27.2789 45.885 29.4531V19.7407H51.1666C54.4087 19.7407 57.518 18.5163 59.8104 16.3369C62.1029 14.1574 63.3908 11.2015 63.3908 8.11929V1.86159H56.8086C55.2033 1.86159 53.6137 2.16219 52.1306 2.74622C50.6475 3.33025 49.2999 4.18627 48.1648 5.26542C47.0297 6.34457 46.1292 7.6257 45.5149 9.03568C44.9006 10.4456 44.5844 11.9569 44.5844 13.483V16.0385H44.5833V23.2476C43.4527 21.0355 41.7042 19.1614 39.5291 17.8301C37.3539 16.4988 34.8356 15.7615 32.2495 15.6988C32.265 15.44 32.2801 15.181 32.2801 14.9184C32.2855 11.6863 31.1848 8.54019 29.1443 5.95498C27.1037 3.36978 24.2339 1.48576 20.9682 0.587291C17.7024 -0.31118 14.2178 -0.175344 11.0403 0.974295C7.86289 2.12393 5.16502 4.22499 3.35392 6.96033C1.54282 9.69568 0.716787 12.9169 1.00049 16.1377C1.28419 19.3586 2.66222 22.4043 4.92661 24.8152C7.191 27.2261 10.2188 28.8714 13.5532 29.5026C16.8875 30.1339 20.3473 29.7169 23.4104 28.3146C24.4025 30.9168 26.2188 33.1627 28.6092 34.7429C30.9996 36.323 33.8466 37.1597 36.758 37.1377H44.5833V48.5998C43.2801 48.702 42.0229 49.1056 40.9212 49.7753C39.8195 50.445 38.9067 51.3606 38.2623 52.4424L36.2919 55.7065C35.9004 55.6432 35.5094 55.5797 35.138 55.5199C33.2955 55.23 31.4309 55.0857 29.5633 55.0886C25.2555 55.0886 20.2394 55.8421 15.7994 58.1644C9.22677 61.6021 6.6368 62.0966 3.22408 62.361C-0.409664 62.5491 0.0152673 65.8161 0.0152673 65.8161V80.4323C0.0157476 80.7669 0.0855895 81.098 0.220793 81.4068C0.355997 81.7157 0.553914 81.9961 0.803223 82.2322C1.05253 82.4682 1.34834 82.6552 1.67374 82.7825C1.99913 82.9098 2.34773 82.9749 2.69959 82.974C2.94098 82.9738 3.18127 82.9433 3.41428 82.8834C5.6557 82.3144 7.96589 82.0272 10.2858 82.029C11.5153 82.0291 12.7432 82.1091 13.9612 82.2685C22.1027 83.3331 30.2517 87.25 36.3618 87.25L36.4107 87.2499C40.9718 87.2343 69.3053 73.3872 75.3954 70.3848C76.6922 69.7696 77.7527 68.7822 78.4266 67.5624C78.804 66.9154 79.0014 66.1876 79 65.4478C78.9986 64.708 78.7984 63.9808 78.4185 63.3352ZM45.8851 34.7285C45.8851 28.5471 51.4326 23.5181 58.2515 23.5181H67.7404V32.1079C67.7404 38.2894 62.1928 43.3183 55.374 43.3183H45.8851L45.8851 34.7285ZM45.8861 13.483C45.8894 10.73 47.0412 8.0906 49.0888 6.14392C51.1365 4.19724 53.9127 3.10222 56.8086 3.09911H62.0891V8.11929C62.0858 10.8723 60.934 13.5117 58.8864 15.4584C56.8387 17.405 54.0625 18.5001 51.1666 18.5032H45.8861L45.8861 13.483ZM16.6378 28.552C13.8015 28.552 11.0289 27.7524 8.67058 26.2543C6.31228 24.7562 4.47421 22.627 3.3888 20.1358C2.30339 17.6446 2.0194 14.9034 2.57273 12.2587C3.12607 9.61409 4.49188 7.18484 6.49746 5.27816C8.50303 3.37148 11.0583 2.07302 13.8401 1.54697C16.6219 1.02092 19.5053 1.2909 22.1257 2.32279C24.7461 3.35467 26.9858 5.1021 28.5616 7.34412C30.1374 9.58613 30.9784 12.222 30.9784 14.9185C30.9784 15.1709 30.9703 15.4248 30.9537 15.6829H22.6557V24.1116C22.6557 24.3565 22.6645 24.5994 22.679 24.841C22.6817 24.8859 22.6868 24.9305 22.69 24.9753C22.7047 25.1823 22.724 25.3881 22.749 25.5923C22.7527 25.6219 22.7573 25.6514 22.7613 25.681C22.8241 26.1643 22.9163 26.6438 23.0373 27.1171C21.05 28.0606 18.8591 28.5519 16.6378 28.552ZM44.5813 35.9002H36.758C34.0839 35.9201 31.4705 35.1422 29.2858 33.6761C27.1011 32.2099 25.455 30.1294 24.5793 27.7272C24.5204 27.5594 24.4737 27.3868 24.4227 27.2159C24.3724 27.0468 24.3221 26.8778 24.28 26.7059C24.2404 26.546 24.2068 26.3841 24.1744 26.2218C24.1329 26.0118 24.0977 25.8 24.0687 25.5862C24.0504 25.4541 24.0302 25.3225 24.0167 25.189C23.9816 24.8336 23.9575 24.4753 23.9575 24.1116V16.9204H31.7807C31.8981 16.9204 32.0118 16.9337 32.1284 16.9366C39.0251 17.1085 44.5813 22.3168 44.5813 28.7091L44.5813 35.9002ZM39.3911 53.0588C39.9521 52.1059 40.7614 51.3063 41.7412 50.7366C42.7211 50.1668 43.8385 49.8462 44.9863 49.8055L45.0886 49.8043C46.2607 49.8134 47.4089 50.1201 48.4145 50.6926C49.4201 51.2651 50.2465 52.0826 50.8084 53.0606L53.1605 56.9567C52.1557 57.0041 51.1675 57.0348 50.2143 57.0348C46.0047 56.9997 41.8056 56.6281 37.6615 55.924L39.3911 53.0588ZM77.2642 67.0055C76.7151 67.9942 75.8512 68.7924 74.7962 69.2862C57.9239 77.6041 39.5099 86.0019 36.406 86.0125L36.3618 86.0125C33.2695 86.0125 29.4607 84.8986 25.4282 83.7193C21.7468 82.5399 17.9713 81.6448 14.1385 81.0426C12.8618 80.8758 11.5746 80.7919 10.2858 80.7915C7.85158 80.7886 5.42753 81.0902 3.07605 81.6884C2.95332 81.7201 2.82674 81.7362 2.69957 81.7365C2.33445 81.7375 1.98382 81.6007 1.72462 81.3562C1.46542 81.1118 1.31881 80.7795 1.31695 80.4324V65.7399L1.3071 65.6642C1.26464 65.1401 1.41358 64.618 1.72882 64.1861C1.93313 63.9907 2.17768 63.8375 2.44714 63.7361C2.71661 63.6346 3.0052 63.5872 3.29485 63.5967L3.31237 63.5958L3.32981 63.5944C6.72516 63.3313 9.47114 62.8867 16.4268 59.2486C21.0449 56.8332 26.1195 56.3262 29.5633 56.3262C31.358 56.324 33.1499 56.4624 34.9207 56.7401L35.6629 56.8601C40.4599 57.7388 45.3294 58.2114 50.2143 58.2722C51.8854 58.2722 53.5684 58.206 55.2167 58.0754C55.5493 58.049 55.8702 58.0357 56.1715 58.0357C57.8101 58.0359 58.936 58.4192 59.5178 59.1752C60.3695 60.2818 60.0288 62.1358 59.8186 62.7838C58.3492 66.4394 51.6628 66.8216 48.8035 66.985L48.6507 66.9937C48.0543 67.028 47.361 67.0447 46.5313 67.0447C44.6446 67.0447 42.3954 66.9576 40.0141 66.8654C38.3121 66.7995 36.5522 66.7313 34.846 66.6927C34.7486 66.6905 34.6539 66.6894 34.561 66.6894C30.7077 66.6894 30.3188 68.5675 30.2913 69.1431C30.3123 69.8113 30.6005 70.4468 31.0972 70.9201C31.5938 71.3934 32.2616 71.6688 32.9645 71.6903C35.1478 71.9386 37.3461 72.049 39.5448 72.0206C41.7596 72.0206 44.0058 71.9528 46.178 71.8873L47.6745 71.843C52.7091 71.7007 63.3305 66.9123 68.9236 63.7209C70.3205 62.8606 71.8965 62.2976 73.5436 62.0705C73.6719 62.0579 73.8007 62.0516 73.9297 62.0516C74.6138 62.0517 75.2854 62.2263 75.8744 62.5572C76.4634 62.888 76.9483 63.363 77.2785 63.9327C77.5577 64.4017 77.7033 64.9319 77.7007 65.4709C77.6982 66.0098 77.5478 66.5388 77.2642 67.0055ZM59.2715 67.0785C54.8392 68.9825 50.3073 70.5306 47.6358 70.6061C45.1188 70.6773 42.267 70.7831 39.5448 70.7831C37.3966 70.8101 35.2489 70.7025 33.1157 70.4609C31.2455 70.2995 30.4561 67.927 34.561 67.927C34.6438 67.927 34.7282 67.9279 34.815 67.9299C38.8761 68.0218 43.2472 68.2822 46.5313 68.2822C47.3361 68.2822 48.0756 68.2666 48.7294 68.229C50.988 68.0991 55.6041 67.8668 58.6056 65.9752L59.2715 67.0785Z" fill="#F8F5ED"/>
</svg>
