<?xml version="1.0" encoding="utf-8"?>
<!DOCTYPE svg PUBLIC "-//W3C//DTD SVG 1.1//EN" "http://www.w3.org/Graphics/SVG/1.1/DTD/svg11.dtd">
<svg version="1.1" id="Layer_1" xmlns="http://www.w3.org/2000/svg" xmlns:xlink="http://www.w3.org/1999/xlink" x="0px" y="0px"
	 width="33.358px" height="20.111px" viewBox="0.958 -6.111 33.358 20.111" enable-background="new 0.958 -6.111 33.358 20.111"
	 xml:space="preserve">
<path fill="#0F190C" d="M10.853,13.693c0.019,0.07-0.012,0.141-0.092,0.212c-0.057,0.065-0.115,0.08-0.174,0.046L1.169,9.543
	C1.057,9.498,0.989,9.43,0.964,9.337C0.946,9.268,0.97,9.174,1.038,9.057l5.971-8.458c0.017-0.029,0.06-0.053,0.13-0.072
	c0.069-0.019,0.122-0.008,0.158,0.032C7.361,0.616,7.38,0.686,7.352,0.768L4.1,7.826l17.074-4.575c0.047-0.013,0.1,0.048,0.16,0.181
	c0.09,0.15,0.156,0.306,0.2,0.468c0.044,0.162,0.069,0.304,0.077,0.426c0.014,0.146-0.002,0.225-0.049,0.237L4.489,9.138
	l6.311,4.496L10.853,13.693z"/>
<path fill="#0F190C" d="M24.421-3.875c-0.018-0.07,0.013-0.141,0.093-0.212c0.058-0.065,0.115-0.08,0.174-0.046l9.418,4.408
	c0.112,0.045,0.18,0.113,0.204,0.206c0.02,0.069-0.006,0.163-0.073,0.28l-5.971,8.459c-0.017,0.029-0.06,0.054-0.13,0.071
	c-0.069,0.02-0.122,0.009-0.158-0.031c-0.064-0.058-0.083-0.127-0.055-0.209l3.252-7.06L14.101,6.567
	c-0.047,0.013-0.1-0.048-0.16-0.181c-0.09-0.15-0.156-0.306-0.2-0.469c-0.044-0.162-0.069-0.304-0.077-0.426
	c-0.014-0.146,0.002-0.225,0.049-0.236L30.786,0.68l-6.312-4.496L24.421-3.875z"/>
</svg>
