<svg viewBox="0 0 19 29" fill="none" xmlns="http://www.w3.org/2000/svg">
  <path
    d="M18.392 17.312C18.488 17.312 18.568 17.376 18.632 17.504C18.696 17.6 18.696 17.68 18.632 17.744L9.704 28.352C9.608 28.48 9.496 28.544 9.368 28.544C9.272 28.544 9.16 28.48 9.032 28.352L0.2 17.744C0.168 17.712 0.152 17.648 0.152 17.552C0.152 17.456 0.184 17.392 0.248 17.36C0.344 17.296 0.44 17.296 0.536 17.36L8.504 23.984V0.415998C8.504 0.351998 8.6 0.303999 8.792 0.271999C9.016 0.207998 9.24 0.175998 9.464 0.175998C9.688 0.175998 9.88 0.191998 10.04 0.224C10.232 0.256 10.328 0.303999 10.328 0.367998V23.936L18.296 17.36L18.392 17.312Z"
    fill="#FFAA2B" />
</svg>