<svg id="logo-icon" viewBox="0 0 29 30" fill="none" xmlns="http://www.w3.org/2000/svg">
  <path
    d="M12.7472 29.9547C8.77902 29.6247 5.76777 28.8545 2.4756 27.3233C1.00948 26.6356 0.640758 26.3973 0.31593 25.8838C-0.0352351 25.352 -0.0703517 24.8752 0.0964519 23.1515C0.948028 14.2578 5.40783 6.2443 12.4399 0.98143C13.5549 0.147072 13.8797 -0.00879708 14.503 0.000371684C15.1527 0.000371684 15.3985 0.128734 16.7856 1.18314C23.5192 6.31765 27.8034 13.9186 28.813 22.5005C29.1642 25.5262 28.9974 26.0397 27.3645 26.9015C24.283 28.5244 20.3938 29.6063 16.5749 29.9181C15.4775 30.0098 13.59 30.0281 12.7472 29.9547ZM18.0586 28.231C19.3052 28.0476 20.5606 27.7909 21.6844 27.4792L22.5359 27.2408V25.8288C22.5359 24.1876 22.4306 23.1057 22.1321 21.4553C21.5702 18.4388 20.3675 15.4039 18.6819 12.7633C18.0673 11.7914 17.9181 11.6172 17.7952 11.6814C17.5933 11.8006 15.9604 13.4876 15.6619 13.9002L15.416 14.2303L15.9516 15.083C17.128 16.9626 18.1464 19.5115 18.6204 21.7762C18.9014 23.1057 18.9101 23.4816 18.6468 23.885C18.1464 24.6552 17.6898 24.7469 14.2835 24.7469C12.5979 24.7377 11.8078 24.701 11.0792 24.5818C8.08547 24.0867 5.53074 23.2157 2.96723 21.8037C2.37025 21.4736 1.86984 21.2261 1.8435 21.2536C1.74693 21.3453 1.54501 23.2524 1.52745 24.1509L1.50989 25.1136L1.94885 25.3612C3.26572 26.1222 5.91702 27.1399 7.81331 27.635C9.05117 27.9468 10.6929 28.2402 11.9571 28.3594C13.2037 28.4877 16.8383 28.4052 18.0586 28.231ZM26.2232 25.7738C27.5576 25.1411 27.5664 25.1411 27.4961 24.2609C26.9957 17.9528 24.9853 12.5432 21.3946 7.83967C20.5167 6.6844 18.875 4.89649 18.6907 4.89649C18.5239 4.89649 16.8822 5.9234 16.013 6.56521C12.9667 8.82073 10.4119 11.9931 8.69123 15.6698L8.13814 16.8617L8.48053 17.0268C8.90193 17.2193 11.1318 17.8245 11.4128 17.8245C11.5708 17.8153 11.6849 17.6503 12.0097 16.9259C12.4575 15.9632 13.3968 14.4228 14.1694 13.3868C14.8454 12.4882 16.8997 10.3794 17.286 10.1869C17.4616 10.1044 17.7513 10.031 17.9444 10.031C18.559 10.031 18.954 10.4161 19.9636 12.0023C22.5096 16.009 24.0284 21.0794 24.0284 25.5904V26.7182L24.6254 26.4798C24.9502 26.3606 25.6701 26.0397 26.2232 25.7738ZM16.4256 23.179L17.3738 23.124L17.3211 22.7389C17.2421 22.2163 16.8734 20.7218 16.6715 20.1167L16.5047 19.6124L14.6259 19.6032C12.0888 19.594 10.5436 19.3465 8.37518 18.5946C7.29534 18.2187 6.88273 17.907 6.7247 17.366C6.57546 16.8434 6.67203 16.5225 7.47093 14.8263C8.23471 13.2217 9.44623 11.2321 10.4207 9.98516C12.1326 7.77549 14.3274 5.78586 16.6802 4.29136L17.5406 3.7504L17.1631 3.40198C16.4432 2.74183 14.7049 1.50405 14.503 1.50405C14.2748 1.50405 13.5461 1.99916 12.3346 2.97105C8.06791 6.38183 4.73184 11.2413 2.94967 16.6234C2.52827 17.907 2.14199 19.4382 2.21222 19.5574C2.29124 19.6949 3.73979 20.5384 4.73184 21.0244C7.28657 22.2713 10.1837 23.0415 13.0281 23.234C14.1255 23.3074 14.4855 23.2982 16.4256 23.179ZM15.7058 18.0262C15.8462 17.9712 15.8023 17.852 15.3722 17.0451C15.1 16.5408 14.7927 15.9999 14.6786 15.8348L14.4855 15.5231L14.1343 16.1007C13.9324 16.4216 13.6251 16.9626 13.4495 17.311C13.1774 17.8153 13.1423 17.9528 13.2388 18.017C13.3793 18.1087 15.4863 18.1179 15.7058 18.0262Z"
    fill="#0F190C" />
</svg>