<svg width="104" height="87" viewBox="0 0 104 87" fill="none" xmlns="http://www.w3.org/2000/svg">
<path d="M15.5627 18.7005C15.5627 17.2409 15.1064 15.8142 14.2514 14.6005C13.3965 13.3869 12.1812 12.441 10.7594 11.8824C9.33751 11.3239 7.77294 11.1777 6.26348 11.4624C4.75403 11.7471 3.3675 12.4499 2.27922 13.4819C1.19095 14.514 0.449817 15.8289 0.149545 17.2604C-0.150727 18.6919 0.00334858 20.1757 0.592289 21.5241C1.18123 22.8726 2.17858 24.0251 3.45822 24.836C4.73786 25.6469 6.24232 26.0797 7.78133 26.0797C9.84428 26.0775 11.8221 25.2993 13.2808 23.9159C14.7396 22.5326 15.5602 20.6569 15.5627 18.7005ZM7.78133 24.7426C6.52127 24.7426 5.28952 24.3881 4.24185 23.7242C3.19417 23.0602 2.37763 22.1166 1.89547 21.0125C1.41331 19.9084 1.28719 18.6936 1.53306 17.5215C1.77893 16.3495 2.38574 15.2729 3.27677 14.428C4.16779 13.583 5.30301 13.0076 6.53887 12.7745C7.77473 12.5413 9.05572 12.661 10.2199 13.1183C11.384 13.5757 12.379 14.3501 13.0791 15.3437C13.7791 16.3373 14.1528 17.5055 14.1528 18.7005C14.1508 20.3025 13.4789 21.8383 12.2844 22.971C11.09 24.1037 9.4705 24.7408 7.78133 24.7426ZM88.4798 15.804H85.6118V14.4669H88.4798V11.7473H89.8897V14.4669H92.7577V15.804H89.8897V18.5239H88.4798V15.804ZM86.4166 71.989H88.1129V73.3261H86.4166V74.9341H85.0067V73.3261H83.3104V71.989H85.0067V70.3802H86.4166V71.989ZM8.48628 18.0319H10.1826V19.3691H8.48628V20.9778H7.07638V19.3691H5.38011V18.0319H7.0764V16.4236H8.48631L8.48628 18.0319ZM100.352 38.727L100.392 38.6676L100.339 38.6362C99.829 34.4855 98.6749 30.4291 96.914 26.5985C98.6674 25.5375 100.157 24.1276 101.279 22.4667C102.401 20.8057 103.129 18.9333 103.412 16.9792C103.695 15.025 103.527 13.0358 102.92 11.1493C102.312 9.2627 101.28 7.52392 99.8937 6.05332C98.5074 4.58271 96.8007 3.41543 94.8917 2.63231C92.9827 1.84918 90.917 1.46892 88.8377 1.51787C86.7584 1.56682 84.7152 2.0438 82.8495 2.91578C80.9838 3.78776 79.3402 5.03391 78.0327 6.56793C71.192 2.84031 63.4378 0.884592 55.5483 0.897032C47.6589 0.909472 39.9116 2.88964 33.084 6.6388C26.2565 10.388 20.5888 15.7743 16.6498 22.2571C12.7107 28.74 10.639 36.0913 10.6423 43.5735C10.6423 44.5605 10.6905 45.5364 10.76 46.5067L10.7519 46.5147L10.7613 46.5229C11.2954 53.8979 13.8416 61.0146 18.1502 67.1749C22.4587 73.3353 28.3817 78.3279 35.3381 81.6629C42.2946 84.998 50.0456 86.561 57.831 86.1987C65.6165 85.8365 73.1689 83.5613 79.7477 79.5964C81.5576 80.9901 83.8453 81.7026 86.1741 81.598C88.5028 81.4933 90.7093 80.5789 92.3722 79.0292C94.035 77.4795 95.0377 75.4032 95.1887 73.1969C95.3397 70.9906 94.6284 68.8088 93.1907 67.0683C98.0596 60.1033 100.652 51.9301 100.642 43.5735C100.642 41.9541 100.545 40.336 100.352 38.727V38.727ZM89.1848 2.85077C91.7468 2.85074 94.2513 3.57121 96.3815 4.92107C98.5118 6.27093 100.172 8.18956 101.153 10.4343C102.133 12.6791 102.39 15.1492 101.89 17.5322C101.39 19.9153 100.156 22.1042 98.3446 23.8223C96.533 25.5404 94.2248 26.7104 91.712 27.1844C89.1992 27.6584 86.5947 27.4151 84.2277 26.4853C81.8607 25.5555 79.8376 23.9809 78.4143 21.9606C76.9909 19.9403 76.2312 17.5652 76.2313 15.1354C76.2352 11.8785 77.6012 8.75599 80.0296 6.45297C82.458 4.14995 85.7505 2.85449 89.1848 2.85077ZM74.7538 15.1355C74.7534 17.4767 75.3864 19.7788 76.5922 21.8217C77.7981 23.8646 79.5364 25.5799 81.641 26.8036C83.7456 28.0272 86.146 28.7183 88.6128 28.8108C91.0795 28.9032 93.5299 28.3939 95.7298 27.3315C97.2277 30.6441 98.2563 34.1304 98.7888 37.6992C96.6753 36.4632 94.6479 35.0994 92.7192 33.6163C92.565 33.4749 92.4163 33.3287 92.2703 33.1851C91.5158 32.4447 90.7358 31.6802 89.6467 31.8388C88.5735 31.9965 87.6186 33.0121 86.4552 35.2342C84.2116 39.5168 82.2558 40.3061 74.8166 39.9264C69.4096 39.6506 68.6393 34.4625 68.1794 31.3626C68.1107 30.733 67.9879 30.1099 67.8125 29.4992C65.3541 22.6064 58.6103 22.7699 55.8249 23.1584C48.12 24.2357 44.1656 21.1922 43.8476 19.4017C43.7462 18.8405 43.766 18.2656 43.9058 17.7118C44.0455 17.1581 44.3023 16.637 44.6606 16.1801C46.1903 14.1675 49.7199 12.7002 54.868 11.9373C63.19 10.7041 65.452 6.23452 65.5629 3.32186C69.6158 4.22074 73.5114 5.6671 77.1306 7.61662C75.5821 9.84947 74.7559 12.463 74.7538 15.1355ZM12.214 47.0017C14.9174 44.3924 20.1248 40.5502 24.4772 40.8669C25.4185 40.9436 26.3277 41.2291 27.1314 41.7004C27.935 42.1716 28.6105 42.8155 29.1034 43.58C32.7335 48.6248 35.5044 49.0942 37.1932 48.6039C37.9989 48.3346 38.7039 47.8475 39.2213 47.2029C39.7387 46.5582 40.046 45.7841 40.1052 44.9758C40.0729 44.4633 39.9992 43.9539 39.8849 43.452C39.3328 40.5362 38.3043 35.1088 43.9542 33.5037C49.6138 31.8966 54.7316 37.0945 55.694 38.4679C55.7711 38.5776 55.873 38.7108 55.9921 38.8652C56.7749 39.8804 58.2302 41.7702 57.749 44.1891C57.3001 46.4448 55.2617 48.6816 51.6887 50.8374C49.5436 52.1321 48.6369 53.2459 48.8352 54.3421C49.1471 56.0709 52.1569 56.7323 54.8128 57.3154C55.7167 57.4636 56.5997 57.7094 57.4447 58.0479C57.9858 58.6303 56.8458 61.4037 56.0135 63.429C55.5412 64.5774 55.0531 65.765 54.66 66.9304C53.1847 71.3021 61.9801 76.2888 62.3333 76.486C63.4834 77.1857 65.3436 79.6435 64.5507 84.0437C58.5066 85.238 52.264 85.2011 46.236 83.9356C40.208 82.6701 34.5323 80.2048 29.5844 76.7029C24.6365 73.201 20.5293 68.7423 17.5348 63.622C14.5402 58.5017 12.7266 52.8366 12.214 47.0018V47.0017ZM85.7123 80.2675C84.5681 80.2673 83.437 80.0366 82.3938 79.5908C81.3507 79.145 80.4192 78.4942 79.6611 77.6814C78.903 76.8687 78.3355 75.9125 77.9962 74.8762C77.6569 73.8399 77.5535 72.7471 77.6928 71.67C77.8322 70.593 78.2111 69.5563 78.8046 68.6285C79.398 67.7007 80.1924 66.903 81.1353 66.2882C82.0781 65.6734 83.1478 65.2555 84.2737 65.0621C85.3996 64.8687 86.556 64.9043 87.6663 65.1664C87.6938 65.1729 87.7211 65.1797 87.7486 65.1865C88.0278 65.2554 88.303 65.3385 88.5729 65.4354C88.6055 65.4471 88.6387 65.4574 88.6711 65.4695C89.2399 65.6815 89.7815 65.9538 90.2858 66.2812C90.3695 66.336 90.4483 66.3968 90.5297 66.4543C90.6724 66.5545 90.8127 66.6572 90.9481 66.7658C91.0679 66.8626 91.1839 66.9638 91.2975 67.067C91.377 67.1386 91.4542 67.212 91.5306 67.2865C91.6675 67.4213 91.8024 67.558 91.9288 67.702C91.9502 67.7262 91.9699 67.7517 91.991 67.7761C92.9539 68.9006 93.561 70.2609 93.7418 71.6993C93.9226 73.1377 93.6697 74.5952 93.0125 75.9028C92.3552 77.2104 91.3205 78.3145 90.0285 79.0871C88.7363 79.8596 87.2398 80.2689 85.7123 80.2675H85.7123ZM92.2201 66.0402C92.118 65.9498 92.0075 65.8696 91.9016 65.7838C91.8208 65.7177 91.741 65.6512 91.6579 65.5877C91.5374 65.4964 91.4131 65.4108 91.2883 65.3253C91.1522 65.2312 91.0157 65.138 90.8743 65.0507C90.7993 65.0049 90.7223 64.9629 90.646 64.9191C90.4514 64.8062 90.2543 64.6974 90.0508 64.5977C90.0275 64.5864 90.0035 64.5765 89.9801 64.5654C88.6106 63.905 87.0918 63.5718 85.5557 63.5946C84.0195 63.6174 82.5124 63.9956 81.1654 64.6963C79.896 65.3465 78.7988 66.2615 77.9565 67.3724C77.1142 68.4833 76.5489 69.761 76.3031 71.1093C76.0573 72.4575 76.1375 73.8411 76.5376 75.1557C76.9377 76.4702 77.6473 77.6815 78.6129 78.6982C74.7244 80.9947 70.4765 82.6919 66.0274 83.7264C66.6868 78.9672 64.4672 76.1955 63.0726 75.3474C59.8948 73.5676 55.1653 69.8187 56.0024 67.3378C56.3825 66.2122 56.8623 65.0442 57.327 63.9147C58.6033 60.8102 59.6112 58.3574 58.5028 57.1639C58.045 56.671 57.0317 56.4307 55.1309 56.0128C53.4697 55.6479 50.3787 54.9689 50.2244 54.1162C50.2024 53.9941 50.2059 53.3171 52.446 51.9656C56.3604 49.6028 58.6109 47.0703 59.1348 44.4372C59.7289 41.449 57.9741 39.171 57.1308 38.0765C57.0261 37.9403 56.936 37.8238 56.8685 37.7275C55.7209 36.091 50.1033 30.3587 43.5494 32.2227C36.694 34.1706 37.9119 40.5989 38.497 43.6883C38.5924 44.113 38.6586 44.543 38.6953 44.9758C38.6303 45.4957 38.4175 45.989 38.0797 46.403C37.7419 46.817 37.2917 47.1362 36.7773 47.3262C35.037 47.8348 32.7231 46.2391 30.2682 42.8265C29.6596 41.8932 28.8279 41.1088 27.8404 40.5368C26.8529 39.9647 25.7373 39.6211 24.5839 39.5337C20.375 39.2342 15.5092 42.1861 12.0967 45.235C12.0735 44.6831 12.0523 44.1307 12.0523 43.5735C12.0508 37.4597 13.4795 31.4218 16.2356 25.8949C18.9916 20.3681 23.0062 15.4899 27.99 11.612C32.9739 7.73412 38.8028 4.95315 45.0567 3.46952C51.3106 1.98589 57.8337 1.83656 64.1558 3.0323C64.2009 5.4416 62.3314 9.47793 54.6503 10.6165C49.0431 11.4473 45.2973 13.0563 43.517 15.3982C43.0481 15.9979 42.7123 16.6817 42.5301 17.408C42.3478 18.1344 42.3229 18.8883 42.4569 19.624C42.9298 22.2822 47.5678 25.6655 56.0299 24.4811C63.0781 23.4956 65.6005 27.47 66.4769 29.9275C66.6196 30.4604 66.722 31.0022 66.7832 31.5489C67.2699 34.8261 68.1745 40.9263 74.7408 41.2616C75.832 41.3171 76.8226 41.3504 77.7279 41.3504C83.0674 41.3504 85.4266 40.2046 87.7177 35.8289C88.8798 33.6104 89.5599 33.2047 89.8622 33.1603C90.2284 33.109 90.7516 33.6189 91.2562 34.1144C91.4125 34.2679 91.5722 34.4239 91.7361 34.5754C93.0468 35.7829 97.3825 38.4389 99.0157 39.4242C99.1592 40.7947 99.2314 42.1778 99.2324 43.5735C99.2473 51.5496 96.8105 59.3569 92.2201 66.0402H92.2201Z" fill="#F8F5ED"/>
</svg>
