<svg width="103" height="80" viewBox="0 0 103 80" fill="none" xmlns="http://www.w3.org/2000/svg">
<path d="M34.344 16.9108C34.3439 14.8049 34.7811 12.7197 35.6308 10.7741C36.4804 8.8285 37.7258 7.06067 39.2959 5.57155C40.8659 4.08242 42.7299 2.90116 44.7813 2.0952C46.8327 1.28923 49.0315 0.874363 51.2519 0.874268H51.2527L51.252 2.19144C47.1359 2.19153 43.1883 3.74233 40.2778 6.50269C37.3672 9.26304 35.7321 13.0068 35.7322 16.9105C35.7322 20.8142 37.3674 24.5579 40.278 27.3182C43.1886 30.0785 47.1362 31.6292 51.2524 31.6292C55.3686 31.6292 59.3162 30.0785 62.2268 27.3182C65.1374 24.5579 66.7726 20.8142 66.7726 16.9105C66.7727 13.0068 65.1376 9.26304 62.227 6.50269C59.3165 3.74233 55.3689 2.19153 51.2527 2.19144V0.874268C54.597 0.874271 57.8661 1.81474 60.6467 3.57674C63.4273 5.33874 65.5945 7.84313 66.8743 10.7732C68.1541 13.7033 68.489 16.9276 67.8367 20.0382C67.1843 23.1488 65.574 26.0061 63.2093 28.2487C60.8447 30.4914 57.8319 32.0187 54.5519 32.6375C51.272 33.2564 47.8722 32.9389 44.7826 31.7253C41.6929 30.5117 39.052 28.4565 37.194 25.8195C35.3359 23.1826 34.3441 20.0823 34.344 16.9108ZM75.0349 31.5673C75.0349 29.7758 75.5949 28.0246 76.6443 26.5349C77.6938 25.0453 79.1854 23.8843 80.9306 23.1987C82.6758 22.513 84.5961 22.3335 86.4489 22.683C88.3016 23.0324 90.0035 23.895 91.3393 25.1617C92.6751 26.4284 93.5848 28.0423 93.9534 29.7994C94.3221 31.5564 94.133 33.3777 93.4102 35.0328C92.6874 36.688 91.4633 38.1027 89.8927 39.0981C88.3221 40.0934 86.4755 40.6248 84.5865 40.6248C82.0534 40.625 79.624 39.6707 77.8327 37.9721C76.0415 36.2735 75.0351 33.9696 75.035 31.5673H75.0349ZM76.4238 31.5673C76.4239 33.0982 76.9027 34.5948 77.7996 35.8677C78.6965 37.1406 79.9713 38.1327 81.4627 38.7185C82.9542 39.3044 84.5953 39.4576 86.1786 39.1589C87.7618 38.8602 89.2162 38.1229 90.3576 37.0404C91.4991 35.9578 92.2764 34.5785 92.5913 33.077C92.9063 31.5754 92.7446 30.0191 92.1268 28.6046C91.5091 27.1902 90.4629 25.9813 89.1207 25.1307C87.7784 24.2802 86.2004 23.8262 84.5861 23.8262C82.422 23.8285 80.3473 24.6448 78.8171 26.0961C77.2869 27.5473 76.4262 29.515 76.4238 31.5673H76.4238ZM8.36841 31.5673C8.36832 29.7758 8.9284 28.0246 9.97781 26.5349C11.0272 25.0453 12.5188 23.8843 14.264 23.1987C16.0092 22.513 17.9296 22.3335 19.7824 22.683C21.6351 23.0324 23.337 23.895 24.6728 25.1617C26.0086 26.4284 26.9183 28.0424 27.2869 29.7994C27.6555 31.5565 27.4665 33.3777 26.7436 35.0329C26.0208 36.688 24.7967 38.1027 23.2261 39.0981C21.6555 40.0935 19.8089 40.6248 17.9199 40.6248C16.6656 40.6249 15.4236 40.3907 14.2648 39.9355C13.106 39.4804 12.0531 38.8132 11.1662 37.9721C10.2792 37.1311 9.57565 36.1325 9.09561 35.0336C8.61558 33.9347 8.36848 32.7568 8.36843 31.5673H8.36841ZM9.75729 31.5673C9.75736 33.3582 10.4122 35.0936 11.6102 36.478C12.8083 37.8623 14.4754 38.8098 16.3275 39.1591C18.1796 39.5085 20.1021 39.2379 21.7675 38.3936C23.4328 37.5494 24.738 36.1836 25.4606 34.529C26.1832 32.8744 26.2785 31.0334 25.7302 29.3197C25.182 27.6059 24.0241 26.1255 22.454 25.1306C20.8838 24.1357 18.9984 23.6879 17.1191 23.8635C15.2399 24.0391 13.4829 24.8273 12.1477 26.0937C10.6179 27.5459 9.75824 29.5145 9.75731 31.5673H9.75729ZM102.506 54.8044C102.506 64.981 85.9322 71.4132 85.227 71.682L84.5895 71.9238L83.9526 71.6884C80.0069 70.1274 76.3208 68.0316 73.0097 65.4667C66.2424 74.1222 52.8185 79.3383 52.0635 79.6262L51.2555 79.9324L50.4481 79.6333C49.6882 79.3434 36.2582 74.1249 29.492 65.4666C26.1837 68.0279 22.5017 70.1215 18.5607 71.682L17.9229 71.9238L17.2861 71.6884C14.1707 70.4508 11.2085 68.8916 8.45302 67.0391C2.8439 63.2136 0 59.0981 0 54.8076C0 49.1987 4.93978 46.2639 9.81953 46.2639C11.3629 46.2258 12.895 46.5228 14.2988 47.1323C15.7026 47.7417 16.941 48.6474 17.9192 49.7801C18.8973 48.647 20.1357 47.7412 21.5397 47.1317C22.9437 46.5223 24.476 46.2255 26.0196 46.264C27.2432 46.2694 28.4579 46.462 29.6168 46.8344C32.3851 44.6042 35.9123 43.4016 39.5443 43.4496C44.4132 43.4496 48.7924 45.4498 51.2525 48.7331C53.7105 45.4498 58.0901 43.4496 62.9614 43.4496C66.5938 43.4015 70.1214 44.604 72.8904 46.8342C74.0488 46.4619 75.263 46.2694 76.4861 46.264C78.0294 46.2259 79.5616 46.5229 80.9654 47.1323C82.3692 47.7417 83.6075 48.6474 84.5858 49.7801C85.5639 48.647 86.8023 47.7412 88.2063 47.1317C89.6103 46.5223 91.1426 46.2255 92.6861 46.264C97.5659 46.264 102.506 49.1974 102.506 54.8044H102.506ZM27.2534 61.9622C27.2173 61.8897 27.1855 61.8158 27.1505 61.7429C27.0062 61.4404 26.8695 61.1377 26.7462 60.8341C26.6923 60.7022 26.6438 60.5687 26.5935 60.4356C26.4981 60.1812 26.408 59.9266 26.3273 59.6717C26.277 59.5133 26.2302 59.354 26.1852 59.1941C26.1172 58.9512 26.0569 58.7081 26.0023 58.4649C25.9654 58.3009 25.9286 58.1372 25.8976 57.9717C25.8482 57.7072 25.8109 57.4425 25.7773 57.1778C25.7591 57.0343 25.736 56.892 25.7225 56.7474C25.6835 56.3337 25.6595 55.92 25.6595 55.5061C25.6595 55.1674 25.6768 54.8382 25.7018 54.5134C25.7064 54.4546 25.7112 54.396 25.7167 54.3375C25.9003 51.9583 26.884 49.6977 28.523 47.888C27.7056 47.6855 26.8644 47.5824 26.0196 47.5811C22.7742 47.5811 19.9015 49.0038 18.5228 51.2941L17.9199 52.2948L17.3166 51.2941C15.9359 49.0038 13.0632 47.5811 9.81949 47.5811C5.63012 47.5811 1.38885 50.0631 1.38885 54.8076C1.38885 64.0896 17.1271 70.2079 17.7971 70.4639L17.9161 70.5076L18.0436 70.4594C21.8839 68.943 25.4687 66.9002 28.6834 64.3964C28.147 63.6178 27.6692 62.8044 27.2534 61.9622ZM72.2229 64.2825L72.3303 64.1353C72.8255 63.4587 73.2749 62.7531 73.6759 62.0226L73.7055 61.9689C73.8814 61.6444 74.0419 61.3194 74.1914 60.994C74.215 60.9427 74.2387 60.8914 74.2616 60.8399C74.3933 60.5451 74.5123 60.2499 74.6223 59.9545C74.6563 59.8628 74.6888 59.7706 74.7209 59.6783C74.8124 59.4162 74.8955 59.154 74.9702 58.8916C75.0093 58.7526 75.0435 58.6123 75.078 58.4721C75.1339 58.2473 75.1876 58.0224 75.2309 57.7975C75.2694 57.5947 75.2976 57.3895 75.3262 57.1843C75.3505 57.0124 75.3796 56.8403 75.3965 56.6684C75.4336 56.2829 75.4573 55.8944 75.4573 55.501C75.456 55.1051 75.4338 54.7096 75.3906 54.3159C75.3749 54.1685 75.3477 54.0258 75.326 53.8807C75.2917 53.6492 75.2551 53.4191 75.2064 53.1962C75.1695 53.0277 75.1241 52.8628 75.0788 52.6977C75.0268 52.5077 74.9718 52.3197 74.9095 52.1364C74.852 51.9674 74.7895 51.8008 74.723 51.636C74.654 51.465 74.5803 51.2972 74.5019 51.1328C74.4261 50.9724 74.3483 50.813 74.2636 50.6571C74.1764 50.4969 74.0822 50.342 73.9866 50.1881C73.8948 50.04 73.8034 49.8917 73.7031 49.7483C73.5985 49.5988 73.4855 49.4564 73.3729 49.3135C73.2647 49.1759 73.1587 49.0369 73.0423 48.9042C72.9281 48.7741 72.8052 48.6522 72.6846 48.5282C72.5524 48.3923 72.4233 48.2546 72.2819 48.1246C69.7437 45.9138 66.4072 44.7118 62.9613 44.7667C58.1593 44.7667 53.9037 46.8795 51.8557 50.2811L51.2531 51.2819L50.6499 50.2811C48.5991 46.8795 44.3436 44.7667 39.5442 44.7667C36.095 44.7116 32.7556 45.9164 30.2171 48.1318C30.0852 48.2535 29.9647 48.3825 29.8407 48.5093C29.7115 48.6415 29.5806 48.7719 29.4588 48.9109C29.3477 49.0379 29.2465 49.1708 29.1428 49.3023C29.0256 49.4507 28.9084 49.5988 28.7997 49.7543C28.702 49.8943 28.6129 50.0391 28.5232 50.1835C28.4255 50.3406 28.3295 50.4988 28.2404 50.6625C28.157 50.8164 28.0802 50.9737 28.0054 51.132C27.9264 51.2988 27.8518 51.4686 27.7816 51.6414C27.7158 51.805 27.6537 51.9703 27.5967 52.138C27.534 52.3224 27.4787 52.5114 27.4264 52.7025C27.3813 52.8671 27.336 53.0317 27.2992 53.1999C27.2504 53.4231 27.2138 53.6536 27.1794 53.8855C27.1579 54.0303 27.1307 54.173 27.115 54.3201C27.0718 54.7141 27.0495 55.11 27.0483 55.5061C27.0483 55.8994 27.0719 56.2877 27.1091 56.673C27.1259 56.8448 27.155 57.0166 27.1792 57.1884C27.2078 57.3938 27.2361 57.5993 27.2747 57.8023C27.3178 58.0264 27.3712 58.2505 27.4269 58.4746C27.4616 58.6156 27.496 58.7566 27.5352 58.8963C27.6094 59.1578 27.6922 59.4192 27.7836 59.6804C27.8159 59.7734 27.8487 59.8664 27.8829 59.9589C27.9925 60.253 28.1109 60.547 28.242 60.8406C28.2655 60.8935 28.2897 60.9461 28.3139 60.9987C28.4628 61.3226 28.6224 61.6462 28.7974 61.9692C28.8077 61.9883 28.8185 62.0074 28.8289 62.0265C29.2292 62.7558 29.6777 63.4604 30.1719 64.1359L30.2647 64.2633C36.6103 72.8363 50.2126 78.1237 50.9598 78.4088L51.25 78.5162L51.5467 78.4036C52.2922 78.1193 65.8696 72.8413 72.2229 64.2825ZM101.117 54.8044C101.117 50.0624 96.8755 47.5811 92.6861 47.5811C89.4404 47.5811 86.5681 49.0038 85.1893 51.2941L84.5865 52.2948L83.9832 51.2941C82.6025 49.0038 79.7298 47.5811 76.4861 47.5811C75.6418 47.5824 74.8011 47.6855 73.9842 47.8878C75.6222 49.6961 76.6053 51.9551 76.789 54.3327C76.7944 54.3914 76.7993 54.4503 76.8039 54.5093C76.8289 54.8338 76.8462 55.1626 76.8462 55.5009C76.8462 55.9148 76.8221 56.3286 76.7832 56.7423C76.7696 56.887 76.7465 57.0293 76.7283 57.1728C76.6947 57.4379 76.6574 57.703 76.6078 57.9678C76.5769 58.133 76.5401 58.2964 76.5032 58.4601C76.4486 58.7034 76.3883 58.9467 76.3202 59.1897C76.2752 59.3497 76.2284 59.5091 76.178 59.6676C76.0973 59.9225 76.0072 60.177 75.9117 60.4314C75.8615 60.5645 75.8129 60.6982 75.759 60.8302C75.6361 61.1325 75.4999 61.4342 75.3562 61.7356C75.3206 61.8098 75.288 61.8851 75.2513 61.959C74.8347 62.8026 74.3559 63.6173 73.8185 64.397C77.0345 66.9027 80.6212 68.9468 84.4637 70.4639L84.5827 70.5076L84.7102 70.4594C85.3789 70.2047 101.117 64.1012 101.117 54.8044Z" fill="#F8F5ED"/>
</svg>
