<svg width="108" height="96" viewBox="0 0 108 96" fill="none" xmlns="http://www.w3.org/2000/svg">
<path d="M67.2886 3.35746C64.6943 2.64183 62.0415 2.13292 59.3578 1.83604L59.5186 0.527712C61.6566 0.76373 63.7762 1.13098 65.8641 1.62714L65.8645 1.62726C65.9208 1.64065 65.977 1.6541 66.0331 1.66762H66.0331L66.0512 1.672L66.0524 1.67228L66.0703 1.67662L66.0707 1.6767L66.1265 1.69025L66.1274 1.69049L66.1442 1.69455L66.1469 1.69521L66.1623 1.69898L66.1653 1.69971L66.22 1.71309L66.2211 1.71338L66.2377 1.71743L66.2405 1.71816L66.2563 1.72202L66.2587 1.72258L66.3133 1.73608L66.3152 1.73652L66.3314 1.74055L66.334 1.74121L66.3494 1.74503L66.3525 1.74579L66.3699 1.75013H66.37L66.4068 1.7593L66.4087 1.75978L66.4245 1.76373L66.4277 1.7645L66.4427 1.76827L66.4461 1.76912L66.461 1.77282L66.4641 1.77362L66.5001 1.78266L66.5023 1.78319L66.5176 1.78705L66.5216 1.78805L66.5355 1.79155L66.5398 1.79264L66.5557 1.79665L66.5569 1.79694L66.5934 1.80616L66.5959 1.80682L66.6107 1.81056L66.6153 1.81176L66.6288 1.81518L66.6331 1.81627L66.6481 1.82008L66.6505 1.82069L66.6866 1.82991L66.6896 1.83067L66.7037 1.83425L66.709 1.83561L66.7214 1.83879L66.7269 1.84019L66.7398 1.84349L66.7443 1.84465L66.7583 1.84823L66.764 1.84968L66.7792 1.85357L66.7848 1.85502L66.7964 1.85799L66.8029 1.85968L66.8142 1.86258L66.8206 1.86426L66.8316 1.86708L66.838 1.86873L66.8522 1.87242L66.8553 1.87319L66.8724 1.87765L66.8781 1.87914L66.8893 1.88203L66.8966 1.88392L66.9067 1.88656L66.9141 1.88849L66.9249 1.8913L66.9311 1.89287L66.943 1.896L66.9499 1.89777L66.9653 1.90179L66.9717 1.90348L66.9823 1.90625L66.9901 1.9083L66.9995 1.91076L67.0076 1.91284L67.0166 1.91521L67.0248 1.91739L67.0344 1.91992L67.0421 1.92193L67.058 1.92607L67.0665 1.92832L67.075 1.93057L67.0835 1.93282L67.0921 1.93507L67.1011 1.93745L67.1092 1.93957L67.1178 1.94187L67.127 1.94432L67.1353 1.94649L67.1511 1.95067L67.1587 1.95268L67.1681 1.95517L67.1763 1.95734L67.1854 1.95979L67.1938 1.96197L67.2019 1.96417L67.2113 1.96667L67.2183 1.96852L67.2533 1.97784L67.2607 1.97982L67.2704 1.98245L67.2774 1.98431L67.2876 1.98704L67.2943 1.98885L67.3042 1.99148L67.3107 1.99321L67.3496 2.00366L67.3528 2.0045L67.3646 2.00773L67.3698 2.00909L67.381 2.0121L67.3863 2.01355L67.3976 2.0166L67.4026 2.01792L67.4418 2.02857L67.4458 2.02966L67.4573 2.03275L67.4625 2.03416L67.4739 2.0373L67.4791 2.03866L67.4904 2.04176L67.4949 2.043L67.5366 2.05438L67.5382 2.05482L67.55 2.05803L67.5554 2.05948L67.5667 2.06258L67.5713 2.0639L67.5837 2.06728L67.5863 2.068L67.6297 2.07993L67.6309 2.08026L67.6437 2.08379L67.6473 2.08476L67.6598 2.08822L67.6638 2.08934L67.676 2.09268L67.6771 2.093L67.2886 3.35746ZM94.3566 20.0594C93.7041 19.1946 93.0221 18.3519 92.3107 17.5313L92.3101 17.5307L92.2992 17.5182L92.2979 17.5166L92.2875 17.5047L92.286 17.503L92.2756 17.491L92.2744 17.4896L92.2509 17.4626L92.2503 17.4619L92.2397 17.4497L92.2371 17.4467L92.2283 17.4366L92.2251 17.433L92.2167 17.4233L92.2137 17.4198L92.205 17.4099L92.202 17.4065L92.1924 17.3954L92.1908 17.3936L92.1676 17.3671L92.165 17.3641L92.1567 17.3546L92.1524 17.3497L92.145 17.3413L92.1411 17.3369L92.1334 17.3281L92.1298 17.3239L92.1214 17.3143L92.1183 17.3108L92.1093 17.3006L92.1068 17.2977L92.0957 17.285L92.092 17.2808L92.0845 17.2723L92.0794 17.2665L92.0734 17.2596L92.0678 17.2533L92.0624 17.2472L92.0562 17.2402L92.051 17.2342L92.0453 17.2278L92.0396 17.2212L92.0338 17.2147L92.0282 17.2084L92.0167 17.1954L92.0123 17.1905L92.0058 17.1831L92.0009 17.1776L91.9946 17.1704L91.99 17.1652L91.9833 17.1576L91.9787 17.1525L91.972 17.1449L91.968 17.1403L91.9608 17.1323L91.957 17.1279L91.9301 17.0976L91.9286 17.096L91.9202 17.0865L91.9176 17.0836L91.909 17.0739L91.9068 17.0715L91.8984 17.062L91.8958 17.0591L91.8872 17.0493L91.8859 17.0479L91.8357 16.9917L91.8334 16.9891L91.8248 16.9794L91.8228 16.9772L91.8138 16.9671L91.8122 16.9653L91.7606 16.9078L91.7606 16.9077L91.7507 16.8968L91.7495 16.8954C90.8634 15.9088 89.9363 14.9578 88.9681 14.0424L87.9876 14.9753C89.9012 16.7851 91.6537 18.742 93.2272 20.8259L94.3566 20.0594ZM82.6069 8.95101C82.4869 8.87013 82.3651 8.78878 82.2444 8.70887L82.2434 8.70826L82.2289 8.69865L82.2282 8.69817L82.2138 8.68865L82.2128 8.68799L82.1669 8.65769L82.1667 8.65761L82.1526 8.64833L82.1489 8.64588L82.1381 8.63876L82.1337 8.63583L82.1238 8.62935L82.1183 8.6257L82.1092 8.61971L82.1039 8.61621L82.0926 8.60885L82.0893 8.60664L82.0748 8.59716L82.0707 8.59442L82.0607 8.58784L82.0543 8.58365L82.0462 8.57831L82.0394 8.57389L82.0322 8.56915L82.0247 8.56424L82.018 8.55986L82.0099 8.55455L82.0051 8.5515L81.9735 8.53084L81.9681 8.52734L81.9588 8.52123L81.9542 8.51826L81.9446 8.51199L81.9402 8.50913L81.9301 8.50254L81.9266 8.50026L81.9161 8.49342L81.9131 8.49149L81.8634 8.45917L81.8613 8.45786L81.8501 8.45061L81.8474 8.44884L81.8362 8.4416L81.8337 8.43999L81.822 8.43244L81.821 8.43178L81.7554 8.38941L81.7543 8.38865C80.6812 7.6965 79.5789 7.04355 78.4475 6.4298L78.4465 6.42928L78.4332 6.42203L78.4324 6.42163L78.419 6.41438L78.4178 6.41372L78.3481 6.37602L78.3477 6.37582L78.3354 6.36918L78.3325 6.36766L78.3205 6.36115L78.3182 6.35994L78.3058 6.35327L78.3042 6.35238L78.2498 6.3232L78.2483 6.32236L78.237 6.31629L78.2331 6.3142L78.2228 6.30869L78.2175 6.30587L78.2077 6.3006L78.2031 6.29815L78.1923 6.29237L78.1902 6.2912L78.1507 6.27012L78.1491 6.26928L78.1381 6.26341L78.1338 6.26112L78.1235 6.25566L78.1186 6.25302L78.1087 6.2478L78.1037 6.24506L78.0931 6.23947L78.0902 6.23795L78.0511 6.21717L78.0497 6.2164L78.038 6.21021L78.0349 6.20857L78.0239 6.20274L78.0194 6.20033L78.0097 6.19522L78.0035 6.19192L77.9949 6.18738L77.9877 6.18356L77.9794 6.17914L77.9738 6.17621L77.9549 6.16624L77.95 6.1636L77.9417 6.15926L77.9345 6.15544L77.9264 6.15114L77.9191 6.14733L77.911 6.14302L77.9039 6.13928L77.8955 6.1349L77.8879 6.13088L77.8805 6.12699L77.871 6.12196L77.8651 6.11887L77.8501 6.11103L77.8446 6.10813L77.8347 6.10295L77.8283 6.09953L77.8188 6.09462L77.8126 6.09133L77.8034 6.08655L77.7968 6.08309L77.7877 6.07826L77.7812 6.07493L77.7711 6.06958L77.7659 6.06685L77.7505 6.05885L77.7469 6.057L77.7351 6.05081L77.7292 6.04776L77.7192 6.04253L77.7135 6.03952L77.7037 6.03449L77.6973 6.03112L77.688 6.02625L77.6818 6.02304L77.6713 6.01757L77.6664 6.01499L77.6352 5.99884L77.6304 5.99643L77.6192 5.9906L77.6143 5.9881L77.6033 5.98235L77.5983 5.97982L77.587 5.97396L77.5826 5.97167L77.5708 5.96555L77.5667 5.96343L77.5346 5.94686L77.5343 5.9467L77.519 5.9388L77.5153 5.93687L77.5034 5.93077L77.4986 5.92831L77.4868 5.92224L77.4832 5.92035L77.47 5.9136L77.4672 5.91215L77.4185 5.8871L77.4178 5.88674L77.4027 5.87902L77.4001 5.8777L77.3863 5.87063L77.384 5.86942L77.3695 5.86207L77.3679 5.86118L77.3019 5.82754L77.3017 5.82741L77.2857 5.81925L77.2847 5.81877L77.2688 5.81069L77.2683 5.81046L77.1855 5.76836L77.1849 5.76804L77.1695 5.76028L77.1679 5.75944C76.5993 5.47184 76.0251 5.19476 75.4451 4.92821L74.8395 6.11354C77.2707 7.23186 79.5996 8.54004 81.8021 10.0246L82.6069 8.95101ZM101.635 34.1967C101.457 33.6218 101.267 33.0514 101.066 32.4855L101.066 32.4853L101.035 32.3998L101.035 32.3986L101.029 32.3828L101.029 32.3815L101.004 32.3133L101.004 32.3132L100.998 32.2967L100.998 32.2952L100.992 32.2803L100.992 32.2779L100.986 32.2625L100.986 32.2614L100.967 32.211L100.966 32.2084L100.961 32.1943L100.96 32.1915L100.955 32.1778L100.954 32.1744L100.949 32.1609L100.948 32.1579L100.936 32.1247L100.935 32.1224L100.93 32.1089L100.928 32.1038L100.924 32.0927L100.922 32.0872L100.918 32.0762L100.916 32.0711L100.912 32.0582L100.91 32.055L100.899 32.0226L100.897 32.0173L100.893 32.0067L100.89 32L100.887 31.9907L100.884 31.9839L100.881 31.9744L100.878 31.9678L100.874 31.9567L100.873 31.952L100.868 31.9385L100.864 31.9292L100.861 31.9206L100.858 31.9129L100.855 31.9047L100.852 31.8968L100.849 31.8887L100.846 31.8805L100.843 31.8733L100.84 31.8646L100.837 31.8566L100.834 31.849L100.829 31.8338L100.826 31.8265L100.823 31.8184L100.82 31.8096L100.817 31.8027L100.814 31.7936L100.811 31.7869L100.808 31.7781L100.805 31.7711L100.802 31.762L100.8 31.7567L100.787 31.7218L100.785 31.7163L100.781 31.7065L100.779 31.701L100.775 31.6906L100.773 31.6858L100.769 31.6748L100.768 31.6715L100.748 31.6179L100.747 31.6148L100.742 31.6033L100.741 31.5994L100.736 31.5877L100.735 31.5847L100.73 31.5724L100.73 31.5704L100.708 31.5146L100.708 31.5133L100.703 31.5003L100.702 31.4983L100.697 31.4853L100.697 31.4835L100.664 31.3978L100.664 31.3971C100.067 29.8447 99.3855 28.3232 98.6208 26.8387L97.3729 27.4169C98.5582 29.7193 99.5383 32.1117 100.303 34.5691L101.635 34.1967ZM98.8322 64.7103L100.122 65.1987C100.412 64.5103 100.685 63.8137 100.942 63.1088L100.942 63.1081L100.973 63.0228L100.973 63.0223L100.979 63.0061L100.98 63.0048L100.986 62.9887L100.986 62.9881L101.004 62.9373L101.005 62.9354L101.01 62.9209L101.011 62.9179L101.016 62.9039L101.017 62.9013L101.023 62.8858L101.023 62.8848L101.035 62.8514L101.036 62.8481L101.041 62.8355L101.042 62.8303L101.046 62.8189L101.048 62.8141L101.053 62.8019L101.054 62.7978L101.059 62.7823L101.06 62.7817L101.066 62.7652L101.067 62.7613L101.071 62.749L101.073 62.7436L101.077 62.7331L101.079 62.7269L101.083 62.7166L101.085 62.7106L101.089 62.7001L101.091 62.6944L101.096 62.6786L101.097 62.6771L101.102 62.6624L101.104 62.6575L101.108 62.6463L101.11 62.6402L101.113 62.6305L101.116 62.6236L101.119 62.614L101.121 62.6077L101.125 62.5973L101.127 62.5912L101.132 62.5762L101.135 62.5683L101.138 62.5605L101.141 62.552L101.143 62.5444L101.146 62.536L101.149 62.5285L101.152 62.5201L101.154 62.5127L101.157 62.5039L101.16 62.498L101.166 62.4797L101.168 62.4736L101.171 62.4643L101.174 62.4578L101.177 62.4484L101.179 62.4419L101.182 62.4328L101.185 62.4259L101.188 62.4166L101.189 62.4116L101.202 62.3751L101.203 62.371L101.207 62.3598L101.209 62.3558L101.213 62.3444L101.214 62.3402L101.218 62.3289L101.219 62.3251L101.238 62.271L101.239 62.2687L101.243 62.2566L101.244 62.2531L101.248 62.241L101.249 62.2384L101.268 62.1824L101.268 62.1812L101.273 62.1683L101.274 62.1658L101.278 62.1529L101.279 62.151L101.283 62.1378L101.284 62.1362L101.303 62.0799L101.303 62.0783L101.308 62.0652L101.308 62.0631L101.313 62.0499L101.313 62.0486L101.337 61.9766L101.338 61.9756L101.342 61.9624L101.343 61.96C101.395 61.8039 101.446 61.6474 101.497 61.4905L101.497 61.4898C101.57 61.2637 101.641 61.0369 101.71 60.8094L101.71 60.8089L101.737 60.7206L101.738 60.7196L101.764 60.6315L101.764 60.6304L101.769 60.616L101.769 60.6158L101.79 60.5436L101.791 60.5408L101.795 60.5282L101.796 60.5253L101.799 60.5129L101.8 60.5097L101.817 60.4528L101.818 60.4521L101.821 60.4392L101.822 60.4362L101.826 60.4244L101.827 60.42L101.83 60.408L101.831 60.4061L101.848 60.3501L101.848 60.347L101.852 60.3353L101.853 60.3311L101.857 60.3195L101.858 60.3152L101.861 60.3041L101.862 60.2992L101.873 60.2613L101.875 60.2578L101.878 60.2473L101.879 60.2411L101.882 60.2311L101.884 60.2256L101.887 60.2149L101.888 60.2098L101.892 60.1989L101.892 60.1964L101.899 60.1724L101.9 60.1685L101.903 60.1584L101.905 60.1521L101.908 60.1426L101.91 60.1356L101.912 60.1268L101.915 60.1192L101.917 60.1103L101.919 60.1026L101.922 60.0944L101.926 60.079L101.928 60.072L101.931 60.0624L101.933 60.0546L101.935 60.0464L101.938 60.038L101.94 60.0294L101.942 60.022L101.945 60.0122L101.947 60.0057L101.951 59.9927L101.953 59.9858L101.956 59.9732L101.958 59.9669L101.961 59.9566L101.963 59.9505L101.966 59.9396L101.967 59.9335L101.97 59.9228L101.972 59.9169L101.976 59.9048L101.977 59.9003L101.982 59.8836L101.982 59.8819L101.986 59.8671L101.987 59.8626L101.991 59.8499L101.992 59.8456L101.996 59.8327L101.997 59.8287L102.001 59.8139L102.002 59.8121L102.011 59.7776L102.012 59.7756L102.016 59.7609L102.017 59.7569L102.021 59.7436L102.022 59.7401L102.026 59.7253L102.026 59.7234L102.041 59.671L102.041 59.6703L102.046 59.6539L102.046 59.6522L102.051 59.6357L102.051 59.6351L102.075 59.5469L102.075 59.5464C102.247 58.918 102.405 58.2852 102.549 57.6481L101.191 57.3709C100.623 59.8756 99.8334 62.3306 98.8322 64.7103ZM53.6684 1.52372V0.206543H53.6309L53.6244 0.206583H53.5915L53.5865 0.206623H53.5682L53.563 0.206664H53.5496L53.5429 0.206701L53.5305 0.206741H53.5237L53.5115 0.206782H53.5049L53.487 0.20686H53.4864L53.4678 0.2069L53.4621 0.206945L53.4489 0.206985L53.4428 0.207025L53.4297 0.207066L53.4236 0.207103L53.4083 0.207184H53.4051L53.3859 0.207302H53.3833L53.3673 0.207387L53.3614 0.207427L53.3489 0.207505L53.3419 0.207545L53.3292 0.207623L53.3232 0.207663L53.3057 0.207789H53.3046L53.2859 0.207907L53.281 0.207947L53.267 0.208025L53.261 0.208065L53.2478 0.208191L53.242 0.208231L53.2274 0.208349L53.2231 0.208387L53.2043 0.208553L53.2012 0.208593L53.1859 0.208711L53.1795 0.208751L53.1668 0.208874L53.1605 0.208955L53.1468 0.209073L53.142 0.209113L53.1043 0.209515L53.0988 0.209553L53.0857 0.209719L53.0791 0.209759L53.0669 0.209917L53.0598 0.209995L53.0463 0.210161L53.0415 0.210198L53.0231 0.210397L53.0187 0.210482L53.004 0.210641L52.9985 0.210718L52.9852 0.210884L52.979 0.210962L52.9656 0.21112L52.9602 0.211206L52.9421 0.211444H52.9416L52.9225 0.211728L52.9184 0.211766L52.9038 0.211965L52.898 0.21205L52.8844 0.212248L52.8791 0.212326L52.8641 0.21257L52.8601 0.21261L52.841 0.212894L52.8404 0.212932L52.8223 0.213216L52.8177 0.213256L52.8031 0.213492L52.7981 0.213577L52.7838 0.213816L52.779 0.213894L52.7408 0.214552L52.7379 0.214592L52.7222 0.214876L52.717 0.214954L52.7035 0.215198L52.6974 0.215316L52.6819 0.2156L52.6792 0.21564L52.6598 0.216002L52.6586 0.216042L52.6408 0.216364L52.6367 0.216444L52.6219 0.216725L52.6169 0.216843L52.6017 0.217127L52.598 0.217208L52.5596 0.217971L52.5568 0.218049L52.5409 0.218373L52.5356 0.218492L52.5218 0.218775L52.5167 0.218894L52.5012 0.219215L52.4977 0.219295L52.4598 0.220145L52.4552 0.220263L52.4406 0.220584L52.4357 0.220705L52.4211 0.221026L52.4167 0.221145L52.3982 0.221547H52.3979L52.3788 0.222026L52.3748 0.222114L52.3596 0.222476L52.3552 0.222594L52.3403 0.222956L52.3358 0.223074L52.3194 0.223476L52.317 0.223556L52.2783 0.224524L52.2752 0.224601L52.2598 0.225003L52.2547 0.225162L52.24 0.225524L52.2359 0.225649L52.1971 0.226689H52.1969L52.1782 0.227217L52.1751 0.227297L52.1588 0.227777L52.1556 0.227855L52.1383 0.228342L52.1363 0.228383L52.0976 0.229508L52.0948 0.229588L52.0781 0.230068L52.0749 0.230186L52.0584 0.230674L52.0556 0.230754L51.9974 0.232558L51.9947 0.232643L51.978 0.233163L51.9749 0.233244L51.9165 0.235133L51.9149 0.235173L51.8979 0.235739L51.8941 0.235859L51.8774 0.236417L51.8752 0.236502L51.8166 0.23848L51.8145 0.238557L51.797 0.239158L51.7949 0.239243L51.7762 0.239902L51.7755 0.239942L51.7363 0.241351L51.734 0.241429L51.7167 0.242034L51.7144 0.242115L51.6963 0.242773L51.6952 0.242813L51.6357 0.245027L51.6351 0.245064L51.6161 0.24579L51.6149 0.245828L51.5357 0.248923L51.5348 0.248963L51.4553 0.252177H51.4552L51.4354 0.252981L51.4351 0.253021L51.3355 0.257242L51.3351 0.257282L51.2754 0.259917L51.2751 0.259955L51.2558 0.260799L51.2548 0.260839L51.1755 0.2645H51.1751L51.0956 0.268273L51.095 0.268321L51.0759 0.269243H51.0751C49.2893 0.355553 47.5097 0.532322 45.7439 0.798799L45.7438 0.798839C45.66 0.811497 45.5762 0.824346 45.4925 0.837386L45.4923 0.837426L45.4735 0.840363L45.4728 0.840481L45.4154 0.849485L45.4146 0.849603L45.3965 0.852462L45.3951 0.852698L45.3722 0.856321L45.6009 2.15549C48.2672 1.73478 50.9655 1.52347 53.6684 1.52372ZM102.228 49.7589L103.616 49.8188C103.641 49.2907 103.657 48.7604 103.664 48.2278V48.2268L103.665 48.2109L103.665 48.2091L103.665 48.1933L103.665 48.1919L103.665 48.1758V48.1753L103.666 48.0923L103.666 48.089L103.666 48.0757L103.666 48.0708L103.666 48.0586L103.666 48.0525L103.666 48.0411L103.667 48.0342L103.667 48.023L103.667 48.0167L103.667 48.0049L103.667 47.9991L103.667 47.9869V47.9828L103.667 47.94L103.667 47.9342L103.667 47.9234L103.667 47.9156L103.667 47.9065L103.668 47.897L103.668 47.8882L103.668 47.879L103.668 47.8697L103.668 47.861L103.668 47.8515L103.668 47.8422L103.668 47.8336L103.668 47.8238L103.668 47.8151L103.668 47.8031L103.668 47.7966L103.668 47.7795L103.668 47.7718L103.668 47.761V47.7532L103.668 47.7429V47.7344L103.668 47.7246V47.7161L103.668 47.7062V47.6871L103.668 47.68V47.5747L103.668 47.5614V47.5535L103.668 47.5397V47.5322L103.668 47.5159V47.5113L103.668 47.4899L103.668 47.4868L103.668 47.4688L103.668 47.4619L103.668 47.448L103.668 47.4398L103.668 47.4263L103.668 47.4185L103.668 47.4045L103.668 47.3974L103.668 47.3787L103.668 47.3764L103.668 47.3554L103.668 47.3486L103.667 47.3342L103.667 47.3266L103.667 47.3127L103.667 47.3051L103.667 47.291L103.667 47.2838L103.667 47.2692L103.667 47.2624L103.667 47.2415L103.667 47.2396L103.667 47.2204L103.667 47.2138L103.666 47.1991L103.666 47.1919L103.666 47.1778L103.666 47.1703L103.666 47.1555L103.666 47.1492L103.666 47.1321L103.666 47.128L103.665 47.1069L103.665 47.102L103.665 47.0857L103.665 47.0787L103.665 47.0644L103.665 47.0571L103.665 47.0427L103.665 47.0357L103.664 47.0197L103.664 47.0148L103.664 46.9942V46.9933L103.664 46.9721L103.664 46.9661L103.663 46.9512L103.663 46.9436L103.663 46.9298L103.663 46.922L103.663 46.9085L103.663 46.9008L103.662 46.8848L103.662 46.88L103.662 46.8584V46.8582L103.662 46.8375L103.661 46.8314L103.661 46.8164L103.661 46.8091L103.661 46.7948L103.661 46.788L103.66 46.7724L103.66 46.7667L103.66 46.7474V46.7456L103.66 46.724L103.659 46.7205L103.659 46.7026L103.659 46.6972L103.659 46.6814L103.659 46.6751L103.658 46.6597L103.658 46.6535L103.658 46.6368L103.658 46.6325L103.657 46.5894L103.657 46.5852L103.656 46.5683L103.656 46.5624L103.656 46.5468L103.656 46.5406L103.655 46.5245L103.655 46.5195L103.655 46.5005L103.655 46.4982L103.653 46.455L103.653 46.4505L103.653 46.4335L103.653 46.4283L103.652 46.4115L103.652 46.4069L103.652 46.3886L103.652 46.3855L103.65 46.3418L103.65 46.3399L103.65 46.3206L103.65 46.3157L103.649 46.2991L103.649 46.2939L103.649 46.2772L103.648 46.2723L103.648 46.2528L103.648 46.2514L103.646 46.2077L103.646 46.2039L103.646 46.1867L103.646 46.181L103.645 46.1648L103.645 46.1597L103.644 46.1419L103.644 46.1385L103.642 46.0731L103.642 46.0703L103.641 46.0517L103.641 46.0476L103.641 46.0298L103.64 46.026L103.64 46.0072L103.64 46.0043L103.638 45.9603V45.9601L103.637 45.9387L103.637 45.9362L103.637 45.9175L103.636 45.9135L103.636 45.8947L103.636 45.8922L103.633 45.8262L103.633 45.8251L103.632 45.8043L103.632 45.8024L103.631 45.7824L103.631 45.7801L103.63 45.759L103.63 45.7586L103.628 45.6917L103.627 45.6914L103.627 45.6698L103.626 45.6686L103.626 45.6475L103.626 45.6465L103.622 45.5576V45.5572L103.621 45.5357L103.621 45.5346L103.615 45.4235V45.4233C103.559 44.2468 103.457 43.0821 103.311 41.9291L101.932 42.0857C102.163 43.924 102.279 45.7737 102.279 47.6251C102.279 48.3345 102.262 49.0524 102.228 49.7589ZM53.6684 93.7262C45.1975 93.7322 36.8721 91.6372 29.5186 87.6491C22.1651 83.661 16.0392 77.9186 11.7487 70.9916C7.45827 64.0647 5.1525 56.1941 5.06024 48.161C4.96798 40.1278 7.09244 32.2115 11.2228 25.1975L13.4053 35.1187L14.7651 34.8498L12.2165 23.2634L0 25.681L0.283471 26.9699L9.66647 25.1139C3.88369 35.2754 2.20987 47.0889 4.95913 58.3376C7.70839 69.5863 14.6917 79.4968 24.5986 86.2093C34.5055 92.9218 46.6549 95.9748 58.7667 94.7954C70.8786 93.616 82.1203 88.2853 90.3821 79.8036L89.2435 78.9968C84.7037 83.6439 79.2002 87.3511 73.0783 89.8858C66.9565 92.4205 60.3483 93.7279 53.6684 93.7262ZM106.822 68.6719L96.0736 71.2626L93.3413 61.0692L91.9951 61.3934L95.07 72.864L107.165 69.948L106.822 68.6719ZM23.6118 11.3898L22.7523 10.3552C22.3473 10.6578 21.9474 10.9661 21.5527 11.2802L21.5514 11.2812L21.5408 11.2896L21.5378 11.292L21.5276 11.3002L21.5256 11.3017L21.5146 11.3105L21.5135 11.3113L21.4666 11.3488L21.4639 11.351L21.4542 11.3587L21.4505 11.3616L21.4418 11.3686L21.4372 11.3723L21.4281 11.3795L21.4249 11.3821L21.415 11.39L21.4134 11.3913L21.3798 11.4183L21.3771 11.4205L21.3685 11.4274L21.3633 11.4315L21.3556 11.4378L21.3501 11.4422L21.3426 11.4482L21.3362 11.4534L21.3293 11.4589L21.3231 11.4639L21.3159 11.4697L21.3084 11.4758L21.2982 11.4839L21.29 11.4906L21.2834 11.4959L21.2766 11.5014L21.2704 11.5065L21.263 11.5124L21.2569 11.5173L21.249 11.5237L21.244 11.5278L21.2352 11.5349L21.2302 11.539L21.2196 11.5475L21.2171 11.5496L21.2036 11.5605L21.2003 11.5631L21.1898 11.5717L21.1859 11.5748L21.1767 11.5823L21.1716 11.5864L21.1625 11.5938L21.1584 11.5971L21.1482 11.6054L21.1451 11.608L21.1334 11.6174L21.1314 11.6191L21.1038 11.6416L21.102 11.6431L21.0902 11.6526L21.0867 11.6555L21.0768 11.6636L21.0727 11.6669L21.0632 11.6747L21.059 11.6781L21.0483 11.6868L21.0458 11.6888L21.033 11.6993L21.0322 11.7L21.0046 11.7226L21.002 11.7247L20.9908 11.7339L20.9878 11.7364L20.9774 11.7449L20.9738 11.7478L20.9633 11.7565L20.9602 11.759L20.9489 11.7683L20.9467 11.7701L20.9053 11.8041L20.9034 11.8057L20.8918 11.8152L20.8888 11.8178L20.8779 11.8267L20.8753 11.8289L20.8632 11.8388L20.8618 11.84L20.8062 11.8859L20.8048 11.8871L20.7921 11.8977L20.7911 11.8985L20.7783 11.909L20.7769 11.9102L20.7213 11.9564L20.7204 11.9572L20.7076 11.9678L20.706 11.9691L20.6937 11.9793L20.6921 11.9808L20.6792 11.9914L20.6786 11.992L20.609 12.0501L20.6077 12.0511L20.5945 12.0622L20.5942 12.0624L20.5241 12.1212L20.524 12.1213L20.5103 12.1328L20.5098 12.1332L20.4964 12.1445L20.4958 12.145C20.3462 12.2709 20.1975 12.3975 20.0497 12.5249L20.0495 12.5251C19.809 12.7324 19.5708 12.9418 19.3348 13.1533L19.3344 13.1536L19.253 13.2268L19.2529 13.2268L19.2396 13.2388L19.2391 13.2392L19.2262 13.2508L19.2255 13.2515L19.1719 13.2998L19.1704 13.3012L19.1586 13.3119L19.157 13.3134L19.1455 13.3237L19.1434 13.3257L19.1314 13.3366L19.1305 13.3373L19.0903 13.3739L19.09 13.3741L19.0772 13.3858L19.0757 13.3871L19.0642 13.3976L19.062 13.3996L19.0503 13.4102L19.0492 13.4112L19.0363 13.423L19.036 13.4232L18.9956 13.46L18.9953 13.4604L18.9828 13.4718L18.981 13.4734L18.9696 13.4838L18.9676 13.4857L18.9568 13.4956L18.9542 13.4979L18.9416 13.5095L18.9146 13.5342L18.9146 13.5342L18.902 13.5458L18.8994 13.5482L18.8889 13.5578L18.8864 13.5602L18.8756 13.57L18.8732 13.5722L18.8619 13.5826L18.8603 13.5841L18.8207 13.6205L18.8195 13.6216L18.8078 13.6324L18.8055 13.6346L18.7952 13.6441L18.792 13.647L18.7819 13.6564L18.779 13.659L18.7687 13.6685L18.7661 13.6709L18.7403 13.6948L18.7376 13.6973L18.7276 13.7066L18.7238 13.7101L18.7149 13.7183L18.7105 13.7224L18.702 13.7303L18.6979 13.7342L18.6891 13.7423L18.6849 13.7462L18.6739 13.7564L18.6727 13.7576L18.6465 13.782L18.6445 13.7838L18.6344 13.7932L18.6298 13.7975L18.6216 13.8052L18.6169 13.8095L18.6089 13.817L18.6043 13.8212L18.5956 13.8293L18.5915 13.8332L18.5814 13.8426L18.579 13.8449L18.5663 13.8568L18.5639 13.859L18.5537 13.8685L18.5494 13.8726L18.5413 13.8801L18.5363 13.8849L18.529 13.8916L18.5231 13.8972L18.5165 13.9034L18.5108 13.9086L18.5035 13.9156L18.4981 13.9206L18.486 13.932L18.4843 13.9336L18.4736 13.9436L18.4691 13.9479L18.4608 13.9557L18.4559 13.9603L18.4488 13.967L18.4427 13.9727L18.4363 13.9788L18.4301 13.9846L18.4244 13.99L18.4175 13.9964L18.4121 14.0015L18.3862 14.026L18.3813 14.0306L18.3745 14.0371L18.369 14.0423L18.3615 14.0493L18.357 14.0536L18.3494 14.0608L18.3449 14.0651L18.3369 14.0726L18.3331 14.0763L18.3247 14.0842L18.3228 14.086L18.3027 14.105L18.3013 14.1063L18.2931 14.1141L18.2892 14.1178L18.2818 14.1248L18.2764 14.1299L18.2694 14.1367L18.2646 14.1411L18.257 14.1484L18.2523 14.1529L18.2447 14.1601L18.2407 14.164L18.2112 14.192L18.2093 14.1938L18.2007 14.202L18.197 14.2055L18.1894 14.2129L18.1847 14.2174L18.1769 14.2248L18.1727 14.2288L18.165 14.2362L18.1608 14.2402L18.1524 14.2483L18.1519 14.2488L18.1205 14.2789L18.1174 14.2818L18.109 14.2899L18.1054 14.2934L18.0974 14.301L18.0928 14.3055L18.0852 14.3127L18.0812 14.3166L18.0729 14.3245L18.0698 14.3275L18.0287 14.367L18.0258 14.3698L18.0172 14.3782L18.0138 14.3814L18.0053 14.3896L18.002 14.3928L17.9928 14.4017L17.9911 14.4033L17.9365 14.4561L17.9348 14.4577L17.9251 14.4672L17.9231 14.4692L17.9137 14.4782L17.911 14.4809L17.9013 14.4903L17.9013 14.4904L17.8453 14.5448L17.844 14.546L17.8337 14.556L17.8323 14.5573L17.8223 14.567L17.8206 14.5688L17.7539 14.6339L17.7536 14.6342L17.7424 14.6452V14.6452C17.3764 15.0036 17.0165 15.3675 16.6625 15.7368L17.6901 16.6229C19.5086 14.7268 21.4892 12.9765 23.6118 11.3898ZM37.7602 4.04856L37.3059 2.80383C36.5002 3.06832 35.7041 3.3516 34.9176 3.65368L34.9173 3.65376L34.827 3.68857L34.8267 3.68869L34.8126 3.69411L34.8109 3.69477L34.7974 3.69999L34.7952 3.70084L34.7225 3.72902L34.7205 3.72982L34.7079 3.73472L34.7045 3.73604L34.6923 3.74078L34.6884 3.74231L34.6768 3.74685L34.6728 3.74837L34.6195 3.76924L34.6138 3.77145L34.6037 3.7754L34.598 3.77762L34.5875 3.78175L34.5818 3.78397L34.5715 3.78803L34.5662 3.79008L34.5553 3.79438L34.5528 3.79534L34.5303 3.80422L34.5245 3.80651L34.5148 3.8103L34.5082 3.81293L34.4991 3.81651L34.4916 3.81944L34.4827 3.82298L34.4753 3.82587L34.4666 3.82929L34.4584 3.83258L34.4504 3.83572L34.4345 3.84199L34.4315 3.84315L34.4183 3.84838L34.4121 3.85087L34.4014 3.85509L34.3956 3.85742L34.3848 3.86168L34.3789 3.86406L34.3678 3.86844L34.362 3.87073L34.3506 3.87523L34.3455 3.87728L34.3292 3.88379L34.3269 3.88468L34.3125 3.89043L34.3077 3.89232L34.296 3.89698L34.2905 3.89923L34.2794 3.90365L34.2737 3.90594L34.2617 3.91068L34.2575 3.91242L34.2436 3.91796L34.2407 3.91913L34.2075 3.93243L34.2027 3.93432L34.1903 3.93931L34.186 3.94104L34.1735 3.94606L34.1692 3.94779L34.1555 3.95333L34.1527 3.95442L34.1014 3.97508L34.1001 3.97565L34.0845 3.98196L34.0823 3.9828L34.0676 3.98879L34.0647 3.98991L34.0493 3.99614L34.0483 3.99659L33.9789 4.02473L33.9782 4.02501C32.5128 4.62099 31.0854 5.27994 29.6959 6.00187L30.3628 7.15726C32.733 5.92738 35.2074 4.88754 37.7602 4.04858V4.04856ZM41.1685 23.9075C41.1685 21.5629 41.9016 19.2709 43.2751 17.3215C44.6486 15.372 46.6008 13.8525 48.8849 12.9553C51.169 12.058 53.6823 11.8233 56.1071 12.2807C58.5318 12.7381 60.7591 13.8672 62.5073 15.525C64.2554 17.1829 65.4459 19.2952 65.9282 21.5948C66.4106 23.8944 66.163 26.2779 65.2169 28.4441C64.2708 30.6102 62.6687 32.4616 60.6131 33.7642C58.5575 35.0668 56.1407 35.7621 53.6684 35.7621C50.3532 35.7621 47.1738 34.5131 44.8296 32.29C42.4854 30.0668 41.1685 27.0516 41.1685 23.9075V23.9075ZM42.5573 23.9075C42.5573 25.9916 43.209 28.0289 44.4299 29.7618C45.6508 31.4947 47.3861 32.8453 49.4164 33.6428C51.4467 34.4404 53.6808 34.649 55.8361 34.2425C57.9914 33.8359 59.9713 32.8323 61.5252 31.3586C63.0791 29.8849 64.1373 28.0073 64.566 25.9633C64.9948 23.9192 64.7747 21.8005 63.9338 19.875C63.0928 17.9496 61.6686 16.3038 59.8414 15.146C58.0142 13.9881 55.866 13.3701 53.6684 13.3701C50.7226 13.3732 47.8984 14.4845 45.8154 16.4599C43.7324 18.4354 42.5607 21.1138 42.5573 23.9075V23.9075ZM40.6289 51.0783V46.3078H45.8062C47.6104 46.291 49.367 46.8567 50.7874 47.9118C52.2078 48.9669 53.2075 50.4488 53.6225 52.1141C54.331 50.3907 55.5754 48.9124 57.1905 47.8754C58.8055 46.8384 60.715 46.2916 62.6653 46.3078H70.2708V53.275C70.2265 55.6566 69.1869 57.924 67.3804 59.5789C65.5739 61.2338 63.1485 62.1406 60.6372 62.1001H54.3629V69.6218C55.4748 69.5093 56.5311 69.1031 57.4116 68.4494C58.7246 67.5219 60.318 67.021 61.9552 67.021C63.5923 67.021 65.1858 67.5219 66.4987 68.4494C67.5695 69.256 68.9038 69.6826 70.271 69.6553V70.9725C68.6298 70.9965 67.0284 70.4933 65.727 69.5447C64.6427 68.7621 63.3178 68.3382 61.9553 68.3381C60.5927 68.338 59.2677 68.7616 58.1834 69.544C56.8703 70.4714 55.2768 70.9724 53.6396 70.9725C52.0024 70.9726 50.4088 70.4719 49.0956 69.5447C48.0104 68.762 46.6846 68.3381 45.3212 68.3381C43.9579 68.3381 42.6321 68.762 41.5469 69.5447C40.2452 70.4934 38.6433 70.9966 37.0018 70.9725V69.6553C38.3697 69.6827 39.7046 69.2559 40.7758 68.4488C42.0896 67.5217 43.6836 67.021 45.3212 67.021C46.9589 67.021 48.5528 67.5217 49.8667 68.4488C50.7619 69.1163 51.8404 69.5259 52.974 69.6289V58.451H48.6302C46.5384 58.4792 44.5204 57.7183 43.02 56.3358C41.5195 54.9532 40.6595 53.0621 40.6289 51.0783V51.0783ZM54.4207 60.7829H60.6372C62.7794 60.821 64.8501 60.0521 66.3956 58.6448C67.941 57.2374 68.8351 55.3064 68.8819 53.275V47.625H62.6653C60.5231 47.5868 58.4524 48.3557 56.907 49.7631C55.3615 51.1704 54.4674 53.1014 54.4207 55.1329V60.7829ZM42.0178 51.0783C42.0504 52.7122 42.7648 54.2671 44.0043 55.4022C45.2438 56.5373 46.9073 57.16 48.6302 57.1338H52.4186V53.6804C52.386 52.0466 51.6717 50.4917 50.4322 49.3566C49.1926 48.2214 47.5291 47.5987 45.8063 47.625H42.0178L42.0178 51.0783Z" fill="#F8F5ED"/>
</svg>
