<svg width="51" height="31" viewBox="0 0 51 31" fill="none" xmlns="http://www.w3.org/2000/svg">
<path d="M34.2074 22.5245C34.2074 24.736 34.202 26.9475 34.2129 29.1589C34.2129 29.4003 34.1691 29.4733 33.9226 29.4733C31.9009 29.462 29.8737 29.462 27.8521 29.4733C27.611 29.4733 27.5508 29.4115 27.5508 29.1645C27.5562 24.7416 27.5562 20.3186 27.5617 15.8957C27.5617 15.6487 27.5069 15.5701 27.2549 15.5758C26.3509 15.5926 25.4469 15.5758 24.5484 15.587C24.3731 15.587 24.3238 15.5421 24.3238 15.3569C24.3292 13.7796 24.3347 12.2024 24.3238 10.6252C24.3238 10.3895 24.4005 10.3558 24.6032 10.3558C25.5072 10.367 26.4112 10.3502 27.3097 10.367C27.5234 10.3726 27.5617 10.3053 27.5617 10.1032C27.5453 8.87958 27.5453 7.66159 27.7151 6.44359C27.8795 5.24805 28.1425 4.08618 28.6191 2.97483C29.2766 1.4369 30.4655 0.634256 32.0159 0.29187C33.0733 0.0561288 34.1472 0.0336773 35.221 0.0112258C36.262 -0.00561289 37.2975 0.0112258 38.3384 0C38.5411 0 38.5959 0.050516 38.5959 0.263806C38.585 1.85786 38.585 3.45754 38.5959 5.0516C38.5959 5.27611 38.5192 5.30979 38.3275 5.30979C37.6974 5.30418 37.0674 5.30418 36.4428 5.32663C35.0293 5.38276 34.2841 6.13488 34.2294 7.58301C34.1965 8.44178 34.2239 9.30055 34.2129 10.1593C34.2074 10.3558 34.3006 10.3614 34.4485 10.3614C35.7415 10.3558 37.04 10.367 38.333 10.3558C38.5521 10.3558 38.6014 10.4231 38.6014 10.6364C38.5905 12.1856 38.5905 13.7347 38.6014 15.2839C38.6014 15.4972 38.5411 15.5421 38.3439 15.5421C37.0564 15.5309 35.7744 15.5421 34.4869 15.5309C34.2677 15.5309 34.2129 15.5926 34.2184 15.8115C34.2129 18.0454 34.2074 20.285 34.2074 22.5245ZM44.0528 26.6275C44.0473 25.084 42.7762 23.8042 41.2641 23.8155C39.7136 23.8267 38.4754 25.1008 38.4809 26.6893C38.4864 28.2609 39.7355 29.535 41.2696 29.5238C42.842 29.5182 44.0637 28.244 44.0528 26.6275ZM47.9098 23.8155C46.3758 23.8099 45.1047 25.1064 45.1102 26.678C45.1157 28.2328 46.3648 29.5238 47.866 29.5294C49.4494 29.535 50.6821 28.2833 50.6821 26.6724C50.6766 25.0896 49.4494 23.8211 47.9098 23.8155ZM44.5842 23.6302C46.1292 23.6302 47.3729 22.3617 47.3784 20.7677C47.3839 19.2129 46.1238 17.9332 44.5897 17.9332C43.0447 17.9332 41.812 19.1905 41.812 20.7677C41.8065 22.3786 43.0228 23.6302 44.5842 23.6302ZM22.7733 29.4676C21.5625 29.4676 20.3955 29.4676 19.2285 29.4676C18.1821 29.4676 17.1301 29.4564 16.0837 29.4733C15.8317 29.4789 15.7385 29.4059 15.7057 29.1477C15.6399 28.6033 15.5358 28.0644 15.4427 27.4863C14.966 27.8904 14.5113 28.2609 14.0127 28.564C11.1912 30.2984 8.18332 30.7193 5.03303 29.7764C2.01424 28.8671 0.0857117 26.1729 0.00353029 22.9399C-0.0293423 21.5815 0.162414 20.285 0.786993 19.0726C1.50471 17.6862 2.65525 16.8274 4.04686 16.2437C5.44394 15.6543 6.91225 15.34 8.38604 15.0481C10.0023 14.7282 11.6349 14.5037 13.2621 14.2174C13.5416 14.1669 13.8045 14.0715 14.073 13.9705C15.2674 13.5158 15.2126 12.3203 14.8071 11.6187C14.4401 10.99 13.8538 10.6476 13.1909 10.4624C11.9472 10.1144 10.6981 10.1144 9.48179 10.5747C8.37508 10.9956 7.66832 11.8039 7.46013 13.0107C7.41082 13.2969 7.30672 13.3643 7.0273 13.3587C5.19192 13.3418 3.36201 13.3418 1.52663 13.3587C1.26912 13.3587 1.24173 13.2857 1.25269 13.05C1.35131 11.164 1.97041 9.50261 3.23052 8.11623C4.18383 7.07224 5.35628 6.37062 6.65475 5.88792C8.50657 5.19753 10.4241 5.00108 12.3801 5.04598C13.7114 5.07405 15.0318 5.23121 16.3083 5.64095C18.3848 6.30327 20.0394 7.51565 21.0584 9.53068C21.5515 10.5073 21.7487 11.5625 21.8528 12.6458C21.9405 13.5663 21.9405 14.4869 21.9405 15.413C21.9405 18.7639 21.9295 22.1148 21.946 25.4657C21.9515 26.5826 22.0117 27.7052 22.45 28.7548C22.5432 28.9793 22.6527 29.2038 22.7733 29.4676ZM15.2564 18.3148C15.1249 18.2082 14.8839 18.4215 14.6866 18.4664C14.6592 18.472 14.6318 18.4832 14.6099 18.4888C13.3279 18.8032 12.0459 19.1231 10.7638 19.4318C9.82695 19.6563 8.87913 19.8415 8.02444 20.3299C7.57518 20.5824 7.19715 20.908 6.97252 21.3907C6.41916 22.5975 6.74789 24.3094 8.55588 24.8931C9.43248 25.1738 10.32 25.1513 11.2021 24.9773C12.7307 24.6855 13.9141 23.8884 14.6428 22.4515C15.1742 21.4075 15.3167 20.2794 15.3002 19.1175C15.3002 19.0501 15.3002 18.9884 15.3002 18.921C15.2838 18.719 15.3824 18.4215 15.2564 18.3148Z" fill="#0F190C"/>
</svg>
