<svg width="412" height="94" viewBox="0 0 412 94" fill="none" xmlns="http://www.w3.org/2000/svg">
<path fill-rule="evenodd" clip-rule="evenodd" d="M342.179 12.4866C345.452 12.4866 348.815 13.9129 350.904 15.3284V1.77681C348.081 0.806901 344.428 0 340.598 0C328.117 0 322.764 8.6314 322.764 18.8848V22.5443H313.249V33.6073H322.764V73.1101H336.633V33.6073H352.189V22.5443H336.633V18.9866C336.635 14.9263 338.219 12.4866 342.179 12.4866ZM0 0.594746H79.8862V83.2827H0V0.594746ZM72.3804 8.3147H7.50652V13.8272H72.3804V8.3147ZM72.3804 22.096H7.50652V27.0572H72.3804V22.096ZM7.50652 45.7998H72.3804V51.3123H7.50652V45.7998ZM33.2416 56.2736H7.50652V61.7861H33.2416V56.2736ZM43.9646 56.2736H72.3804V61.7861H43.9646V56.2736ZM33.2416 32.5698H7.50652V38.0823H33.2416V32.5698ZM43.9646 32.5698H72.3804V38.0823H43.9646V32.5698ZM33.2416 70.0548H7.50652V75.0161H33.2416V70.0548ZM43.9646 70.0548H72.3804V75.0161H43.9646V70.0548ZM128.294 3.48015H143.408L167.649 69.6279H154.561L149.767 56.3935H121.291L116.405 69.6279H103.314L128.294 3.48015ZM124.604 46.2809H146.543L135.848 16.9997L124.604 46.2809ZM309.863 46.2814C309.863 30.7031 299.198 19.1488 284.379 19.1488C269.733 19.1488 259.072 30.7031 259.072 46.2814C259.072 61.654 269.733 73.1111 284.379 73.1111C299.198 73.1111 309.863 61.654 309.863 46.2814ZM297.659 46.2814C297.659 54.3097 292.334 60.5822 284.379 60.5822C276.599 60.5822 271.265 54.3097 271.265 46.2814C271.265 38.0461 276.599 31.682 284.379 31.682C292.334 31.682 297.659 38.0461 297.659 46.2814ZM245.408 19.6118C246.539 19.3117 247.785 19.1488 249.172 19.1488C251.839 19.1488 254.132 19.8154 255.687 20.6041V34.7551C254.672 33.6596 251.248 32.241 247.194 32.241C241.021 32.241 237.975 36.7656 237.975 44.6991V51.2248C237.972 51.2181 237.966 51.2145 237.96 51.2115L237.958 51.2103L237.958 51.2102C237.955 51.2088 237.953 51.2075 237.951 51.2058V73.1111H225.212V19.7244H237.951V23.4156C240.58 20.8933 244.932 19.7299 245.361 19.6213C245.366 19.6185 245.373 19.6185 245.373 19.6185C245.375 19.6179 245.377 19.6172 245.38 19.6166C245.384 19.6155 245.389 19.6146 245.394 19.6138C245.402 19.6125 245.408 19.6118 245.408 19.6118ZM396.289 22.6304L384.035 55.9752L368.885 22.6291H353.883L377.517 71.5155L375.862 75.6824C373.92 80.1353 371.893 82.3539 367.439 82.3212C362.024 82.2816 360.434 80.6965 359.033 79.3009C358.898 79.1669 358.766 79.0347 358.631 78.9057V92.0446C361.094 93.1355 364.206 93.9986 367.439 93.9986C378.768 93.9986 385.262 88.1083 390.297 75.1451L411.446 22.6304H396.289ZM206.575 24.5857V19.2653V19.264H220.133V67.0299C220.133 84.9704 209.481 94 194.179 94C187.167 94 182.934 92.9997 179.314 91.3669V78.7535C182.751 80.8517 186.862 82.0638 194.379 82.0638C200.745 82.0638 206.575 78.9237 206.575 70.0083V65.1841C202.994 68.4629 197.862 70.621 191.371 70.621C177.236 70.621 167.649 59.0327 167.649 44.9875C167.649 30.7344 177.236 19.1488 191.371 19.1488C198.15 19.1488 203.188 21.2037 206.575 24.5857ZM195.15 58.1105C199.701 58.1105 203.964 55.9551 206.575 53.1923V36.6886C204.248 34.1217 199.801 31.6633 195.15 31.6633C186.725 31.6633 181.494 37.1941 181.494 44.9888C181.494 52.675 186.819 58.1105 195.15 58.1105Z" fill="#0F190C"/>
</svg>
