<svg width="115" height="27" viewBox="0 0 115 27" fill="none" xmlns="http://www.w3.org/2000/svg">
<path fill-rule="evenodd" clip-rule="evenodd" d="M95.489 3.52066C96.4023 3.52066 97.3408 3.91869 97.9238 4.31369V0.531971C97.1359 0.261307 96.1166 0.0361328 95.0479 0.0361328C91.5649 0.0361328 90.0708 2.44482 90.0708 5.30613V6.32738H87.4158V9.41461H90.0708V20.4383H93.9413V9.41461H98.2823V6.32738H93.9413V5.33457C93.9417 4.20147 94.3839 3.52066 95.489 3.52066ZM0 0.202076H22.2931V23.2771H0V0.202076ZM20.1987 2.35659H2.09491V3.89492H20.1987V2.35659ZM20.1987 6.20241H2.09491V7.5869H20.1987V6.20241ZM2.09491 12.8172H20.1987V14.3555H2.09491V12.8172ZM9.27658 15.74H2.09491V17.2784H9.27658V15.74ZM12.2689 15.74H20.1987V17.2784H12.2689V15.74ZM9.27658 9.12523H2.09491V10.6636H9.27658V9.12523ZM12.2689 9.12523H20.1987V10.6636H12.2689V9.12523ZM9.27658 19.5859H2.09491V20.9704H9.27658V19.5859ZM12.2689 19.5859H20.1987V20.9704H12.2689V19.5859ZM35.8019 1.0072H40.0196L46.7843 19.4665H43.1319L41.794 15.7732H33.8476L32.484 19.4665H28.8309L35.8019 1.0072ZM34.772 12.9512H40.8942L37.9097 4.77997L34.772 12.9512ZM86.4709 12.9516C86.4709 8.60435 83.4945 5.37998 79.3591 5.37998C75.272 5.37998 72.2971 8.60435 72.2971 12.9516C72.2971 17.2415 75.272 20.4388 79.3591 20.4388C83.4945 20.4388 86.4709 17.2415 86.4709 12.9516ZM83.0653 12.9516C83.0653 15.192 81.5792 16.9424 79.3591 16.9424C77.1882 16.9424 75.6997 15.192 75.6997 12.9516C75.6997 10.6535 77.1882 8.8775 79.3591 8.8775C81.5792 8.8775 83.0653 10.6535 83.0653 12.9516ZM68.484 5.50918C68.7995 5.42544 69.1473 5.37998 69.5341 5.37998C70.2784 5.37998 70.9185 5.566 71.3524 5.7861V9.73511C71.0691 9.42938 70.1135 9.0335 68.9822 9.0335C67.2597 9.0335 66.4096 10.2962 66.4096 12.5101V14.3312C66.4082 14.3281 66.4048 14.3274 66.4028 14.3259V20.4388H62.8481V5.54061H66.4028V6.57067C67.1365 5.8668 68.3512 5.54213 68.4706 5.51183C68.4721 5.51107 68.4742 5.51107 68.4742 5.51107C68.4771 5.50994 68.484 5.50918 68.484 5.50918ZM110.589 6.3513L107.169 15.6569L102.942 6.3513H98.755L105.35 19.9936L104.888 21.1564C104.347 22.399 103.781 23.0182 102.538 23.0091C101.027 22.998 100.583 22.5557 100.192 22.1662C100.155 22.1288 100.118 22.0919 100.08 22.0559V25.7225C100.767 26.0269 101.636 26.2678 102.538 26.2678C105.699 26.2678 107.512 24.624 108.917 21.0065L114.819 6.35168H110.589V6.3513ZM57.6471 6.89721V5.41249V5.41213H61.4306V18.7417C61.4306 23.7482 58.4582 26.268 54.1878 26.268C52.2311 26.268 51.0497 25.9889 50.0397 25.5332V22.0133C50.9987 22.5989 52.1458 22.9371 54.2436 22.9371C56.0203 22.9371 57.6471 22.0608 57.6471 19.5729V18.2266C56.6478 19.1416 55.2155 19.7439 53.4044 19.7439C49.4596 19.7439 46.7843 16.51 46.7843 12.5906C46.7843 8.61307 49.4596 5.37998 53.4044 5.37998C55.296 5.37998 56.7018 5.95342 57.6471 6.89721ZM54.4588 16.2527C55.7289 16.2527 56.9184 15.6512 57.6471 14.8802V10.2747C56.9978 9.55833 55.7566 8.87228 54.4588 8.87228C52.1078 8.87228 50.648 10.4157 50.648 12.5909C50.648 14.7358 52.1341 16.2527 54.4588 16.2527Z" fill="#0F190C"/>
</svg>
