<svg width="142" height="59" viewBox="0 0 142 59" fill="none" xmlns="http://www.w3.org/2000/svg">
<path d="M60.7621 48.9586C60.5528 49.1915 60.5349 49.4496 60.4931 49.6951C60.2299 51.3318 59.6619 52.8237 58.7291 54.1646C57.5272 55.8894 56.0023 57.1673 54.1068 57.9667C53.3055 58.3067 52.4803 58.5207 51.6312 58.6907C50.9914 58.8166 50.3576 58.804 49.7178 58.8354C48.0674 58.9299 46.411 58.848 44.7606 58.9236C43.9893 58.955 43.2239 58.9173 42.4645 58.8858C41.4838 58.848 40.4972 58.8795 39.5165 58.7914C38.5358 58.7032 37.5731 58.5396 36.6283 58.1619C34.6311 57.3624 33.0645 56.0342 31.8267 54.2212C31.2945 53.4469 30.852 52.6286 30.4753 51.7662C30.284 51.3192 30.1883 50.8345 30.0627 50.3624C29.9431 49.8966 29.973 49.4118 29.8056 48.9586C29.7876 48.9019 29.7757 48.839 29.7757 48.7823C29.7637 47.8066 29.5305 46.8561 29.5724 45.8741C29.5963 45.3516 29.5485 44.8228 29.5365 44.3003C29.5126 43.3561 29.5006 42.3992 29.6202 41.4739C29.8415 39.7616 30.2421 38.0872 31.0613 36.5701C31.8446 35.1222 32.9329 33.9639 34.3381 33.1771C35.1932 32.7049 36.0962 32.3587 37.0409 32.1258C37.5612 31.9936 38.0874 31.8803 38.6136 31.7733C39.3969 31.6159 40.1802 31.5278 40.9636 31.4082C41.7051 31.2949 42.4405 31.32 43.176 31.2508C43.8757 31.1878 44.5693 31.1816 45.2689 31.1941C46.1778 31.213 47.0987 31.1816 47.9956 31.32C48.6713 31.4271 49.353 31.4271 50.0227 31.5718C50.5011 31.6789 50.9974 31.7355 51.4877 31.8111C52.0199 31.8929 52.5401 32.0251 53.0604 32.1762C53.742 32.3776 54.4118 32.6105 55.0396 32.963C56.1997 33.6177 57.2162 34.4487 58.0115 35.5692C58.5078 36.2742 59.0041 36.9855 59.3868 37.7661C59.7277 38.4649 60.0207 39.1888 60.1642 39.9757C60.2359 40.3848 60.4632 40.7499 60.499 41.1717C60.505 41.2158 60.5409 41.2472 60.5887 41.2472C60.6545 41.2472 60.6964 41.2032 60.7203 41.1465C60.7861 40.9514 60.8459 40.7499 60.9116 40.5485C61.396 39.0629 61.9162 37.5961 62.7294 36.2679C63.2257 35.4621 63.8416 34.7571 64.5353 34.1339C65.2469 33.4918 65.9943 32.9064 66.8255 32.4468C67.848 31.8866 68.9004 31.4459 70.0425 31.2382C70.8558 31.0871 71.675 30.999 72.4942 30.9046C74.4973 30.6717 76.5065 30.7598 78.5157 30.785C79.2691 30.7976 80.0166 30.9361 80.764 31.0116C81.356 31.0745 81.942 31.213 82.534 31.3012C83.2754 31.4082 84.005 31.6159 84.7524 31.7292C85.177 31.7922 85.5836 31.9118 86.0081 31.981C86.4088 32.044 86.8154 32.1258 87.21 32.2454C87.5509 32.3461 87.9037 32.3965 88.2445 32.4909C88.5854 32.5853 88.9262 32.6735 89.2551 32.812C89.5062 32.919 89.6079 33.0889 89.6198 33.3533C89.6198 33.3848 89.6198 33.4163 89.6198 33.4415C89.5899 34.9711 89.7514 36.4945 89.6916 38.0242C89.6916 38.0368 89.6916 38.0557 89.6916 38.0683C89.7095 38.2382 89.6198 38.4586 89.8291 38.5467C89.9906 38.6159 90.1102 38.4586 90.2357 38.3641C91.4436 37.4577 92.4542 36.3309 93.4468 35.1726C94.4215 34.0269 95.3722 32.856 96.4247 31.7796C96.6519 31.5467 96.8911 31.4334 97.214 31.4271C98.1109 31.3956 99.0079 31.4334 99.9048 31.4019C101.214 31.3578 102.524 31.4396 103.833 31.4019C104.928 31.3704 106.022 31.2823 107.116 31.2886C108.695 31.3012 110.273 31.383 111.852 31.4271C112.492 31.4459 113.138 31.4522 113.778 31.4522C114.178 31.4522 114.573 31.4837 114.967 31.5467C115.673 31.66 115.858 31.8614 115.978 32.749C116.02 33.07 115.996 33.41 115.996 33.7373C115.996 36.5449 115.996 39.3524 115.996 42.16C115.996 42.7392 115.835 42.8902 115.284 43.0035C114.878 43.0854 114.495 43.0098 114.1 43.0035C112.647 42.9847 111.194 42.9972 109.741 42.9972C109.699 42.9972 109.658 42.9972 109.616 42.9972C109.095 43.0539 108.976 43.1798 108.976 43.7401C108.97 44.892 109.012 46.0503 109.024 47.2023C109.054 50.4316 109.036 53.6547 109.03 56.884C109.03 57.9793 108.916 57.8031 108.157 57.8031C105.047 57.8094 101.938 57.8031 98.8344 57.8031C98.093 57.8031 98.0033 57.7086 98.0033 56.9155C98.0152 52.9685 98.0272 49.0216 98.0392 45.0746C98.0392 44.5647 98.0152 44.0548 98.0152 43.5449C98.0152 43.3183 97.9853 43.1609 97.7282 43.0854C97.5668 43.0413 97.4053 42.9846 97.2379 42.9784C96.7655 42.9658 96.2871 43.0035 95.8267 42.9217C94.565 42.7077 93.2973 42.8839 92.0296 42.8021C91.6649 42.7769 91.6589 42.7958 91.6589 43.1924C91.6589 45.232 91.6708 47.2715 91.6469 49.3174C91.641 49.884 91.5094 50.4379 91.3958 50.9919C91.3061 51.4262 91.1745 51.848 91.037 52.2698C90.6603 53.4469 90.0564 54.4793 89.2969 55.4173C88.3821 56.5566 87.222 57.3309 85.9304 57.9227C85.2667 58.2248 84.579 58.4388 83.8794 58.5899C83.3831 58.6969 82.8808 58.7914 82.3665 58.8291C79.006 59.1061 75.6454 58.9676 72.2849 58.9487C71.3341 58.9424 70.3774 58.8669 69.4326 58.7662C68.8586 58.7032 68.2785 58.5459 67.7164 58.3255C67.0886 58.0863 66.4966 57.7968 65.9226 57.4505C64.5712 56.6385 63.4888 55.518 62.6158 54.1708C61.7488 52.8426 61.2465 51.3633 60.9714 49.7895C60.9355 49.5189 60.8399 49.2419 60.7621 48.9586ZM76.3211 41.455C75.5856 41.4676 74.9219 41.4739 74.2582 41.5935C73.6243 41.7068 73.122 42.0089 72.6855 42.4874C72.1414 43.0854 71.944 43.8282 71.8783 44.6151C71.7647 45.9874 72.2012 46.9127 73.427 47.5737C73.9472 47.8507 74.5273 47.9388 75.1133 48.0206C76.2972 48.178 77.4692 48.1214 78.6472 47.9451C79.3229 47.8444 79.9209 47.5422 80.4232 47.0575C81.4636 46.044 81.5115 44.1241 80.5487 42.928C79.7833 41.9775 78.7369 41.5746 77.5888 41.4739C77.1403 41.4361 76.6979 41.4865 76.3211 41.455ZM45.3227 41.4487C44.7965 41.4487 44.2703 41.4361 43.7441 41.4487C43.0086 41.4676 42.3748 41.7571 41.8306 42.2859C41.3044 42.8021 41.0712 43.4694 40.9456 44.1807C40.7304 45.446 41.0712 46.6295 42.2073 47.3282C42.7814 47.6807 43.4033 47.8822 44.055 47.9325C45.3048 48.0269 46.5545 48.071 47.7983 47.8255C49.6938 47.4541 50.5848 45.8552 50.1603 44.0548C49.7716 42.3992 48.3544 41.6438 47.0688 41.4613C46.4947 41.3794 45.9028 41.4487 45.3227 41.4487ZM57.5869 26.7058C57.581 26.9954 57.6707 27.2598 57.7484 27.5305C57.862 27.9333 57.9936 28.3299 58.0952 28.7328C58.1909 29.1357 58.0115 29.3875 57.6228 29.3875C54.5015 29.419 51.3801 29.4127 48.2587 29.4001C47.9358 29.4001 47.7086 29.249 47.6189 28.9783C47.5352 28.7139 47.4156 28.4432 47.4156 28.16C47.4156 27.7886 47.284 27.4486 47.1824 27.115C47.0209 26.5862 46.8954 26.0574 46.7698 25.5224C46.716 25.302 46.6622 25.088 46.5964 24.874C46.5127 24.6096 46.3991 24.5718 46.1419 24.6851C45.1852 25.1006 44.3062 25.6608 43.4152 26.1959C41.8187 27.1465 40.2281 28.1096 38.6375 29.0727C38.2548 29.3056 37.8721 29.419 37.4236 29.4127C34.4039 29.3497 31.3782 29.419 28.3585 29.4064C28.1851 29.4064 28.0177 29.4127 27.8443 29.3938C27.5931 29.3623 27.5513 29.2427 27.5812 28.9783C27.6529 28.3425 27.8443 27.7319 27.9938 27.115C28.215 26.2085 28.4422 25.302 28.6814 24.4019C28.8309 23.829 28.9385 23.2436 29.1239 22.6833C29.2913 22.1797 29.4049 21.6635 29.5425 21.1536C29.686 20.6312 29.8295 20.1024 29.9611 19.5736C30.1285 18.8811 30.3258 18.2013 30.4813 17.5025C30.6128 16.9108 30.7743 16.3191 30.9178 15.7337C31.0553 15.1923 31.1749 14.6446 31.3424 14.1095C31.432 13.8074 31.5217 13.4863 31.5636 13.1653C31.5995 12.8883 31.7071 12.6239 31.7669 12.347C31.9822 11.409 32.2752 10.4899 32.4904 9.54568C32.6638 8.7714 32.8731 8.00341 33.0585 7.22913C33.2678 6.35412 33.501 5.49171 33.7282 4.61671C33.9255 3.84242 34.1767 3.07444 34.4099 2.31274C34.5116 1.97911 34.6371 1.65177 34.7747 1.32443C34.9421 0.940436 35.2172 0.801946 35.5699 0.757881C35.6836 0.745292 35.7972 0.751587 35.9108 0.751587C37.8781 0.751587 39.8454 0.694932 41.8127 0.764176C44.2643 0.846011 46.716 0.808241 49.1617 0.852306C49.634 0.858601 49.8732 1.19853 50.0347 1.58252C50.3516 2.33163 50.6027 3.1185 50.824 3.90538C51.2844 5.52319 51.7508 7.1347 52.2232 8.75251C52.6179 10.0996 53.0245 11.4405 53.4251 12.7813C53.8736 14.2921 54.3221 15.8092 54.7765 17.32C54.8244 17.4711 54.9081 17.6096 55.0037 17.8047C55.1532 17.4774 55.0875 17.1941 55.0516 16.9297C54.8662 15.7211 54.8901 14.5124 55.0516 13.3038C55.0635 13.2283 55.0755 13.1527 55.0695 13.0772C55.0456 12.3847 55.1831 11.6986 55.3027 11.0313C55.4582 10.1437 55.6914 9.26241 56.0023 8.41259C56.4389 7.20395 57.0308 6.09603 57.8082 5.09513C58.9682 3.60322 60.3854 2.46382 62.0657 1.68954C62.7115 1.39368 63.3693 1.16076 64.0509 0.978206C65.199 0.663457 66.3531 0.531262 67.5311 0.449427C68.4938 0.386477 69.4386 0.474607 70.3893 0.518672C70.9933 0.550147 71.6032 0.650867 72.2012 0.776766C72.6138 0.864896 73.0383 0.934141 73.4509 1.02227C74.605 1.28037 75.7172 1.65177 76.656 2.45123C77.1583 2.88559 77.3377 3.46473 77.0985 4.13199C76.9251 4.623 76.8115 5.1266 76.662 5.62391C76.3869 6.53038 76.0819 7.42427 75.6933 8.28669C75.2627 9.24352 74.8501 10.213 74.4734 11.195C74.3239 11.579 74.1565 11.9693 73.6901 12.0637C73.433 12.114 73.2057 12.0385 72.9845 11.9504C72.3686 11.7112 71.7348 11.5223 71.1009 11.3964C70.3176 11.2453 69.5103 11.195 68.727 11.3838C67.555 11.6608 66.7059 12.391 66.1558 13.5367C65.8448 14.1788 65.7551 14.8398 65.7551 15.5322C65.7551 16.2436 66.0421 16.8038 66.6042 17.2004C67.0886 17.5466 67.6267 17.7355 68.1948 17.8991C68.7868 18.0628 69.3788 18.0754 69.9708 18.0187C71.1069 17.9054 72.1952 17.597 73.1878 16.9864C73.6183 16.722 73.8575 16.7597 74.1087 17.2004C74.6947 18.2265 75.185 19.3029 75.6933 20.3731C76.1836 21.3991 76.668 22.4315 77.1344 23.4702C77.5051 24.2948 77.8459 25.1258 78.1928 25.963C78.3243 26.2778 78.2406 26.4225 77.9237 26.4981C76.8593 26.7625 75.8069 27.0583 74.7365 27.2913C74.1266 27.4234 73.5227 27.5682 72.9187 27.7193C72.3327 27.8641 71.7407 27.9963 71.1547 28.1537C70.79 28.2544 70.4252 28.3803 70.0365 28.3992C69.7555 28.4118 69.4864 28.5314 69.2114 28.6006C68.3383 28.8209 67.4593 28.9909 66.5863 29.1923C65.5937 29.4253 64.5771 29.419 63.5666 29.4127C63.2975 29.4127 63.0224 29.4001 62.7533 29.4001C62.0238 29.4064 61.3601 29.1294 60.7083 28.8398C59.6081 28.3488 58.5855 27.7319 57.7843 26.7751C57.7604 26.7436 57.7125 26.7247 57.6766 26.7121C57.6587 26.6869 57.6288 26.6995 57.5869 26.7058ZM44.5633 16.7157C44.5334 16.6653 44.5155 16.6401 44.5035 16.615C44.372 16.0358 44.1627 15.4882 44.0012 14.9216C43.7501 14.0277 43.469 13.1527 43.1461 12.2903C42.9787 11.8308 42.7993 11.3712 42.4764 11.0061C42.2253 10.7166 41.9981 10.7543 41.8007 11.088C41.7469 11.1761 41.6991 11.2642 41.6572 11.3586C41.3881 11.9504 41.1848 12.5736 40.9815 13.1968C40.6945 14.0529 40.4912 14.9279 40.2341 15.7903C40.0726 16.3317 39.959 16.8793 39.8155 17.427C39.666 18.0061 39.5105 18.579 39.3551 19.1518C39.3371 19.2211 39.2953 19.3029 39.373 19.3533C39.4388 19.3973 39.5045 19.3596 39.5703 19.3281C39.8514 19.1896 40.1324 19.0511 40.4194 18.9189C41.3104 18.5097 42.2014 18.1132 43.0863 17.6851C43.4989 17.49 43.8876 17.2382 44.2883 17.0115C44.4138 16.936 44.5215 16.8479 44.5633 16.7157ZM8.50016 29.1986C6.30563 29.1986 4.05729 29.1986 1.80297 29.1986C1.71925 29.1986 1.62956 29.1986 1.54585 29.1923C0.935923 29.1483 0.535288 28.7517 0.511369 28.1096C0.439614 26.5107 0.290123 24.9117 0.320021 23.3065C0.33198 22.5134 0.284143 21.7202 0.194449 20.9333C0.18249 20.8452 0.188469 20.7508 0.188469 20.6626C0.17651 14.7076 0.17651 8.74622 0.164551 2.79116C0.164551 2.30645 0.218367 1.83432 0.34394 1.37479C0.415695 1.12299 0.559207 0.908961 0.840249 0.814536C1.11531 0.720112 1.3844 0.676047 1.67142 0.676047C2.95704 0.682342 4.23668 0.688637 5.5223 0.676047C5.89304 0.669752 6.25779 0.757881 6.62853 0.757881C7.88425 0.757881 9.134 0.638277 10.3837 0.657162C12.1537 0.682342 13.9177 0.650867 15.6877 0.688637C16.6683 0.713817 17.649 0.833421 18.6237 0.820831C19.6103 0.808241 20.585 0.946731 21.5597 1.05375C22.8094 1.18594 23.9814 1.59512 24.9382 2.54566C25.4464 3.04926 25.7634 3.64728 25.9607 4.31455C26.2178 5.16437 26.3494 6.04567 26.3314 6.95844C26.3015 8.46924 25.871 9.79119 24.8246 10.855C24.7349 10.9495 24.6392 11.0439 24.5555 11.1446C24.388 11.3523 24.406 11.4342 24.6571 11.5286C25.1654 11.7175 25.6318 11.9755 26.0743 12.3092C26.7679 12.8317 27.2284 13.5367 27.6111 14.3047C28.0117 15.1105 28.2688 15.9792 28.4303 16.8668C28.5499 17.5529 28.6814 18.2517 28.6575 18.9567C28.6455 19.3344 28.7352 19.6995 28.7352 20.0709C28.7412 21.1222 28.6874 22.1734 28.4422 23.1932C28.0057 24.9873 27.2044 26.5547 25.7634 27.7193C24.9322 28.3929 24.0173 28.8713 23.0247 29.1672C22.2952 29.3875 21.5358 29.4127 20.7823 29.3812C19.401 29.3119 18.0138 29.4064 16.6325 29.3434C13.9416 29.2049 11.2508 29.2868 8.50016 29.1986ZM13.7622 17.6977C13.3795 17.6977 12.9909 17.6851 12.6082 17.6977C12.07 17.7166 11.5259 17.6788 10.9937 17.7795C10.6708 17.8425 10.6528 17.8425 10.6289 18.2076C10.611 18.4783 10.6169 18.749 10.593 19.0133C10.4974 20.0017 10.5571 20.99 10.5631 21.9783C10.5631 22.0979 10.611 22.2112 10.6169 22.3308C10.6289 22.4882 10.7126 22.5385 10.8442 22.5322C11.2867 22.4945 11.7232 22.6078 12.1597 22.6078C13.254 22.6015 14.3542 22.6204 15.4485 22.6015C16.0704 22.5889 16.6863 22.57 17.2962 22.3623C18.0078 22.1231 18.5519 21.7202 18.8987 21.0152C18.9884 20.8326 18.9526 20.6312 19.0542 20.4612C19.1798 20.2409 19.1559 19.9828 19.0961 19.7562C18.9406 19.1644 18.6297 18.6923 18.1094 18.3838C17.356 17.9306 16.5308 17.7543 15.6817 17.6977C15.0479 17.6662 14.4021 17.6977 13.7622 17.6977ZM12.6739 11.3586C12.6739 11.3523 12.6739 11.3523 12.6739 11.3461C13.0148 11.3461 13.3556 11.3461 13.7024 11.3461C14.1987 11.3461 14.6951 11.3523 15.1794 11.1698C15.6339 10.9998 16.0465 10.7669 16.2199 10.2633C16.4112 9.71565 16.5368 9.18687 16.3873 8.56996C16.184 7.72014 15.2213 7.02769 14.5515 7.02769C13.3377 7.03398 12.1298 7.04028 10.9159 7.03398C10.7186 7.03398 10.6349 7.10323 10.6349 7.31726C10.6349 8.56367 10.6229 9.81007 10.6229 11.0565C10.6229 11.3398 10.6528 11.3523 10.9279 11.3523C11.5019 11.3586 12.0879 11.3586 12.6739 11.3586ZM0.421675 44.6465C0.421675 40.7436 0.421675 36.8407 0.421675 32.9379C0.421675 32.6357 0.433634 32.3272 0.589105 32.0691C0.804371 31.704 1.14521 31.5341 1.53987 31.4774C1.73719 31.4522 1.9405 31.4585 2.13783 31.4585C6.47306 31.4522 10.8083 31.4459 15.1375 31.4396C16.477 31.4396 17.8164 31.4271 19.1559 31.49C19.7598 31.5215 20.3637 31.6222 20.9617 31.7607C21.5836 31.9055 22.1935 32.0817 22.7855 32.3209C24.2146 32.8812 25.4584 33.7373 26.5228 34.883C27.4735 35.9028 28.2389 37.0548 28.6874 38.4208C28.9027 39.0818 28.9505 39.7679 28.9804 40.4541C29.0342 41.6753 28.9326 42.8776 28.4901 44.0233C28.0356 45.2068 27.324 46.151 26.2537 46.7868C26.1102 46.875 25.9726 46.9757 25.8351 47.0827C25.6139 47.2464 25.6019 47.3156 25.7335 47.5611C26.2597 48.5431 26.7918 49.5251 27.324 50.5072C28.2509 52.2194 29.1538 53.9442 30.0149 55.6942C30.1763 56.0279 30.3019 56.3741 30.3438 56.7455C30.4035 57.2491 30.2122 57.7464 29.6142 57.7905C29.4707 57.8031 29.3332 57.8156 29.1897 57.8156C26.0504 57.8156 22.917 57.8156 19.7777 57.8156C19.6641 57.8156 19.5505 57.8156 19.4369 57.8093C19.0961 57.7905 18.8449 57.6079 18.6954 57.2932C18.241 56.3489 17.6908 55.4676 17.1706 54.5737C16.5009 53.428 15.8252 52.2824 15.2213 51.0926C15.018 50.6897 14.7847 50.3057 14.5874 49.8966C14.5157 49.7518 14.432 49.714 14.2884 49.7077C13.5709 49.6699 12.8713 49.821 12.1657 49.9154C11.8667 49.9532 11.8069 50.0665 11.8069 50.4127C11.8009 51.4136 11.8547 52.4145 11.9145 53.4155C11.9923 54.6682 12.0102 55.9334 11.9504 57.1924C11.9325 57.5827 11.7949 57.7275 11.4421 57.7716C11.3285 57.7842 11.2149 57.8093 11.1013 57.8093C9.56453 57.8093 8.02777 58.0045 6.491 57.8849C4.82268 57.759 3.16035 57.8471 1.49203 57.8156C1.10933 57.8093 0.792412 57.7086 0.583125 57.3561C0.451573 57.1295 0.439614 56.8777 0.415695 56.6259C0.397756 56.4308 0.409716 56.2356 0.409716 56.0405C0.421675 52.2383 0.421675 48.4424 0.421675 44.6465ZM11.6215 40.5107C11.6275 40.5107 11.6395 40.5107 11.6454 40.5107C11.6454 41.0017 11.6215 41.499 11.6514 41.99C11.6813 42.437 11.8189 42.5377 12.2434 42.5818C12.7995 42.6321 13.3556 42.5881 13.9057 42.6196C14.4977 42.651 15.0598 42.4999 15.6339 42.4055C15.9209 42.3615 16.2139 42.2607 16.477 42.1097C16.8657 41.883 17.2185 41.6249 17.344 41.1339C17.5952 40.1582 17.051 39.1069 16.3036 38.6726C15.7594 38.3578 15.1794 38.2131 14.5635 38.1186C13.6725 37.9739 12.8115 38.0997 11.9564 38.3453C11.8727 38.3704 11.7949 38.3956 11.783 38.5089C11.7471 38.8363 11.5856 39.1321 11.6096 39.4721C11.6395 39.8246 11.6215 40.1645 11.6215 40.5107ZM89.7036 6.8829C89.7454 5.22103 89.6557 3.55915 89.5361 1.89727C89.4883 1.26148 89.1953 0.921551 88.6033 0.927846C87.5509 0.940436 86.4985 0.801947 85.4461 0.846011C85.2188 0.858601 84.9916 0.833421 84.7644 0.833421C84.0229 0.839716 83.2874 0.801946 82.5459 0.908961C81.8643 1.00968 81.1886 1.02857 80.5069 0.864896C80.3036 0.814536 80.0763 0.833421 79.8671 0.858601C79.4724 0.915256 79.1136 1.04745 79.0239 1.53216C79 1.65177 78.9821 1.77137 78.9821 1.88468C78.994 3.08703 78.8984 4.28307 78.8804 5.47912C78.8685 6.33524 78.9163 7.18506 78.9342 8.04118C78.9522 9.10503 78.9761 10.1689 78.8864 11.2327C78.8266 11.9378 78.9342 12.6365 78.9402 13.3416C78.9582 14.418 78.8625 15.4944 78.8744 16.5772C78.8924 19.007 78.8744 21.4369 78.8864 23.8731C78.8864 24.5466 78.9402 25.2202 78.9761 25.8938C79 26.2463 79.0837 26.3092 79.4066 26.2589C79.873 26.1833 80.3335 26.1393 80.8059 26.133C81.7148 26.1078 82.6297 26.1456 83.5386 26.0448C83.8615 26.0134 84.1903 25.8812 84.5132 25.9882C84.7345 26.0637 84.9557 26.07 85.183 26.0826C85.7271 26.1015 86.2772 26.0511 86.8034 26.1707C87.5927 26.347 88.4 26.24 89.1773 26.4477C89.4464 26.517 89.5122 26.4288 89.5421 26.1078C89.5839 25.6609 89.6139 25.2076 89.6198 24.767C89.6438 23.7157 89.7454 22.6707 89.7036 21.6195C89.6976 21.4999 89.6976 21.3803 89.7036 21.2607C89.7095 21.1599 89.6916 21.0403 89.8172 21.0026C89.9128 20.9774 89.9786 21.0277 90.0384 21.097C90.1281 21.1977 90.2238 21.2858 90.3135 21.3803C91.4616 22.6204 92.502 23.9675 93.5126 25.3272C94.2959 26.3848 95.0314 27.4801 95.8387 28.5188C96.3589 29.186 96.9329 29.6141 97.788 29.5512C98.2724 29.5134 98.7567 29.5386 99.2411 29.5386C101.352 29.5449 103.463 29.5512 105.573 29.5574C105.843 29.5574 106.118 29.5512 106.387 29.5386C106.865 29.5071 107.14 29.249 107.212 28.7517C107.26 28.3929 107.224 28.0529 107.033 27.7256C106.919 27.5368 106.781 27.3668 106.668 27.1842C106.154 26.347 105.615 25.5287 105.101 24.6914C104.7 24.043 104.258 23.4261 103.81 22.8155C103.104 21.865 102.416 20.9018 101.717 19.945C101.286 19.3533 100.85 18.7678 100.449 18.1509C100.156 17.6977 99.839 17.257 99.5221 16.8227C98.954 16.0421 98.386 15.2615 97.8 14.4872C97.6684 14.3173 97.6505 14.1914 97.7581 14.0088C97.9435 13.6941 98.1468 13.3919 98.3381 13.0772C99.0019 11.9881 99.7194 10.9432 100.443 9.89191C100.826 9.33795 101.232 8.80288 101.591 8.23003C102.578 6.63111 103.648 5.10142 104.659 3.52138C104.97 3.03037 105.304 2.55825 105.46 1.96652C105.615 1.3622 105.424 1.02227 104.844 1.02227C101.579 1.02227 98.3142 1.02227 95.0493 1.02227C94.7384 1.02227 94.4275 1.06634 94.1165 1.10411C93.9132 1.12929 93.7458 1.2426 93.6142 1.41256C93.387 1.70213 93.2196 2.02947 93.0462 2.35681C92.508 3.35771 91.8921 4.30825 91.2523 5.23991C90.7799 5.92607 90.3015 6.60592 89.7992 7.32355C89.6677 7.14729 89.7036 7.0088 89.7036 6.8829ZM128.876 58.1493C129.337 58.0737 129.803 58.0171 130.251 57.8975C131.047 57.6834 131.818 57.3876 132.536 56.9406C133.869 56.116 135.047 55.1277 135.812 53.6798C136.309 52.7293 136.632 51.7221 136.62 50.6205C136.614 50.3498 136.608 50.0791 136.62 49.8084C136.644 49.3363 136.488 48.8957 136.398 48.4424C136.315 47.9829 136.129 47.5422 135.932 47.1205C135.496 46.1762 134.945 45.3264 134.114 44.6906C133.397 44.1366 132.625 43.6708 131.884 43.1609C131.262 42.7266 130.568 42.4244 129.934 42.0089C129.713 41.8641 129.528 41.7068 129.366 41.4865C129.259 41.3354 129.283 41.2346 129.36 41.0899C129.522 40.7877 129.761 40.7122 130.072 40.7185C131.657 40.731 133.235 40.731 134.82 40.7248C135.46 40.7248 135.675 40.5044 135.657 39.8372C135.627 38.3956 135.783 36.9604 135.735 35.5188C135.735 35.4307 135.753 35.3425 135.753 35.2481C135.759 34.1969 135.771 33.1456 135.765 32.1006C135.765 31.7418 135.502 31.5026 135.173 31.4522C134.282 31.32 133.385 31.3326 132.494 31.3137C130.574 31.2823 128.655 31.2445 126.729 31.4145C125.581 31.5152 124.439 31.5718 123.303 31.7796C122.771 31.874 122.251 32.0125 121.748 32.2013C120.433 32.7049 119.261 33.454 118.304 34.562C117.539 35.4496 117.048 36.4819 116.875 37.6465C116.63 39.2895 116.797 40.901 117.473 42.4307C117.993 43.6142 118.711 44.5899 119.811 45.276C120.905 45.9559 122.006 46.6106 123.082 47.3156C123.303 47.4604 123.548 47.5989 123.71 47.8381C123.955 48.1969 123.847 48.5305 123.441 48.6627C123.237 48.7257 123.022 48.7446 122.807 48.7572C122.035 48.8012 121.27 48.6753 120.505 48.6753C119.638 48.6753 118.765 48.6816 117.903 48.5746C117.007 48.4676 116.116 48.4928 115.219 48.4739C114.967 48.4676 114.86 48.5935 114.788 48.8075C114.752 48.9082 114.746 49.009 114.746 49.116C114.74 49.6385 114.728 50.1672 114.722 50.6897C114.704 52.1565 114.686 53.6295 114.663 55.0962C114.663 55.2032 114.657 55.3102 114.639 55.411C114.513 56.0342 114.597 56.6637 114.585 57.2932C114.579 57.6016 114.83 57.9164 115.087 57.929C115.553 57.9541 116.002 58.1115 116.48 58.0863C117.108 58.0611 117.736 58.1052 118.358 58.1178C119.183 58.1304 120.002 58.1808 120.822 58.2374C122.041 58.313 123.273 58.2563 124.499 58.2563C125.952 58.2374 127.417 58.3948 128.876 58.1493ZM126.61 16.5394C126.61 16.4072 126.616 16.2687 126.604 16.1365C126.568 15.847 126.466 15.7337 126.191 15.7211C125.892 15.7085 125.587 15.6896 125.294 15.7211C124.314 15.8344 123.327 15.7525 122.346 15.7714C121.946 15.7777 121.916 15.7903 121.91 16.2184C121.91 16.3065 121.91 16.4009 121.91 16.4891C121.904 17.7795 121.904 19.07 121.892 20.3605C121.892 20.7193 121.856 20.7571 121.533 20.7634C121.174 20.7759 120.822 20.7759 120.463 20.7634C120.158 20.7571 120.122 20.7193 120.116 20.3919C120.11 19.7624 120.116 19.1329 120.11 18.5034C120.104 17.7543 120.104 17.0052 120.086 16.2498C120.08 15.9414 119.972 15.8407 119.691 15.7651C119.524 15.7211 119.357 15.7085 119.183 15.7085C118.173 15.7085 117.156 15.7085 116.145 15.7085C115.972 15.7085 115.805 15.7337 115.637 15.7651C115.452 15.8029 115.374 15.9099 115.338 16.0925C115.266 16.4765 115.255 16.8668 115.308 17.257C115.35 17.5403 115.362 17.8299 115.326 18.1069C115.249 18.749 115.266 19.391 115.243 20.0331C115.213 20.8263 115.231 21.6258 115.237 22.4189C115.249 24.5026 115.26 26.5925 115.278 28.6761C115.278 28.8398 115.308 29.0035 115.32 29.1672C115.338 29.3875 115.464 29.5071 115.649 29.5071C116.229 29.4945 116.815 29.5512 117.395 29.463C117.927 29.3812 118.472 29.356 119.004 29.4945C119.159 29.5323 119.321 29.5386 119.47 29.5008C119.781 29.4253 119.931 29.2049 119.931 28.802C119.937 27.6627 119.949 26.5233 119.925 25.3776C119.919 24.9432 120.11 24.7984 120.451 24.7858C120.851 24.7733 121.252 24.7858 121.647 24.7796C121.808 24.7796 121.88 24.8614 121.886 25.0251C121.886 25.1132 121.892 25.2076 121.892 25.2957C121.904 26.3911 121.916 27.4864 121.922 28.5817C121.922 28.7643 121.958 28.9342 122.011 29.1105C122.113 29.4127 122.221 29.5134 122.52 29.5197C122.789 29.526 123.064 29.5197 123.333 29.5197C124.26 29.5197 125.187 29.5197 126.114 29.5197C126.329 29.5197 126.52 29.4819 126.58 29.2301C126.61 29.1168 126.598 28.9909 126.598 28.8713C126.598 26.8002 126.598 24.7292 126.598 22.6581C126.61 20.6186 126.61 18.579 126.61 16.5394ZM115.063 7.99712C115.039 7.18506 115.123 6.31635 115.219 5.45394C115.338 4.32714 115.667 3.26958 116.367 2.38199C116.815 1.80914 117.353 1.37479 118.059 1.16076C118.382 1.06634 118.693 1.02857 119.016 0.990796C119.877 0.896371 120.744 0.783061 121.605 0.890076C122.424 0.990796 123.273 0.940436 124.051 1.33702C124.846 1.7399 125.426 2.3631 125.826 3.17516C126.317 4.16976 126.508 5.24621 126.574 6.35413C126.64 7.58165 126.67 8.81547 126.604 10.0367C126.526 11.4971 126.12 12.838 124.989 13.82C124.654 14.1095 124.26 14.2984 123.841 14.4432C123.339 14.6194 122.837 14.6069 122.328 14.6131C121.79 14.6194 121.264 14.8083 120.72 14.7265C119.96 14.6006 119.183 14.6824 118.43 14.5628C117.676 14.4432 117.048 14.0025 116.522 13.4045C116.014 12.8254 115.679 12.1455 115.416 11.4216C115.332 11.1887 115.266 10.9306 115.249 10.6851C115.171 9.81007 114.997 8.94137 115.063 7.99712ZM119.775 7.83345C119.775 8.17967 119.769 8.5196 119.775 8.86583C119.781 9.45126 120.188 9.89191 120.714 9.92338C121.228 9.95486 121.832 9.56457 121.904 8.94766C121.994 8.1419 121.994 7.33614 121.904 6.53038C121.892 6.41078 121.85 6.31006 121.796 6.19675C121.629 5.82535 121.001 5.58614 120.558 5.70574C120.134 5.81905 119.787 6.22822 119.775 6.75071C119.769 7.11582 119.775 7.47463 119.775 7.83345ZM127.453 22.5763C127.453 23.9549 127.447 25.3398 127.453 26.7184C127.453 27.392 127.459 28.0718 127.483 28.7454C127.507 29.3308 127.579 29.3938 128.117 29.3938C130.526 29.3938 132.936 29.3938 135.34 29.3938C135.412 29.3938 135.484 29.3938 135.555 29.3938C135.759 29.3938 135.896 29.2805 135.998 29.0979C136.094 28.9342 136.094 28.758 136.094 28.5754C136.094 27.5682 136.094 26.5673 136.094 25.5601C136.094 25.4405 136.088 25.3209 136.076 25.2013C136.01 24.7418 135.872 24.597 135.436 24.5907C134.581 24.5844 133.726 24.5781 132.871 24.597C132.111 24.6159 132.111 24.6285 132.135 23.8416C132.147 23.4072 132.159 23.3884 132.572 23.3695C133.14 23.3443 133.708 23.338 134.282 23.3191C134.652 23.3065 134.724 23.2373 134.73 22.8344C134.736 22.5322 134.748 22.2301 134.724 21.9342C134.694 21.5376 134.617 21.481 134.246 21.4747C133.648 21.4684 133.05 21.4684 132.452 21.4747C132.279 21.4747 132.189 21.418 132.195 21.2166C132.207 20.99 132.201 20.7634 132.195 20.543C132.189 20.3479 132.267 20.2786 132.452 20.2849C132.763 20.2912 133.08 20.2723 133.391 20.2723C134.144 20.2723 134.904 20.2723 135.657 20.2723C135.98 20.2723 136.082 20.159 136.1 19.8254C136.1 19.7939 136.1 19.7624 136.1 19.7373C136.1 18.5979 136.1 17.4585 136.1 16.3191C136.1 15.8596 135.986 15.74 135.543 15.7274C135.502 15.7274 135.46 15.7274 135.418 15.7274C133.05 15.7274 130.688 15.7274 128.32 15.7274C128.206 15.7274 128.093 15.7211 127.979 15.7337C127.8 15.7525 127.65 15.8218 127.614 16.0421C127.585 16.1995 127.501 16.3443 127.501 16.5205C127.501 16.9549 127.477 17.3892 127.477 17.8236C127.471 19.4162 127.477 21.0026 127.477 22.5952C127.465 22.5763 127.459 22.5763 127.453 22.5763ZM107.385 1.00968C106.423 1.00968 106.423 1.00968 106.417 2.01688C106.417 3.47102 106.417 4.92516 106.417 6.3856C106.417 6.47373 106.411 6.56815 106.423 6.65628C106.458 6.95844 106.548 7.04028 106.829 7.04657C107.17 7.05287 107.511 7.04657 107.858 7.04657C108.276 7.05287 108.294 7.07175 108.306 7.49981C108.306 7.60683 108.306 7.70755 108.306 7.81456C108.306 9.91709 108.306 12.0133 108.306 14.1158C108.306 14.6509 108.39 14.739 108.904 14.739C110.1 14.739 111.296 14.7453 112.498 14.739C113 14.739 113.048 14.6698 113.06 14.1347C113.102 12.1896 112.916 10.2444 112.976 8.29298C112.982 8.06636 112.976 7.84604 112.976 7.61942C112.976 7.54388 112.97 7.46834 112.982 7.3928C113.012 7.1347 113.078 7.06546 113.335 7.05916C113.55 7.05287 113.76 7.05287 113.975 7.04657C114.567 7.02769 114.591 7.0088 114.603 6.3856C114.603 6.31006 114.603 6.23452 114.603 6.15898C114.603 5.22732 114.609 4.29566 114.603 3.3703C114.597 2.7408 114.645 2.1113 114.555 1.4818C114.495 1.04116 114.483 1.01598 114.053 1.01598C112.869 1.01598 111.685 1.01598 110.507 1.01598C109.466 1.00968 108.426 1.00968 107.385 1.00968ZM110.477 15.8784C109.293 15.8784 108.109 15.8784 106.925 15.8784C106.626 15.8784 106.53 15.9603 106.476 16.2813C106.452 16.4261 106.423 16.5772 106.423 16.7283C106.417 18.2894 106.417 19.8506 106.423 21.4117C106.423 21.8272 106.542 21.9468 106.937 21.9594C107.266 21.9657 107.595 21.9531 107.923 21.9657C108.282 21.9783 108.312 22.0098 108.312 22.3812C108.318 22.8911 108.312 23.4009 108.312 23.9108C108.312 25.6357 108.312 27.3605 108.312 29.0916C108.312 29.5512 108.342 29.5763 108.773 29.5763C110.058 29.5763 111.338 29.5763 112.623 29.5763C113.054 29.5763 113.072 29.57 113.06 29.1294C113.03 28.1096 113.072 27.0961 113 26.0763C112.916 24.8362 112.976 23.5835 112.982 22.3371C112.982 22.0223 113.012 22.0035 113.299 21.9909C113.586 21.9783 113.867 21.9846 114.154 21.9594C114.441 21.9342 114.555 21.8083 114.597 21.5187C114.615 21.3866 114.615 21.2481 114.615 21.1159C114.615 19.9576 114.621 18.8056 114.615 17.6473C114.615 17.213 114.639 16.7786 114.567 16.3443C114.507 15.9918 114.483 15.9414 114.16 15.9036C114.059 15.891 113.963 15.8973 113.861 15.8973C112.737 15.8973 111.607 15.8973 110.483 15.8973C110.477 15.8847 110.477 15.8784 110.477 15.8784ZM134.001 8.19856C134.072 8.18597 134.138 8.16708 134.21 8.15449C134.76 8.016 135.31 7.87122 135.866 7.73902C136.584 7.56906 137.289 7.34873 137.947 7.0151C138.587 6.69405 139.137 6.25341 139.556 5.61761C140.16 4.69225 140.405 3.6221 140.68 2.57084C140.877 1.82803 140.991 1.05375 141.14 0.298347C141.2 -0.00381189 141.164 -0.0478768 140.859 0.040253C140.327 0.197628 139.783 0.317232 139.251 0.449427C138.455 0.650867 137.672 0.871191 136.919 1.19853C136.225 1.50698 135.585 1.90986 135.131 2.58343C134.617 3.35142 134.371 4.22642 134.162 5.12031C134.066 5.52319 134.001 5.93236 133.923 6.34153C133.827 6.85143 133.732 7.36762 133.66 7.75791C133.654 8.23003 133.672 8.24892 134.001 8.19856ZM135.567 14.0151C136.644 13.6752 137.618 13.1086 138.491 12.3595C139.263 11.6986 139.986 10.9998 140.602 10.1752C140.746 9.98004 140.656 9.91709 140.53 9.84155C140.471 9.80378 140.393 9.80378 140.327 9.79119C139.807 9.6527 139.281 9.5205 138.76 9.38201C137.929 9.16798 137.086 9.07356 136.237 8.99172C135.795 8.95396 135.364 9.04209 134.927 9.09245C134.539 9.13651 134.174 9.24352 133.815 9.37572C132.476 9.86043 131.567 10.8802 130.808 12.0763C130.646 12.3281 130.67 12.498 130.855 12.7184C131.704 13.7444 132.769 14.2669 134.21 14.2669C134.581 14.3299 135.083 14.1662 135.567 14.0151ZM132.296 2.92336C132.135 2.18684 131.902 1.46292 131.699 0.738997C131.633 0.499787 131.543 0.468312 131.346 0.638277C130.377 1.47551 129.552 2.43864 128.882 3.56545C128.242 4.64818 127.901 5.80646 127.943 7.08434C127.991 8.38111 128.458 9.50791 129.211 10.5151C129.522 10.9369 129.594 10.9558 129.988 10.6221C130.305 10.3514 130.634 10.0808 130.927 9.78489C132.033 8.67068 132.799 7.3928 132.685 5.61132C132.793 4.73631 132.494 3.83613 132.296 2.92336Z" fill="#0F190C"/>
</svg>
