<svg width="74" height="31" viewBox="0 0 74 31" fill="none" xmlns="http://www.w3.org/2000/svg">
<path d="M31.7001 25.1161C31.5907 25.2356 31.5813 25.368 31.5594 25.4939C31.4217 26.3336 31.1246 27.0989 30.6366 27.7868C30.0078 28.6716 29.2102 29.3272 28.2186 29.7373C27.7994 29.9117 27.3677 30.0215 26.9235 30.1087C26.5888 30.1733 26.2572 30.1668 25.9225 30.183C25.0592 30.2314 24.1927 30.1894 23.3293 30.2282C22.9258 30.2443 22.5254 30.225 22.1282 30.2088C21.6152 30.1894 21.099 30.2056 20.586 30.1604C20.073 30.1152 19.5694 30.0312 19.0751 29.8374C18.0303 29.4273 17.2108 28.7459 16.5633 27.8159C16.2849 27.4186 16.0534 26.9988 15.8563 26.5564C15.7562 26.3271 15.7062 26.0785 15.6405 25.8362C15.5779 25.5973 15.5936 25.3486 15.506 25.1161C15.4966 25.087 15.4903 25.0547 15.4903 25.0257C15.4841 24.5251 15.3621 24.0375 15.384 23.5337C15.3965 23.2657 15.3715 22.9944 15.3652 22.7264C15.3527 22.242 15.3464 21.7511 15.409 21.2764C15.5247 20.398 15.7343 19.539 16.1629 18.7607C16.5727 18.0179 17.142 17.4237 17.8771 17.0201C18.3244 16.7779 18.7967 16.6002 19.291 16.4808C19.5631 16.4129 19.8384 16.3548 20.1137 16.2999C20.5234 16.2192 20.9332 16.174 21.343 16.1126C21.7309 16.0545 22.1156 16.0674 22.5004 16.0319C22.8664 15.9996 23.2292 15.9964 23.5952 16.0028C24.0707 16.0125 24.5524 15.9964 25.0216 16.0674C25.3751 16.1223 25.7317 16.1223 26.0821 16.1966C26.3323 16.2515 26.592 16.2805 26.8485 16.3193C27.1269 16.3613 27.399 16.4291 27.6711 16.5066C28.0277 16.6099 28.3781 16.7294 28.7065 16.9103C29.3134 17.2461 29.8452 17.6724 30.2612 18.2472C30.5208 18.6089 30.7805 18.9738 30.9807 19.3743C31.159 19.7327 31.3123 20.1041 31.3873 20.5078C31.4249 20.7177 31.5437 20.905 31.5625 21.1214C31.5656 21.144 31.5844 21.1601 31.6094 21.1601C31.6438 21.1601 31.6657 21.1375 31.6782 21.1084C31.7126 21.0083 31.7439 20.905 31.7783 20.8017C32.0317 20.0395 32.3039 19.2871 32.7293 18.6057C32.9889 18.1923 33.3111 17.8306 33.674 17.5109C34.0462 17.1815 34.4372 16.8812 34.872 16.6455C35.4069 16.358 35.9575 16.132 36.5549 16.0254C36.9804 15.9479 37.4089 15.9027 37.8375 15.8543C38.8854 15.7348 39.9364 15.78 40.9875 15.7929C41.3816 15.7994 41.7726 15.8704 42.1636 15.9092C42.4733 15.9415 42.7799 16.0125 43.0895 16.0577C43.4774 16.1126 43.859 16.2192 44.2501 16.2773C44.4722 16.3096 44.6849 16.371 44.907 16.4065C45.1165 16.4388 45.3293 16.4808 45.5357 16.5421C45.714 16.5938 45.8986 16.6196 46.0769 16.6681C46.2552 16.7165 46.4335 16.7617 46.6055 16.8328C46.7369 16.8877 46.7901 16.9749 46.7963 17.1105C46.7963 17.1266 46.7963 17.1428 46.7963 17.1557C46.7807 17.9404 46.8651 18.7219 46.8339 19.5067C46.8339 19.5131 46.8339 19.5228 46.8339 19.5293C46.8433 19.6165 46.7963 19.7295 46.9058 19.7747C46.9903 19.8102 47.0528 19.7295 47.1185 19.6811C47.7504 19.216 48.279 18.638 48.7983 18.0438C49.3082 17.456 49.8056 16.8554 50.3561 16.3031C50.475 16.1837 50.6001 16.1255 50.769 16.1223C51.2382 16.1061 51.7074 16.1255 52.1767 16.1094C52.8617 16.0868 53.5468 16.1288 54.2318 16.1094C54.8043 16.0932 55.3767 16.048 55.9491 16.0513C56.775 16.0577 57.6008 16.0997 58.4266 16.1223C58.7613 16.132 59.0991 16.1352 59.4338 16.1352C59.6434 16.1352 59.8499 16.1514 60.0563 16.1837C60.4254 16.2418 60.5224 16.3451 60.585 16.8005C60.6069 16.9652 60.5944 17.1395 60.5944 17.3075C60.5944 18.7478 60.5944 20.1881 60.5944 21.6284C60.5944 21.9255 60.5099 22.003 60.2221 22.0611C60.0094 22.1031 59.8092 22.0643 59.6028 22.0611C58.8426 22.0514 58.0825 22.0579 57.3224 22.0579C57.3005 22.0579 57.2786 22.0579 57.2567 22.0579C56.9845 22.0869 56.922 22.1515 56.922 22.4389C56.9188 23.0299 56.9408 23.6241 56.947 24.2151C56.9626 25.8718 56.9533 27.5252 56.9501 29.1819C56.9501 29.7438 56.8907 29.6534 56.4934 29.6534C54.8668 29.6566 53.2402 29.6534 51.6167 29.6534C51.2288 29.6534 51.1819 29.6049 51.1819 29.198C51.1882 27.1732 51.1944 25.1484 51.2007 23.1236C51.2007 22.862 51.1882 22.6004 51.1882 22.3388C51.1882 22.2226 51.1725 22.1418 51.038 22.1031C50.9536 22.0805 50.8691 22.0514 50.7815 22.0482C50.5344 22.0417 50.2842 22.0611 50.0433 22.0191C49.3833 21.9093 48.7201 21.9998 48.057 21.9578C47.8661 21.9449 47.863 21.9545 47.863 22.158C47.863 23.2043 47.8693 24.2506 47.8568 25.3002C47.8536 25.5908 47.7848 25.875 47.7254 26.1592C47.6785 26.382 47.6096 26.5984 47.5377 26.8147C47.3406 27.4186 47.0247 27.9483 46.6274 28.4294C46.1488 29.0139 45.542 29.4112 44.8663 29.7147C44.5191 29.8697 44.1593 29.9795 43.7934 30.057C43.5337 30.1119 43.271 30.1604 43.0019 30.1798C41.244 30.3218 39.486 30.2508 37.728 30.2411C37.2306 30.2379 36.7301 30.1991 36.2359 30.1475C35.9356 30.1152 35.6322 30.0344 35.3381 29.9214C35.0097 29.7987 34.7 29.6501 34.3997 29.4725C33.6927 29.0559 33.1265 28.4811 32.6698 27.79C32.2163 27.1086 31.9535 26.3497 31.8096 25.5424C31.7909 25.4035 31.7408 25.2614 31.7001 25.1161ZM39.8394 21.2667C39.4547 21.2731 39.1075 21.2764 38.7603 21.3377C38.4287 21.3959 38.1659 21.5509 37.9376 21.7963C37.6529 22.1031 37.5497 22.4842 37.5153 22.8878C37.4558 23.5918 37.6842 24.0666 38.3254 24.4056C38.5976 24.5477 38.901 24.5929 39.2076 24.6349C39.8269 24.7157 40.44 24.6866 41.0563 24.5962C41.4097 24.5445 41.7226 24.3895 41.9853 24.1408C42.5296 23.6209 42.5546 22.6359 42.051 22.0224C41.6506 21.5347 41.1032 21.328 40.5026 21.2764C40.268 21.257 40.0365 21.2828 39.8394 21.2667ZM23.6234 21.2635C23.3481 21.2635 23.0728 21.257 22.7976 21.2635C22.4128 21.2731 22.0812 21.4217 21.7966 21.693C21.5213 21.9578 21.3993 22.3001 21.3336 22.665C21.221 23.3141 21.3993 23.9212 21.9937 24.2797C22.2939 24.4605 22.6193 24.5639 22.9602 24.5897C23.614 24.6382 24.2678 24.6608 24.9184 24.5348C25.91 24.3443 26.3761 23.524 26.154 22.6004C25.9507 21.7511 25.2093 21.3636 24.5368 21.2699C24.2365 21.2279 23.9268 21.2635 23.6234 21.2635ZM30.0391 13.7003C30.036 13.8488 30.0829 13.9845 30.1236 14.1233C30.183 14.33 30.2518 14.5334 30.305 14.7401C30.3551 14.9468 30.2612 15.076 30.0579 15.076C28.425 15.0921 26.7922 15.0889 25.1593 15.0824C24.9904 15.0824 24.8715 15.0049 24.8246 14.8661C24.7808 14.7304 24.7182 14.5916 24.7182 14.4463C24.7182 14.2557 24.6494 14.0813 24.5962 13.9102C24.5118 13.6389 24.4461 13.3676 24.3804 13.0931C24.3522 12.9801 24.3241 12.8703 24.2897 12.7605C24.2459 12.6249 24.1864 12.6055 24.0519 12.6636C23.5514 12.8768 23.0916 13.1642 22.6255 13.4387C21.7903 13.9263 20.9583 14.4204 20.1262 14.9145C19.926 15.034 19.7258 15.0921 19.4912 15.0889C17.9115 15.0566 16.3287 15.0921 14.749 15.0857C14.6583 15.0857 14.5707 15.0889 14.48 15.0792C14.3486 15.0631 14.3267 15.0017 14.3423 14.8661C14.3799 14.5399 14.48 14.2267 14.5582 13.9102C14.6739 13.4451 14.7928 12.9801 14.9179 12.5183C14.9961 12.2244 15.0524 11.9241 15.1494 11.6367C15.237 11.3784 15.2964 11.1135 15.3683 10.852C15.4434 10.5839 15.5185 10.3127 15.5873 10.0414C15.6749 9.68616 15.7781 9.33739 15.8595 8.97893C15.9283 8.67537 16.0127 8.37181 16.0878 8.07147C16.1597 7.79375 16.2223 7.51279 16.3099 7.2383C16.3568 7.08329 16.4037 6.91859 16.4256 6.75389C16.4444 6.6118 16.5007 6.47616 16.532 6.33407C16.6446 5.8529 16.7979 5.38141 16.9105 4.897C17.0012 4.49979 17.1107 4.1058 17.2077 3.70859C17.3171 3.25971 17.4391 2.81729 17.558 2.3684C17.6612 1.97119 17.7926 1.57721 17.9146 1.18645C17.9678 1.0153 18.0335 0.847369 18.1054 0.679442C18.193 0.48245 18.3369 0.411404 18.5215 0.388798C18.5809 0.38234 18.6403 0.385569 18.6998 0.385569C19.7289 0.385569 20.7581 0.356505 21.7872 0.392028C23.0697 0.43401 24.3522 0.414633 25.6316 0.437239C25.8787 0.440468 26.0039 0.614854 26.0883 0.811846C26.2541 1.19614 26.3855 1.59981 26.5012 2.00348C26.7421 2.83343 26.9861 3.66015 27.2332 4.4901C27.4397 5.18119 27.6524 5.86904 27.862 6.5569C28.0966 7.33195 28.3312 8.11023 28.5689 8.88527C28.5939 8.96278 28.6377 9.03383 28.6878 9.13394C28.766 8.96601 28.7316 8.82069 28.7128 8.68505C28.6158 8.06501 28.6283 7.44498 28.7128 6.82494C28.7191 6.78618 28.7253 6.74743 28.7222 6.70868C28.7097 6.35345 28.7816 6.00145 28.8442 5.65913C28.9255 5.20379 29.0475 4.75168 29.2102 4.31571C29.4385 3.69567 29.7482 3.12731 30.1549 2.61384C30.7617 1.84847 31.5031 1.26396 32.3821 0.866745C32.7199 0.714965 33.064 0.595478 33.4206 0.501826C34.0212 0.340358 34.6249 0.272541 35.2411 0.230559C35.7448 0.198266 36.239 0.243477 36.7364 0.266082C37.0523 0.282229 37.3714 0.333899 37.6842 0.398487C37.9 0.443698 38.1221 0.479221 38.338 0.524432C38.9417 0.656836 39.5235 0.847369 40.0146 1.2575C40.2774 1.48033 40.3712 1.77743 40.2461 2.11974C40.1554 2.37163 40.096 2.62998 40.0177 2.8851C39.8739 3.35013 39.7143 3.8087 39.511 4.25113C39.2858 4.74199 39.0699 5.23932 38.8729 5.7431C38.7947 5.94009 38.7071 6.14031 38.4631 6.18875C38.3286 6.21458 38.2097 6.17583 38.094 6.13062C37.7718 6.00791 37.4402 5.91102 37.1086 5.84644C36.6988 5.76893 36.2765 5.7431 35.8668 5.83998C35.2537 5.98207 34.8095 6.35668 34.5217 6.94442C34.359 7.27382 34.3121 7.6129 34.3121 7.96813C34.3121 8.33305 34.4622 8.62047 34.7563 8.82392C35.0097 9.00153 35.2912 9.09841 35.5884 9.18238C35.898 9.26634 36.2077 9.2728 36.5174 9.24374C37.1117 9.18561 37.6811 9.02737 38.2003 8.71412C38.4255 8.57849 38.5507 8.59786 38.682 8.82392C38.9886 9.3503 39.2451 9.90253 39.511 10.4515C39.7675 10.9779 40.0209 11.5075 40.2649 12.0404C40.4588 12.4634 40.6371 12.8897 40.8185 13.3192C40.8874 13.4807 40.8436 13.5549 40.6778 13.5937C40.121 13.7293 39.5704 13.8811 39.0105 14.0006C38.6914 14.0684 38.3755 14.1427 38.0596 14.2202C37.753 14.2945 37.4433 14.3623 37.1368 14.443C36.946 14.4947 36.7551 14.5593 36.5518 14.569C36.4048 14.5754 36.264 14.6368 36.1201 14.6723C35.6634 14.7853 35.2036 14.8725 34.7469 14.9759C34.2276 15.0954 33.6959 15.0921 33.1672 15.0889C33.0264 15.0889 32.8826 15.0824 32.7418 15.0824C32.3602 15.0857 32.0129 14.9436 31.672 14.795C31.0964 14.5431 30.5615 14.2267 30.1423 13.7358C30.1298 13.7196 30.1048 13.71 30.086 13.7035C30.0767 13.6906 30.061 13.697 30.0391 13.7003ZM23.2261 8.57525C23.2105 8.54942 23.2011 8.5365 23.1948 8.52359C23.126 8.22648 23.0165 7.94553 22.9321 7.65488C22.8007 7.19631 22.6537 6.74743 22.4848 6.30501C22.3972 6.06926 22.3033 5.83352 22.1344 5.64622C22.003 5.49766 21.8842 5.51704 21.7809 5.6882C21.7528 5.73341 21.7278 5.77862 21.7059 5.82706C21.5651 6.13062 21.4587 6.45033 21.3524 6.77004C21.2022 7.20923 21.0959 7.65811 20.9614 8.10054C20.8769 8.37826 20.8175 8.65922 20.7424 8.94018C20.6642 9.23728 20.5829 9.53115 20.5015 9.82502C20.4922 9.86055 20.4703 9.90253 20.5109 9.92836C20.5453 9.95097 20.5798 9.93159 20.6142 9.91544C20.7612 9.8444 20.9082 9.77335 21.0583 9.70553C21.5244 9.49563 21.9905 9.29218 22.4535 9.07258C22.6693 8.97247 22.8726 8.84329 23.0822 8.72704C23.1479 8.68828 23.2042 8.64307 23.2261 8.57525ZM4.36057 14.9791C3.21256 14.9791 2.03639 14.9791 0.857099 14.9791C0.813305 14.9791 0.766384 14.9791 0.72259 14.9759C0.403525 14.9533 0.193942 14.7498 0.18143 14.4204C0.143892 13.6002 0.06569 12.7799 0.0813305 11.9564C0.0875867 11.5495 0.0625619 11.1426 0.0156405 10.7389C0.00938429 10.6937 0.0125124 10.6453 0.0125124 10.6001C0.00625619 7.54509 0.00625619 4.48687 0 1.43189C0 1.18322 0.0281529 0.941021 0.0938429 0.705277C0.13138 0.576102 0.206454 0.466303 0.353475 0.417863C0.497367 0.369422 0.638132 0.346817 0.78828 0.346817C1.46082 0.350046 2.13023 0.353275 2.80277 0.346817C2.99672 0.343587 3.18753 0.388798 3.38147 0.388798C4.03837 0.388798 4.69215 0.32744 5.34592 0.337128C6.27183 0.350046 7.19462 0.333899 8.12054 0.353275C8.63355 0.366193 9.14656 0.427551 9.65644 0.421092C10.1726 0.414633 10.6825 0.48568 11.1923 0.540579C11.8461 0.608396 12.4592 0.818305 12.9597 1.30594C13.2256 1.56429 13.3914 1.87108 13.4946 2.21339C13.6291 2.64936 13.6979 3.10147 13.6886 3.56973C13.6729 4.34478 13.4477 5.02295 12.9003 5.56871C12.8534 5.61715 12.8033 5.66559 12.7595 5.71726C12.6719 5.82383 12.6813 5.86581 12.8127 5.91425C13.0786 6.01113 13.3226 6.14354 13.554 6.3147C13.9169 6.58273 14.1578 6.94442 14.358 7.33841C14.5675 7.75177 14.7021 8.19742 14.7865 8.65276C14.8491 9.00476 14.9179 9.36322 14.9054 9.72491C14.8991 9.91867 14.946 10.106 14.946 10.2965C14.9492 10.8358 14.921 11.3751 14.7928 11.8983C14.5644 12.8186 14.1453 13.6228 13.3914 14.2202C12.9566 14.5657 12.478 14.8112 11.9587 14.963C11.5771 15.076 11.1798 15.0889 10.7857 15.0728C10.0631 15.0372 9.33737 15.0857 8.61478 15.0534C7.20714 14.9823 5.79949 15.0243 4.36057 14.9791ZM7.11329 9.07904C6.91309 9.07904 6.70977 9.07258 6.50957 9.07904C6.22804 9.08873 5.94338 9.06935 5.66498 9.12102C5.49607 9.15331 5.48668 9.15331 5.47417 9.34062C5.46479 9.47948 5.46791 9.61834 5.4554 9.75397C5.40535 10.261 5.43663 10.768 5.43976 11.275C5.43976 11.3364 5.46479 11.3945 5.46791 11.4559C5.47417 11.5366 5.51796 11.5624 5.58678 11.5592C5.81826 11.5398 6.04661 11.5979 6.27496 11.5979C6.8474 11.5947 7.42297 11.6044 7.99542 11.5947C8.32074 11.5883 8.64293 11.5786 8.962 11.472C9.33424 11.3493 9.6189 11.1426 9.80033 10.7809C9.84725 10.6873 9.82848 10.5839 9.88166 10.4967C9.94735 10.3837 9.93484 10.2513 9.90355 10.135C9.82222 9.83148 9.65956 9.58928 9.38742 9.43104C8.99328 9.19852 8.5616 9.1081 8.11741 9.07904C7.78583 9.06289 7.448 9.07904 7.11329 9.07904ZM6.54398 5.82706C6.54398 5.82383 6.54398 5.82383 6.54398 5.8206C6.72228 5.8206 6.90058 5.8206 7.08201 5.8206C7.34164 5.8206 7.60128 5.82383 7.85465 5.73018C8.09239 5.64299 8.30823 5.5235 8.39894 5.26515C8.49904 4.98419 8.56473 4.71293 8.48653 4.39645C8.38017 3.96048 7.87655 3.60525 7.5262 3.60525C6.8912 3.60848 6.25932 3.61171 5.62432 3.60848C5.52109 3.60848 5.4773 3.644 5.4773 3.7538C5.4773 4.39322 5.47104 5.03264 5.47104 5.67205C5.47104 5.81737 5.48668 5.82383 5.63057 5.82383C5.93087 5.82706 6.23743 5.82706 6.54398 5.82706ZM0.134508 22.904C0.134508 20.9018 0.134508 18.8996 0.134508 16.8973C0.134508 16.7423 0.140764 16.5841 0.222095 16.4517C0.334706 16.2644 0.513008 16.1772 0.719462 16.1481C0.82269 16.1352 0.929045 16.1384 1.03227 16.1384C3.30014 16.1352 5.56801 16.132 7.83275 16.1288C8.53345 16.1288 9.23414 16.1223 9.93484 16.1546C10.2508 16.1707 10.5667 16.2224 10.8795 16.2935C11.2048 16.3677 11.5239 16.4582 11.8336 16.5809C12.5812 16.8683 13.2319 17.3075 13.7887 17.8952C14.286 18.4184 14.6864 19.0094 14.921 19.7101C15.0336 20.0492 15.0587 20.4012 15.0743 20.7532C15.1025 21.3797 15.0493 21.9965 14.8178 22.5843C14.5801 23.1914 14.2078 23.6758 13.6479 24.002C13.5728 24.0472 13.5009 24.0988 13.4289 24.1537C13.3132 24.2377 13.3069 24.2732 13.3757 24.3992C13.651 24.903 13.9294 25.4067 14.2078 25.9105C14.6927 26.7889 15.165 27.6738 15.6155 28.5715C15.6999 28.7427 15.7656 28.9203 15.7875 29.1108C15.8188 29.3692 15.7187 29.6243 15.4059 29.6469C15.3308 29.6534 15.2589 29.6598 15.1838 29.6598C13.5415 29.6598 11.9024 29.6598 10.2602 29.6598C10.2007 29.6598 10.1413 29.6598 10.0819 29.6566C9.90355 29.6469 9.77217 29.5533 9.69397 29.3918C9.45624 28.9074 9.16845 28.4553 8.89631 27.9967C8.54596 27.409 8.19249 26.8212 7.87655 26.2109C7.77019 26.0042 7.6482 25.8072 7.54497 25.5973C7.50743 25.523 7.46364 25.5036 7.38857 25.5004C7.01319 25.481 6.64721 25.5585 6.27809 25.607C6.12169 25.6263 6.0904 25.6845 6.0904 25.8621C6.08728 26.3756 6.11543 26.889 6.14671 27.4025C6.18738 28.0451 6.19676 28.6942 6.16548 29.3401C6.1561 29.5403 6.08415 29.6146 5.89959 29.6372C5.84016 29.6437 5.78072 29.6566 5.72129 29.6566C4.91737 29.6566 4.11345 29.7567 3.30953 29.6953C2.43679 29.6308 1.56718 29.676 0.694438 29.6598C0.494239 29.6566 0.32845 29.6049 0.218967 29.4241C0.150149 29.3078 0.143892 29.1786 0.13138 29.0495C0.121996 28.9494 0.128252 28.8493 0.128252 28.7491C0.134508 26.7986 0.134508 24.8513 0.134508 22.904ZM5.99343 20.7823C5.99656 20.7823 6.00282 20.7823 6.00595 20.7823C6.00595 21.0342 5.99343 21.2893 6.00907 21.5412C6.02471 21.7705 6.09666 21.8221 6.31876 21.8447C6.60967 21.8706 6.90058 21.848 7.18837 21.8641C7.49805 21.8803 7.79209 21.8028 8.09239 21.7543C8.24254 21.7317 8.39581 21.68 8.53345 21.6025C8.73677 21.4863 8.92133 21.3539 8.98702 21.102C9.1184 20.6014 8.83375 20.0621 8.44273 19.8393C8.15808 19.6778 7.85465 19.6036 7.53246 19.5551C7.06637 19.4808 6.61593 19.5454 6.16861 19.6714C6.12481 19.6843 6.08415 19.6972 6.07789 19.7553C6.05912 19.9233 5.97467 20.075 5.98718 20.2494C6.00282 20.4303 5.99343 20.6047 5.99343 20.7823ZM46.8401 3.53098C46.862 2.67842 46.8151 1.82587 46.7525 0.973315C46.7275 0.647148 46.5742 0.472762 46.2646 0.475991C45.714 0.48245 45.1635 0.411404 44.6129 0.43401C44.494 0.440468 44.3752 0.427551 44.2563 0.427551C43.8684 0.43078 43.4837 0.411404 43.0958 0.466303C42.7392 0.517973 42.3857 0.527661 42.0291 0.443698C41.9228 0.417863 41.8039 0.427551 41.6944 0.440468C41.4879 0.469533 41.3003 0.53735 41.2533 0.786011C41.2408 0.847369 41.2314 0.908727 41.2314 0.966856C41.2377 1.58367 41.1877 2.19725 41.1783 2.81083C41.172 3.25002 41.197 3.68599 41.2064 4.12518C41.2158 4.67094 41.2283 5.21671 41.1814 5.76247C41.1501 6.12416 41.2064 6.48262 41.2096 6.84431C41.2189 7.39653 41.1689 7.94876 41.1751 8.50421C41.1845 9.75075 41.1751 10.9973 41.1814 12.2471C41.1814 12.5926 41.2095 12.9381 41.2283 13.2837C41.2408 13.4645 41.2846 13.4968 41.4535 13.471C41.6975 13.4322 41.9384 13.4096 42.1855 13.4064C42.661 13.3935 43.1396 13.4129 43.6151 13.3612C43.784 13.345 43.956 13.2772 44.1249 13.3321C44.2407 13.3709 44.3564 13.3741 44.4753 13.3806C44.7599 13.3902 45.0477 13.3644 45.323 13.4258C45.7359 13.5162 46.1582 13.4613 46.5649 13.5679C46.7056 13.6034 46.74 13.5582 46.7557 13.3935C46.7776 13.1642 46.7932 12.9317 46.7963 12.7056C46.8088 12.1663 46.862 11.6302 46.8401 11.0909C46.837 11.0296 46.837 10.9682 46.8401 10.9069C46.8433 10.8552 46.8339 10.7938 46.8996 10.7745C46.9496 10.7615 46.984 10.7874 47.0153 10.8229C47.0622 10.8746 47.1123 10.9198 47.1592 10.9682C47.7598 11.6044 48.3041 12.2955 48.8327 12.993C49.2425 13.5356 49.6273 14.0975 50.0496 14.6303C50.3217 14.9726 50.622 15.1922 51.0693 15.1599C51.3227 15.1406 51.5761 15.1535 51.8294 15.1535C52.9337 15.1567 54.0379 15.1599 55.1421 15.1632C55.2829 15.1632 55.4268 15.1599 55.5675 15.1535C55.8178 15.1373 55.9617 15.0049 55.9992 14.7498C56.0242 14.5657 56.0054 14.3914 55.9053 14.2234C55.8459 14.1265 55.774 14.0394 55.7145 13.9457C55.4455 13.5162 55.164 13.0964 54.895 12.6669C54.6854 12.3342 54.4539 12.0178 54.2193 11.7045C53.8502 11.2169 53.4905 10.7228 53.1245 10.2319C52.8993 9.92836 52.6709 9.62803 52.4613 9.31155C52.308 9.07904 52.1422 8.85298 51.9765 8.63015C51.6793 8.22971 51.3821 7.82927 51.0756 7.43206C51.0067 7.34486 50.9974 7.28028 51.0537 7.18663C51.1506 7.02516 51.257 6.87015 51.3571 6.70868C51.7043 6.15 52.0797 5.61392 52.4582 5.07462C52.6584 4.79043 52.8711 4.51594 53.0588 4.22206C53.5749 3.4018 54.1348 2.61706 54.6635 1.80649C54.8262 1.5546 55.0013 1.3124 55.0827 1.00884C55.164 0.698818 55.0639 0.524432 54.7605 0.524432C53.0525 0.524432 51.3446 0.524432 49.6366 0.524432C49.474 0.524432 49.3113 0.547038 49.1487 0.566414C49.0423 0.579331 48.9547 0.63746 48.8859 0.724653C48.767 0.873204 48.6794 1.04113 48.5887 1.20906C48.3072 1.72253 47.985 2.21016 47.6503 2.68811C47.4032 3.04011 47.1529 3.38888 46.8902 3.75703C46.8214 3.66661 46.8401 3.59556 46.8401 3.53098ZM67.3323 29.831C67.5732 29.7922 67.8171 29.7632 68.0518 29.7018C68.4678 29.592 68.8713 29.4402 69.2467 29.2109C69.9443 28.7879 70.5605 28.2809 70.9609 27.5381C71.2205 27.0505 71.3894 26.5338 71.3832 25.9687C71.38 25.8298 71.3769 25.6909 71.3832 25.5521C71.3957 25.3099 71.3144 25.0838 71.2674 24.8513C71.2236 24.6155 71.1267 24.3895 71.0234 24.1731C70.7951 23.6887 70.5073 23.2528 70.0725 22.9266C69.6971 22.6424 69.2936 22.4034 68.9057 22.1418C68.5804 21.919 68.2175 21.764 67.886 21.5509C67.7702 21.4766 67.6732 21.3959 67.5888 21.2828C67.5325 21.2053 67.545 21.1537 67.5857 21.0794C67.6701 20.9244 67.7952 20.8856 67.9579 20.8888C68.7868 20.8953 69.6127 20.8953 70.4416 20.8921C70.7763 20.8921 70.8889 20.7791 70.8795 20.4367C70.8639 19.6972 70.9452 18.9609 70.9202 18.2214C70.9202 18.1762 70.9296 18.131 70.9296 18.0825C70.9327 17.5432 70.939 17.0039 70.9359 16.4678C70.9359 16.2838 70.7982 16.161 70.6262 16.1352C70.1601 16.0674 69.6909 16.0739 69.2248 16.0642C68.2207 16.048 67.2166 16.0286 66.2093 16.1158C65.6087 16.1675 65.0112 16.1966 64.4169 16.3031C64.1385 16.3516 63.8664 16.4226 63.6036 16.5195C62.9154 16.7779 62.3023 17.1622 61.8018 17.7305C61.4014 18.1859 61.1449 18.7155 61.0542 19.3129C60.9259 20.1558 61.0135 20.9825 61.367 21.7672C61.6392 22.3744 62.0145 22.8749 62.5901 23.2269C63.1625 23.5757 63.7381 23.9115 64.3012 24.2732C64.4169 24.3475 64.5452 24.4186 64.6296 24.5413C64.7579 24.7253 64.7016 24.8965 64.4889 24.9643C64.3825 24.9966 64.2699 25.0063 64.1573 25.0128C63.7537 25.0354 63.3533 24.9708 62.9529 24.9708C62.4994 24.9708 62.0427 24.974 61.5922 24.9191C61.123 24.8642 60.6569 24.8771 60.1877 24.8674C60.0563 24.8642 60 24.9288 59.9625 25.0386C59.9437 25.0903 59.9406 25.1419 59.9406 25.1968C59.9375 25.4649 59.9312 25.7361 59.9281 26.0042C59.9187 26.7566 59.9093 27.5123 59.8968 28.2647C59.8968 28.3196 59.8937 28.3745 59.8843 28.4262C59.8186 28.7459 59.8624 29.0688 59.8561 29.3918C59.853 29.55 59.9844 29.7115 60.1189 29.718C60.3629 29.7309 60.5975 29.8116 60.8477 29.7987C61.1762 29.7858 61.5046 29.8084 61.83 29.8148C62.2616 29.8213 62.6902 29.8471 63.1187 29.8762C63.7569 29.9149 64.4013 29.8859 65.0425 29.8859C65.8027 29.8762 66.569 29.9569 67.3323 29.831ZM66.1467 8.48483C66.1467 8.41702 66.1499 8.34597 66.1436 8.27815C66.1248 8.1296 66.0717 8.07147 65.9278 8.06501C65.7714 8.05856 65.6118 8.04887 65.4586 8.06501C64.9456 8.12314 64.4294 8.08116 63.9164 8.09085C63.7068 8.09408 63.6912 8.10054 63.6881 8.32014C63.6881 8.36535 63.6881 8.41379 63.6881 8.459C63.6849 9.12102 63.6849 9.78304 63.6787 10.4451C63.6787 10.6291 63.6599 10.6485 63.491 10.6517C63.3033 10.6582 63.1187 10.6582 62.9311 10.6517C62.7715 10.6485 62.7528 10.6291 62.7496 10.4612C62.7465 10.1383 62.7496 9.81533 62.7465 9.4924C62.7434 9.1081 62.7434 8.72381 62.734 8.33628C62.7309 8.17804 62.6745 8.12637 62.5275 8.08762C62.4399 8.06501 62.3524 8.05856 62.2616 8.05856C61.733 8.05856 61.2012 8.05856 60.6726 8.05856C60.5819 8.05856 60.4943 8.07147 60.4067 8.08762C60.3097 8.107 60.269 8.1619 60.2503 8.25555C60.2127 8.45254 60.2065 8.65276 60.2346 8.85298C60.2565 8.9983 60.2628 9.14685 60.244 9.28895C60.2034 9.61834 60.2127 9.94774 60.2002 10.2771C60.1846 10.684 60.194 11.0942 60.1971 11.5011C60.2034 12.57 60.2096 13.6421 60.219 14.7111C60.219 14.795 60.2346 14.879 60.2409 14.963C60.2503 15.076 60.316 15.1373 60.4129 15.1373C60.7164 15.1309 61.0229 15.1599 61.3263 15.1147C61.6047 15.0728 61.8894 15.0598 62.1678 15.1309C62.2491 15.1503 62.3336 15.1535 62.4118 15.1341C62.5744 15.0954 62.6527 14.9823 62.6527 14.7756C62.6558 14.1911 62.662 13.6066 62.6495 13.0189C62.6464 12.796 62.7465 12.7218 62.9248 12.7153C63.1344 12.7089 63.344 12.7153 63.5504 12.7121C63.6349 12.7121 63.6724 12.7541 63.6755 12.838C63.6755 12.8832 63.6787 12.9317 63.6787 12.9769C63.6849 13.5388 63.6912 14.1007 63.6943 14.6626C63.6943 14.7563 63.7131 14.8435 63.7412 14.9339C63.7944 15.0889 63.8507 15.1406 64.0071 15.1438C64.1479 15.147 64.2918 15.1438 64.4325 15.1438C64.9174 15.1438 65.4023 15.1438 65.8871 15.1438C65.9997 15.1438 66.0998 15.1244 66.1311 14.9952C66.1467 14.9371 66.1405 14.8725 66.1405 14.8112C66.1405 13.7487 66.1405 12.6862 66.1405 11.6238C66.1467 10.5775 66.1467 9.53115 66.1467 8.48483ZM60.1064 4.10258C60.0939 3.68599 60.1377 3.24033 60.1877 2.79791C60.2503 2.21985 60.4223 1.67732 60.7883 1.22198C61.0229 0.928104 61.3044 0.705277 61.6736 0.595478C61.8425 0.547038 62.0051 0.527661 62.1741 0.508285C62.6245 0.459845 63.0781 0.401716 63.5285 0.456615C63.9571 0.508285 64.4013 0.48245 64.8079 0.685901C65.2239 0.89258 65.5274 1.21229 65.737 1.62888C65.9935 2.13912 66.0936 2.69134 66.128 3.25971C66.1624 3.88944 66.178 4.52239 66.1436 5.14889C66.1029 5.89811 65.8902 6.58596 65.299 7.08974C65.1238 7.2383 64.9174 7.33518 64.6984 7.40945C64.4357 7.49988 64.1729 7.49342 63.907 7.49665C63.6255 7.49987 63.3502 7.59676 63.0656 7.55477C62.6683 7.49019 62.2616 7.53217 61.8675 7.47081C61.4734 7.40945 61.1449 7.1834 60.8696 6.87661C60.6038 6.5795 60.4286 6.23073 60.2909 5.85935C60.2471 5.73987 60.2127 5.60746 60.2034 5.48152C60.1627 5.03264 60.072 4.58698 60.1064 4.10258ZM62.5713 4.01861C62.5713 4.19623 62.5682 4.37061 62.5713 4.54823C62.5745 4.84856 62.7872 5.07462 63.0624 5.09076C63.3315 5.10691 63.6474 4.90669 63.6849 4.59021C63.7318 4.17685 63.7318 3.76349 63.6849 3.35013C63.6787 3.28877 63.6568 3.2371 63.6286 3.17898C63.541 2.98844 63.2126 2.86573 62.9811 2.92708C62.759 2.98521 62.5776 3.19512 62.5713 3.46316C62.5682 3.65046 62.5713 3.83454 62.5713 4.01861ZM66.5878 11.5818C66.5878 12.289 66.5847 12.9995 66.5878 13.7067C66.5878 14.0523 66.5909 14.401 66.6034 14.7466C66.616 15.0469 66.6535 15.0792 66.935 15.0792C68.1956 15.0792 69.4563 15.0792 70.7138 15.0792C70.7513 15.0792 70.7888 15.0792 70.8264 15.0792C70.9327 15.0792 71.0047 15.0211 71.0579 14.9274C71.1079 14.8435 71.1079 14.753 71.1079 14.6594C71.1079 14.1427 71.1079 13.6292 71.1079 13.1125C71.1079 13.0512 71.1048 12.9898 71.0985 12.9284C71.0641 12.6927 70.9922 12.6184 70.7638 12.6152C70.3165 12.612 69.8692 12.6087 69.4219 12.6184C69.0246 12.6281 69.0246 12.6346 69.0371 12.2309C69.0434 12.0081 69.0496 11.9984 69.2654 11.9887C69.5626 11.9758 69.8598 11.9726 70.1601 11.9629C70.354 11.9564 70.3916 11.9209 70.3947 11.7142C70.3978 11.5592 70.4041 11.4042 70.3916 11.2524C70.3759 11.049 70.3353 11.0199 70.1413 11.0167C69.8285 11.0134 69.5157 11.0134 69.2029 11.0167C69.1122 11.0167 69.0653 10.9876 69.0684 10.8843C69.0746 10.768 69.0715 10.6517 69.0684 10.5387C69.0653 10.4386 69.1059 10.4031 69.2029 10.4063C69.3656 10.4095 69.5313 10.3998 69.694 10.3998C70.0881 10.3998 70.4854 10.3998 70.8795 10.3998C71.0485 10.3998 71.1016 10.3417 71.111 10.1706C71.111 10.1544 71.111 10.1383 71.111 10.1254C71.111 9.54084 71.111 8.95632 71.111 8.37181C71.111 8.13606 71.0516 8.0747 70.8201 8.06824C70.7982 8.06824 70.7763 8.06824 70.7544 8.06824C69.5157 8.06824 68.2801 8.06824 67.0414 8.06824C66.9819 8.06824 66.9225 8.06501 66.8631 8.07147C66.7692 8.08116 66.691 8.11668 66.6723 8.22971C66.6566 8.31045 66.6128 8.38472 66.6128 8.47514C66.6128 8.69797 66.6003 8.9208 66.6003 9.14363C66.5972 9.96066 66.6003 10.7745 66.6003 11.5915C66.5941 11.5818 66.5909 11.5818 66.5878 11.5818ZM56.0899 0.517973C55.5863 0.517973 55.5863 0.517973 55.5832 1.03467C55.5832 1.78066 55.5832 2.52664 55.5832 3.27586C55.5832 3.32107 55.58 3.36951 55.5863 3.41472C55.6051 3.56973 55.652 3.61171 55.799 3.61494C55.9773 3.61817 56.1556 3.61494 56.337 3.61494C56.556 3.61817 56.5654 3.62786 56.5716 3.84746C56.5716 3.90235 56.5716 3.95402 56.5716 4.00892C56.5716 5.08753 56.5716 6.16292 56.5716 7.24153C56.5716 7.51602 56.6154 7.56123 56.8844 7.56123C57.5101 7.56123 58.1357 7.56446 58.7644 7.56123C59.0272 7.56123 59.0522 7.52571 59.0585 7.25121C59.0804 6.25334 58.9834 5.25546 59.0147 4.25436C59.0178 4.1381 59.0147 4.02507 59.0147 3.90881C59.0147 3.87006 59.0115 3.83131 59.0178 3.79256C59.0334 3.66015 59.0679 3.62463 59.2024 3.6214C59.315 3.61817 59.4245 3.61817 59.5371 3.61494C59.8468 3.60525 59.8593 3.59556 59.8655 3.27586C59.8655 3.2371 59.8655 3.19835 59.8655 3.1596C59.8655 2.68165 59.8687 2.20371 59.8655 1.72899C59.8624 1.40605 59.8874 1.08311 59.8405 0.760176C59.8092 0.53412 59.803 0.521203 59.5777 0.521203C58.9584 0.521203 58.339 0.521203 57.7228 0.521203C57.1785 0.517973 56.6342 0.517973 56.0899 0.517973ZM57.7071 8.14575C57.0878 8.14575 56.4684 8.14575 55.849 8.14575C55.6926 8.14575 55.6426 8.18773 55.6144 8.35243C55.6019 8.4267 55.5863 8.50421 55.5863 8.58171C55.5832 9.3826 55.5832 10.1835 55.5863 10.9844C55.5863 11.1975 55.6488 11.2589 55.8553 11.2653C56.0273 11.2686 56.1994 11.2621 56.3714 11.2686C56.5591 11.275 56.5748 11.2912 56.5748 11.4817C56.5779 11.7433 56.5748 12.0048 56.5748 12.2664C56.5748 13.1513 56.5748 14.0361 56.5748 14.9242C56.5748 15.1599 56.5904 15.1729 56.8156 15.1729C57.4882 15.1729 58.1576 15.1729 58.8301 15.1729C59.0553 15.1729 59.0647 15.1696 59.0585 14.9436C59.0428 14.4204 59.0647 13.9005 59.0272 13.3773C58.9834 12.7411 59.0147 12.0985 59.0178 11.4591C59.0178 11.2976 59.0334 11.2879 59.1836 11.2815C59.3337 11.275 59.4808 11.2782 59.6309 11.2653C59.7811 11.2524 59.8405 11.1878 59.8624 11.0393C59.8718 10.9714 59.8718 10.9004 59.8718 10.8326C59.8718 10.2384 59.8749 9.64741 59.8718 9.0532C59.8718 8.83038 59.8843 8.60755 59.8467 8.38472C59.8155 8.20388 59.803 8.17804 59.634 8.15867C59.5809 8.15221 59.5308 8.15544 59.4776 8.15544C58.8896 8.15544 58.2983 8.15544 57.7103 8.15544C57.7071 8.14898 57.7071 8.14575 57.7071 8.14575ZM70.0131 4.20592C70.0506 4.19946 70.085 4.18977 70.1225 4.18331C70.4103 4.11226 70.6981 4.03799 70.989 3.97017C71.3644 3.88298 71.7335 3.76995 72.0776 3.59879C72.4123 3.4341 72.7001 3.20804 72.9191 2.88187C73.235 2.40716 73.3633 1.85816 73.5071 1.31886C73.6104 0.937792 73.6698 0.540579 73.748 0.153054C73.7793 -0.00195553 73.7605 -0.0245611 73.601 0.0206501C73.3226 0.101384 73.0379 0.162742 72.7595 0.230559C72.3435 0.333899 71.9337 0.446927 71.5396 0.614854C71.1767 0.773094 70.842 0.979773 70.6043 1.32532C70.3353 1.7193 70.207 2.16818 70.0975 2.62675C70.0475 2.83343 70.0131 3.04334 69.9724 3.25325C69.9223 3.51483 69.8723 3.77964 69.8348 3.97986C69.8316 4.22206 69.841 4.23175 70.0131 4.20592ZM70.8326 7.18986C71.3957 7.01547 71.9056 6.72483 72.3623 6.34053C72.7658 6.00145 73.1443 5.64299 73.4665 5.21994C73.5416 5.11983 73.4946 5.08753 73.4289 5.04878C73.3977 5.02941 73.357 5.02941 73.3226 5.02295C73.0504 4.9519 72.7752 4.88408 72.503 4.81304C72.0682 4.70324 71.6272 4.6548 71.183 4.61282C70.9515 4.59344 70.7263 4.63865 70.4979 4.66449C70.2946 4.68709 70.1038 4.74199 69.9161 4.80981C69.2154 5.05847 68.7399 5.58163 68.3427 6.19521C68.2582 6.32438 68.2707 6.41158 68.3677 6.5246C68.8119 7.05099 69.3687 7.31903 70.1225 7.31903C70.3165 7.35132 70.5792 7.26736 70.8326 7.18986ZM69.1216 1.4997C69.0371 1.12187 68.9151 0.750488 68.8087 0.37911C68.7743 0.256394 68.7274 0.240247 68.6242 0.32744C68.1174 0.756947 67.6858 1.25104 67.3354 1.8291C67.0007 2.38455 66.8224 2.97875 66.8443 3.63432C66.8693 4.29957 67.1133 4.87762 67.5075 5.39432C67.6701 5.61069 67.7077 5.62038 67.9141 5.44922C68.0799 5.31036 68.252 5.1715 68.4052 5.01972C68.9839 4.44812 69.3843 3.79256 69.3249 2.87864C69.3812 2.42976 69.2248 1.96796 69.1216 1.4997Z" fill="#0F190C"/>
</svg>
