<svg width="171" height="59" viewBox="0 0 171 59" fill="none" xmlns="http://www.w3.org/2000/svg">
<path d="M65.46 51.8282V8.15576H91.8452V15.5159H73.6004V25.5792H89.0261V32.9393H73.6004V51.7631H65.46V51.8282Z" fill="#0F190C"/>
<path d="M96.8187 8.15576H110.851C119.53 8.15576 124.566 11.901 124.566 19.424C124.566 23.2343 122.76 26.3608 119.34 28.4776C123.806 31.3761 125.611 33.7861 125.611 39.2248C125.611 47.855 119.973 51.8282 111.357 51.8282H96.8187V8.15576ZM104.927 25.4163H110.376C114.018 25.4163 116.425 23.2343 116.425 20.2382C116.425 17.0466 114.62 14.9949 110.787 14.9949H104.927V25.4163ZM104.927 44.8914H110.914C115.127 44.8914 117.376 42.3512 117.376 38.5083C117.376 34.3397 114.557 32.288 110.344 32.288H104.896V44.8914H104.927Z" fill="#0F190C"/>
<path d="M130.488 51.8282V8.15576H138.344L153.833 34.0792H153.959V8.15576H161.403V51.8608H154.72L138.122 23.6903H137.995V51.8608H130.488V51.8282Z" fill="#0F190C"/>
<path d="M165.395 9.06701C165.331 8.70877 165.11 8.41566 164.856 8.41566C164.571 8.41566 164.381 8.54593 164.381 8.83904C164.381 9.75093 166.092 9.62066 166.092 11.1188C166.092 11.9004 165.617 12.3238 164.856 12.3238C164.096 12.3238 163.748 11.9655 163.621 11.1188L164.318 10.9885C164.381 11.4119 164.603 11.705 164.951 11.705C165.3 11.705 165.49 11.477 165.49 11.2165C165.49 10.2394 163.779 10.3697 163.779 8.93674C163.779 8.22025 164.191 7.79688 164.951 7.79688C165.712 7.79688 166.06 8.22025 166.123 8.93674L165.395 9.06701Z" fill="#0F190C"/>
<path d="M169.323 12.3229V9.06614L168.563 12.3229H168.087L167.327 9.06614V12.3229H166.694V7.92627H167.644L168.341 10.8899L169.101 7.92627H170.051V12.3229H169.323Z" fill="#0F190C"/>
<path d="M52.6004 9.26301H52.0619V6.52734H53.0439C53.7407 6.52734 54.0258 6.75532 54.0258 7.30896C54.0258 7.76491 53.709 8.02545 53.424 8.02545L54.0258 9.19788H53.424L52.8221 8.02545H52.5054V9.26301H52.6004ZM52.6004 7.69977H53.0439C53.424 7.69977 53.5823 7.53694 53.5823 7.30896C53.5823 7.08099 53.424 6.98329 53.0439 6.98329H52.6004V7.69977Z" fill="#0F190C"/>
<path d="M53.0438 10.273C51.7451 10.273 50.6998 9.19832 50.6998 7.86308C50.6998 6.52783 51.7451 5.45312 53.0438 5.45312C54.3425 5.45312 55.3877 6.52783 55.3877 7.86308C55.4194 9.16576 54.2791 10.273 53.0438 10.273ZM53.0438 5.9742C52.0619 5.9742 51.2383 6.82094 51.2383 7.83051C51.2383 8.84009 52.0619 9.68683 53.0438 9.68683C54.0257 9.68683 54.8493 8.84009 54.8493 7.83051C54.8809 6.82094 54.0574 5.9742 53.0438 5.9742Z" fill="#0F190C"/>
<path opacity="0.6" d="M31.3154 28.7373C29.1932 29.584 27.0076 30.5936 24.8854 31.766C23.6818 32.4825 22.5415 33.0036 21.4012 33.5572C21.3378 35.7392 21.6229 38.6051 22.7632 42.1224C24.1886 46.2584 27.071 50.6224 32.8358 52.2507C41.7048 54.7584 46.9311 49.3848 46.9311 49.3848V49.45C52.0941 44.5323 55.2616 37.5304 55.2616 29.812C55.2616 28.1837 55.1033 26.6204 54.8182 25.0572C46.8361 24.6013 38.8224 25.7737 31.3154 28.7373Z" fill="#0F190C"/>
<path opacity="0.6" d="M4.73944 38.2145C5.49964 40.4617 6.48156 42.6437 7.78022 44.5977C8.38205 45.5421 9.14224 46.3238 10.0608 46.8448C11.3595 47.5613 13.6084 47.7893 15.3505 45.9981C18.6764 42.5785 18.8347 37.3678 19.0565 34.6973C11.9296 37.7586 6.54491 38.1494 4.73944 38.2145Z" fill="#0F190C"/>
<path opacity="0.7" d="M55.2602 30.8878C41.9251 29.0966 31.0289 34.7958 21.7165 38.3782C21.9382 39.5507 22.255 40.7882 22.6351 42.1235C24.0604 46.2595 26.9429 50.6235 32.771 52.2519C41.64 54.7596 46.8664 49.386 46.8664 49.386V49.4511C51.776 44.7614 54.9435 38.2154 55.2602 30.8878Z" fill="#0F190C"/>
<path opacity="0.7" d="M10.0925 46.8785C11.3911 47.595 13.5767 47.8229 15.3822 46.0318C17.1243 44.2406 18.0428 41.8958 18.4863 39.7139C12.4364 41.6679 8.35034 41.6679 5.97473 41.3422C6.5132 42.5146 7.11502 43.5893 7.7802 44.5988C8.44537 45.4781 9.11054 46.3249 10.0925 46.8785Z" fill="#0F190C"/>
<path d="M54.5643 37.141C53.2023 41.8959 50.5416 46.1622 47.1523 49.5166V49.4515C47.1523 49.4515 41.7676 54.988 32.6769 52.4152C27.3871 50.9496 24.5047 47.2044 22.8259 43.4591C22.9843 43.394 23.1427 43.394 23.2694 43.2963C24.7898 47.0415 27.6722 50.6891 32.8036 52.1872C41.5775 54.5972 46.7406 49.3212 46.7406 49.3212C50.2248 46.0645 52.7905 41.8307 54.0892 37.0107C54.2792 37.0433 54.4059 37.0433 54.5643 37.141Z" fill="#0F190C"/>
<path d="M10.0294 46.8775C11.3281 47.6591 13.6721 47.822 15.4142 45.9331C15.6359 45.7051 15.8577 45.3794 16.1111 45.0863C10.948 45.8028 8.38234 44.8583 7.78052 44.6304C8.35067 45.5423 9.11087 46.3239 10.0294 46.8775Z" fill="#0F190C"/>
<path opacity="0.3" d="M54.4059 36.9115C53.1072 41.7315 50.4782 46.0955 46.994 49.45V49.3848C46.994 49.3848 41.7043 54.7585 32.8354 52.3485C27.5457 50.8829 24.6633 47.1377 23.1429 43.3273C24.3465 42.9365 25.6452 42.4806 27.0706 41.9269C38.9803 37.2047 46.4555 35.4134 54.4059 36.9115Z" fill="#0F190C"/>
<path d="M42.3697 10.501C41.5461 12.0642 36.5098 21.0527 26.1838 22.1926C27.1658 22.6485 30.6183 23.9838 34.8311 22.4205C39.899 20.5642 42.3697 10.7941 42.3697 10.501Z" fill="#0F190C"/>
<path d="M29.2558 0.697266C13.6718 0.697266 0.938477 13.7567 0.938477 29.8123C0.938477 45.9331 13.6718 58.9274 29.2558 58.9274C44.9349 58.9274 57.5731 45.8354 57.5731 29.8123C57.5731 13.7893 44.9665 0.697266 29.2558 0.697266ZM46.772 49.2875C46.772 49.2875 41.5456 54.596 32.8351 52.0883C27.6087 50.6228 24.7896 46.9427 23.3009 43.1974C23.1426 42.8066 22.9842 42.4158 22.8575 42.025C21.052 36.5863 21.4321 32.6131 21.8756 30.6591C22.0339 30.0403 22.2557 29.4215 22.4774 28.8679C22.8575 27.9234 23.1742 27.4024 23.681 26.523L24.5046 25.1227C24.8213 24.6667 25.2014 24.0479 25.4865 23.5594C25.7082 23.1035 26.025 22.7127 26.1833 22.2242C36.4777 21.0518 41.5773 12.0306 42.4009 10.4674L42.3375 10.4023C37.5546 14.4406 34.0704 13.2031 30.4594 15.2222C28.0205 16.5575 27.1969 18.251 26.9752 19.1954C27.0386 18.479 27.0386 17.795 27.0386 17.1763C26.8168 14.9943 25.9933 12.8774 24.6946 11.249L24.4729 11.3142C25.5182 13.0402 26.1517 15.1245 26.1517 17.0786C26.1517 18.479 25.7716 19.8793 25.1697 21.1169C25.2331 20.5632 25.3281 19.0977 23.9661 18.1533C22.2873 16.9809 20.0384 15.5153 19.785 13.9521L19.6266 14.0172C19.6266 14.0824 19.6266 14.1801 19.6266 14.3429C19.785 16.1992 20.6086 17.9253 21.9072 19.1629L24.6946 21.8985C24.5362 22.1265 24.3779 22.3544 24.2512 22.615C23.9344 23.0058 23.6493 23.3966 23.3326 23.7874L22.3507 25.025C21.7489 25.8717 21.147 26.8813 20.6719 27.8257C19.69 29.8449 19.1515 32.0269 18.9931 34.3066C18.7714 36.8143 18.7714 42.253 15.3505 45.8354C13.6084 47.6266 11.4229 47.3986 10.1242 46.6821C9.20562 46.1285 8.44542 45.3469 7.8436 44.435C4.80281 39.7779 3.15572 34.0786 3.53582 27.9886C4.35936 14.5058 15.3505 3.59574 28.6223 3.30264C43.1294 2.9444 55.1025 15.0268 55.1025 29.8775C55.1025 32.3851 54.7857 34.7951 54.1206 37.0422C52.8219 41.7971 50.2562 45.9982 46.772 49.2875Z" fill="#0F190C"/>
<path d="M24.7259 21.9316C23.4273 21.7688 21.7803 21.378 20.7033 20.0753C18.9613 17.8933 19.4997 14.4738 19.5631 14.083C19.5631 14.1481 19.5948 14.4412 19.6581 14.7018C19.8798 16.1021 20.64 17.8933 21.9386 19.1634L24.7259 21.9316Z" fill="#0F190C"/>
</svg>
