<svg width="88" height="31" viewBox="0 0 88 31" fill="none" xmlns="http://www.w3.org/2000/svg">
<path d="M33.5376 26.577V3.87646H47.2524V7.7022H37.7689V12.933H45.787V16.7587H37.7689V26.5431H33.5376V26.577Z" fill="#0F190C"/>
<path d="M49.8375 3.87646H57.1312C61.6424 3.87646 64.2602 5.82319 64.2602 9.73356C64.2602 11.7141 63.3217 13.3392 61.5436 14.4396C63.8651 15.9461 64.8035 17.1988 64.8035 20.0258C64.8035 24.5117 61.8729 26.577 57.3946 26.577H49.8375V3.87646ZM54.0524 12.8483H56.8842C58.7776 12.8483 60.0289 11.7141 60.0289 10.1568C60.0289 8.49782 59.0904 7.43135 57.0983 7.43135H54.0524V12.8483ZM54.0524 22.9713H57.1641C59.3539 22.9713 60.5228 21.6509 60.5228 19.6534C60.5228 17.4866 59.0575 16.4201 56.8678 16.4201H54.0359V22.9713H54.0524Z" fill="#0F190C"/>
<path d="M67.3386 26.5769V3.87646H71.4218L79.4728 17.3512H79.5386V3.87646H83.4077V26.5939H79.9338L71.3065 11.9511H71.2406V26.5939H67.3386V26.5769Z" fill="#0F190C"/>
<path d="M85.4828 4.35063C85.4499 4.16442 85.3346 4.01207 85.2029 4.01207C85.0547 4.01207 84.9559 4.07978 84.9559 4.23213C84.9559 4.70612 85.845 4.63841 85.845 5.41711C85.845 5.82339 85.5981 6.04346 85.2029 6.04346C84.8078 6.04346 84.6266 5.85725 84.5608 5.41711L84.923 5.3494C84.9559 5.56947 85.0712 5.72182 85.2523 5.72182C85.4334 5.72182 85.5322 5.60332 85.5322 5.4679C85.5322 4.96005 84.6431 5.02776 84.6431 4.28292C84.6431 3.9105 84.8572 3.69043 85.2523 3.69043C85.6475 3.69043 85.8286 3.9105 85.8615 4.28292L85.4828 4.35063Z" fill="#0F190C"/>
<path d="M87.5243 6.04339V4.35055L87.1291 6.04339H86.8822L86.487 4.35055V6.04339H86.1577V3.75806H86.6517L87.0139 5.29854L87.4091 3.75806H87.903V6.04339H87.5243Z" fill="#0F190C"/>
<path d="M26.8533 4.452H26.5734V3.03003H27.0838C27.446 3.03003 27.5942 3.14853 27.5942 3.43631C27.5942 3.6733 27.4295 3.80873 27.2814 3.80873L27.5942 4.41814H27.2814L26.9685 3.80873H26.8039V4.452H26.8533ZM26.8533 3.63944H27.0838C27.2814 3.63944 27.3637 3.5548 27.3637 3.43631C27.3637 3.31781 27.2814 3.26702 27.0838 3.26702H26.8533V3.63944Z" fill="#0F190C"/>
<path d="M27.0838 4.97702C26.4088 4.97702 25.8655 4.41839 25.8655 3.72435C25.8655 3.0303 26.4088 2.47168 27.0838 2.47168C27.7589 2.47168 28.3022 3.0303 28.3022 3.72435C28.3187 4.40147 27.726 4.97702 27.0838 4.97702ZM27.0838 2.74253C26.5734 2.74253 26.1454 3.18265 26.1454 3.70742C26.1454 4.23219 26.5734 4.67231 27.0838 4.67231C27.5942 4.67231 28.0223 4.23219 28.0223 3.70742C28.0388 3.18265 27.6107 2.74253 27.0838 2.74253Z" fill="#0F190C"/>
<path opacity="0.6" d="M15.7896 14.575C14.6865 15.0151 13.5504 15.5399 12.4473 16.1493C11.8217 16.5217 11.229 16.7925 10.6363 17.0803C10.6033 18.2145 10.7515 19.7041 11.3442 21.5324C12.0851 23.6822 13.5834 25.9506 16.5799 26.797C21.1899 28.1004 23.9065 25.3073 23.9065 25.3073V25.3412C26.5901 22.785 28.2366 19.1455 28.2366 15.1336C28.2366 14.2872 28.1543 13.4746 28.0061 12.6621C23.8571 12.4251 19.6916 13.0345 15.7896 14.575Z" fill="#0F190C"/>
<path opacity="0.6" d="M1.97571 19.5013C2.37085 20.6694 2.88124 21.8036 3.55628 22.8192C3.8691 23.3102 4.26424 23.7164 4.7417 23.9873C5.41673 24.3597 6.5857 24.4782 7.49123 23.5471C9.21997 21.7697 9.3023 19.0612 9.41754 17.6731C5.71309 19.2643 2.91417 19.4675 1.97571 19.5013Z" fill="#0F190C"/>
<path opacity="0.7" d="M28.2359 15.6923C21.3044 14.7613 15.6407 17.7237 10.8002 19.5858C10.9154 20.1952 11.0801 20.8385 11.2776 21.5325C12.0185 23.6824 13.5168 25.9508 16.5462 26.7972C21.1562 28.1006 23.8728 25.3075 23.8728 25.3075V25.3413C26.4248 22.9037 28.0712 19.5011 28.2359 15.6923Z" fill="#0F190C"/>
<path opacity="0.7" d="M4.75815 24.0039C5.43318 24.3763 6.56922 24.4948 7.50768 23.5638C8.41321 22.6327 8.89067 21.4139 9.12117 20.2798C5.9765 21.2954 3.85262 21.2954 2.6178 21.1262C2.89769 21.7356 3.21051 22.2942 3.55626 22.8189C3.90201 23.276 4.24776 23.7161 4.75815 24.0039Z" fill="#0F190C"/>
<path d="M27.8741 18.9425C27.1661 21.414 25.7831 23.6316 24.0214 25.3752V25.3413C24.0214 25.3413 21.2225 28.2191 16.4972 26.8818C13.7477 26.12 12.2494 24.1733 11.3768 22.2265C11.4592 22.1927 11.5415 22.1927 11.6073 22.1419C12.3976 24.0886 13.8959 25.9846 16.5631 26.7633C21.1237 28.016 23.8074 25.2736 23.8074 25.2736C25.6185 23.5808 26.9521 21.3801 27.6271 18.8748C27.7259 18.8917 27.7918 18.8917 27.8741 18.9425Z" fill="#0F190C"/>
<path d="M4.72537 24.004C5.4004 24.4103 6.61877 24.4949 7.5243 23.5131C7.63956 23.3946 7.75481 23.2253 7.88652 23.0729C5.20283 23.4454 3.86922 22.9544 3.5564 22.8359C3.85275 23.3099 4.2479 23.7162 4.72537 24.004Z" fill="#0F190C"/>
<path opacity="0.3" d="M27.7918 18.8241C27.1168 21.3295 25.7502 23.5979 23.9392 25.3415V25.3076C23.9392 25.3076 21.1896 28.1008 16.5797 26.8481C13.8301 26.0863 12.3319 24.1396 11.5416 22.159C12.1673 21.9559 12.8423 21.7189 13.5832 21.4311C19.7737 18.9765 23.6593 18.0454 27.7918 18.8241Z" fill="#0F190C"/>
<path d="M21.5355 5.09521C21.1075 5.90776 18.4897 10.5799 13.1223 11.1724C13.6327 11.4094 15.4273 12.1034 17.6171 11.2909C20.2513 10.326 21.5355 5.24757 21.5355 5.09521Z" fill="#0F190C"/>
<path d="M14.719 0C6.61863 0 0 6.78816 0 15.1337C0 23.5131 6.61863 30.2674 14.719 30.2674C22.8689 30.2674 29.4381 23.4623 29.4381 15.1337C29.4381 6.80509 22.8853 0 14.719 0ZM23.8238 25.2567C23.8238 25.2567 21.1072 28.016 16.5795 26.7125C13.8629 25.9507 12.3976 24.0379 11.6238 22.0911C11.5414 21.888 11.4591 21.6849 11.3933 21.4817C10.4548 18.6547 10.6524 16.5895 10.8829 15.5738C10.9652 15.2522 11.0804 14.9306 11.1957 14.6428C11.3933 14.1519 11.5579 13.881 11.8213 13.424L12.2494 12.6961C12.4141 12.4591 12.6116 12.1374 12.7598 11.8835C12.8751 11.6465 13.0397 11.4434 13.122 11.1895C18.4729 10.5801 21.1236 5.89097 21.5517 5.07842L21.5188 5.04457C19.0327 7.14365 17.2216 6.50038 15.3447 7.54992C14.0769 8.24398 13.6489 9.12424 13.5336 9.61515C13.5665 9.24273 13.5665 8.88724 13.5665 8.56561C13.4513 7.43143 13.0232 6.3311 12.3482 5.4847L12.2329 5.51855C12.7763 6.41574 13.1055 7.49914 13.1055 8.51483C13.1055 9.24273 12.908 9.97064 12.5952 10.6139C12.6281 10.3261 12.6775 9.56437 11.9695 9.07345C11.0969 8.46404 9.92795 7.70228 9.79623 6.88973L9.71391 6.92359C9.71391 6.95744 9.71391 7.00823 9.71391 7.09287C9.79623 8.05777 10.2243 8.95496 10.8993 9.59822L12.3482 11.0202C12.2659 11.1387 12.1836 11.2572 12.1177 11.3926C11.9531 11.5957 11.8049 11.7989 11.6402 12.002L11.1298 12.6453C10.817 13.0854 10.5042 13.6102 10.2572 14.1011C9.74684 15.1506 9.46695 16.2848 9.38463 17.4698C9.26938 18.7732 9.26938 21.6002 7.49124 23.4623C6.5857 24.3934 5.44967 24.2749 4.77463 23.9025C4.29717 23.6147 3.90203 23.2084 3.58921 22.7344C2.00864 20.3137 1.1525 17.3513 1.35007 14.1857C1.77814 7.17751 7.49124 1.5066 14.3898 1.35425C21.9304 1.16804 28.1539 7.44836 28.1539 15.1676C28.1539 16.471 27.9892 17.7237 27.6435 18.8917C26.9685 21.3632 25.6348 23.547 23.8238 25.2567Z" fill="#0F190C"/>
<path d="M12.3645 11.0371C11.6895 10.9525 10.8333 10.7494 10.2736 10.0722C9.36808 8.93808 9.64796 7.16065 9.68089 6.95752C9.68089 6.99138 9.69735 7.14373 9.73028 7.27915C9.84552 8.00705 10.2407 8.93808 10.9157 9.59827L12.3645 11.0371Z" fill="#0F190C"/>
</svg>
