<svg width="543" height="124" viewBox="0 0 543 124" fill="none" xmlns="http://www.w3.org/2000/svg">
<path d="M96.8635 21.4639C102.34 14.58 110.979 14.2192 116.602 17.3155C118.652 18.4578 120.35 19.9909 121.668 21.9449C122.195 22.7265 122.459 22.8467 123.103 22.0351C125.798 18.6081 129.195 16.3536 133.5 15.7223C142.197 14.4297 150.309 18.3676 152.154 28.5583C152.506 30.5123 152.682 32.4963 152.682 34.4803C152.682 41.4845 152.682 48.4587 152.682 55.4629C152.682 56.7856 152.506 58.0481 151.598 59.0702C150.397 60.4229 148.962 60.8438 147.381 60.2726C145.799 59.7015 144.833 58.3487 144.833 56.4849C144.804 50.8034 144.833 45.0918 144.804 39.4103C144.775 36.4343 145.038 33.4282 144.306 30.4822C143.193 25.9731 140.616 23.5381 135.813 23.0872C132.211 22.7565 128.375 24.4099 126.354 28.2577C125.212 30.4221 124.802 32.7067 124.802 35.1417C124.802 41.9354 124.802 48.7292 124.802 55.523C124.802 56.9359 124.597 58.2585 123.543 59.3708C122.371 60.6033 120.936 60.7536 119.501 60.2726C117.978 59.7917 117.07 58.5592 117.041 56.9058C116.983 52.2764 117.041 47.617 116.953 42.9575C116.895 39.3201 117.158 35.6828 116.748 32.0454C116.25 27.6264 113.498 24.1093 109.749 23.2976C105.268 22.3357 100.788 24.2897 98.6207 28.1976C97.42 30.3319 96.805 32.6767 96.805 35.1417C96.805 42.1759 96.805 49.2403 96.805 56.2745C96.805 57.9579 96.1607 59.3107 94.6671 60.0622C93.32 60.7536 91.9143 60.6334 90.655 59.7616C89.3665 58.8598 88.9565 57.477 88.9272 55.9739C88.8979 44.1299 88.8979 32.2859 88.9272 20.4719C88.9272 17.8265 90.6257 15.9327 92.8221 15.9026C95.0478 15.8726 96.7464 17.8566 96.805 20.502C96.8343 20.7124 96.8343 20.9529 96.8635 21.4639ZM169.638 20.6823C169.638 17.8566 167.91 15.8125 165.538 15.9026C163.224 15.9628 161.672 17.8265 161.672 20.5922C161.672 36.6748 161.672 52.7574 161.672 68.8701C161.672 71.6357 163.224 73.3492 165.655 73.3492C168.144 73.3492 169.638 71.6657 169.638 68.9001C169.638 64.391 169.638 59.9119 169.638 55.4028C169.638 55.042 169.433 54.6212 169.872 54.3206C171.424 55.7935 172.889 57.2966 174.704 58.3788C182.348 63.0382 192.51 61.445 198.777 54.4107C204.751 47.6771 205.922 39.6809 203.785 31.1135C200.856 19.2695 188.41 12.5358 177.574 16.7143C174.499 17.9167 172.186 20.1713 169.609 22.6664C169.638 21.7645 169.638 21.2234 169.638 20.6823ZM192.451 49.7212C188.615 53.3887 184.017 54.5009 178.98 52.6973C173.679 50.8034 170.575 46.8955 169.667 41.2741C168.701 35.2018 170.077 29.8209 174.997 25.943C181.733 20.6222 189.552 22.967 193.476 28.0773C195.731 31.0233 196.61 34.5705 196.639 38.8392C196.463 42.5667 195.643 46.6851 192.451 49.7212ZM238.781 57.477C239.103 59.1604 240.479 60.3628 242.149 60.4229C244.872 60.5131 246.366 59.0101 246.395 55.9739C246.395 47.7372 246.424 39.5005 246.307 31.2638C246.19 24.4099 241.563 18.4578 235.12 16.7444C228.092 14.8806 221.239 15.7223 214.65 18.6683C212.512 19.6302 211.692 21.7345 212.541 23.6884C213.39 25.5823 215.352 26.3338 217.461 25.4019C221.151 23.8087 224.958 22.967 228.97 23.2976C234.505 23.7486 238.283 26.4841 238.664 32.6767C238.722 33.5785 238.576 33.8791 237.551 33.6386C232.309 32.4061 227.008 31.865 221.678 32.8871C217.578 33.6687 213.771 35.1417 211.194 38.749C205.981 46.0538 208.968 56.1843 217.344 59.461C225.017 62.4671 232.104 61.2045 238.546 55.5531C238.634 56.3046 238.664 56.9058 238.781 57.477ZM229.058 53.8696C226.217 54.4408 223.435 54.2905 220.829 52.9678C218.105 51.585 216.582 49.4206 216.758 46.174C216.934 43.0778 218.545 41.0937 221.297 40.0115C223.699 39.0797 226.188 38.779 228.736 38.8993C231.606 39.0195 234.447 39.4404 237.258 39.9815C238.459 40.222 239.044 40.7029 238.81 41.9956C238.751 42.236 238.81 42.5066 238.81 42.7471C239.103 49.1501 234.359 52.7874 229.058 53.8696ZM343.388 30.0313C340.87 23.8387 338.381 17.6462 335.833 11.4837C334.691 8.68801 333.724 5.83222 332.231 3.18686C331.206 1.35314 329.273 0.721859 327.457 1.3832C325.553 2.0746 324.587 3.72796 324.763 5.83222C324.851 6.70399 325.173 7.48558 325.495 8.2371C327.398 12.7462 329.361 17.2253 331.264 21.7044C336.36 33.7288 341.397 45.7832 346.493 57.8076C347.225 59.5512 348.572 60.4831 350.446 60.6634C352.613 60.8738 354.224 60.0321 355.278 58.0782C355.688 57.2966 356.04 56.4849 356.391 55.6733C359.935 47.2863 363.42 38.8993 366.963 30.5123C370.243 22.7866 373.523 15.0609 376.832 7.33527C377.535 5.71198 377.594 4.14881 376.452 2.70588C374.431 0.1507 370.829 0.75192 369.365 4.02856C368.193 6.64387 367.227 9.34936 366.143 12.0248C361.399 23.7185 356.655 35.3822 351.881 47.0759C351.676 47.5869 351.618 48.2182 350.944 48.6992C348.396 42.4164 345.907 36.2239 343.388 30.0313ZM453.736 38.5085C453.824 51.585 464.103 61.7156 477.047 61.0242C487.297 60.4831 498.015 52.1261 498.045 38.0876C498.074 25.4019 488.176 15.3615 475.934 15.4517C463.4 15.5419 453.648 25.6123 453.736 38.5085ZM489.903 36.2539C490.518 42.2661 488.791 47.3765 483.988 50.9237C475.261 57.3567 462.961 51.4648 461.906 40.4625C461.262 33.7889 463.166 28.2577 469.052 24.6504C471.073 23.4179 473.328 22.8467 475.583 22.9369C483.051 22.9369 489.113 28.6786 489.903 36.2539ZM512.687 19.1192C512.336 17.6161 511.428 16.594 509.964 16.1131C508.47 15.6321 507.182 16.0529 506.098 17.1652C505.19 18.067 504.956 19.2094 504.956 20.4419C504.956 32.3159 504.956 44.2201 504.956 56.0942C504.956 56.3948 504.956 56.6954 504.985 56.996C505.249 58.6193 506.098 59.7917 507.65 60.2426C509.115 60.6634 510.491 60.5131 511.662 59.2506C512.717 58.1383 512.834 56.7856 512.834 55.3727C512.834 48.7292 512.834 42.0857 512.834 35.4423C512.834 34.1497 512.922 32.857 513.244 31.5945C514.855 25.3117 519.716 22.7265 524.665 22.997C530.903 23.3277 534.3 27.1755 534.388 33.5785C534.476 41.0336 534.447 48.4587 534.476 55.9138C534.476 58.6493 536.028 60.3929 538.488 60.3929C540.919 60.3929 542.5 58.6493 542.5 55.9138C542.5 48.7292 542.5 41.5146 542.5 34.33C542.5 33.0374 542.441 31.7448 542.295 30.4522C540.831 16.5039 527.828 12.9266 518.75 16.9247C516.524 17.8867 514.767 19.4799 512.98 21.3437C512.863 20.4719 512.834 19.7805 512.687 19.1192ZM411.213 15.8425C406.821 16.594 403.043 18.4278 400.846 22.6664C397.625 28.889 399.646 35.322 405.737 38.5686C408.08 39.8312 410.598 40.5526 413.117 41.2741C415.782 41.9956 418.447 42.7771 420.79 44.2802C423.396 45.9636 423.718 49.3605 421.551 51.585C420.702 52.4568 419.677 52.9979 418.535 53.2985C415.225 54.1703 412.004 53.6292 408.841 52.4868C406.762 51.7353 404.888 50.5629 403.013 49.4507C401.198 48.3685 399.031 48.8795 397.976 50.5329C396.893 52.2464 397.391 54.2905 399.206 55.5831C401.52 57.2365 404.009 58.6193 406.703 59.461C412.619 61.3248 418.505 61.8959 424.187 58.6493C428.404 56.2445 430.542 52.3967 430.63 47.5268C430.718 43.0477 428.463 39.8011 424.773 37.5766C422.869 36.4343 420.819 35.7128 418.71 35.0515C415.518 34.0595 412.297 33.1877 409.339 31.5043C405.561 29.37 406.733 25.3719 409.456 23.959C410.364 23.478 411.301 23.1473 412.326 22.997C416.485 22.4559 420.175 23.8387 423.748 25.7626C425.973 26.935 428.053 26.454 429.078 24.5301C430.132 22.5762 429.37 20.4118 427.145 19.1793C423.103 16.9548 418.798 15.7523 413.791 15.602C413.234 15.4818 412.209 15.6922 411.213 15.8425ZM258.226 22.997C249.353 33.5184 251.549 48.7593 261.184 56.3948C270.028 63.399 282.972 62.4671 290.528 53.9298C291.817 52.4868 291.787 50.3224 290.499 48.9096C289.093 47.3765 287.102 47.3164 285.55 48.6691C284.671 49.4507 283.763 50.2022 282.797 50.8936C276.53 55.3727 268.33 54.0801 263.732 47.8574C260.247 43.1379 259.925 37.787 261.623 32.3761C264.083 24.5001 272.752 20.7124 280.044 24.1694C281.772 24.9811 283.265 26.1835 284.7 27.4461C286.545 29.0694 288.947 28.889 290.411 27.1154C291.758 25.462 291.524 23.1774 289.737 21.5541C285.432 17.5861 280.425 15.3615 274.919 15.4818C267.978 15.3615 262.443 18.0069 258.226 22.997ZM300.017 48.3384C300.046 50.3525 300.309 52.3065 301.129 54.1402C303.97 60.4831 314.22 63.2487 319.696 59.1303C321.044 58.1082 321.512 56.4248 320.868 54.8917C320.194 53.2985 318.554 52.3967 316.944 52.7574C316.387 52.8776 315.801 53.058 315.245 53.1482C310.706 53.7193 307.982 51.9758 307.982 47.2863C308.012 39.8312 308.012 32.4061 307.982 24.951C307.982 23.989 308.275 23.7786 309.154 23.8087C311.994 23.8688 314.806 23.8688 317.646 23.8087C319.784 23.7486 321.307 22.0952 321.249 19.9609C321.219 17.9167 319.667 16.4437 317.529 16.4437C314.689 16.4437 311.877 16.4137 309.036 16.4738C308.187 16.5039 307.953 16.2033 307.982 15.3615C308.041 12.8064 308.012 10.2512 307.982 7.72606C307.953 5.32119 306.225 3.42735 304.029 3.39728C301.715 3.36722 300.017 5.17088 299.958 7.72606C299.929 9.77021 299.958 11.8144 299.958 13.8585C299.958 16.3836 299.958 16.3836 297.469 16.4437C295.067 16.5039 293.427 18.9388 294.247 21.2836C294.892 23.1173 296.092 23.8688 298.669 23.8387C299.694 23.8087 299.987 24.0792 299.958 25.1614C299.899 29.0994 299.929 33.0675 299.929 37.0054C300.017 40.733 299.987 44.5507 300.017 48.3384ZM56.0396 65.1124C54.4289 65.8038 53.2282 67.0363 52.3497 68.5995C46.7269 78.4595 41.0748 88.2894 35.4227 98.1194C34.222 100.194 32.9627 102.238 32.582 104.643C32.3477 106.176 31.8791 107.829 32.9041 109.272C34.6027 111.647 38.3512 111.917 40.4305 109.903C41.1333 109.212 41.7776 108.46 42.2755 107.589C48.7476 96.2857 55.3368 85.0429 61.6039 73.5896C62.2774 72.3571 62.6581 71.0345 62.6289 69.7118C62.6581 65.5333 59.7296 63.5192 56.0396 65.1124ZM46.8147 27.2056C41.9241 26.424 36.9455 26.1234 32.0841 25.3117C23.7964 23.8989 15.3914 23.2075 7.07438 21.975C4.40941 21.6142 2.15443 22.5461 0.602302 24.9209C-1.09625 27.5062 1.07087 31.9251 3.70656 32.2558C5.72725 32.5264 7.74795 32.7969 9.79793 33.0675C17.8514 34.0895 25.9049 35.1116 33.9877 36.0736C37.8827 36.5545 41.8069 37.0656 45.7312 37.3061C49.4211 37.5465 50.6804 36.2239 50.8268 32.4963C50.8268 32.346 50.8268 32.1957 50.8268 32.4061C50.9733 28.8589 50.0068 27.7166 46.8147 27.2056ZM17.6757 69.7418C28.8335 65.8339 39.8741 61.5653 50.8854 57.1463C51.9397 56.7254 52.9061 56.1242 53.6968 55.3126C55.2489 53.6592 55.5125 51.585 54.4289 49.5709C53.2575 47.3765 51.5004 46.5047 49.2454 46.9256C47.3711 47.2863 45.7019 48.2182 43.9155 48.8495C32.9627 52.7574 22.0392 56.7555 11.1743 60.9941C10.2079 61.3548 9.27079 61.7456 8.4508 62.3769C6.51796 63.8198 5.96154 65.9541 6.8401 68.5093C7.60152 70.7038 8.91937 71.4553 11.7893 71.2749C13.7515 71.5154 15.655 70.4332 17.6757 69.7418ZM66.7874 121.146C67.4024 122.86 68.6617 123.791 70.4188 123.972C72.1173 124.152 73.4938 123.461 74.4602 122.078C75.2802 120.906 75.8659 119.583 76.0709 118.11C76.7444 112.879 76.8616 107.589 77.213 102.328C77.5644 96.9169 77.9451 91.506 78.2673 86.0649C78.443 82.8785 78.6187 79.692 78.5601 76.5055C78.5309 73.1087 76.803 71.3651 73.7866 71.2749C70.5359 71.1848 68.7202 72.6878 68.4859 75.9043C68.2224 79.5718 68.0467 83.2693 67.8417 86.9367C67.6074 90.7544 67.4024 94.6022 67.1681 98.42C66.8167 104.342 66.436 110.264 66.0553 116.156C65.9967 117.839 66.1724 119.523 66.7874 121.146ZM69.8624 45.9335C69.8624 49.4206 69.8331 52.9378 69.8624 56.4248C69.8916 58.8297 71.5609 60.4229 73.8452 60.4229C76.3344 60.4229 77.8866 58.6794 77.8866 55.7935C77.8866 42.8072 77.8866 29.8209 77.8866 16.8345C77.8866 13.137 77.8866 9.43954 77.8866 5.74204C77.8866 4.26905 77.4766 2.97643 76.3344 2.04454C75.0459 1.02247 73.5816 0.781981 72.0881 1.56357C70.5652 2.34515 69.8331 3.66783 69.8331 5.44143C69.8331 13.8886 69.8331 22.3357 69.8331 30.7828C69.8624 35.8331 69.8624 40.8833 69.8624 45.9335ZM382.836 56.004C382.836 58.7095 384.447 60.453 386.877 60.453C389.337 60.453 390.86 58.7696 390.86 55.9739C390.86 44.19 390.86 32.4061 390.86 20.6222C390.86 17.8566 389.161 15.9026 386.819 15.9026C384.505 15.9026 382.836 17.8867 382.807 20.6523C382.807 26.4841 382.807 32.346 382.807 38.1778C382.836 44.0998 382.807 50.0519 382.836 56.004ZM446.268 20.3817C446.327 18.2474 444.775 15.9928 442.315 15.9026C440.147 15.8425 438.302 18.067 438.302 20.3216C438.42 32.2558 438.361 44.19 438.361 56.1543C438.361 58.8297 439.855 60.4229 442.344 60.4229C444.745 60.4229 446.21 58.8297 446.21 56.2144C446.21 50.2623 446.21 44.3103 446.21 38.3882C446.239 32.3761 446.122 26.3939 446.268 20.3817ZM307.25 85.3435C304.439 85.9748 302.74 87.8987 302.067 90.6342C301.364 93.49 302.096 96.1053 304.38 98.0292C306.694 99.9531 309.329 100.254 312.024 99.0212C312.844 98.6304 313.341 98.5402 314.015 99.2617C314.542 99.8329 315.304 99.7427 315.831 99.1715C316.329 98.6304 316.416 97.939 315.801 97.458C314.952 96.7967 315.216 96.2556 315.567 95.444C317.764 90.4538 314.425 85.1932 309.095 85.133C308.48 85.1932 307.836 85.1932 307.25 85.3435ZM305.054 94.5421C303.941 92.2876 304.79 89.4017 306.928 88.1993C308.949 87.087 311.438 87.7183 312.639 89.7624C313.4 91.025 313.605 92.4078 313.166 93.9109C312.931 94.7225 312.668 94.6323 312.229 94.1814C311.936 93.9108 311.643 93.6704 311.35 93.3998C310.764 92.8587 310.149 92.6483 309.564 93.2796C308.978 93.9108 309.007 94.6624 309.564 95.2937C309.974 95.7746 310.471 96.1354 311.057 96.6464C308.48 97.7286 306.196 96.9169 305.054 94.5421ZM193.623 97.7286C193.623 98.6605 193.769 99.4421 194.911 99.4721C196.112 99.4721 196.288 98.6905 196.288 97.6685C196.258 94.2115 196.258 90.7845 196.288 87.3275C196.288 86.4257 196.258 85.584 195.204 85.3435C194.238 85.103 193.681 85.6441 193.213 86.4557C192.012 88.4398 190.782 90.3636 189.523 92.3777C188.146 90.2133 186.858 88.1692 185.598 86.1251C185.188 85.4337 184.603 85.1932 183.841 85.3435C183.109 85.4938 182.758 86.0349 182.758 86.7563C182.728 90.6041 182.728 94.4519 182.758 98.2998C182.758 99.1415 183.226 99.5322 184.076 99.5022C184.954 99.4721 185.306 99.0212 185.306 98.1795C185.306 96.436 185.306 94.6924 185.306 92.9188C185.306 92.2274 185.306 91.506 185.306 90.8146C186.418 92.0771 187.209 93.3998 188.058 94.6624C189.142 96.3157 189.816 96.2857 190.958 94.6023C191.836 93.3096 192.422 91.8366 193.623 90.5741C193.652 93.0691 193.652 95.3838 193.623 97.7286ZM502.701 85.1631C498.923 85.0729 495.614 87.9287 495.497 92.498C495.409 96.5262 498.748 99.7126 502.701 99.7126C506.772 99.7126 509.964 96.4961 509.964 92.3777C509.964 88.1692 506.918 85.2533 502.701 85.1631ZM502.701 87.7183C505.22 87.7183 507.182 89.7925 507.152 92.4379C507.123 95.0832 505.132 97.1875 502.701 97.1574C500.212 97.1274 498.338 95.0832 498.338 92.4078C498.308 89.7023 500.153 87.7183 502.701 87.7183ZM246.307 85.1631C242.266 85.1631 239.132 88.3195 239.103 92.4078C239.074 96.3758 242.324 99.6826 246.278 99.7126C250.349 99.7427 253.599 96.4961 253.599 92.4078C253.599 88.2293 250.524 85.1631 246.307 85.1631ZM246.483 87.7183C248.884 87.7483 250.817 89.8827 250.788 92.4379C250.758 95.0832 248.738 97.1875 246.307 97.1574C243.759 97.1274 241.914 95.0532 241.944 92.2274C241.973 89.552 243.847 87.6882 246.483 87.7183ZM264.962 99.7126C268.974 99.7126 272.254 96.3758 272.225 92.3777C272.195 88.2293 269.179 85.1932 265.079 85.1932C260.833 85.1932 257.816 88.1692 257.816 92.3777C257.816 96.5261 260.921 99.7126 264.962 99.7126ZM269.443 92.3777C269.443 95.1133 267.51 97.1875 264.962 97.1574C262.473 97.1274 260.628 95.0832 260.628 92.3777C260.628 89.6121 262.414 87.7183 264.991 87.7183C267.51 87.7483 269.443 89.7624 269.443 92.3777ZM276.998 97.6985C276.998 98.8709 277.555 99.4421 278.697 99.4421C280.073 99.4421 281.42 99.5022 282.797 99.412C286.838 99.2016 289.474 96.3157 289.445 92.2575C289.386 88.2293 286.75 85.5238 282.68 85.3735C281.508 85.3435 280.337 85.3735 279.165 85.3735C277.32 85.3735 277.028 85.6741 276.998 87.5079C276.998 89.1612 276.998 90.8146 276.998 92.4379C276.998 94.2115 276.998 95.955 276.998 97.6985ZM279.722 91.2955C279.956 90.2134 279.019 88.5901 280.19 88.079C282.416 87.1171 285.198 88.3195 286.165 90.2133C287.717 93.2796 285.96 96.6163 282.562 97.0372C279.751 97.3979 279.693 97.3378 279.693 94.4219C279.693 93.7605 279.693 93.1293 279.693 92.4679C279.722 92.0771 279.634 91.6863 279.722 91.2955ZM415.694 97.7286C415.694 98.8709 416.25 99.4721 417.393 99.4721C418.769 99.4421 420.116 99.5322 421.493 99.4421C425.036 99.2617 427.906 96.6464 428.111 93.49C428.375 89.2514 426.5 86.3355 422.84 85.5539C421.112 85.1932 419.325 85.4637 417.598 85.3735C416.192 85.3134 415.665 86.0349 415.694 87.3876C415.723 89.041 415.694 90.6943 415.694 92.3477C415.694 94.1213 415.694 95.9249 415.694 97.7286ZM418.447 91.2655C418.681 90.1833 417.715 88.5901 418.945 88.079C421.2 87.1471 423.953 88.3195 424.948 90.1833C426.559 93.2796 424.626 96.7666 421.112 97.0372C418.418 97.2476 418.418 97.2476 418.418 94.5421C418.418 93.8507 418.418 93.1593 418.418 92.4379C418.418 92.0471 418.359 91.6262 418.447 91.2655ZM518.867 91.8366C520.565 94.2716 522.322 96.6464 524.284 98.901C524.782 99.4721 525.368 99.6224 525.983 99.412C526.569 99.2016 526.774 98.6605 526.774 97.9691C526.744 94.2115 526.744 90.4839 526.774 86.7263C526.774 85.8846 526.422 85.3435 525.632 85.2834C524.812 85.2232 524.402 85.8244 524.314 86.576C524.226 87.1171 524.284 87.6582 524.284 88.2293C524.284 90.2434 524.284 92.2274 524.284 94.6624C521.942 91.5661 519.862 88.8907 517.842 86.1852C517.256 85.4036 516.582 85.103 515.675 85.4036C514.825 85.7042 514.796 86.4557 514.796 87.2373C514.825 90.6943 514.825 94.1213 514.796 97.5783C514.796 98.5402 514.855 99.4421 516.085 99.4421C517.344 99.4721 517.432 98.5703 517.432 97.6084C517.432 95.1734 517.432 92.7385 517.432 89.8827C518.047 90.7244 518.486 91.2655 518.867 91.8366ZM88.8979 97.939C88.8979 98.7807 89.1615 99.412 90.1279 99.4421C91.1236 99.4721 91.5043 98.8709 91.5336 97.939C91.5629 97.0973 91.5336 96.2556 91.5336 95.3838C91.5336 95.0532 91.4164 94.6323 91.9436 94.6323C93.0857 94.6323 94.2571 94.3317 95.0478 95.6243C95.7507 96.7666 96.6 97.7887 97.42 98.8408C98.035 99.6525 98.8842 99.7126 99.6164 99.1415C100.319 98.5703 100.056 97.8188 99.5871 97.1574C99.2649 96.7065 98.9721 96.2556 98.5914 95.8949C97.3614 94.7826 97.1271 93.8507 98.9135 93.1293C99.1185 93.0391 99.2357 92.7685 99.3821 92.5581C101.432 89.6121 99.6749 85.7643 96.0143 85.4637C94.14 85.3134 92.2072 85.4036 90.3329 85.3735C89.2493 85.3735 88.8979 86.0048 88.8979 86.9968C88.8979 88.8005 88.8979 90.6041 88.8979 92.3777C88.8979 94.2415 88.8979 96.1053 88.8979 97.939ZM91.5336 90.1232C91.5336 89.7624 91.5629 89.4318 91.5336 89.071C91.4457 88.2894 91.6507 87.8686 92.5293 87.9588C93.4957 88.049 94.4914 87.9588 95.4578 87.9888C96.6878 88.0189 97.3614 88.7704 97.42 89.9428C97.4492 91.1152 96.8635 91.9569 95.6335 92.1072C94.96 92.1974 94.2864 92.1673 93.5836 92.1974C91.5336 92.1974 91.5336 92.1974 91.5336 90.1232ZM201.647 97.6985C201.647 98.8709 202.203 99.4421 203.345 99.4421C205.835 99.4421 208.324 99.4421 210.784 99.4421C211.604 99.4421 212.277 99.1114 212.219 98.1795C212.19 97.3378 211.575 97.0372 210.784 97.0372C209.32 97.0372 207.855 97.0372 206.391 97.0372C204.429 97.0372 204.429 97.0372 204.429 94.963C204.429 94.8728 204.429 94.7526 204.429 94.6624C204.312 93.8207 204.634 93.5201 205.454 93.5802C206.801 93.6403 208.177 93.6102 209.554 93.5802C210.374 93.5802 211.223 93.4299 211.223 92.3477C211.223 91.2655 210.345 91.1753 209.554 91.1452C208.587 91.1152 207.592 91.1452 206.625 91.1452C204.341 91.1452 204.37 91.1452 204.429 88.8606C204.458 88.079 204.634 87.8385 205.425 87.8686C207.123 87.9287 208.822 87.8987 210.55 87.8686C211.399 87.8686 212.16 87.6281 212.102 86.5459C212.043 85.5539 211.37 85.3735 210.55 85.3735C208.207 85.3735 205.864 85.4036 203.55 85.3735C202.174 85.3435 201.618 86.0048 201.647 87.3876C201.676 89.071 201.647 90.7845 201.647 92.4679C201.647 94.2115 201.647 95.955 201.647 97.6985ZM105.034 97.8188C105.005 98.9911 105.561 99.4421 106.616 99.4421C109.105 99.4421 111.594 99.4421 114.083 99.4421C114.874 99.4421 115.46 99.1114 115.489 98.2697C115.518 97.3378 114.874 97.0372 114.025 97.0372C112.619 97.0372 111.184 97.0372 109.778 97.0372C107.67 97.0372 107.728 97.0372 107.67 94.9029C107.641 93.8207 108.021 93.5201 108.988 93.5802C110.306 93.6704 111.623 93.6102 112.941 93.5802C113.761 93.5802 114.611 93.4299 114.581 92.3176C114.552 91.3256 113.761 91.1753 113 91.1452C111.623 91.1152 110.276 91.0551 108.9 91.1452C107.787 91.2354 107.553 90.6943 107.699 89.7324C107.816 88.9207 107.172 87.7183 108.841 87.8085C110.54 87.8987 112.238 87.8385 113.966 87.8085C114.757 87.8085 115.46 87.4778 115.431 86.5158C115.401 85.6441 114.816 85.3134 114.054 85.3134C111.506 85.3134 108.988 85.3134 106.44 85.3134C105.503 85.3134 105.034 85.7944 105.034 86.8165C105.063 88.6502 105.034 90.514 105.034 92.3477C105.063 94.2115 105.093 96.0151 105.034 97.8188ZM433.09 97.8188C433.09 98.8408 433.558 99.412 434.583 99.4421C437.102 99.4421 439.65 99.4421 442.168 99.4421C442.959 99.4421 443.545 99.0813 443.545 98.2396C443.545 97.3077 442.93 97.0071 442.051 97.0071C440.733 97.0372 439.415 97.0071 438.097 97.0071C435.608 97.0071 435.637 97.0071 435.667 94.5121C435.667 93.7305 435.901 93.5201 436.633 93.5501C437.98 93.6102 439.357 93.5501 440.733 93.5802C441.641 93.5802 442.52 93.4599 442.49 92.3176C442.461 91.1753 441.553 91.1152 440.675 91.1152C439.737 91.1152 438.83 91.1152 437.892 91.1152C435.608 91.1152 435.637 91.1152 435.667 88.7404C435.667 87.9588 435.872 87.7784 436.633 87.8085C438.332 87.8987 440.03 87.8085 441.758 87.8385C442.637 87.8385 443.369 87.6281 443.398 86.606C443.427 85.584 442.695 85.3435 441.817 85.3435C439.474 85.3735 437.131 85.3735 434.817 85.3435C433.558 85.3435 433.06 85.9447 433.09 87.1772C433.119 88.9207 433.09 90.6643 433.09 92.4078C433.09 94.2415 433.09 96.0452 433.09 97.8188ZM472.742 88.9207C472.42 91.0851 473.621 92.528 476.491 93.3998C477.457 93.7004 478.453 93.971 479.39 94.3317C479.917 94.5421 480.268 94.963 480.239 95.5943C480.21 96.1654 480.005 96.6765 479.448 96.8869C478.833 97.1274 478.219 97.3679 477.486 97.2176C476.315 96.9771 475.29 96.466 474.324 95.7746C473.65 95.2937 472.976 95.474 472.537 96.1354C472.098 96.8268 472.244 97.458 472.947 97.909C474.968 99.2617 477.135 99.9832 479.566 99.412C481.674 98.901 482.816 97.6384 482.904 95.6544C482.992 93.49 482.201 92.3777 479.976 91.6262C478.775 91.2354 477.574 90.8747 476.403 90.4538C475.729 90.2133 475.378 89.6722 475.466 88.9508C475.553 88.1391 476.11 87.7784 476.871 87.6882C478.131 87.5079 479.273 87.8385 480.327 88.56C481.059 89.041 481.762 89.041 482.231 88.2594C482.728 87.4177 482.406 86.7263 481.645 86.2453C480.444 85.4938 479.156 85.133 477.75 85.1631C474.851 85.1631 473.094 86.4557 472.742 88.9207ZM332.67 87.1471C332.699 86.1251 332.377 85.2533 331.293 85.2533C330.298 85.2533 330.005 86.095 330.034 87.057C330.063 89.2514 330.093 91.4458 330.034 93.6403C330.005 95.7145 328.804 97.0071 326.959 97.0973C324.792 97.1875 323.562 96.0151 323.504 93.6704C323.445 91.3857 323.474 89.071 323.474 86.7864C323.474 85.9146 323.094 85.2834 322.244 85.2533C321.307 85.1932 320.751 85.8545 320.78 86.7263C320.839 89.5219 320.487 92.3176 320.985 95.0832C321.483 97.909 323.562 99.6224 326.578 99.6826C329.507 99.7727 331.733 98.0593 332.406 95.3237C332.816 93.7004 332.523 92.0471 332.641 90.6643C332.67 89.3416 332.641 88.2594 332.67 87.1471ZM532.045 88.4097C531.606 90.9649 532.66 92.4679 535.53 93.3698C536.497 93.6704 537.492 93.9409 538.429 94.2716C539.074 94.5121 539.513 94.963 539.454 95.7446C539.396 96.4961 538.927 96.8568 538.254 97.0672C536.555 97.6083 535.12 96.947 533.773 95.9851C533.041 95.444 532.338 95.2936 531.752 96.1354C531.137 97.0372 531.664 97.6685 532.367 98.1194C534.329 99.3819 536.409 100.013 538.751 99.4421C540.714 98.9611 542.002 97.5482 542.119 95.6844C542.236 93.6704 541.416 92.4679 539.279 91.7164C538.136 91.2955 536.965 91.025 535.823 90.6342C535.12 90.3637 534.505 89.9127 534.681 88.9809C534.857 88.049 535.559 87.7784 536.409 87.7183C537.463 87.6582 538.429 87.8987 539.308 88.4698C540.099 88.9809 540.86 89.2514 541.416 88.2594C542.031 87.1772 541.329 86.576 540.509 86.1251C539.366 85.4938 538.166 85.1631 536.877 85.1932C534.212 85.1631 532.397 86.3956 532.045 88.4097ZM349.948 97.3979C348.396 93.8207 346.785 90.2735 345.204 86.7263C344.853 85.9447 344.53 85.1932 343.476 85.1932C342.393 85.1932 341.953 85.8846 341.573 86.7263C340.021 90.3035 338.468 93.8808 336.946 97.458C336.623 98.2096 336.506 98.9911 337.326 99.3519C338.146 99.7126 338.908 99.412 339.142 98.4501C339.698 96.3157 341.075 95.7446 343.037 96.1053C343.359 96.1654 343.71 96.1654 344.062 96.1053C345.819 95.8348 347.049 96.2857 347.459 98.2697C347.605 98.931 348.015 99.5623 348.835 99.4421C350.095 99.4421 350.534 98.6905 349.948 97.3979ZM342.217 93.7004C341.514 93.7305 341.338 93.5201 341.66 92.8287C342.246 91.536 342.803 90.2134 343.418 88.7404C344.208 90.4238 344.97 91.9569 345.526 93.6704C344.325 93.7004 343.271 93.6704 342.217 93.7004ZM132.738 97.8188C131.04 93.9109 129.4 89.9729 127.613 86.1251C126.94 84.6821 125.183 84.8024 124.48 86.2453C123.865 87.5379 123.367 88.8907 122.781 90.1833C121.698 92.6182 120.585 95.0532 119.501 97.4881C119.179 98.2096 119.033 99.0212 119.94 99.3819C120.731 99.6826 121.493 99.5022 121.873 98.5703C121.99 98.2998 122.166 98.0292 122.225 97.7587C122.518 96.4059 123.279 95.8648 124.626 96.1053C124.948 96.1654 125.3 96.1354 125.651 96.1053C127.877 95.8648 129.927 95.8949 130.483 98.7807C130.512 98.901 130.6 99.0513 130.717 99.1415C131.157 99.5924 131.713 99.5322 132.211 99.3218C132.621 99.1415 132.885 98.7507 132.797 97.939C132.797 98.0893 132.797 97.939 132.738 97.8188ZM128.17 93.7004C126.94 93.7004 125.827 93.6704 124.743 93.7004C124.011 93.7305 123.894 93.49 124.187 92.8287C124.773 91.536 125.329 90.2434 126.003 88.7404C126.764 90.4538 127.438 92.017 128.17 93.7004ZM448.055 94.7826C449.694 99.9531 455.903 101.095 459.593 97.8488C460.208 97.3077 460.325 96.6464 459.857 96.0151C459.417 95.444 458.802 95.3538 458.158 95.7145C457.865 95.8949 457.631 96.1654 457.338 96.3458C455.815 97.3378 454.204 97.458 452.652 96.5262C451.042 95.5943 450.163 93.4299 450.485 91.6563C451.188 87.8987 454.468 86.5159 457.631 88.6802C458.48 89.2514 459.212 89.3716 459.769 88.4999C460.267 87.6882 460.032 86.9066 459.183 86.3355C457.865 85.4938 456.459 85.0128 455.024 85.103C449.87 85.1631 446.502 89.8526 448.055 94.7826ZM391.416 4.81015C391.446 1.71387 389.747 -0.0296653 386.76 0.000395681C383.949 0.000395681 382.279 1.74393 382.25 4.65985C382.221 7.66594 383.919 9.4696 386.76 9.4696C389.689 9.4696 391.416 7.75612 391.416 4.81015ZM225.017 97.8188C225.017 98.7206 225.192 99.412 226.247 99.4421C227.389 99.4721 227.623 98.7206 227.623 97.7887C227.623 96.7967 227.682 95.8047 227.623 94.8127C227.594 94.0912 227.828 93.8808 228.531 93.9109C229.995 93.971 231.459 93.9409 232.924 93.9109C233.744 93.8808 234.505 93.7004 234.417 92.5581C234.329 91.5661 233.685 91.3857 232.865 91.3857C231.401 91.3857 229.937 91.3557 228.472 91.3857C227.887 91.3857 227.564 91.2655 227.623 90.5741C227.682 90.1232 227.682 89.6722 227.623 89.2213C227.506 88.2894 227.799 87.8987 228.794 87.9588C230.493 88.049 232.192 88.0189 233.89 87.9588C234.681 87.9287 235.296 87.598 235.266 86.606C235.266 85.5539 234.652 85.3735 233.832 85.3735C231.459 85.3735 229.058 85.4036 226.686 85.3735C225.544 85.3735 224.987 85.8244 225.017 87.057C225.075 88.8606 225.017 90.6342 225.017 92.4379C225.017 94.2415 225.017 96.0452 225.017 97.8188ZM442.197 9.4696C445.155 9.4696 446.795 7.81625 446.824 4.84021C446.824 1.65375 445.243 -0.0296653 442.285 0.000395681C439.445 0.000395681 437.834 1.68381 437.834 4.65985C437.805 7.75612 439.357 9.4696 442.197 9.4696ZM393.613 86.1551C393.086 85.3735 392.412 84.8625 391.534 85.4938C390.596 86.1551 390.86 87.0269 391.446 87.8385C392.002 88.5901 392.529 89.3716 393.115 90.0931C394.843 92.2575 396.249 94.5121 395.751 97.4881C395.692 97.909 395.839 98.3899 395.985 98.7807C396.219 99.5022 396.864 99.4721 397.449 99.4421C398.064 99.412 398.445 99.0212 398.504 98.42C398.562 97.8188 398.591 97.2176 398.504 96.6163C398.299 94.8427 398.767 93.3096 399.88 91.9268C400.964 90.6041 401.959 89.1612 402.955 87.7784C403.511 86.9968 403.833 86.1251 402.838 85.4637C401.93 84.8625 401.315 85.4337 400.788 86.1852C399.616 87.8987 398.445 89.5821 397.215 91.3857C395.956 89.552 394.755 87.8686 393.613 86.1551ZM380.552 97.6384C380.552 98.6004 380.698 99.4721 381.928 99.4721C383.129 99.4721 383.304 98.6905 383.304 97.6685C383.275 94.7826 383.334 91.8968 383.275 89.0109C383.275 88.2293 383.48 87.9287 384.242 87.9888C384.974 88.049 385.706 88.049 386.438 87.9888C387.17 87.9287 387.639 87.3876 387.609 86.6962C387.58 85.9748 387.199 85.4036 386.321 85.4036C383.392 85.4337 380.493 85.4036 377.564 85.4036C376.744 85.4036 376.247 85.7944 376.217 86.6361C376.217 87.4477 376.715 87.9287 377.477 87.9888C378.092 88.049 378.736 88.049 379.38 87.9888C380.259 87.8987 380.61 88.1692 380.552 89.1312C380.464 90.5741 380.522 92.017 380.522 93.4599C380.552 94.8427 380.552 96.2255 380.552 97.6384ZM162.961 97.6985C162.931 98.6605 163.136 99.412 164.249 99.4421C165.391 99.4721 165.567 98.6905 165.567 97.7587C165.567 95.4139 165.567 93.0691 165.567 90.7244C165.567 88.079 165.567 88.079 168.203 87.9888C168.349 87.9888 168.496 87.9888 168.642 87.9888C169.491 87.8987 170.019 87.5079 169.989 86.5459C169.96 85.6441 169.374 85.3735 168.584 85.3735C165.714 85.3735 162.844 85.3735 159.974 85.3735C159.154 85.3735 158.656 85.7643 158.627 86.606C158.627 87.5079 159.154 87.9588 160.032 87.9588C160.706 87.9588 161.409 87.9888 162.082 87.9588C162.756 87.8987 163.019 88.1391 162.99 88.8606C162.931 90.3637 162.961 91.8667 162.961 93.3397C162.961 94.8127 162.99 96.2556 162.961 97.6985ZM354.693 97.8188C354.693 98.7807 355.073 99.412 356.01 99.412C358.441 99.4421 360.872 99.4421 363.302 99.412C364.093 99.412 364.62 98.931 364.562 98.0893C364.503 97.3077 363.976 97.0071 363.244 97.0071C361.838 97.0372 360.403 96.9169 358.997 97.0372C357.767 97.1274 357.299 96.8568 357.387 95.444C357.504 92.7084 357.416 89.9428 357.445 87.2073C357.445 86.1251 357.211 85.1932 356.01 85.2232C354.927 85.2533 354.634 86.095 354.663 87.1471C354.722 88.8305 354.663 90.544 354.663 92.2274C354.693 94.1213 354.693 95.9851 354.693 97.8188ZM137.482 97.8488C137.453 98.901 137.892 99.4421 138.947 99.4421C141.231 99.4421 143.515 99.4421 145.829 99.4421C146.619 99.4421 147.117 99.0513 147.147 98.2096C147.176 97.2777 146.619 97.0372 145.799 97.0372C144.277 97.0672 142.783 96.9771 141.26 97.0672C140.323 97.1274 140.03 96.8568 140.03 95.8347C140.089 92.9489 140.03 90.033 140.06 87.1471C140.06 86.1251 139.796 85.2834 138.683 85.2533C137.57 85.2232 137.453 86.095 137.453 87.057C137.482 88.8005 137.453 90.544 137.453 92.2876C137.512 94.1513 137.512 96.0151 137.482 97.8488ZM467.588 86.9066C467.617 85.9447 467.236 85.3134 466.329 85.2533C465.421 85.1932 464.835 85.8244 464.835 86.7263C464.806 90.514 464.806 94.2716 464.835 98.0593C464.835 98.9912 465.391 99.5022 466.358 99.412C467.266 99.3519 467.588 98.8108 467.588 97.939C467.559 96.1053 467.588 94.2716 467.588 92.4078C467.588 90.6041 467.559 88.7704 467.588 86.9066ZM369.013 97.7887C369.013 98.7807 369.306 99.412 370.389 99.4421C371.414 99.4721 371.766 98.8108 371.766 97.909C371.795 94.2716 371.766 90.6342 371.766 86.9668C371.766 86.0048 371.356 85.2232 370.331 85.2533C369.365 85.2834 368.955 85.9748 368.984 86.9968C369.013 88.8005 368.984 90.6041 368.984 92.3777C369.013 94.1814 369.042 95.9851 369.013 97.7887ZM177.252 86.9367C177.252 85.9146 176.813 85.2533 175.817 85.2533C174.821 85.2533 174.411 85.9747 174.411 86.9668C174.411 90.6041 174.411 94.2415 174.411 97.8789C174.411 98.7807 174.763 99.412 175.758 99.4421C176.842 99.4721 177.223 98.8709 177.223 97.8488C177.223 96.0452 177.223 94.2716 177.223 92.4679C177.252 90.6342 177.223 88.8005 177.252 86.9367ZM487.853 97.6384C487.853 98.6304 487.971 99.4721 489.201 99.4421C490.372 99.412 490.46 98.6004 490.431 97.6985C490.431 94.1513 490.401 90.6041 490.431 87.087C490.431 86.1251 490.255 85.2834 489.201 85.2834C488.117 85.2834 487.795 86.1251 487.824 87.1772C487.853 88.8606 487.824 90.5741 487.824 92.2575C487.883 94.0311 487.883 95.8347 487.853 97.6384Z" fill="#0F190C"/>
</svg>
