<svg width="120" height="28" viewBox="0 0 120 28" fill="none" xmlns="http://www.w3.org/2000/svg">
<path d="M21.2893 4.7427C22.493 3.23006 24.3918 3.1508 25.6276 3.83115C26.0781 4.08216 26.4514 4.41903 26.7411 4.84838C26.8569 5.02012 26.9149 5.04654 27.0565 4.8682C27.6486 4.11518 28.3953 3.61978 29.3415 3.48107C31.2531 3.19704 33.036 4.06234 33.4415 6.30156C33.5188 6.73091 33.5574 7.16687 33.5574 7.60282C33.5574 9.14188 33.5574 10.6743 33.5574 12.2134C33.5574 12.504 33.5188 12.7814 33.3192 13.006C33.0553 13.3033 32.74 13.3957 32.3924 13.2702C32.0448 13.1447 31.8324 12.8475 31.8324 12.438C31.826 11.1895 31.8324 9.93452 31.826 8.68611C31.8195 8.03217 31.8775 7.37164 31.7165 6.72431C31.472 5.7335 30.9055 5.19847 29.8499 5.09939C29.0583 5.02673 28.2151 5.39002 27.7709 6.23551C27.5199 6.7111 27.4298 7.21311 27.4298 7.74814C27.4298 9.24096 27.4298 10.7338 27.4298 12.2266C27.4298 12.537 27.3847 12.8277 27.153 13.0721C26.8956 13.3429 26.5802 13.3759 26.2648 13.2702C25.9301 13.1646 25.7306 12.8937 25.7241 12.5304C25.7112 11.5132 25.7241 10.4894 25.7048 9.46554C25.6919 8.66629 25.7499 7.86704 25.6597 7.06779C25.5503 6.0968 24.9453 5.32397 24.1214 5.14562C23.1366 4.93425 22.1518 5.3636 21.6755 6.2223C21.4116 6.69128 21.2765 7.2065 21.2765 7.74814C21.2765 9.2938 21.2765 10.8461 21.2765 12.3917C21.2765 12.7616 21.1349 13.0589 20.8066 13.224C20.5105 13.3759 20.2016 13.3495 19.9248 13.1579C19.6416 12.9598 19.5515 12.6559 19.545 12.3257C19.5386 9.72315 19.5386 7.12063 19.545 4.52472C19.545 3.94344 19.9183 3.52731 20.4011 3.5207C20.8903 3.51409 21.2636 3.95005 21.2765 4.53132C21.2829 4.57756 21.2829 4.6304 21.2893 4.7427ZM37.2842 4.57096C37.2842 3.95005 36.9044 3.50088 36.383 3.5207C35.8746 3.53391 35.5334 3.94344 35.5334 4.55114C35.5334 8.08502 35.5334 11.6189 35.5334 15.1594C35.5334 15.7671 35.8746 16.1436 36.4088 16.1436C36.9559 16.1436 37.2842 15.7737 37.2842 15.166C37.2842 14.1752 37.2842 13.191 37.2842 12.2002C37.2842 12.1209 37.2391 12.0284 37.3357 11.9624C37.6768 12.286 37.9986 12.6163 38.3977 12.8541C40.0776 13.8779 42.3111 13.5278 43.6885 11.9822C45.0016 10.5026 45.2591 8.74555 44.7892 6.86302C44.1455 4.2605 41.41 2.7809 39.0285 3.69904C38.3526 3.96326 37.8441 4.45866 37.2777 5.00691C37.2842 4.80875 37.2842 4.68985 37.2842 4.57096ZM42.2982 10.9518C41.455 11.7576 40.4445 12.002 39.3374 11.6057C38.1724 11.1895 37.4901 10.3308 37.2906 9.09564C37.0782 7.76135 37.3807 6.57899 38.4621 5.7269C39.9425 4.55774 41.661 5.07296 42.5235 6.19588C43.0191 6.84321 43.2122 7.62264 43.2187 8.5606C43.18 9.37967 42.9998 10.2846 42.2982 10.9518ZM52.4809 12.6559C52.5517 13.0258 52.8542 13.2901 53.2211 13.3033C53.8197 13.3231 54.1479 12.9928 54.1544 12.3257C54.1544 10.5158 54.1608 8.70592 54.1351 6.89605C54.1093 5.39002 53.0923 4.08216 51.6763 3.70565C50.1315 3.29612 48.6254 3.48107 47.1771 4.12839C46.7073 4.33977 46.5271 4.80214 46.7137 5.23149C46.9004 5.64763 47.3316 5.81277 47.7951 5.608C48.6061 5.25791 49.4428 5.07296 50.3246 5.14562C51.5411 5.2447 52.3714 5.84579 52.4551 7.2065C52.468 7.40466 52.4358 7.47072 52.2105 7.41787C51.0584 7.14705 49.8934 7.02816 48.7219 7.25274C47.8208 7.42448 46.9841 7.74814 46.4176 8.54079C45.2719 10.1459 45.9285 12.3719 47.7693 13.0919C49.4557 13.7524 51.0133 13.475 52.4294 12.2332C52.4487 12.3983 52.4551 12.5304 52.4809 12.6559ZM50.3439 11.8633C49.7196 11.9888 49.1081 11.9558 48.5353 11.6651C47.9367 11.3613 47.602 10.8857 47.6406 10.1723C47.6792 9.49196 48.0332 9.05601 48.6382 8.81821C49.166 8.61345 49.7132 8.54739 50.2731 8.57381C50.9039 8.60024 51.5283 8.69271 52.1462 8.81161C52.4101 8.86445 52.5388 8.97014 52.4873 9.25417C52.4744 9.30701 52.4873 9.36646 52.4873 9.4193C52.5517 10.8262 51.5089 11.6255 50.3439 11.8633ZM75.4722 6.62523C74.9187 5.26452 74.3716 3.90381 73.8116 2.54971C73.5606 1.93541 73.3482 1.3079 73.0199 0.726624C72.7946 0.323696 72.3698 0.184983 71.9707 0.330302C71.5524 0.482225 71.34 0.845521 71.3786 1.3079C71.3979 1.49945 71.4687 1.67119 71.5395 1.83633C71.9579 2.82713 72.3891 3.81134 72.8075 4.79554C73.9275 7.43769 75.0345 10.0864 76.1545 12.7286C76.3154 13.1117 76.6115 13.3165 77.0234 13.3561C77.4997 13.4023 77.8538 13.2174 78.0855 12.788C78.1756 12.6163 78.2528 12.438 78.3301 12.2596C79.1089 10.4167 79.8748 8.57382 80.6537 6.73091C81.3746 5.03333 82.0954 3.33575 82.8228 1.63817C82.9773 1.28148 82.9901 0.937996 82.7391 0.620938C82.295 0.059481 81.5033 0.191589 81.1815 0.911575C80.924 1.48624 80.7116 2.08073 80.4734 2.66861C79.4307 5.2381 78.388 7.80099 77.3388 10.3705C77.2938 10.4828 77.2809 10.6215 77.1329 10.7272C76.5729 9.34664 76.0258 7.98594 75.4722 6.62523ZM99.7252 8.48795C99.7445 11.3613 102.004 13.5873 104.849 13.4354C107.101 13.3165 109.457 11.4802 109.464 8.39547C109.47 5.608 107.295 3.4018 104.604 3.42162C101.849 3.44144 99.7059 5.65424 99.7252 8.48795ZM107.674 7.99254C107.809 9.31362 107.43 10.4365 106.374 11.216C104.456 12.6295 101.753 11.3349 101.521 8.91729C101.379 7.4509 101.798 6.23551 103.091 5.44287C103.536 5.17204 104.031 5.04654 104.527 5.06636C106.168 5.06636 107.501 6.32799 107.674 7.99254ZM112.682 4.22748C112.605 3.89721 112.405 3.67262 112.083 3.56694C111.755 3.46125 111.472 3.55373 111.234 3.79813C111.034 3.99629 110.983 4.24729 110.983 4.51811C110.983 7.12724 110.983 9.74297 110.983 12.3521C110.983 12.4181 110.983 12.4842 110.989 12.5503C111.047 12.9069 111.234 13.1646 111.575 13.2636C111.897 13.3561 112.199 13.3231 112.457 13.0457C112.688 12.8013 112.714 12.504 112.714 12.1936C112.714 10.7338 112.714 9.27399 112.714 7.8142C112.714 7.53017 112.733 7.24613 112.804 6.96871C113.158 5.58818 114.227 5.02012 115.315 5.07957C116.685 5.15223 117.432 5.99772 117.451 7.40466C117.471 9.0428 117.464 10.6743 117.471 12.3125C117.471 12.9135 117.812 13.2967 118.353 13.2967C118.887 13.2967 119.234 12.9135 119.234 12.3125C119.234 10.7338 119.234 9.14848 119.234 7.5698C119.234 7.28577 119.221 7.00174 119.189 6.7177C118.867 3.65281 116.01 2.86677 114.014 3.74528C113.525 3.95665 113.139 4.30674 112.746 4.71627C112.721 4.52472 112.714 4.37279 112.682 4.22748ZM90.3793 3.50749C89.4138 3.67262 88.5835 4.07555 88.1008 5.00691C87.3927 6.37422 87.8369 7.78777 89.1757 8.50116C89.6906 8.77858 90.2441 8.93711 90.7977 9.09564C91.3834 9.25417 91.9691 9.42591 92.4841 9.75618C93.0569 10.1261 93.1277 10.8725 92.6514 11.3613C92.4647 11.5528 92.2395 11.6717 91.9884 11.7378C91.2611 11.9293 90.5531 11.8105 89.8579 11.5594C89.4009 11.3943 88.989 11.1367 88.5771 10.8923C88.178 10.6545 87.7017 10.7668 87.47 11.1301C87.2318 11.5066 87.3412 11.9558 87.7403 12.2398C88.2488 12.6031 88.7959 12.9069 89.3881 13.0919C90.6882 13.5014 91.982 13.6269 93.2307 12.9135C94.1576 12.3851 94.6274 11.5396 94.6467 10.4696C94.666 9.48536 94.1704 8.77198 93.3594 8.28318C92.941 8.03217 92.4905 7.87364 92.027 7.72833C91.3255 7.51035 90.6174 7.31879 89.9674 6.94889C89.137 6.47991 89.3945 5.60139 89.9931 5.29094C90.1926 5.18526 90.3986 5.1126 90.6239 5.07957C91.5379 4.96067 92.3489 5.26452 93.1341 5.68726C93.6233 5.94487 94.0803 5.83919 94.3056 5.41644C94.5373 4.98709 94.37 4.51151 93.8808 4.24069C92.9925 3.75189 92.0464 3.48767 90.9457 3.45465C90.8234 3.42822 90.5981 3.47446 90.3793 3.50749ZM56.7547 5.07957C54.8045 7.39145 55.2872 10.7404 57.4048 12.4181C59.3487 13.9572 62.1936 13.7524 63.8543 11.8765C64.1375 11.5594 64.131 11.0839 63.8478 10.7734C63.5389 10.4365 63.1012 10.4233 62.76 10.7206C62.5669 10.8923 62.3674 11.0574 62.155 11.2094C60.7776 12.1936 58.9753 11.9095 57.9648 10.5422C57.1989 9.50517 57.1281 8.32942 57.5014 7.14045C58.042 5.40984 59.9473 4.57756 61.55 5.33718C61.9297 5.51552 62.258 5.77974 62.5734 6.05717C62.9789 6.41386 63.5067 6.37422 63.8285 5.98451C64.1246 5.62121 64.0731 5.1192 63.6805 4.76251C62.7343 3.8906 61.6336 3.4018 60.4236 3.42822C58.8981 3.4018 57.6816 3.98308 56.7547 5.07957ZM65.9397 10.6479C65.9461 11.0905 66.0041 11.5198 66.1843 11.9227C66.8086 13.3165 69.0614 13.9242 70.2651 13.0192C70.5611 12.7947 70.6641 12.4248 70.5225 12.0879C70.3745 11.7378 70.014 11.5396 69.66 11.6189C69.5377 11.6453 69.409 11.6849 69.2867 11.7048C68.289 11.8303 67.6904 11.4472 67.6904 10.4167C67.6969 8.77858 67.6969 7.14705 67.6904 5.50892C67.6904 5.29755 67.7548 5.25131 67.9479 5.25791C68.5723 5.27113 69.1902 5.27113 69.8145 5.25791C70.2844 5.2447 70.6191 4.88141 70.6062 4.41243C70.5998 3.96326 70.2586 3.6396 69.7888 3.6396C69.1644 3.6396 68.5465 3.63299 67.9222 3.6462C67.7355 3.65281 67.684 3.58675 67.6904 3.4018C67.7033 2.84035 67.6969 2.27889 67.6904 1.72404C67.684 1.19561 67.3042 0.779467 66.8215 0.772862C66.313 0.766257 65.9397 1.16258 65.9268 1.72404C65.9204 2.1732 65.9268 2.62237 65.9268 3.07153C65.9268 3.62639 65.9268 3.62639 65.3797 3.6396C64.8519 3.65281 64.4915 4.18784 64.6717 4.70306C64.8133 5.10599 65.0772 5.27113 65.6436 5.26452C65.8689 5.25792 65.9333 5.31736 65.9268 5.55516C65.9139 6.42046 65.9204 7.29237 65.9204 8.15768C65.9397 8.97674 65.9333 9.81563 65.9397 10.6479ZM12.3168 14.3337C11.9628 14.4856 11.6989 14.7564 11.5058 15.0999C10.2699 17.2665 9.02769 19.4265 7.78544 21.5864C7.52154 22.0422 7.24477 22.4913 7.16109 23.0198C7.1096 23.3567 7.00662 23.7199 7.2319 24.037C7.60522 24.5588 8.4291 24.6183 8.88609 24.1757C9.04057 24.0238 9.18217 23.8587 9.29159 23.6671C10.7141 21.1835 12.1623 18.7131 13.5397 16.1964C13.6878 15.9256 13.7714 15.635 13.765 15.3443C13.7714 14.4262 13.1278 13.9836 12.3168 14.3337ZM10.2893 6.00432C9.21436 5.83258 8.12014 5.76653 7.05167 5.58818C5.23013 5.27773 3.38284 5.12581 1.55486 4.85499C0.96913 4.77572 0.473515 4.98049 0.132378 5.50231C-0.240942 6.07038 0.235363 7.04137 0.814653 7.11403C1.25877 7.17347 1.7029 7.23292 2.15346 7.29237C3.92351 7.51695 5.69356 7.74154 7.47005 7.95291C8.32611 8.0586 9.18861 8.17089 10.0511 8.22373C10.8621 8.27657 11.1389 7.98594 11.1711 7.16687C11.1711 7.13384 11.1711 7.10082 11.1711 7.14705C11.2032 6.36762 10.9908 6.11661 10.2893 6.00432ZM3.88489 15.3509C6.33722 14.4922 8.7638 13.5543 11.1839 12.5833C11.4157 12.4908 11.6281 12.3587 11.8018 12.1804C12.143 11.8171 12.2009 11.3613 11.9628 10.9187C11.7053 10.4365 11.3191 10.245 10.8235 10.3375C10.4116 10.4167 10.0447 10.6215 9.65204 10.7602C7.24477 11.6189 4.84394 12.4974 2.45597 13.4288C2.24357 13.508 2.0376 13.5939 1.85737 13.7326C1.43256 14.0497 1.31027 14.5187 1.50336 15.0801C1.67071 15.5623 1.96036 15.7274 2.59114 15.6878C3.02239 15.7407 3.44077 15.5029 3.88489 15.3509ZM14.679 26.6461C14.8142 27.0226 15.0909 27.2274 15.4771 27.267C15.8504 27.3067 16.153 27.1547 16.3654 26.8509C16.5456 26.5933 16.6743 26.3027 16.7194 25.979C16.8674 24.8297 16.8932 23.6671 16.9704 22.5112C17.0476 21.3222 17.1313 20.1332 17.2021 18.9377C17.2407 18.2375 17.2794 17.5373 17.2665 16.8371C17.26 16.0907 16.8803 15.7076 16.2173 15.6878C15.5029 15.668 15.1038 15.9983 15.0523 16.705C14.9944 17.5109 14.9558 18.3234 14.9107 19.1292C14.8592 19.9681 14.8142 20.8136 14.7627 21.6525C14.6854 22.9537 14.6018 24.255 14.5181 25.5496C14.5052 25.9195 14.5438 26.2894 14.679 26.6461ZM15.3548 10.1195C15.3548 10.8857 15.3484 11.6585 15.3548 12.4248C15.3613 12.9532 15.7281 13.3033 16.2302 13.3033C16.7773 13.3033 17.1184 12.9202 17.1184 12.286C17.1184 9.43251 17.1184 6.57899 17.1184 3.72547C17.1184 2.913 17.1184 2.10054 17.1184 1.28808C17.1184 0.964418 17.0283 0.680387 16.7773 0.47562C16.4941 0.251037 16.1723 0.198194 15.844 0.369934C15.5093 0.541674 15.3484 0.83231 15.3484 1.22203C15.3484 3.07814 15.3484 4.93425 15.3484 6.79036C15.3548 7.90007 15.3548 9.00977 15.3548 10.1195ZM84.1423 12.3323C84.1423 12.9268 84.4963 13.3099 85.0305 13.3099C85.5712 13.3099 85.9059 12.94 85.9059 12.3257C85.9059 9.73636 85.9059 7.14705 85.9059 4.55774C85.9059 3.95005 85.5326 3.5207 85.0176 3.5207C84.5092 3.5207 84.1423 3.95665 84.1358 4.56435C84.1358 5.84579 84.1358 7.13384 84.1358 8.41529C84.1423 9.71655 84.1358 11.0244 84.1423 12.3323ZM98.0839 4.5049C98.0967 4.03592 97.7556 3.54052 97.2149 3.5207C96.7386 3.50749 96.3331 3.99629 96.3331 4.49169C96.3588 7.11403 96.346 9.73636 96.346 12.3653C96.346 12.9532 96.6742 13.3033 97.2214 13.3033C97.7492 13.3033 98.071 12.9532 98.071 12.3785C98.071 11.0706 98.071 9.76278 98.071 8.46152C98.0774 7.14045 98.0517 5.82598 98.0839 4.5049ZM67.5295 18.7791C66.9116 18.9178 66.5383 19.3406 66.3903 19.9417C66.2358 20.5692 66.3967 21.1439 66.8988 21.5666C67.4072 21.9893 67.9865 22.0554 68.5787 21.7846C68.7589 21.6987 68.8683 21.6789 69.0164 21.8374C69.1322 21.9629 69.2996 21.9431 69.4154 21.8176C69.5249 21.6987 69.5442 21.5468 69.409 21.4411C69.2223 21.2958 69.2803 21.1769 69.3575 20.9985C69.8403 19.902 69.1065 18.7461 67.935 18.7329C67.7999 18.7461 67.6583 18.7461 67.5295 18.7791ZM67.0468 20.8004C66.8022 20.305 66.9889 19.6709 67.4587 19.4066C67.9028 19.1622 68.45 19.301 68.7139 19.7501C68.8812 20.0275 68.9263 20.3314 68.8297 20.6617C68.7782 20.84 68.7203 20.8202 68.6237 20.7211C68.5594 20.6617 68.495 20.6088 68.4306 20.5494C68.3019 20.4305 68.1667 20.3842 68.038 20.5229C67.9093 20.6617 67.9157 20.8268 68.038 20.9655C68.1281 21.0712 68.2375 21.1505 68.3663 21.2627C67.7999 21.5005 67.2978 21.3222 67.0468 20.8004ZM42.5557 21.5005C42.5557 21.7053 42.5879 21.877 42.8389 21.8837C43.1028 21.8837 43.1414 21.7119 43.1414 21.4873C43.135 20.7277 43.135 19.9747 43.1414 19.2151C43.1414 19.0169 43.135 18.832 42.9033 18.7791C42.6909 18.7263 42.5686 18.8452 42.4656 19.0235C42.2017 19.4595 41.9314 19.8822 41.6546 20.3248C41.3521 19.8492 41.0689 19.4 40.7921 18.9509C40.702 18.7989 40.5732 18.7461 40.4059 18.7791C40.245 18.8122 40.1677 18.931 40.1677 19.0896C40.1613 19.9351 40.1613 20.7806 40.1677 21.626C40.1677 21.811 40.2707 21.8969 40.4574 21.8903C40.6505 21.8837 40.7277 21.7846 40.7277 21.5996C40.7277 21.2165 40.7277 20.8334 40.7277 20.4437C40.7277 20.2918 40.7277 20.1332 40.7277 19.9813C40.9723 20.2587 41.1461 20.5494 41.3328 20.8268C41.5709 21.1901 41.7189 21.1835 41.97 20.8136C42.1631 20.5296 42.2918 20.2059 42.5557 19.9285C42.5621 20.4767 42.5621 20.9853 42.5557 21.5005ZM110.487 18.7395C109.657 18.7197 108.929 19.3472 108.904 20.3512C108.884 21.2363 109.618 21.9365 110.487 21.9365C111.382 21.9365 112.083 21.2297 112.083 20.3248C112.083 19.4 111.414 18.7593 110.487 18.7395ZM110.487 19.3009C111.041 19.3009 111.472 19.7567 111.465 20.338C111.459 20.9193 111.021 21.3816 110.487 21.375C109.94 21.3684 109.528 20.9193 109.528 20.3314C109.522 19.7369 109.927 19.3009 110.487 19.3009ZM54.1351 18.7395C53.2468 18.7395 52.5581 19.4331 52.5517 20.3314C52.5452 21.2033 53.2597 21.9299 54.1286 21.9365C55.0233 21.9431 55.7378 21.2297 55.7378 20.3314C55.7378 19.4132 55.0619 18.7395 54.1351 18.7395ZM54.1737 19.3009C54.7015 19.3076 55.1263 19.7765 55.1199 20.338C55.1134 20.9193 54.6693 21.3816 54.1351 21.375C53.5751 21.3684 53.1696 20.9127 53.176 20.2918C53.1824 19.7039 53.5944 19.2943 54.1737 19.3009ZM58.2351 21.9365C59.117 21.9365 59.8378 21.2033 59.8314 20.3248C59.825 19.4132 59.162 18.7461 58.2609 18.7461C57.3276 18.7461 56.6646 19.4 56.6646 20.3248C56.6646 21.2363 57.3469 21.9365 58.2351 21.9365ZM59.2199 20.3248C59.2199 20.9259 58.7951 21.3816 58.2351 21.375C57.688 21.3684 57.2825 20.9193 57.2825 20.3248C57.2825 19.7171 57.6752 19.3009 58.2416 19.3009C58.7951 19.3076 59.2199 19.7501 59.2199 20.3248ZM60.8806 21.4939C60.8806 21.7515 61.0029 21.877 61.2539 21.877C61.5564 21.877 61.8525 21.8903 62.155 21.8704C63.0433 21.8242 63.6225 21.1901 63.6161 20.2984C63.6032 19.4132 63.0239 18.8188 62.1293 18.7857C61.8718 18.7791 61.6143 18.7857 61.3569 18.7857C60.9514 18.7857 60.887 18.8518 60.8806 19.2547C60.8806 19.618 60.8806 19.9813 60.8806 20.338C60.8806 20.7277 60.8806 21.1108 60.8806 21.4939ZM61.4792 20.087C61.5307 19.8492 61.3247 19.4925 61.5822 19.3802C62.0713 19.1688 62.6828 19.4331 62.8952 19.8492C63.2363 20.5229 62.8502 21.2561 62.1035 21.3486C61.4856 21.4279 61.4727 21.4147 61.4727 20.774C61.4727 20.6286 61.4727 20.4899 61.4727 20.3446C61.4792 20.2587 61.4599 20.1729 61.4792 20.087ZM91.3641 21.5005C91.3641 21.7515 91.4864 21.8837 91.7374 21.8837C92.0399 21.877 92.336 21.8969 92.6385 21.877C93.4173 21.8374 94.0481 21.2627 94.0932 20.5692C94.1511 19.6378 93.7392 18.9971 92.9346 18.8254C92.5549 18.7461 92.1622 18.8055 91.7825 18.7857C91.4735 18.7725 91.3577 18.931 91.3641 19.2283C91.3705 19.5916 91.3641 19.9549 91.3641 20.3182C91.3641 20.7079 91.3641 21.1042 91.3641 21.5005ZM91.9691 20.0804C92.0206 19.8426 91.8082 19.4925 92.0785 19.3802C92.5742 19.1754 93.1792 19.4331 93.398 19.8426C93.7521 20.5229 93.3272 21.2892 92.5548 21.3486C91.9627 21.3949 91.9627 21.3949 91.9627 20.8004C91.9627 20.6484 91.9627 20.4965 91.9627 20.338C91.9627 20.2521 91.9498 20.1597 91.9691 20.0804ZM114.04 20.2059C114.413 20.7409 114.8 21.2627 115.231 21.7582C115.34 21.8837 115.469 21.9167 115.604 21.8704C115.733 21.8242 115.778 21.7053 115.778 21.5534C115.771 20.7277 115.771 19.9086 115.778 19.083C115.778 18.898 115.701 18.7791 115.527 18.7659C115.347 18.7527 115.257 18.8848 115.237 19.0499C115.218 19.1688 115.231 19.2877 115.231 19.4132C115.231 19.8558 115.231 20.2918 115.231 20.8268C114.716 20.1464 114.259 19.5586 113.815 18.9641C113.686 18.7923 113.538 18.7263 113.338 18.7923C113.152 18.8584 113.145 19.0235 113.145 19.1953C113.152 19.9549 113.152 20.7079 113.145 21.4675C113.145 21.6789 113.158 21.877 113.429 21.877C113.705 21.8837 113.725 21.6855 113.725 21.4741C113.725 20.9391 113.725 20.404 113.725 19.7765C113.86 19.9615 113.956 20.0804 114.04 20.2059ZM19.5386 21.5468C19.5386 21.7317 19.5965 21.8704 19.8089 21.877C20.0278 21.8837 20.1114 21.7515 20.1179 21.5468C20.1243 21.3618 20.1179 21.1769 20.1179 20.9853C20.1179 20.9127 20.0921 20.8202 20.208 20.8202C20.459 20.8202 20.7165 20.7541 20.8903 21.0382C21.0447 21.2892 21.2314 21.5138 21.4116 21.7449C21.5468 21.9233 21.7335 21.9365 21.8944 21.811C22.0488 21.6855 21.9909 21.5204 21.8879 21.375C21.8171 21.276 21.7528 21.1769 21.6691 21.0976C21.3988 20.8532 21.3473 20.6484 21.7399 20.4899C21.7849 20.4701 21.8107 20.4107 21.8429 20.3644C22.2934 19.7171 21.9072 18.8716 21.1027 18.8055C20.6907 18.7725 20.2659 18.7923 19.854 18.7857C19.6158 18.7857 19.5386 18.9244 19.5386 19.1424C19.5386 19.5387 19.5386 19.9351 19.5386 20.3248C19.5386 20.7343 19.5386 21.1439 19.5386 21.5468ZM20.1179 19.8294C20.1179 19.7501 20.1243 19.6775 20.1179 19.5982C20.0986 19.4265 20.1436 19.334 20.3367 19.3538C20.5491 19.3736 20.768 19.3538 20.9804 19.3604C21.2507 19.367 21.3988 19.5321 21.4116 19.7897C21.4181 20.0474 21.2893 20.2323 21.019 20.2653C20.871 20.2852 20.7229 20.2785 20.5684 20.2852C20.1179 20.2852 20.1179 20.2852 20.1179 19.8294ZM44.3193 21.4939C44.3193 21.7515 44.4416 21.877 44.6926 21.877C45.2397 21.877 45.7869 21.877 46.3275 21.877C46.5077 21.877 46.6558 21.8044 46.6429 21.5996C46.6365 21.4147 46.5013 21.3486 46.3275 21.3486C46.0057 21.3486 45.6839 21.3486 45.362 21.3486C44.9308 21.3486 44.9308 21.3486 44.9308 20.8928C44.9308 20.873 44.9308 20.8466 44.9308 20.8268C44.905 20.6418 44.9758 20.5758 45.1561 20.589C45.4522 20.6022 45.7547 20.5956 46.0572 20.589C46.2374 20.589 46.4241 20.556 46.4241 20.3182C46.4241 20.0804 46.231 20.0606 46.0572 20.054C45.8448 20.0474 45.6259 20.054 45.4135 20.054C44.9115 20.054 44.9179 20.054 44.9308 19.552C44.9372 19.3802 44.9758 19.3274 45.1496 19.334C45.523 19.3472 45.8963 19.3406 46.276 19.334C46.4627 19.334 46.63 19.2811 46.6172 19.0433C46.6043 18.8254 46.4563 18.7857 46.276 18.7857C45.7611 18.7857 45.2462 18.7923 44.7377 18.7857C44.4352 18.7791 44.3129 18.9244 44.3193 19.2283C44.3258 19.5982 44.3193 19.9747 44.3193 20.3446C44.3193 20.7277 44.3193 21.1108 44.3193 21.4939ZM23.0851 21.5204C23.0787 21.778 23.201 21.877 23.4327 21.877C23.9798 21.877 24.5269 21.877 25.074 21.877C25.2478 21.877 25.3765 21.8044 25.383 21.6194C25.3894 21.4147 25.2478 21.3486 25.0611 21.3486C24.7522 21.3486 24.4368 21.3486 24.1278 21.3486C23.6644 21.3486 23.6773 21.3486 23.6644 20.8796C23.658 20.6418 23.7417 20.5758 23.9541 20.589C24.2437 20.6088 24.5334 20.5956 24.823 20.589C25.0032 20.589 25.1899 20.556 25.1834 20.3116C25.177 20.0936 25.0032 20.0606 24.8359 20.054C24.5334 20.0474 24.2373 20.0341 23.9348 20.054C23.6902 20.0738 23.6387 19.9549 23.6709 19.7435C23.6966 19.5652 23.555 19.301 23.9219 19.3208C24.2952 19.3406 24.6685 19.3274 25.0483 19.3208C25.2221 19.3208 25.3765 19.2481 25.3701 19.0367C25.3637 18.8452 25.2349 18.7725 25.0676 18.7725C24.5076 18.7725 23.9541 18.7725 23.3941 18.7725C23.1881 18.7725 23.0851 18.8782 23.0851 19.1028C23.0916 19.5057 23.0851 19.9153 23.0851 20.3182C23.0916 20.7277 23.098 21.124 23.0851 21.5204ZM95.1874 21.5204C95.1874 21.7449 95.2904 21.8704 95.5157 21.877C96.0692 21.877 96.6292 21.877 97.1827 21.877C97.3565 21.877 97.4853 21.7978 97.4853 21.6128C97.4853 21.4081 97.3501 21.342 97.157 21.342C96.8673 21.3486 96.5777 21.342 96.2881 21.342C95.7409 21.342 95.7474 21.342 95.7538 20.7938C95.7538 20.622 95.8053 20.5758 95.9662 20.5824C96.2623 20.5956 96.5648 20.5824 96.8673 20.589C97.0669 20.589 97.26 20.5626 97.2535 20.3116C97.2471 20.0606 97.0476 20.0474 96.8545 20.0474C96.6485 20.0474 96.449 20.0474 96.243 20.0474C95.7409 20.0474 95.7474 20.0474 95.7538 19.5255C95.7538 19.3538 95.7989 19.3142 95.9662 19.3208C96.3395 19.3406 96.7129 19.3208 97.0926 19.3274C97.2857 19.3274 97.4466 19.2811 97.4531 19.0566C97.4595 18.832 97.2986 18.7791 97.1055 18.7791C96.5906 18.7857 96.0756 18.7857 95.5672 18.7791C95.2904 18.7791 95.181 18.9112 95.1874 19.1821C95.1938 19.5652 95.1874 19.9483 95.1874 20.3314C95.1874 20.7343 95.1874 21.1306 95.1874 21.5204ZM103.902 19.5652C103.832 20.0408 104.096 20.3578 104.726 20.5494C104.939 20.6154 105.158 20.6749 105.364 20.7541C105.479 20.8004 105.557 20.8928 105.55 21.0316C105.544 21.1571 105.499 21.2694 105.376 21.3156C105.241 21.3684 105.106 21.4213 104.945 21.3883C104.688 21.3354 104.462 21.2231 104.25 21.0712C104.102 20.9655 103.954 21.0051 103.857 21.1505C103.761 21.3024 103.793 21.4411 103.948 21.5402C104.392 21.8374 104.868 21.9959 105.402 21.8704C105.866 21.7582 106.117 21.4807 106.136 21.0448C106.155 20.5692 105.981 20.3248 105.492 20.1596C105.228 20.0738 104.965 19.9945 104.707 19.902C104.559 19.8492 104.482 19.7303 104.501 19.5718C104.52 19.3934 104.643 19.3142 104.81 19.2943C105.087 19.2547 105.338 19.3274 105.57 19.4859C105.73 19.5916 105.885 19.5916 105.988 19.4198C106.097 19.2349 106.027 19.083 105.859 18.9773C105.595 18.8122 105.312 18.7329 105.003 18.7395C104.366 18.7395 103.98 19.0235 103.902 19.5652ZM73.1165 19.1754C73.1229 18.9509 73.0521 18.7593 72.8139 18.7593C72.5951 18.7593 72.5307 18.9443 72.5372 19.1556C72.5436 19.6378 72.55 20.12 72.5372 20.6022C72.5307 21.058 72.2668 21.342 71.8613 21.3618C71.385 21.3816 71.1147 21.124 71.1018 20.6088C71.0889 20.1068 71.0954 19.5982 71.0954 19.0962C71.0954 18.9046 71.0117 18.7659 70.8251 18.7593C70.6191 18.7461 70.4968 18.8914 70.5032 19.083C70.5161 19.6973 70.4389 20.3116 70.5483 20.9193C70.6577 21.5402 71.1147 21.9167 71.7777 21.9299C72.4213 21.9497 72.9105 21.5732 73.0585 20.9721C73.1486 20.6154 73.0843 20.2521 73.11 19.9483C73.1165 19.6576 73.11 19.4198 73.1165 19.1754ZM116.937 19.4529C116.84 20.0143 117.072 20.3446 117.702 20.5428C117.915 20.6088 118.134 20.6683 118.34 20.7409C118.481 20.7938 118.578 20.8928 118.565 21.0646C118.552 21.2297 118.449 21.309 118.301 21.3552C117.928 21.4741 117.612 21.3288 117.316 21.1174C117.155 20.9985 117.001 20.9655 116.872 21.1505C116.737 21.3486 116.853 21.4873 117.007 21.5864C117.439 21.8638 117.896 22.0026 118.41 21.877C118.842 21.7714 119.125 21.4609 119.151 21.0514C119.176 20.6088 118.996 20.3446 118.526 20.1795C118.275 20.087 118.018 20.0275 117.767 19.9417C117.612 19.8822 117.477 19.7831 117.516 19.5784C117.554 19.3736 117.709 19.3142 117.896 19.3009C118.127 19.2877 118.34 19.3406 118.533 19.4661C118.707 19.5784 118.874 19.6378 118.996 19.4198C119.131 19.1821 118.977 19.0499 118.797 18.9509C118.546 18.8122 118.282 18.7395 117.999 18.7461C117.413 18.7395 117.014 19.0103 116.937 19.4529ZM76.914 21.4279C76.5729 20.6418 76.2189 19.8624 75.8713 19.083C75.7941 18.9112 75.7233 18.7461 75.4915 18.7461C75.2534 18.7461 75.1568 18.898 75.0732 19.083C74.732 19.869 74.3909 20.6551 74.0562 21.4411C73.9854 21.6062 73.9596 21.778 74.1399 21.8572C74.3201 21.9365 74.4874 21.8704 74.5389 21.6591C74.6612 21.1901 74.9638 21.0646 75.395 21.1439C75.4658 21.1571 75.543 21.1571 75.6203 21.1439C76.0065 21.0844 76.2768 21.1835 76.3669 21.6194C76.3991 21.7648 76.4892 21.9035 76.6694 21.877C76.9462 21.877 77.0428 21.7119 76.914 21.4279ZM75.2148 20.6154C75.0603 20.622 75.0217 20.5758 75.0925 20.4239C75.2212 20.1398 75.3435 19.8492 75.4787 19.5255C75.6525 19.8954 75.8198 20.2323 75.9421 20.6088C75.6782 20.6154 75.4465 20.6088 75.2148 20.6154ZM29.1741 21.5204C28.8008 20.6617 28.4403 19.7964 28.0477 18.9509C27.8997 18.6338 27.5135 18.6602 27.359 18.9773C27.2238 19.2613 27.1144 19.5586 26.9857 19.8426C26.7475 20.3776 26.5029 20.9127 26.2648 21.4477C26.194 21.6062 26.1618 21.7846 26.3613 21.8638C26.5351 21.9299 26.7025 21.8903 26.7861 21.6855C26.8119 21.626 26.8505 21.5666 26.8634 21.5071C26.9277 21.2099 27.0951 21.091 27.3912 21.1439C27.462 21.1571 27.5392 21.1505 27.6165 21.1439C28.1056 21.091 28.5562 21.0976 28.6785 21.7317C28.6849 21.7582 28.7042 21.7912 28.73 21.811C28.8265 21.9101 28.9488 21.8969 29.0583 21.8506C29.1484 21.811 29.2063 21.7251 29.187 21.5468C29.187 21.5798 29.187 21.5468 29.1741 21.5204ZM28.17 20.6154C27.8997 20.6154 27.6551 20.6088 27.4169 20.6154C27.256 20.622 27.2303 20.5692 27.2946 20.4239C27.4234 20.1398 27.5457 19.8558 27.6937 19.5255C27.8611 19.902 28.0091 20.2455 28.17 20.6154ZM98.4765 20.8532C98.8369 21.9893 100.201 22.2403 101.012 21.527C101.148 21.4081 101.173 21.2627 101.07 21.124C100.974 20.9985 100.839 20.9787 100.697 21.058C100.633 21.0976 100.581 21.1571 100.517 21.1967C100.182 21.4147 99.8282 21.4411 99.487 21.2363C99.133 21.0316 98.9399 20.556 99.0107 20.1663C99.1652 19.3406 99.8861 19.0367 100.581 19.5123C100.768 19.6378 100.929 19.6642 101.051 19.4727C101.161 19.2943 101.109 19.1226 100.922 18.9971C100.633 18.8122 100.324 18.7065 100.008 18.7263C98.8755 18.7395 98.1353 19.7699 98.4765 20.8532ZM86.0282 1.08331C86.0346 0.402961 85.6613 0.0198488 85.0048 0.0264541C84.3869 0.0264541 84.02 0.409566 84.0135 1.05029C84.0071 1.71083 84.3804 2.10715 85.0048 2.10715C85.6484 2.10715 86.0282 1.73064 86.0282 1.08331ZM49.4557 21.5204C49.4557 21.7185 49.4943 21.8704 49.726 21.877C49.977 21.8837 50.0285 21.7185 50.0285 21.5138C50.0285 21.2958 50.0414 21.0778 50.0285 20.8598C50.0221 20.7013 50.0736 20.6551 50.2281 20.6617C50.5499 20.6749 50.8717 20.6683 51.1936 20.6617C51.3738 20.6551 51.5411 20.6154 51.5218 20.3644C51.5025 20.1464 51.3609 20.1068 51.1807 20.1068C50.8589 20.1068 50.537 20.1002 50.2152 20.1068C50.0865 20.1068 50.0157 20.0804 50.0285 19.9285C50.0414 19.8294 50.0414 19.7303 50.0285 19.6312C50.0028 19.4265 50.0672 19.3406 50.286 19.3538C50.6593 19.3736 51.0326 19.367 51.406 19.3538C51.5797 19.3472 51.7149 19.2745 51.7085 19.0566C51.7085 18.8254 51.5733 18.7857 51.3931 18.7857C50.8717 18.7857 50.3439 18.7923 49.8226 18.7857C49.5715 18.7857 49.4492 18.8848 49.4557 19.1556C49.4686 19.552 49.4557 19.9417 49.4557 20.338C49.4557 20.7343 49.4557 21.1306 49.4557 21.5204ZM97.1892 2.10715C97.8393 2.10715 98.1997 1.74385 98.2061 1.08992C98.2061 0.38975 97.8586 0.0198488 97.2085 0.0264541C96.5841 0.0264541 96.2301 0.396355 96.2301 1.05029C96.2237 1.73064 96.5648 2.10715 97.1892 2.10715ZM86.5109 18.9575C86.3951 18.7857 86.247 18.6734 86.0539 18.8122C85.848 18.9575 85.9059 19.149 86.0346 19.3274C86.1569 19.4925 86.2728 19.6642 86.4015 19.8228C86.7813 20.2984 87.0902 20.7938 86.9808 21.4477C86.9679 21.5402 87.0001 21.6459 87.0323 21.7317C87.0838 21.8903 87.2254 21.8837 87.3541 21.877C87.4893 21.8704 87.573 21.7846 87.5858 21.6525C87.5987 21.5204 87.6051 21.3883 87.5858 21.2561C87.5408 20.8664 87.6438 20.5296 87.8884 20.2257C88.1265 19.9351 88.3453 19.618 88.5642 19.3142C88.6865 19.1424 88.7573 18.9509 88.5384 18.8055C88.3389 18.6734 88.2037 18.7989 88.0879 18.9641C87.8304 19.3406 87.573 19.7105 87.3026 20.1068C87.0259 19.7039 86.762 19.334 86.5109 18.9575ZM83.6402 21.4807C83.6402 21.6921 83.6724 21.8837 83.9427 21.8837C84.2066 21.8837 84.2453 21.7119 84.2453 21.4873C84.2388 20.8532 84.2517 20.2191 84.2388 19.585C84.2388 19.4132 84.2839 19.3472 84.4512 19.3604C84.6121 19.3736 84.7731 19.3736 84.934 19.3604C85.0949 19.3472 85.1979 19.2283 85.1914 19.0764C85.185 18.9178 85.1013 18.7923 84.9082 18.7923C84.2646 18.7989 83.6273 18.7923 82.9837 18.7923C82.8035 18.7923 82.694 18.8782 82.6876 19.0632C82.6876 19.2415 82.797 19.3472 82.9644 19.3604C83.0996 19.3736 83.2412 19.3736 83.3828 19.3604C83.5759 19.3406 83.6531 19.4 83.6402 19.6114C83.6209 19.9285 83.6338 20.2455 83.6338 20.5626C83.6402 20.8664 83.6402 21.1703 83.6402 21.4807ZM35.8166 21.4939C35.8102 21.7053 35.8552 21.8704 36.0998 21.877C36.3509 21.8837 36.3895 21.7119 36.3895 21.5071C36.3895 20.9919 36.3895 20.4767 36.3895 19.9615C36.3895 19.3802 36.3895 19.3802 36.9688 19.3604C37.001 19.3604 37.0331 19.3604 37.0653 19.3604C37.252 19.3406 37.3678 19.2547 37.3614 19.0433C37.355 18.8452 37.2262 18.7857 37.0524 18.7857C36.4217 18.7857 35.7909 18.7857 35.1601 18.7857C34.9799 18.7857 34.8705 18.8716 34.864 19.0566C34.864 19.2547 34.9799 19.3538 35.173 19.3538C35.321 19.3538 35.4755 19.3604 35.6235 19.3538C35.7716 19.3406 35.8295 19.3934 35.8231 19.552C35.8102 19.8822 35.8166 20.2125 35.8166 20.5362C35.8166 20.8598 35.8231 21.1769 35.8166 21.4939ZM77.9567 21.5204C77.9567 21.7317 78.0404 21.8704 78.2464 21.8704C78.7806 21.877 79.3149 21.877 79.8491 21.8704C80.0229 21.8704 80.1387 21.7648 80.1259 21.5798C80.113 21.4081 79.9971 21.342 79.8362 21.342C79.5273 21.3486 79.2119 21.3222 78.9029 21.3486C78.6326 21.3684 78.5296 21.309 78.5489 20.9985C78.5747 20.3974 78.5553 19.7897 78.5618 19.1887C78.5618 18.9509 78.5103 18.7461 78.2464 18.7527C78.0082 18.7593 77.9439 18.9443 77.9503 19.1754C77.9632 19.5453 77.9503 19.9219 77.9503 20.2918C77.9567 20.7079 77.9567 21.1174 77.9567 21.5204ZM30.2168 21.527C30.2104 21.7582 30.3069 21.877 30.5387 21.877C31.0407 21.877 31.5428 21.877 32.0512 21.877C32.225 21.877 32.3345 21.7912 32.3409 21.6062C32.3473 21.4015 32.225 21.3486 32.0448 21.3486C31.7101 21.3552 31.3818 21.3354 31.0471 21.3552C30.8412 21.3684 30.7768 21.309 30.7768 21.0844C30.7897 20.4503 30.7768 19.8096 30.7832 19.1754C30.7832 18.9509 30.7253 18.7659 30.4807 18.7593C30.2361 18.7527 30.2104 18.9443 30.2104 19.1556C30.2168 19.5387 30.2104 19.9219 30.2104 20.305C30.2233 20.7145 30.2233 21.124 30.2168 21.527ZM102.77 19.1226C102.776 18.9112 102.692 18.7725 102.493 18.7593C102.293 18.7461 102.165 18.8848 102.165 19.083C102.158 19.9153 102.158 20.7409 102.165 21.5732C102.165 21.778 102.287 21.8903 102.499 21.8704C102.699 21.8572 102.77 21.7383 102.77 21.5468C102.763 21.1439 102.77 20.7409 102.77 20.3314C102.77 19.9351 102.763 19.5321 102.77 19.1226ZM81.1042 21.5138C81.1042 21.7317 81.1686 21.8704 81.4067 21.877C81.632 21.8837 81.7093 21.7383 81.7093 21.5402C81.7157 20.7409 81.7093 19.9417 81.7093 19.1358C81.7093 18.9244 81.6191 18.7527 81.3939 18.7593C81.1815 18.7659 81.0913 18.9178 81.0978 19.1424C81.1042 19.5387 81.0978 19.9351 81.0978 20.3248C81.1042 20.7211 81.1107 21.1174 81.1042 21.5138ZM38.9577 19.1292C38.9577 18.9046 38.8611 18.7593 38.6423 18.7593C38.4234 18.7593 38.3333 18.9178 38.3333 19.1358C38.3333 19.9351 38.3333 20.7343 38.3333 21.5336C38.3333 21.7317 38.4106 21.8704 38.6294 21.877C38.8676 21.8837 38.9512 21.7515 38.9512 21.527C38.9512 21.1306 38.9512 20.7409 38.9512 20.3446C38.9577 19.9417 38.9512 19.5387 38.9577 19.1292ZM107.224 21.4807C107.224 21.6987 107.25 21.8837 107.52 21.877C107.777 21.8704 107.797 21.6921 107.79 21.4939C107.79 20.7145 107.784 19.9351 107.79 19.1622C107.79 18.9509 107.752 18.7659 107.52 18.7659C107.282 18.7659 107.211 18.9509 107.217 19.1821C107.224 19.552 107.217 19.9285 107.217 20.2984C107.23 20.6881 107.23 21.0844 107.224 21.4807Z" fill="#0F190C"/>
</svg>
