<svg width="100" height="19" viewBox="0 0 100 19" fill="none" xmlns="http://www.w3.org/2000/svg">
<path fill-rule="evenodd" clip-rule="evenodd" d="M95.8617 0.397666H96.5307V0.0526729H94.7682V0.397666H95.4371V2.23977H95.8617V0.397666ZM98.7864 0.0517578L98.1916 1.60194L97.5922 0.0526729H96.9763V2.23977H97.3744V0.530356H97.3854L98.0378 2.23977H98.3352L98.9877 0.530356H98.9987V2.23885H99.3968V0.0517578H98.7864ZM78.9407 6.0054C78.9407 2.74764 76.0462 0.0965861 72.4883 0.0965861H63.9531V0.135936V2.12445V9.88635V11.9142V18.9623H66.0615V11.9142H72.4865C72.9669 11.9142 73.4565 11.8602 73.9488 11.7541L77.0336 18.9614H79.239L75.8494 11.0412C77.762 9.96871 78.9407 8.05797 78.9407 6.0054ZM76.9119 6.0054C76.9119 8.14491 74.927 9.88635 72.4874 9.88635H66.0624V2.12537H72.4874C74.927 2.12537 76.9119 3.86589 76.9119 6.0054ZM17.6471 0.137037L26.9501 17.1543V0.137037H29.0594V18.9634H27.4223V19L27.4021 18.9634H25.5728L16.2708 1.94619V18.9634H14.1615V0.137037H15.7995V0.103179L15.8178 0.137037H17.6471ZM0.489868 0.137239H2.59826V18.9636H0.489868V0.137239ZM89.0068 0.137019H91.1152V18.9634H89.0068V0.137019ZM46.0903 0.137019L50.2622 9.88651H40.8733L37.039 18.9634H39.2407L42.2194 11.9153H51.1297L54.1459 18.9634H56.4867L48.4311 0.137019H46.0903Z" fill="#0F190C"/>
</svg>
