<svg width="205" height="40" viewBox="0 0 205 40" fill="none" xmlns="http://www.w3.org/2000/svg">
<path fill-rule="evenodd" clip-rule="evenodd" d="M196.818 1.16233H198.199V0.450375H194.561V1.16233H195.942V4.96386H196.818V1.16233ZM202.854 0.448486L201.626 3.64758L200.389 0.450375H199.118V4.96386H199.94V1.43617H199.962L201.309 4.96386H201.923L203.269 1.43617H203.292V4.96197H204.113V0.448486H202.854ZM161.898 12.7349C161.898 6.01183 155.925 0.540884 148.582 0.540884H130.969V0.622089V4.72577V20.7439V24.9288V39.474H135.32V24.9288H148.579C149.57 24.9288 150.58 24.8174 151.596 24.5983L157.963 39.4721H162.514L155.519 23.1272C159.466 20.9139 161.898 16.9707 161.898 12.7349ZM157.711 12.7349C157.711 17.1501 153.615 20.7439 148.581 20.7439H135.321V4.72766H148.581C153.615 4.72766 157.711 8.31957 157.711 12.7349ZM35.4073 0.624481L54.6057 35.7428V0.624481H58.9587V39.4763H55.5802V39.5519L55.5386 39.4763H51.7635L32.567 4.35802V39.4763H28.2141V0.624481H31.5945V0.554607L31.6322 0.624481H35.4073ZM0 0.625049H4.35108V39.4769H0V0.625049ZM182.672 0.624363H187.023V39.4762H182.672V0.624363ZM94.1052 0.624363L102.715 20.7443H83.339L75.4262 39.4762H79.9699L86.1169 24.9311H104.505L110.73 39.4762H115.56L98.936 0.624363H94.1052Z" fill="#0F190C"/>
</svg>
