<svg xmlns="http://www.w3.org/2000/svg" viewBox="0 0 471.67 190.64"><g id="Layer_2" data-name="Layer 2"><g id="Layer_1-2" data-name="Layer 1"><path d="M111.25,152.32v-1.06l2.11-.85a4.77,4.77,0,0,0,2.81-2,7.13,7.13,0,0,0,.69-3.39V89.72a7.56,7.56,0,0,0-.64-3.39,4.56,4.56,0,0,0-2.86-2l-2.11-.85V82.41h27.22v1.06l-2.12.85a4.8,4.8,0,0,0-2.81,2,7.13,7.13,0,0,0-.69,3.39V145a6.81,6.81,0,0,0,.69,3.34,5.36,5.36,0,0,0,2.81,2.06l2.12.85v1.06Z"/><path d="M142.92,152.32v-1.06l1.48-.42q3.71-1.07,3.71-5.19V112.49a6.35,6.35,0,0,0-.74-3.44,4.29,4.29,0,0,0-2.86-1.53l-1.59-.43V106L161,99.89l1.06,1.06.85,6.35a33.86,33.86,0,0,1,8.36-5.4,22.2,22.2,0,0,1,9.22-2.12q7,0,10.75,3.82T195,115.25v30.5a4.88,4.88,0,0,0,4,5.19l.95.32v1.06H175v-1.06l1.38-.42a4.94,4.94,0,0,0,3.71-5.19V111.86c0-4.52-2.27-6.78-6.78-6.78q-4.66,0-10.17,4.66v36c0,2.76,1.23,4.49,3.71,5.19l.95.32v1.06Z"/><path d="M204.24,152.32v-1.06l1.59-.32a5.21,5.21,0,0,0,4.24-5.51q.1-3.81.11-8V103.49h-5.94v-1.16l1.7-.32a6.28,6.28,0,0,0,5.3-5.19Q214,86.76,221.62,81.88T240.15,77a18.93,18.93,0,0,1,10.75,2.81q4.18,2.81,4.19,7a5.88,5.88,0,0,1-1.75,4.5A6.59,6.59,0,0,1,248.63,93a7,7,0,0,1-5.09-1.85,17.24,17.24,0,0,1-3.28-4.5L237.82,82a4.3,4.3,0,0,0-1.8-1.91,2.36,2.36,0,0,0-2.33.21q-8.16,4.14-8.47,21.08h22.56a19.86,19.86,0,0,0,6.35-1.06l1.59-.53L257.1,101l-.32,14.72v14.94q0,3,0,7t0,7.83a5.27,5.27,0,0,0,4,5.51l.74.22v1.16H236.66v-1.06l1.06-.42a5.31,5.31,0,0,0,4.13-5.51c.07-2.61.08-5.37.05-8.26s-.05-5.23-.05-7V123q0-3.18-.06-6.83t0-7.05c0-2.26,0-4.13-.1-5.61H225.22v26.59c0,2,0,4.46-.06,7.25s0,5.46.06,8a5.06,5.06,0,0,0,4.23,5.4l2,.53v1.06Z"/><path d="M265.78,152.32v-1.06l1.49-.42q3.71-1.07,3.7-5.19V112.49a6.26,6.26,0,0,0-.74-3.44,4.26,4.26,0,0,0-2.86-1.53l-1.59-.43V106l18.12-6.14L285,101l.84,6.35a33.74,33.74,0,0,1,8.37-5.4,22.2,22.2,0,0,1,9.22-2.12q7,0,10.75,3.82t3.76,11.65v30.5a4.88,4.88,0,0,0,4,5.19l1,.32v1.06h-25v-1.06l1.37-.42a4.93,4.93,0,0,0,3.71-5.19V111.86q0-6.78-6.78-6.78-4.67,0-10.17,4.66v36q0,4.14,3.71,5.19l.95.32v1.06Z"/><path d="M339.83,153.91a15.56,15.56,0,0,1-10.32-3.5q-4.18-3.49-4.19-10.06,0-5,5.09-9.16t16-6.3l3.81-.69c1.42-.25,2.9-.51,4.45-.8V115q0-7.22-1.74-10.12a5.92,5.92,0,0,0-5.46-2.91,5.15,5.15,0,0,0-4,1.64q-1.49,1.63-1.91,5.67l-.21,1.16q-.22,4.56-2.23,6.67a6.56,6.56,0,0,1-5,2.12,6.38,6.38,0,0,1-4.55-1.69,6,6,0,0,1-1.8-4.56,9.87,9.87,0,0,1,3-7.31,18.86,18.86,0,0,1,8-4.44,37.54,37.54,0,0,1,10.8-1.49q9.42,0,14.56,4.61t5.14,15v23.41c0,3.18,1.48,4.76,4.45,4.76h2.33l.95.85a15.54,15.54,0,0,1-4.39,3.92,13.54,13.54,0,0,1-6.73,1.38,11.46,11.46,0,0,1-7.36-2.17,10.21,10.21,0,0,1-3.55-5.78,44.58,44.58,0,0,1-6.51,5.78A14.54,14.54,0,0,1,339.83,153.91Zm6.47-6.46a8.22,8.22,0,0,0,4-1,28.42,28.42,0,0,0,4.39-3.12v-17.8l-2.12.43q-1.05.21-2.43.42a16.31,16.31,0,0,0-7.79,4.29,11.17,11.17,0,0,0-2.91,8.1q0,4.35,2,6.52A6.4,6.4,0,0,0,346.3,147.45Z"/><path d="M379,152.32v-1.06l1.49-.42q3.71-1.07,3.7-5.19V112.49a6.26,6.26,0,0,0-.74-3.44,4.26,4.26,0,0,0-2.86-1.53l-1.59-.43V106l18.12-6.14L398.2,101l.84,6.35a33.74,33.74,0,0,1,8.37-5.4,22.2,22.2,0,0,1,9.22-2.12q7,0,10.75,3.82t3.76,11.65v30.5a4.88,4.88,0,0,0,4,5.19l1,.32v1.06h-25v-1.06l1.37-.42a4.93,4.93,0,0,0,3.71-5.19V111.86q0-6.78-6.78-6.78-4.65,0-10.17,4.66v36q0,4.14,3.71,5.19l1,.32v1.06Z"/><path d="M456.84,153.91q-6.78,0-10.54-3.39t-3.76-10.8V103.49h-7.31v-1.06l2.55-.42a20.35,20.35,0,0,0,5.66-2.12,23.08,23.08,0,0,0,4.72-3.71l8.68-9.64h1.06l-.32,14.83h11.87v2.12h-12v38.13a8.38,8.38,0,0,0,1.64,5.62,5.27,5.27,0,0,0,4.18,1.9,7,7,0,0,0,3.92-1.11,17.38,17.38,0,0,0,3.39-3l1.06,1.06a15.59,15.59,0,0,1-5.82,5.72A18,18,0,0,1,456.84,153.91Z"/><path d="M195.92,190.64V179.78H187v10.86H180.1V163.48H187v10.21h8.89V163.48h6.93v27.16Z"/><path d="M226.13,190.64V163.48h15.08v6.09h-8.44v4.23H241v6.09h-8.19v4.66h8.44v6.09Z"/><path d="M281.37,190.64l-1.32-3.92h-9.44l-1.43,3.92h-7.45l10.9-27.16h5.47l10.79,27.16ZM275.42,172l-.11,0-2.79,9.29h5.69Z"/><path d="M310.22,190.64V163.48h6.94v21.07h8v6.09Z"/><path d="M347.85,190.64V169.57h-5.36v-6.09h17.62v6.09h-5.33v21.07Z"/><path d="M397,190.64V179.82h-8.86v10.82h-6.91V163.57h6.91v10.17H397V163.57h6.91v27.07Z"/><circle cx="51.76" cy="117.74" r="51.76"/><circle cx="31.18" cy="31.2" r="31.18"/><circle cx="84.76" cy="18.77" r="18.77"/><circle cx="92.92" cy="51.77" r="10.61"/><circle cx="72.95" cy="55.41" r="6.96"/><circle cx="68.44" cy="43.61" r="2.45"/><circle cx="51.76" cy="117.74" r="51.76"/><circle cx="31.18" cy="31.2" r="31.18"/><circle cx="84.76" cy="18.77" r="18.77"/><circle cx="92.92" cy="51.77" r="10.61"/><circle cx="72.95" cy="55.41" r="6.96"/><circle cx="68.44" cy="43.61" r="2.45"/><path d="M412.2,170.6v-5.75h-2.07v-1.37H416v1.37h-2.08v5.75Zm11.83,0v-5h0l-1.8,5h-1.29l-1.8-5h0v5h-1.7v-7.12h2.47l1.71,4.49,1.7-4.49h2.47v7.12Z"/></g></g></svg>