<svg width="143" height="53" viewBox="0 0 143 53" fill="none" xmlns="http://www.w3.org/2000/svg">
<path d="M31.1174 20.0321C31.4452 19.6803 31.7367 19.3412 32.0547 19.029C36.9778 14.187 42.8495 12.5079 49.4958 14.5216C56.1056 16.5242 60.0317 21.118 61.3415 27.8216C61.508 28.6734 61.586 29.5543 61.589 30.4225C61.6095 36.4621 61.6102 42.5017 61.5943 48.5406C61.5875 51.1155 59.2527 52.8631 56.8067 52.1678C55.1941 51.7087 54.1449 50.2957 54.1433 48.551C54.1388 42.5591 54.1577 36.5665 54.1358 30.5746C54.1191 26.03 50.994 22.2582 46.4933 21.2819C40.5981 20.003 34.905 24.45 34.8671 30.4166C34.83 36.2669 34.8626 42.1179 34.8558 47.9682C34.855 48.4608 34.8437 48.9639 34.7422 49.4431C34.3531 51.2861 32.6164 52.4987 30.7025 52.3012C28.8599 52.1111 27.4071 50.5483 27.404 48.6986C27.3934 42.659 27.4177 36.6194 27.3927 30.5805C27.3745 26.03 24.2373 22.2403 19.7585 21.2804C13.8482 20.0135 8.1581 24.4567 8.12555 30.4114C8.093 36.4271 8.12555 42.4429 8.11419 48.4586C8.10889 51.3905 5.21542 53.2201 2.67246 51.901C1.38167 51.231 0.673824 50.1518 0.670795 48.7023C0.658682 42.4518 0.638242 36.1998 0.673824 29.9478C0.716219 22.5235 6.62733 15.5553 14.1714 14.1147C20.7291 12.8627 26.2707 14.7564 30.7518 19.6408C30.8608 19.7601 30.9721 19.8771 31.1174 20.0321Z" fill="black"/>
<path d="M84.9715 13.7278C95.696 13.6727 104.535 22.3467 104.585 32.9749C104.635 43.4399 95.8572 52.1952 85.3629 52.3346C74.5839 52.4777 65.4492 44.0338 65.3682 33.1828C65.2895 22.4347 74.038 13.7837 84.9715 13.7278ZM84.9783 44.9699C91.6646 44.9662 97.1154 39.6256 97.1268 33.0696C97.1382 26.474 91.654 21.0396 84.9995 21.053C78.2761 21.0664 72.8275 26.4196 72.8245 33.0152C72.8222 39.6301 78.2549 44.9744 84.9783 44.9699Z" fill="black"/>
<path d="M108.32 38.2293C108.32 35.1402 108.316 32.0511 108.321 28.962C108.332 21.1964 113.783 14.969 121.58 13.8585C123.762 13.5477 125.929 13.7378 128.043 14.3802C130.144 15.0189 131.265 16.9886 130.664 18.9651C130.057 20.9586 128.07 21.9945 125.943 21.4259C122.168 20.4161 118.593 21.8082 116.76 25.0091C116.074 26.2053 115.769 27.4923 115.772 28.8696C115.784 35.2602 115.781 41.6501 115.772 48.0407C115.771 48.5788 115.747 49.1355 115.609 49.6512C115.136 51.4078 113.383 52.5212 111.543 52.2931C109.75 52.0711 108.346 50.5776 108.331 48.7695C108.303 45.2564 108.323 41.7425 108.323 38.2293C108.322 38.2293 108.321 38.2293 108.32 38.2293Z" fill="black"/>
<path d="M141.984 33.0738C141.984 38.1892 141.985 43.3055 141.983 48.4209C141.983 50.6835 140.414 52.3157 138.25 52.3127C136.131 52.3097 134.53 50.6709 134.529 48.4649C134.523 38.1624 134.522 27.8607 134.529 17.5582C134.531 15.3604 136.159 13.7201 138.278 13.7335C140.417 13.7469 141.982 15.3686 141.983 17.585C141.986 22.7482 141.984 27.9106 141.984 33.0738Z" fill="black"/>
<path d="M141.979 4.7504C142.24 7.54439 139.702 9.57299 137.06 8.70625C135.585 8.22258 134.74 7.14046 134.563 5.6313C134.363 3.91869 134.58 2.297 136.208 1.25438C137.504 0.424907 138.878 0.392861 140.205 1.19104C141.564 2.00784 142.088 3.26361 141.979 4.7504Z" fill="black"/>
</svg>
