<svg width="73" height="27" viewBox="0 0 73 27" fill="none" xmlns="http://www.w3.org/2000/svg">
<path d="M15.8851 10.2051C16.0524 10.0259 16.2012 9.85312 16.3635 9.69404C18.8767 7.22738 21.8742 6.372 25.267 7.39785C28.6413 8.418 30.6455 10.7582 31.3141 14.1733C31.3991 14.6072 31.4389 15.056 31.4405 15.4983C31.4509 18.5751 31.4513 21.6519 31.4432 24.7283C31.4397 26.04 30.2478 26.9303 28.9992 26.5761C28.176 26.3422 27.6403 25.6224 27.6396 24.7336C27.6372 21.6811 27.6469 18.6282 27.6357 15.5758C27.6272 13.2606 26.0318 11.3391 23.7343 10.8418C20.7248 10.1903 17.8186 12.4557 17.7992 15.4953C17.7803 18.4756 17.7969 21.4563 17.7935 24.4367C17.7931 24.6876 17.7873 24.9439 17.7355 25.188C17.5368 26.1269 16.6503 26.7446 15.6733 26.644C14.7326 26.5472 13.991 25.7511 13.9894 24.8087C13.984 21.732 13.9964 18.6552 13.9836 15.5788C13.9743 13.2606 12.3728 11.33 10.0865 10.841C7.06928 10.1956 4.16457 12.4591 4.14795 15.4926C4.13134 18.5572 4.14795 21.6219 4.14216 24.6865C4.13945 26.1801 2.66236 27.1121 1.36421 26.4401C0.705276 26.0988 0.343927 25.5491 0.342381 24.8106C0.336197 21.6264 0.325762 18.4414 0.343927 15.2565C0.365569 11.4743 3.38313 7.92444 7.23431 7.19055C10.5819 6.55272 13.4109 7.51744 15.6984 10.0057C15.754 10.0665 15.8109 10.1261 15.8851 10.2051Z" fill="black"/>
<path d="M43.377 6.99354C48.8518 6.96545 53.3642 11.3843 53.3897 16.7987C53.4148 22.1299 48.9341 26.5901 43.5768 26.6611C38.0743 26.734 33.4111 22.4325 33.3698 16.9046C33.3296 11.4291 37.7956 7.02202 43.377 6.99354ZM43.3805 22.9093C46.7938 22.9074 49.5764 20.1868 49.5822 16.8469C49.588 13.4869 46.7884 10.7184 43.3913 10.7252C39.9591 10.7321 37.1777 13.4592 37.1761 16.8192C37.175 20.1891 39.9483 22.9116 43.3805 22.9093Z" fill="black"/>
<path d="M55.2961 19.4756C55.2961 17.9019 55.2941 16.3282 55.2965 14.7545C55.3023 10.7984 58.0848 7.62597 62.0655 7.06028C63.1793 6.90196 64.2854 6.99877 65.3644 7.32604C66.4368 7.65141 67.0092 8.65485 66.7024 9.66172C66.3928 10.6773 65.3783 11.205 64.2923 10.9154C62.3654 10.4009 60.5405 11.1101 59.6044 12.7408C59.2547 13.3501 59.0986 14.0058 59.1001 14.7074C59.1063 17.963 59.1051 21.2182 59.1001 24.4738C59.0997 24.7479 59.0877 25.0316 59.017 25.2943C58.7755 26.1891 57.8808 26.7564 56.9413 26.6402C56.0261 26.527 55.3096 25.7662 55.3019 24.8451C55.2876 23.0554 55.2976 21.2653 55.2976 19.4756C55.2972 19.4756 55.2969 19.4756 55.2961 19.4756Z" fill="black"/>
<path d="M72.4814 16.8492C72.4814 19.4552 72.4817 22.0616 72.481 24.6676C72.4806 25.8202 71.6798 26.6517 70.5749 26.6502C69.4936 26.6487 68.6762 25.8138 68.6754 24.69C68.6723 19.4415 68.6719 14.1935 68.6758 8.94505C68.6765 7.82542 69.5075 6.98979 70.5892 6.99662C71.6814 7.00346 72.4802 7.8296 72.481 8.95871C72.4821 11.589 72.4814 14.2189 72.4814 16.8492Z" fill="black"/>
<path d="M72.4786 2.4201C72.6119 3.84345 71.3164 4.87689 69.9677 4.43535C69.2148 4.18895 68.7835 3.63768 68.6931 2.86886C68.5907 1.9964 68.7016 1.17026 69.5329 0.639113C70.1945 0.21655 70.8956 0.200224 71.5731 0.606842C72.2668 1.02295 72.5342 1.66268 72.4786 2.4201Z" fill="black"/>
</svg>
