<?xml version="1.0" encoding="UTF-8"?>
<svg xmlns="http://www.w3.org/2000/svg" xmlns:xlink="http://www.w3.org/1999/xlink" width="864pt" height="864pt" viewBox="0 0 864 864" version="1.1">
<g id="surface1">
<path style=" stroke:none;fill-rule:nonzero;fill:rgb(85%,85%,85%);fill-opacity:1;" d="M 0.078125 -0.160156 L 864 -0.160156 L 864 863.761719 L 0.078125 863.761719 Z M 0.078125 -0.160156 "/>
<path style=" stroke:none;fill-rule:nonzero;fill:rgb(0%,0%,0%);fill-opacity:1;" d="M 393.039062 365.121094 C 423.601562 365.121094 450.480469 382.320312 450.480469 417.121094 C 450.480469 451.761719 423.761719 469.441406 393.121094 469.441406 L 352.078125 469.441406 C 321.441406 469.441406 294.71875 451.839844 294.71875 417.121094 C 294.71875 382.960938 321.519531 365.121094 352.078125 365.121094 Z M 349.761719 396.078125 C 336 396.078125 325.121094 403.441406 325.121094 417.28125 C 325.121094 431.28125 335.921875 438.480469 349.761719 438.480469 L 395.519531 438.480469 C 408.878906 438.480469 420.238281 431.039062 420.238281 417.28125 C 420.238281 403.519531 408.71875 396.078125 395.601562 396.078125 Z M 349.761719 396.078125 "/>
<path style=" stroke:none;fill-rule:nonzero;fill:rgb(0%,0%,0%);fill-opacity:1;" d="M 467.519531 483.121094 C 467.519531 492.488281 459.925781 500.078125 450.558594 500.078125 C 441.191406 500.078125 433.601562 492.488281 433.601562 483.121094 C 433.601562 473.753906 441.191406 466.160156 450.558594 466.160156 C 459.925781 466.160156 467.519531 473.753906 467.519531 483.121094 Z M 467.519531 483.121094 "/>
<path style=" stroke:none;fill-rule:nonzero;fill:rgb(0%,0%,0%);fill-opacity:1;" d="M 267.441406 365.28125 L 267.441406 497.28125 L 229.839844 497.28125 L 229.839844 418.71875 L 196.480469 497.28125 L 164 497.28125 L 130.398438 418.558594 L 130.398438 497.28125 L 93.039062 497.28125 L 93.039062 365.28125 L 138.71875 365.28125 L 180.640625 464.71875 L 221.679688 365.28125 Z M 267.441406 365.28125 "/>
<path style=" stroke:none;fill-rule:nonzero;fill:rgb(0%,0%,0%);fill-opacity:1;" d="M 555.441406 500.320312 C 506.558594 500.320312 489.519531 483.039062 489.519531 451.199219 L 526.640625 451.199219 C 527.359375 464.71875 533.121094 473.679688 554.558594 473.679688 C 573.679688 473.679688 578.320312 466.640625 578.320312 459.921875 C 578.320312 434.078125 492.078125 452.640625 492.078125 406 C 492.078125 382.71875 505.679688 363.359375 552.078125 363.359375 C 599.121094 363.359375 612.238281 383.359375 612.960938 410.398438 L 576.078125 410.398438 C 575.359375 399.199219 571.679688 390 550.960938 390 C 533.679688 390 529.28125 395.839844 529.28125 402.71875 C 529.28125 424.960938 614.640625 406.878906 614.640625 458.078125 C 614.480469 477.601562 601.761719 500.320312 555.441406 500.320312 Z M 555.441406 500.320312 "/>
<path style=" stroke:none;fill-rule:nonzero;fill:rgb(0%,0%,0%);fill-opacity:1;" d="M 711.921875 500.320312 C 663.039062 500.320312 646 483.039062 646 451.199219 L 683.121094 451.199219 C 683.839844 464.71875 689.601562 473.679688 711.039062 473.679688 C 730.160156 473.679688 734.800781 466.640625 734.800781 459.921875 C 734.800781 434.078125 648.558594 452.640625 648.558594 406 C 648.558594 382.71875 662.160156 363.359375 708.558594 363.359375 C 755.601562 363.359375 768.71875 383.359375 769.441406 410.398438 L 732.558594 410.398438 C 731.839844 399.199219 728.160156 390 707.441406 390 C 690.160156 390 685.761719 395.839844 685.761719 402.71875 C 685.761719 424.960938 771.121094 406.878906 771.121094 458.078125 C 770.960938 477.601562 758.320312 500.320312 711.921875 500.320312 Z M 711.921875 500.320312 "/>
</g>
</svg>
