<?xml version="1.0" encoding="utf-8"?>
<!-- Generator: Adobe Illustrator 25.4.1, SVG Export Plug-In . SVG Version: 6.00 Build 0)  -->
<svg version="1.1" id="Camada_1" xmlns="http://www.w3.org/2000/svg" xmlns:xlink="http://www.w3.org/1999/xlink" x="0px" y="0px"
	 viewBox="0 0 1080 1080" style="enable-background:new 0 0 1080 1080;" xml:space="preserve">
<style type="text/css">
	.st0{fill:#DFF445;}
</style>
<rect x="0.1" y="-0.2" class="st0" width="1079.9" height="1079.9"/>
<g>
	<path d="M491.3,456.4c38.2,0,71.8,21.5,71.8,65c0,43.3-33.4,65.4-71.7,65.4h-51.3c-38.3,0-71.7-22-71.7-65.4
		c0-42.7,33.5-65,71.7-65H491.3z M437.2,495.1c-17.2,0-30.8,9.2-30.8,26.5c0,17.5,13.5,26.5,30.8,26.5h57.2
		c16.7,0,30.9-9.3,30.9-26.5c0-17.2-14.4-26.5-30.8-26.5H437.2z"/>
	<circle cx="563.2" cy="603.9" r="21.2"/>
	<path d="M334.3,456.6v165h-47v-98.2l-41.7,98.2h-40.6l-42-98.4v98.4h-46.7v-165h57.1l52.4,124.3l51.3-124.3H334.3z"/>
	<path d="M694.3,625.4c-61.1,0-82.4-21.6-82.4-61.4h46.4c0.9,16.9,8.1,28.1,34.9,28.1c23.9,0,29.7-8.8,29.7-17.2
		c0-32.3-107.8-9.1-107.8-67.4c0-29.1,17-53.3,75-53.3c58.8,0,75.2,25,76.1,58.8h-46.1c-0.9-14-5.5-25.5-31.4-25.5
		c-21.6,0-27.1,7.3-27.1,15.9c0,27.8,106.7,5.2,106.7,69.2C768.1,597,752.2,625.4,694.3,625.4z"/>
	<path d="M889.9,625.4c-61.1,0-82.4-21.6-82.4-61.4h46.4c0.9,16.9,8.1,28.1,34.9,28.1c23.9,0,29.7-8.8,29.7-17.2
		c0-32.3-107.8-9.1-107.8-67.4c0-29.1,17-53.3,75-53.3c58.8,0,75.2,25,76.1,58.8h-46.1c-0.9-14-5.5-25.5-31.4-25.5
		c-21.6,0-27.1,7.3-27.1,15.9c0,27.8,106.7,5.2,106.7,69.2C963.7,597,947.9,625.4,889.9,625.4z"/>
</g>
</svg>
