<svg width="194" height="78" viewBox="0 0 194 78" fill="none" xmlns="http://www.w3.org/2000/svg">
<path d="M193.375 0.103516C193.375 25.7702 193.375 51.4103 193.375 77.1035C129.051 77.1035 64.7261 77.1035 0.375488 77.1035C0.375488 51.4368 0.375488 25.7967 0.375488 0.103516C64.6743 0.103516 128.999 0.103516 193.375 0.103516ZM191.484 2.06564C128.429 2.06564 65.374 2.06564 2.34514 2.06564C2.34514 26.4596 2.34514 50.8005 2.34514 75.1414C65.4258 75.1414 128.429 75.1414 191.484 75.1414C191.484 50.7475 191.484 26.4331 191.484 2.06564Z" fill="#0F190C"/>
<path d="M179.614 49.1566C178.396 49.1566 177.255 49.1831 176.115 49.13C175.96 49.13 175.726 48.8119 175.649 48.5732C174.664 45.7096 173.705 42.8194 172.746 39.9293C172.59 39.452 172.383 39.2399 171.865 39.2929C171.398 39.3459 170.932 39.2929 170.388 39.2929C170.388 42.6073 170.388 45.8156 170.388 49.1035C169.195 49.1035 168.055 49.1035 166.863 49.1035C166.863 41.4406 166.863 33.8043 166.863 26.0618C167.226 26.0618 167.563 26.0618 167.9 26.0618C169.895 26.0884 171.943 25.9823 173.912 26.1944C176.633 26.4861 178.059 27.9975 178.629 30.7285C178.914 32.1869 178.914 33.6717 178.551 35.13C178.214 36.4823 177.463 37.5694 176.297 38.2588C175.882 38.4975 175.778 38.7361 175.96 39.2134C177.074 42.2096 178.163 45.2323 179.251 48.255C179.407 48.5202 179.484 48.7853 179.614 49.1566ZM170.439 36.4293C171.476 36.3762 172.461 36.3762 173.446 36.2437C174.327 36.1376 175.001 35.5543 175.078 34.6528C175.182 33.4331 175.182 32.1869 175.078 30.9406C175.001 30.0922 174.431 29.4823 173.601 29.3762C172.565 29.2172 171.528 29.1906 170.439 29.1111C170.439 31.63 170.439 33.9634 170.439 36.4293Z" fill="#0F190C"/>
<path d="M145.43 49.1566C144.29 49.1566 143.253 49.1831 142.19 49.13C142.061 49.13 141.854 48.8649 141.802 48.6793C141.491 47.3535 141.206 46.0012 140.946 44.649C140.869 44.2778 140.713 44.1717 140.376 44.1717C139.08 44.1982 137.811 44.1982 136.515 44.1717C136.126 44.1717 135.97 44.3043 135.919 44.702C135.659 46.0012 135.374 47.3005 135.115 48.5997C135.038 49.024 134.856 49.1566 134.467 49.1566C133.508 49.13 132.524 49.1566 131.487 49.1566C131.513 48.9179 131.539 48.7323 131.565 48.5467C133.327 41.2285 135.089 33.9369 136.826 26.6187C136.929 26.1944 137.085 26.0353 137.525 26.0618C138.122 26.0884 138.718 26.1149 139.314 26.0618C139.806 26.0353 139.988 26.1944 140.091 26.6717C140.843 29.88 141.62 33.0884 142.398 36.2702C143.383 40.4065 144.367 44.5164 145.378 48.6528C145.378 48.8119 145.404 48.9444 145.43 49.1566ZM138.484 32.9558C138.433 32.9558 138.381 32.9558 138.355 32.9558C137.785 35.6338 137.24 38.3384 136.67 41.0694C137.914 41.0694 139.029 41.0694 140.195 41.0694C139.599 38.3384 139.055 35.6338 138.484 32.9558Z" fill="#0F190C"/>
<path d="M11.8306 42.6603C12.8672 42.6603 13.878 42.6603 15.0183 42.6603C15.0183 43.0315 15.0183 43.3762 15.0183 43.7209C15.0701 45.6831 17.0657 46.7437 18.6984 45.7361C19.2168 45.4179 19.4759 44.8876 19.5018 44.3043C19.5537 43.2172 19.5537 42.1035 19.5278 41.0164C19.5019 40.2209 19.0094 39.6906 18.3097 39.399C17.4544 39.0278 16.5992 38.63 15.718 38.3119C13.2819 37.4103 12.012 35.6603 11.9342 33.0088C11.8824 31.577 12.012 30.1717 12.634 28.8725C13.6966 26.6187 16.1586 25.4785 18.6984 26.0618C21.0828 26.5922 22.7932 28.6868 22.8451 31.0997C22.871 31.63 22.8451 32.1603 22.8451 32.7172C21.7566 32.7172 20.7199 32.7172 19.5796 32.7172C19.5796 32.2929 19.6055 31.8687 19.5796 31.4444C19.45 29.8535 18.3356 29.005 16.8325 29.2967C16.0031 29.4558 15.407 30.0391 15.2775 31.0467C15.1738 31.8687 15.1997 32.6906 15.2515 33.5126C15.3034 34.255 15.7958 34.7323 16.4437 35.024C17.4026 35.4482 18.3874 35.8725 19.3723 36.2437C21.4197 36.9861 22.6377 38.4179 22.7414 40.6452C22.8192 42.1035 22.8451 43.6149 22.5859 45.0732C21.9898 48.4406 19.6314 49.6338 16.7029 49.3687C13.3856 49.024 11.2863 46.1338 11.8306 42.6603Z" fill="#0F190C"/>
<path d="M38.084 44.1982C36.7104 44.1982 35.3886 44.1717 34.0928 44.2247C33.9373 44.2247 33.6782 44.4634 33.6522 44.649C33.3672 45.8952 33.1598 47.1679 32.9007 48.4406C32.8488 48.6528 32.797 48.8914 32.7452 49.13C31.6567 49.13 30.62 49.13 29.5056 49.13C31.1902 41.4406 32.8488 33.8043 34.5334 26.1149C35.3627 26.1149 36.1921 26.0884 36.9955 26.1414C37.1251 26.1414 37.3065 26.4596 37.3583 26.6717C38.1358 30.1452 38.8874 33.5922 39.639 37.0656C40.4942 40.9368 41.3235 44.7815 42.1788 48.6262C42.2047 48.7588 42.2047 48.8649 42.2565 49.13C41.9196 49.1565 41.6086 49.1831 41.3235 49.1831C40.7274 49.1831 40.1314 49.1566 39.5094 49.1831C39.1465 49.1831 39.017 49.077 38.9392 48.7058C38.68 47.1944 38.395 45.7361 38.084 44.1982ZM35.9588 33.0088C35.907 33.0088 35.8551 33.0088 35.8033 33.0088C35.3109 35.6869 34.7926 38.3649 34.2742 41.0429C35.3887 41.0429 36.3994 41.0429 37.462 41.0429C36.9696 38.3384 36.4512 35.6603 35.9588 33.0088Z" fill="#0F190C"/>
<path d="M70.2981 45.8422C72.4233 45.8422 74.4966 45.8422 76.6218 45.8422C76.6218 46.9558 76.6218 48.0164 76.6218 49.13C76.4404 49.1565 76.233 49.1831 76.0257 49.1831C73.2267 49.1831 70.4277 49.1831 67.6287 49.1831C67.1104 49.1831 66.9549 49.0505 66.9549 48.5202C66.9808 41.255 66.9549 33.9899 66.9549 26.7247C66.9549 26.5391 66.9808 26.3535 66.9808 26.1414C70.1945 26.1414 73.3563 26.1414 76.5699 26.1414C76.5699 27.149 76.5699 28.13 76.5699 29.2172C76.3367 29.2172 76.1034 29.2172 75.8961 29.2172C74.1856 29.2172 72.4492 29.2172 70.7387 29.2172C70.3241 29.2172 70.1945 29.3497 70.1945 29.7475C70.2204 31.63 70.2204 33.5126 70.1945 35.3952C70.1945 35.8194 70.3241 35.9785 70.7646 35.9785C72.19 35.952 73.6155 35.9785 75.0409 35.9785C75.2741 35.9785 75.4814 35.9785 75.7406 35.9785C75.7406 37.0391 75.7406 38.0202 75.7406 39.0808C73.9264 39.0808 72.1123 39.0808 70.2463 39.0808C70.2981 41.3346 70.2981 43.5619 70.2981 45.8422Z" fill="#0F190C"/>
<path d="M115.6 26.1149C119.125 26.1149 122.598 26.1149 126.122 26.1149C126.122 27.1225 126.122 28.13 126.122 29.1906C123.816 29.1906 121.535 29.1906 119.203 29.1906C119.203 31.524 119.203 33.8043 119.203 36.1641C121.198 36.1641 123.194 36.1641 125.241 36.1641C125.241 37.2512 125.241 38.2588 125.241 39.3194C123.22 39.3194 121.224 39.3194 119.151 39.3194C119.151 42.6073 119.151 45.8422 119.151 49.1035C117.933 49.1035 116.792 49.1035 115.6 49.1035C115.6 41.4672 115.6 33.8308 115.6 26.1149Z" fill="#0F190C"/>
<path d="M49.5909 26.1149C52.8045 26.1149 55.9663 26.1149 59.18 26.1149C59.18 27.1225 59.18 28.1035 59.18 29.1906C57.0807 29.1906 54.9815 29.1906 52.8564 29.1906C52.8564 31.5505 52.8564 33.8308 52.8564 36.1641C54.6964 36.1641 56.5106 36.1641 58.3506 36.1641C58.3506 37.2512 58.3506 38.2323 58.3506 39.3194C56.5106 39.3194 54.6964 39.3194 52.8304 39.3194C52.8304 42.6073 52.8304 45.8422 52.8304 49.13C51.716 49.13 50.6794 49.13 49.5909 49.13C49.5909 41.4672 49.5909 33.8308 49.5909 26.1149Z" fill="#0F190C"/>
<path d="M157.092 49.13C155.926 49.13 154.812 49.13 153.62 49.13C153.62 41.4672 153.62 33.8308 153.62 26.1414C154.76 26.1414 155.9 26.1414 157.092 26.1414C157.092 33.7778 157.092 41.4406 157.092 49.13Z" fill="#0F190C"/>
<path d="M94.7892 29.4293C95.463 29.4293 96.0332 29.4293 96.6811 29.4293C96.6811 31.7626 96.6811 34.0429 96.6811 36.4293C98.9877 36.4293 101.242 36.4293 103.523 36.4293C103.523 37.0656 103.523 37.5959 103.523 38.2323C101.268 38.2323 99.0136 38.2323 96.707 38.2323C96.707 40.6452 96.707 43.005 96.707 45.3649C96.0591 45.3649 95.463 45.3649 94.8151 45.3649C94.8151 43.005 94.8151 40.6452 94.8151 38.2323C92.4826 38.2323 90.202 38.2323 87.8954 38.2323C87.8954 37.6225 87.8954 37.0656 87.8954 36.4558C90.1761 36.4558 92.4567 36.4558 94.7892 36.4558C94.7892 34.0959 94.7892 31.7891 94.7892 29.4293Z" fill="#0F190C"/>
<path d="M105.7 64.827C105.363 64.827 105.026 64.827 104.637 64.827C104.637 63.2891 104.637 61.7778 104.637 60.2664C104.586 60.2664 104.534 60.2399 104.508 60.2399C104.223 61.1414 103.938 62.0164 103.627 62.8914C103.549 63.077 103.342 63.2096 103.186 63.3687C103.031 63.2096 102.823 63.0505 102.746 62.8649C102.435 61.9899 102.175 61.1149 101.761 60.2664C101.761 61.7778 101.761 63.2626 101.761 64.8005C101.372 64.8005 101.061 64.8005 100.672 64.8005C100.672 62.149 100.672 59.4709 100.672 56.8194C101.579 56.5543 101.683 56.6073 101.994 57.5088C102.383 58.6225 102.746 59.7361 103.186 61.0088C103.704 59.4975 104.171 58.1452 104.637 56.7664C105 56.7664 105.311 56.7664 105.7 56.7664C105.7 59.4444 105.7 62.1225 105.7 64.827Z" fill="#0F190C"/>
<path d="M125.967 64.774C124.956 64.9861 124.956 64.9861 124.645 64.0846C124.204 62.8384 123.764 61.5922 123.194 60.3459C123.194 61.8308 123.194 63.2891 123.194 64.827C122.779 64.827 122.442 64.827 122.079 64.827C122.079 62.149 122.079 59.4975 122.079 56.8459C123.09 56.6338 123.09 56.6338 123.427 57.5619C123.868 58.7815 124.282 60.0278 124.826 61.2475C124.826 59.7891 124.826 58.3043 124.826 56.7929C125.267 56.7929 125.604 56.7929 125.967 56.7929C125.967 59.4709 125.967 62.1225 125.967 64.774Z" fill="#0F190C"/>
<path d="M75.7924 64.8535C75.7924 62.1225 75.7924 59.4709 75.7924 56.7929C76.5181 56.7929 77.2438 56.7134 77.9435 56.8194C78.8247 56.9255 79.3689 57.5619 79.3948 58.4634C79.4467 60.0012 79.4467 61.5656 79.3948 63.1035C79.3689 64.0581 78.7728 64.6149 77.8398 64.8005C77.6325 64.827 77.4252 64.8535 77.2178 64.8535C76.7773 64.8535 76.3108 64.8535 75.7924 64.8535ZM76.9328 63.6869C78.0731 63.7664 78.2804 63.5808 78.2804 62.4672C78.2804 61.3005 78.2804 60.1338 78.2804 58.9672C78.2804 57.9596 77.9694 57.7209 76.9328 57.9331C76.9328 59.8422 76.9328 61.7512 76.9328 63.6869Z" fill="#0F190C"/>
<path d="M72.5529 60.8232C72.5529 61.5391 72.5788 62.255 72.5529 62.9709C72.527 64.0846 71.7754 64.8535 70.7128 64.88C69.6502 64.9065 68.8209 64.1906 68.7691 63.1035C68.7172 61.5656 68.7172 60.0278 68.7691 58.4634C68.795 57.3497 69.6243 56.6603 70.7128 56.6869C71.7754 56.7134 72.527 57.4823 72.5529 58.5959C72.5788 59.3384 72.5529 60.0808 72.5529 60.8232ZM69.9353 60.7437C69.9353 61.4596 69.9353 62.1755 69.9353 62.8914C69.9353 63.3952 70.1686 63.7134 70.6869 63.6869C71.1534 63.6869 71.4126 63.3952 71.4385 62.9179C71.4644 61.4861 71.4644 60.0543 71.4385 58.6225C71.4385 58.1187 71.1534 57.827 70.661 57.8535C70.1686 57.88 69.9612 58.1717 69.9612 58.649C69.9353 59.3649 69.9353 60.0543 69.9353 60.7437Z" fill="#0F190C"/>
<path d="M97.4327 60.8232C97.4327 61.5656 97.4586 62.3081 97.4327 63.0505C97.4068 64.1111 96.6293 64.88 95.6185 64.9065C94.5301 64.9331 93.7007 64.2172 93.6748 63.13C93.623 61.5922 93.623 60.0543 93.6748 58.4899C93.7007 57.3762 94.5301 56.6869 95.6185 56.7134C96.6552 56.7399 97.4068 57.4823 97.4327 58.5694C97.4586 59.3119 97.4327 60.0543 97.4327 60.8232ZM94.7892 60.7437C94.7892 61.4331 94.7892 62.149 94.7892 62.8384C94.7892 63.3687 94.9706 63.7134 95.5408 63.7134C96.085 63.7134 96.2924 63.3687 96.2924 62.8384C96.2924 61.4596 96.2924 60.0808 96.2924 58.7285C96.2924 58.1982 96.0591 57.88 95.5149 57.88C94.9965 57.88 94.7892 58.2247 94.7892 58.702C94.7892 59.3914 94.7892 60.0808 94.7892 60.7437Z" fill="#0F190C"/>
<path d="M65.6073 60.8232C65.6073 61.5656 65.6332 62.3081 65.6073 63.0505C65.5554 64.1641 64.8038 64.9065 63.7154 64.9065C62.6528 64.9065 61.8494 64.1641 61.8235 63.0505C61.7975 61.5391 61.7975 60.0543 61.8235 58.5429C61.8494 57.4293 62.6269 56.6869 63.7154 56.6869C64.7779 56.6869 65.5554 57.4293 65.6073 58.5429C65.6073 58.5959 65.6073 58.6755 65.6073 58.7285C65.6332 59.4179 65.6332 60.1338 65.6073 60.8232ZM64.4669 60.7437C64.4669 60.0543 64.4669 59.3384 64.4669 58.649C64.4669 58.1717 64.2337 57.88 63.7413 57.88C63.2229 57.88 62.9897 58.1452 62.9638 58.6755C62.9638 60.0808 62.9638 61.5126 62.9638 62.9179C62.9638 63.4217 63.197 63.7399 63.7154 63.7134C64.2078 63.7134 64.441 63.3952 64.4669 62.8914C64.4669 62.1755 64.4669 61.4596 64.4669 60.7437Z" fill="#0F190C"/>
<path d="M94.7892 13.7588C95.3075 13.7588 95.6963 13.7588 96.1369 13.7588C96.1369 12.6187 96.1369 11.5315 96.1369 10.3649C96.5515 10.3649 96.8884 10.3649 97.2513 10.3649C97.2513 13.0164 97.2513 15.6414 97.2513 18.3459C96.9144 18.3459 96.5775 18.3459 96.1887 18.3459C96.1887 17.2058 96.1887 16.0656 96.1887 14.8725C95.6963 14.8725 95.2816 14.8725 94.7892 14.8725C94.7892 16.0391 94.7892 17.1793 94.7892 18.3725C94.4005 18.3725 94.0636 18.3725 93.7007 18.3725C93.7007 15.7209 93.7007 13.0694 93.7007 10.3914C94.0376 10.3914 94.3745 10.3914 94.7892 10.3914C94.7892 11.4785 94.7892 12.5922 94.7892 13.7588Z" fill="#0F190C"/>
<path d="M109.043 64.827C109.043 62.1225 109.043 59.4709 109.043 56.7929C109.795 56.7929 110.521 56.7399 111.22 56.8194C111.972 56.899 112.464 57.4028 112.594 58.1717C112.672 58.702 112.723 59.2588 112.672 59.8156C112.594 61.0353 111.894 61.6717 110.702 61.6982C110.546 61.6982 110.417 61.6982 110.184 61.7247C110.184 62.7588 110.184 63.7664 110.184 64.827C109.769 64.827 109.432 64.827 109.043 64.827ZM110.21 60.5315C110.702 60.5315 111.324 60.7172 111.454 60.1869C111.609 59.5505 111.557 58.8081 111.376 58.1717C111.324 57.9596 110.65 57.9065 110.184 57.774C110.21 58.7815 110.21 59.63 110.21 60.5315Z" fill="#0F190C"/>
<path d="M116.585 56.7664C116.948 56.7664 117.207 56.7664 117.544 56.7664C118.114 59.4179 118.71 62.0959 119.28 64.7475C118.244 64.9861 118.192 64.9596 117.984 64.005C117.777 63.024 117.777 63.024 116.3 63.13C116.248 63.3952 116.17 63.6603 116.118 63.952C115.911 64.9331 115.911 64.9331 114.797 64.774C115.419 62.1225 115.989 59.4709 116.585 56.7664ZM116.533 61.9369C116.922 61.9369 117.233 61.9369 117.596 61.9369C117.44 61.0884 117.285 60.2664 117.129 59.4709C117.077 59.4709 117.026 59.4709 117 59.4709C116.844 60.2929 116.689 61.0619 116.533 61.9369Z" fill="#0F190C"/>
<path d="M103.653 13.7588C103.653 14.1831 103.653 14.4747 103.653 14.8725C103.031 14.8725 102.435 14.8725 101.787 14.8725C101.787 15.6944 101.787 16.4368 101.787 17.2058C102.512 17.2058 103.186 17.2058 103.938 17.2058C103.938 17.6035 103.938 17.9482 103.938 18.3459C102.823 18.3459 101.735 18.3459 100.62 18.3459C100.62 15.6944 100.62 13.0694 100.62 10.3649C101.709 10.3649 102.797 10.3649 103.938 10.3649C103.938 10.6831 103.938 11.0012 103.938 11.399C103.212 11.399 102.538 11.399 101.787 11.399C101.787 12.1944 101.787 12.9368 101.787 13.7588C102.383 13.7588 103.005 13.7588 103.653 13.7588Z" fill="#0F190C"/>
<path d="M90.5389 59.0467C90.1761 59.0467 89.8392 59.0467 89.5023 59.0467C89.4763 58.8081 89.5023 58.5429 89.3727 58.4103C89.1653 58.1982 88.9062 57.9331 88.647 57.9065C88.4656 57.9065 88.1287 58.2778 88.1028 58.5164C88.0509 60.0278 88.0768 61.5126 88.0768 63.024C88.0768 63.4217 88.2583 63.6869 88.6729 63.7134C89.0876 63.7399 89.3208 63.5278 89.4245 63.1035C89.4504 62.9444 89.4504 62.7588 89.4763 62.5467C89.8132 62.5467 90.1761 62.5467 90.513 62.5467C90.7722 63.6603 90.0983 64.7209 89.0876 64.8535C87.8695 65.0391 86.9884 64.3497 86.9624 63.077C86.9106 61.5922 86.9106 60.1073 86.9365 58.6225C86.9624 57.2967 87.7658 56.5543 88.9839 56.6603C90.0465 56.8194 90.6944 57.7475 90.5389 59.0467Z" fill="#0F190C"/>
<path d="M55.6035 56.7664C56.7438 56.7664 57.8064 56.7664 58.9208 56.7664C58.9208 57.1111 58.9208 57.4293 58.9208 57.8535C58.2211 57.8535 57.5213 57.8535 56.7697 57.8535C56.7697 58.702 56.7697 59.4444 56.7697 60.2929C57.3658 60.2929 57.9619 60.2929 58.6098 60.2929C58.6098 60.6641 58.6098 61.0088 58.6098 61.4065C58.0137 61.4065 57.4177 61.4065 56.7438 61.4065C56.7438 62.5732 56.7438 63.6869 56.7438 64.827C56.3292 64.827 55.9922 64.827 55.6035 64.827C55.6035 62.1225 55.6035 59.4709 55.6035 56.7664Z" fill="#0F190C"/>
<path d="M131.487 64.827C130.995 64.827 130.684 64.827 130.165 64.827C130.709 61.9634 129.621 59.4179 128.714 56.8725C129.802 56.6073 129.88 56.6338 130.165 57.6149C130.373 58.3308 130.58 59.0732 130.839 59.9482C131.176 58.8081 131.461 57.8005 131.746 56.7929C132.135 56.7929 132.472 56.7929 132.938 56.7929C132.109 59.4179 130.891 61.9369 131.487 64.827Z" fill="#0F190C"/>
<path d="M90.9277 10.3649C90.9277 10.7096 90.9277 11.0012 90.9277 11.3459C90.824 11.3725 90.7203 11.399 90.6426 11.4255C89.6318 11.4785 89.6318 11.4785 89.6318 12.4861C89.6318 14.4217 89.6318 16.3838 89.6318 18.3725C89.2431 18.3725 88.9062 18.3725 88.4915 18.3725C88.4915 16.0922 88.4915 13.8119 88.4915 11.4785C88.0509 11.4785 87.6622 11.4785 87.2216 11.4785C87.2216 11.0808 87.2216 10.7626 87.2216 10.3914C88.4656 10.3649 89.6577 10.3649 90.9277 10.3649Z" fill="#0F190C"/>
</svg>
