<svg viewBox="0 0 101 41" fill="none" xmlns="http://www.w3.org/2000/svg">
<path d="M100.46 0C100.46 13.4164 100.46 26.8189 100.46 40.2492C66.978 40.2492 33.4957 40.2492 0 40.2492C0 26.8328 0 13.4303 0 0C33.4688 0 66.951 0 100.46 0ZM99.4755 1.02563C66.6542 1.02563 33.833 1.02563 1.02524 1.02563C1.02524 13.7768 1.02524 26.5002 1.02524 39.2235C33.86 39.2235 66.6542 39.2235 99.4755 39.2235C99.4755 26.4724 99.4755 13.7629 99.4755 1.02563Z" fill="#0F190C"/>
<path d="M93.297 25.6408C92.663 25.6408 92.0694 25.6547 91.4759 25.627C91.3949 25.627 91.2735 25.4607 91.233 25.3359C90.7204 23.839 90.2213 22.3283 89.7222 20.8176C89.6412 20.5681 89.5333 20.4572 89.2635 20.4849C89.0207 20.5127 88.7779 20.4849 88.4946 20.4849C88.4946 22.2174 88.4946 23.8945 88.4946 25.6131C87.874 25.6131 87.2805 25.6131 86.6599 25.6131C86.6599 21.6076 86.6599 17.6159 86.6599 13.5689C86.8488 13.5689 87.0242 13.5689 87.1995 13.5689C88.2383 13.5827 89.304 13.5273 90.3292 13.6382C91.7457 13.7906 92.4876 14.5806 92.7844 16.0082C92.9328 16.7705 92.9328 17.5466 92.7439 18.3089C92.5686 19.0158 92.1773 19.5841 91.5703 19.9444C91.3545 20.0692 91.3005 20.1939 91.3949 20.4434C91.975 22.0095 92.5416 23.5896 93.1082 25.1696C93.1891 25.3082 93.2296 25.4468 93.297 25.6408ZM88.5216 18.9881C89.0611 18.9604 89.5738 18.9604 90.0864 18.8911C90.5451 18.8356 90.8958 18.5307 90.9363 18.0595C90.9902 17.4219 90.9902 16.7705 90.9363 16.1191C90.8958 15.6756 90.599 15.3568 90.1673 15.3013C89.6277 15.2182 89.0881 15.2043 88.5216 15.1627C88.5216 16.4794 88.5216 17.6991 88.5216 18.9881Z" fill="#0F190C"/>
<path d="M75.5037 25.6408C74.9101 25.6408 74.3705 25.6547 73.8174 25.627C73.75 25.627 73.6421 25.4884 73.6151 25.3914C73.4532 24.6984 73.3048 23.9915 73.1699 23.2847C73.1294 23.0906 73.0485 23.0352 72.8731 23.0352C72.1986 23.049 71.5376 23.049 70.8631 23.0352C70.6608 23.0352 70.5798 23.1045 70.5528 23.3124C70.4179 23.9915 70.2695 24.6706 70.1346 25.3498C70.0942 25.5715 69.9997 25.6408 69.7974 25.6408C69.2983 25.627 68.7856 25.6408 68.246 25.6408C68.2595 25.5161 68.273 25.4191 68.2865 25.3221C69.2038 21.4967 70.1212 17.6852 71.025 13.8599C71.0789 13.6382 71.1599 13.555 71.3892 13.5689C71.6995 13.5827 72.0098 13.5966 72.32 13.5689C72.5763 13.555 72.6708 13.6382 72.7247 13.8876C73.1159 15.5647 73.5206 17.2417 73.9253 18.9049C74.438 21.0671 74.9506 23.2154 75.4767 25.3775C75.4767 25.4607 75.4902 25.53 75.5037 25.6408ZM71.8884 17.1724C71.8614 17.1724 71.8344 17.1724 71.8209 17.1724C71.5241 18.5723 71.2408 19.986 70.944 21.4136C71.5916 21.4136 72.1716 21.4136 72.7787 21.4136C72.4684 19.986 72.1851 18.5723 71.8884 17.1724Z" fill="#0F190C"/>
<path d="M5.96259 22.2452C6.50219 22.2452 7.0283 22.2452 7.62186 22.2452C7.62186 22.4392 7.62186 22.6194 7.62186 22.7996C7.64884 23.8252 8.68758 24.3796 9.53745 23.8529C9.80725 23.6866 9.94215 23.4094 9.95564 23.1045C9.98262 22.5362 9.98262 21.9541 9.96913 21.3858C9.95564 20.97 9.69933 20.6928 9.3351 20.5404C8.88993 20.3463 8.44476 20.1385 7.9861 19.9721C6.71803 19.5009 6.05702 18.5861 6.01655 17.2001C5.98957 16.4517 6.05702 15.7171 6.38078 15.038C6.93387 13.8599 8.21543 13.2639 9.53745 13.5689C10.7785 13.8461 11.6689 14.941 11.6959 16.2022C11.7093 16.4794 11.6959 16.7566 11.6959 17.0477C11.1293 17.0477 10.5897 17.0477 9.99611 17.0477C9.99611 16.8259 10.0096 16.6042 9.99611 16.3824C9.92866 15.5508 9.34859 15.1073 8.56617 15.2598C8.13449 15.3429 7.82421 15.6478 7.75676 16.1745C7.7028 16.6042 7.71629 17.0338 7.74328 17.4635C7.77026 17.8516 8.02657 18.101 8.36382 18.2535C8.86295 18.4753 9.37557 18.697 9.88819 18.8911C10.9539 19.2791 11.5879 20.0276 11.6419 21.1918C11.6824 21.9541 11.6959 22.7441 11.561 23.5064C11.2507 25.2666 10.0231 25.8903 8.49872 25.7517C6.77199 25.5715 5.6793 24.0608 5.96259 22.2452Z" fill="#0F190C"/>
<path d="M19.628 23.049C18.913 23.049 18.225 23.0352 17.5505 23.0629C17.4696 23.0629 17.3347 23.1876 17.3212 23.2847C17.1728 23.9361 17.0649 24.6013 16.93 25.2666C16.903 25.3775 16.876 25.5022 16.849 25.627C16.2825 25.627 15.7429 25.627 15.1628 25.627C16.0396 21.6076 16.903 17.6159 17.7799 13.5966C18.2115 13.5966 18.6432 13.5827 19.0614 13.6104C19.1289 13.6104 19.2233 13.7768 19.2503 13.8876C19.655 15.7033 20.0462 17.5051 20.4374 19.3207C20.8826 21.3443 21.3142 23.354 21.7594 25.3636C21.7729 25.4329 21.7729 25.4884 21.7999 25.627C21.6245 25.6408 21.4626 25.6547 21.3142 25.6547C21.004 25.6547 20.6937 25.6408 20.3699 25.6547C20.1811 25.6547 20.1136 25.5993 20.0732 25.4052C19.9383 24.6152 19.7899 23.8529 19.628 23.049ZM18.5218 17.2001C18.4948 17.2001 18.4678 17.2001 18.4409 17.2001C18.1846 18.6 17.9148 19.9999 17.645 21.3997C18.225 21.3997 18.7511 21.3997 19.3042 21.3997C19.0479 19.986 18.7781 18.5861 18.5218 17.2001Z" fill="#0F190C"/>
<path d="M36.3961 23.9083C37.5023 23.9083 38.5815 23.9083 39.6877 23.9083C39.6877 24.4905 39.6877 25.0449 39.6877 25.627C39.5932 25.6408 39.4853 25.6547 39.3774 25.6547C37.9205 25.6547 36.4635 25.6547 35.0066 25.6547C34.7368 25.6547 34.6559 25.5854 34.6559 25.3082C34.6694 21.5106 34.6559 17.713 34.6559 13.9154C34.6559 13.8183 34.6694 13.7213 34.6694 13.6104C36.3421 13.6104 37.9879 13.6104 39.6607 13.6104C39.6607 14.1371 39.6607 14.6499 39.6607 15.2182C39.5393 15.2182 39.4179 15.2182 39.3099 15.2182C38.4196 15.2182 37.5158 15.2182 36.6254 15.2182C36.4096 15.2182 36.3421 15.2875 36.3421 15.4954C36.3556 16.4794 36.3556 17.4635 36.3421 18.4475C36.3421 18.6693 36.4096 18.7525 36.6389 18.7525C37.3809 18.7386 38.1228 18.7525 38.8648 18.7525C38.9862 18.7525 39.0941 18.7525 39.229 18.7525C39.229 19.3069 39.229 19.8197 39.229 20.3741C38.2847 20.3741 37.3404 20.3741 36.3691 20.3741C36.3961 21.5522 36.3961 22.7164 36.3961 23.9083Z" fill="#0F190C"/>
<path d="M59.9767 13.5966C61.8113 13.5966 63.619 13.5966 65.4536 13.5966C65.4536 14.1232 65.4536 14.6499 65.4536 15.2043C64.253 15.2043 63.0659 15.2043 61.8518 15.2043C61.8518 16.424 61.8518 17.6159 61.8518 18.8495C62.8905 18.8495 63.9292 18.8495 64.9949 18.8495C64.9949 19.4177 64.9949 19.9444 64.9949 20.4988C63.9427 20.4988 62.904 20.4988 61.8248 20.4988C61.8248 22.2174 61.8248 23.9083 61.8248 25.6131C61.1908 25.6131 60.5972 25.6131 59.9767 25.6131C59.9767 21.6215 59.9767 17.6298 59.9767 13.5966Z" fill="#0F190C"/>
<path d="M25.6176 13.5966C27.2903 13.5966 28.9361 13.5966 30.6089 13.5966C30.6089 14.1232 30.6089 14.6361 30.6089 15.2043C29.5162 15.2043 28.4235 15.2043 27.3173 15.2043C27.3173 16.4379 27.3173 17.6298 27.3173 18.8495C28.2751 18.8495 29.2194 18.8495 30.1772 18.8495C30.1772 19.4177 30.1772 19.9306 30.1772 20.4988C29.2194 20.4988 28.2751 20.4988 27.3038 20.4988C27.3038 22.2174 27.3038 23.9083 27.3038 25.627C26.7237 25.627 26.1841 25.627 25.6176 25.627C25.6176 21.6215 25.6176 17.6298 25.6176 13.5966Z" fill="#0F190C"/>
<path d="M81.5742 25.627C80.9671 25.627 80.3871 25.627 79.7665 25.627C79.7665 21.6215 79.7665 17.6298 79.7665 13.6104C80.3601 13.6104 80.9536 13.6104 81.5742 13.6104C81.5742 17.6021 81.5742 21.6076 81.5742 25.627Z" fill="#0F190C"/>
<path d="M49.1442 15.3291C49.4949 15.3291 49.7917 15.3291 50.1289 15.3291C50.1289 16.5487 50.1289 17.7407 50.1289 18.9881C51.3295 18.9881 52.5032 18.9881 53.6903 18.9881C53.6903 19.3207 53.6903 19.5979 53.6903 19.9306C52.5167 19.9306 51.343 19.9306 50.1424 19.9306C50.1424 21.1918 50.1424 22.4253 50.1424 23.6589C49.8052 23.6589 49.4949 23.6589 49.1577 23.6589C49.1577 22.4253 49.1577 21.1918 49.1577 19.9306C47.9436 19.9306 46.7564 19.9306 45.5558 19.9306C45.5558 19.6118 45.5558 19.3207 45.5558 19.0019C46.7429 19.0019 47.9301 19.0019 49.1442 19.0019C49.1442 17.7684 49.1442 16.5626 49.1442 15.3291Z" fill="#0F190C"/>
<path d="M54.8235 33.832C54.6481 33.832 54.4727 33.832 54.2704 33.832C54.2704 33.0282 54.2704 32.2382 54.2704 31.4481C54.2434 31.4481 54.2164 31.4343 54.2029 31.4343C54.0545 31.9055 53.9061 32.3629 53.7443 32.8203C53.7038 32.9173 53.5959 32.9866 53.5149 33.0697C53.434 32.9866 53.3261 32.9034 53.2856 32.8064C53.1237 32.349 52.9888 31.8917 52.773 31.4481C52.773 32.2382 52.773 33.0143 52.773 33.8182C52.5706 33.8182 52.4087 33.8182 52.2064 33.8182C52.2064 32.4322 52.2064 31.0323 52.2064 29.6463C52.6786 29.5077 52.7325 29.5355 52.8944 30.0067C53.0967 30.5888 53.2856 31.1709 53.5149 31.8362C53.7847 31.0462 54.0275 30.3393 54.2704 29.6186C54.4592 29.6186 54.6211 29.6186 54.8235 29.6186C54.8235 31.0185 54.8235 32.4183 54.8235 33.832Z" fill="#0F190C"/>
<path d="M65.3727 33.8043C64.8466 33.9152 64.8465 33.9152 64.6847 33.444C64.4553 32.7925 64.226 32.1411 63.9292 31.4897C63.9292 32.2659 63.9292 33.0282 63.9292 33.832C63.7134 33.832 63.538 33.832 63.3492 33.832C63.3492 32.4322 63.3492 31.0462 63.3492 29.6602C63.8753 29.5493 63.8753 29.5493 64.0506 30.0344C64.28 30.672 64.4958 31.3234 64.7791 31.961C64.7791 31.1987 64.7791 30.4225 64.7791 29.6325C65.0084 29.6325 65.1838 29.6325 65.3727 29.6325C65.3727 31.0323 65.3727 32.4183 65.3727 33.8043Z" fill="#0F190C"/>
<path d="M39.256 33.8459C39.256 32.4183 39.256 31.0323 39.256 29.6325C39.6337 29.6325 40.0114 29.5909 40.3756 29.6463C40.8343 29.7018 41.1176 30.0344 41.1311 30.5057C41.1581 31.3095 41.1581 32.1273 41.1311 32.9311C41.1176 33.4301 40.8073 33.7212 40.3217 33.8182C40.2138 33.832 40.1058 33.8459 39.9979 33.8459C39.7686 33.8459 39.5258 33.8459 39.256 33.8459ZM39.8495 33.2361C40.4431 33.2776 40.551 33.1806 40.551 32.5985C40.551 31.9887 40.551 31.3788 40.551 30.769C40.551 30.2423 40.3891 30.1176 39.8495 30.2285C39.8495 31.2264 39.8495 32.2243 39.8495 33.2361Z" fill="#0F190C"/>
<path d="M37.5697 31.7392C37.5697 32.1134 37.5832 32.4876 37.5697 32.8619C37.5562 33.444 37.165 33.8459 36.6119 33.8598C36.0588 33.8736 35.6272 33.4994 35.6002 32.9311C35.5732 32.1273 35.5732 31.3234 35.6002 30.5057C35.6137 29.9235 36.0453 29.5632 36.6119 29.577C37.165 29.5909 37.5562 29.9928 37.5697 30.575C37.5832 30.963 37.5697 31.3511 37.5697 31.7392ZM36.2072 31.6976C36.2072 32.0718 36.2072 32.446 36.2072 32.8203C36.2072 33.0836 36.3286 33.2499 36.5984 33.2361C36.8413 33.2361 36.9762 33.0836 36.9897 32.8341C37.0031 32.0857 37.0031 31.3373 36.9897 30.5888C36.9897 30.3255 36.8413 30.173 36.5849 30.1869C36.3286 30.2007 36.2207 30.3532 36.2207 30.6027C36.2072 30.9769 36.2072 31.3373 36.2072 31.6976Z" fill="#0F190C"/>
<path d="M50.5201 31.7392C50.5201 32.1273 50.5336 32.5154 50.5201 32.9034C50.5067 33.4578 50.102 33.8598 49.5758 33.8736C49.0093 33.8875 48.5776 33.5133 48.5641 32.945C48.5371 32.1411 48.5371 31.3373 48.5641 30.5195C48.5776 29.9374 49.0093 29.5771 49.5758 29.5909C50.1154 29.6048 50.5067 29.9928 50.5201 30.5611C50.5336 30.9492 50.5201 31.3373 50.5201 31.7392ZM49.1442 31.6976C49.1442 32.058 49.1442 32.4322 49.1442 32.7925C49.1442 33.0697 49.2386 33.2499 49.5354 33.2499C49.8187 33.2499 49.9266 33.0697 49.9266 32.7925C49.9266 32.0718 49.9266 31.3511 49.9266 30.6443C49.9266 30.3671 49.8052 30.2007 49.5219 30.2007C49.2521 30.2007 49.1442 30.3809 49.1442 30.6304C49.1442 30.9908 49.1442 31.3511 49.1442 31.6976Z" fill="#0F190C"/>
<path d="M33.9544 31.7392C33.9544 32.1273 33.9679 32.5154 33.9544 32.9034C33.9274 33.4855 33.5362 33.8736 32.9696 33.8736C32.4165 33.8736 31.9983 33.4855 31.9849 32.9034C31.9714 32.1134 31.9714 31.3373 31.9849 30.5472C31.9983 29.9651 32.403 29.577 32.9696 29.577C33.5227 29.577 33.9274 29.9651 33.9544 30.5472C33.9544 30.575 33.9544 30.6165 33.9544 30.6443C33.9679 31.0046 33.9679 31.3788 33.9544 31.7392ZM33.3608 31.6976C33.3608 31.3373 33.3608 30.963 33.3608 30.6027C33.3608 30.3532 33.2394 30.2007 32.9831 30.2007C32.7133 30.2007 32.5919 30.3393 32.5784 30.6165C32.5784 31.3511 32.5784 32.0996 32.5784 32.8341C32.5784 33.0975 32.6998 33.2638 32.9696 33.2499C33.2259 33.2499 33.3473 33.0836 33.3608 32.8203C33.3608 32.4461 33.3608 32.0718 33.3608 31.6976Z" fill="#0F190C"/>
<path d="M49.1442 7.13785C49.414 7.13785 49.6163 7.13785 49.8456 7.13785C49.8456 6.54188 49.8456 5.97362 49.8456 5.36379C50.0615 5.36379 50.2369 5.36379 50.4257 5.36379C50.4257 6.74978 50.4257 8.12191 50.4257 9.53562C50.2503 9.53562 50.075 9.53562 49.8726 9.53562C49.8726 8.93964 49.8726 8.34367 49.8726 7.71997C49.6163 7.71997 49.4005 7.71997 49.1442 7.71997C49.1442 8.32981 49.1442 8.92578 49.1442 9.54948C48.9418 9.54948 48.7664 9.54948 48.5776 9.54948C48.5776 8.16349 48.5776 6.7775 48.5776 5.37765C48.753 5.37765 48.9283 5.37765 49.1442 5.37765C49.1442 5.9459 49.1442 6.52802 49.1442 7.13785Z" fill="#0F190C"/>
<path d="M56.5637 33.832C56.5637 32.4183 56.5637 31.0323 56.5637 29.6325C56.9549 29.6325 57.3326 29.6048 57.6968 29.6463C58.0881 29.6879 58.3444 29.9513 58.4118 30.3532C58.4523 30.6304 58.4793 30.9215 58.4523 31.2125C58.4118 31.8501 58.0476 32.1827 57.427 32.1966C57.3461 32.1966 57.2787 32.1966 57.1572 32.2104C57.1572 32.751 57.1572 33.2776 57.1572 33.832C56.9414 33.832 56.766 33.832 56.5637 33.832ZM57.1707 31.5867C57.427 31.5867 57.7508 31.6838 57.8183 31.4066C57.8992 31.0739 57.8722 30.6858 57.7778 30.3532C57.7508 30.2423 57.4001 30.2146 57.1572 30.1453C57.1707 30.672 57.1707 31.1155 57.1707 31.5867Z" fill="#0F190C"/>
<path d="M60.4893 29.6186C60.6781 29.6186 60.813 29.6186 60.9884 29.6186C61.2852 31.0046 61.5955 32.4045 61.8922 33.7905C61.3526 33.9152 61.3257 33.9013 61.2177 33.4024C61.1098 32.8896 61.1098 32.8896 60.3409 32.945C60.3139 33.0836 60.2734 33.2222 60.2465 33.3747C60.1385 33.8875 60.1385 33.8875 59.5585 33.8043C59.8822 32.4183 60.179 31.0323 60.4893 29.6186ZM60.4623 32.3213C60.6646 32.3213 60.8265 32.3213 61.0154 32.3213C60.9344 31.8778 60.8535 31.4481 60.7726 31.0323C60.7456 31.0323 60.7186 31.0323 60.7051 31.0323C60.6242 31.462 60.5432 31.8639 60.4623 32.3213Z" fill="#0F190C"/>
<path d="M53.7578 7.13785C53.7578 7.35961 53.7578 7.51207 53.7578 7.71997C53.434 7.71997 53.1237 7.71997 52.7865 7.71997C52.7865 8.14963 52.7865 8.53771 52.7865 8.93964C53.1642 8.93964 53.5149 8.93964 53.9061 8.93964C53.9061 9.14754 53.9061 9.32772 53.9061 9.53562C53.3261 9.53562 52.7595 9.53562 52.1794 9.53562C52.1794 8.14963 52.1794 6.7775 52.1794 5.36379C52.746 5.36379 53.3126 5.36379 53.9061 5.36379C53.9061 5.5301 53.9061 5.69642 53.9061 5.90432C53.5284 5.90432 53.1777 5.90432 52.7865 5.90432C52.7865 6.32012 52.7865 6.7082 52.7865 7.13785C53.0967 7.13785 53.4205 7.13785 53.7578 7.13785Z" fill="#0F190C"/>
<path d="M46.9318 30.8106C46.7429 30.8106 46.5676 30.8106 46.3922 30.8106C46.3787 30.6858 46.3922 30.5472 46.3247 30.4779C46.2168 30.3671 46.0819 30.2285 45.947 30.2146C45.8526 30.2146 45.6772 30.4086 45.6637 30.5334C45.6368 31.3234 45.6502 32.0996 45.6502 32.8896C45.6502 33.0975 45.7447 33.2361 45.9605 33.2499C46.1764 33.2638 46.2978 33.1529 46.3517 32.9311C46.3652 32.848 46.3652 32.751 46.3787 32.6401C46.5541 32.6401 46.7429 32.6401 46.9183 32.6401C47.0532 33.2222 46.7025 33.7766 46.1764 33.8459C45.5423 33.9429 45.0837 33.5826 45.0702 32.9173C45.0432 32.1411 45.0432 31.365 45.0567 30.5888C45.0702 29.8958 45.4884 29.5078 46.1224 29.5632C46.6755 29.6464 47.0127 30.1314 46.9318 30.8106Z" fill="#0F190C"/>
<path d="M28.7472 29.6186C29.3408 29.6186 29.8939 29.6186 30.474 29.6186C30.474 29.7988 30.474 29.9651 30.474 30.1869C30.1097 30.1869 29.7455 30.1869 29.3543 30.1869C29.3543 30.6304 29.3543 31.0185 29.3543 31.462C29.6646 31.462 29.9748 31.462 30.3121 31.462C30.3121 31.656 30.3121 31.8362 30.3121 32.0441C30.0018 32.0441 29.6915 32.0441 29.3408 32.0441C29.3408 32.6539 29.3408 33.2361 29.3408 33.832C29.125 33.832 28.9496 33.832 28.7472 33.832C28.7472 32.4183 28.7472 31.0323 28.7472 29.6186Z" fill="#0F190C"/>
<path d="M68.246 33.832C67.9897 33.832 67.8279 33.832 67.558 33.832C67.8413 32.3352 67.2748 31.0046 66.8026 29.6741C67.3692 29.5355 67.4097 29.5493 67.558 30.0621C67.666 30.4364 67.7739 30.8244 67.9088 31.2818C68.0842 30.6858 68.2326 30.1592 68.3809 29.6325C68.5833 29.6325 68.7587 29.6325 69.0015 29.6325C68.5698 31.0046 67.9358 32.3213 68.246 33.832Z" fill="#0F190C"/>
<path d="M47.1341 5.36379C47.1341 5.54396 47.1341 5.69642 47.1341 5.8766C47.0802 5.89046 47.0262 5.90432 46.9858 5.91818C46.4596 5.9459 46.4596 5.9459 46.4596 6.47258C46.4596 7.48435 46.4596 8.50999 46.4596 9.54948C46.2573 9.54948 46.0819 9.54948 45.8661 9.54948C45.8661 8.35753 45.8661 7.16557 45.8661 5.9459C45.6368 5.9459 45.4344 5.9459 45.2051 5.9459C45.2051 5.738 45.2051 5.57168 45.2051 5.37765C45.8526 5.36379 46.4731 5.36379 47.1341 5.36379Z" fill="#0F190C"/>
</svg>
