<svg width="93" height="37" viewBox="0 0 93 37" fill="none" xmlns="http://www.w3.org/2000/svg">
<path d="M14.364 7.49775C14.5934 3.89527 16.3359 1.43845 19.5603 0C19.7773 0.776507 19.9696 1.483 20.1742 2.21495C18.7356 2.88962 17.6132 3.92709 17.0118 5.49283C16.7265 6.23752 16.5529 7.30044 16.6459 7.79053C17.0738 7.62505 17.4954 7.47229 17.9171 7.30681C18.9402 6.90582 19.9572 6.46665 21.0609 6.37754C23.8451 6.15477 26.2572 7.07131 28.2849 9.01258C30.2195 10.8711 31.2551 13.207 31.6395 15.8738C31.8193 17.1023 31.8875 18.3434 31.7697 19.5845C31.7325 20.0046 31.6395 20.0873 31.2241 20.0873C27.547 20.0873 23.8699 20.0873 20.1866 20.0937C19.951 20.0937 19.8517 20.0173 19.7649 19.7946C18.624 16.924 15.1949 15.9439 12.8262 17.8087C12.7766 17.8469 12.7332 17.8915 12.6588 17.9551C12.9998 18.2861 13.3285 18.6107 13.7129 18.9799C12.1999 19.1517 10.7923 19.3045 9.37235 19.4636C9.52117 18.0188 9.66999 16.5803 9.82501 15.0782C10.2281 15.4856 10.6249 15.8866 11.0342 16.3003C11.7721 15.6447 12.5782 15.161 13.4835 14.8618C16.3111 13.9262 19.4053 14.9891 21.1105 17.4841C21.2531 17.6878 21.3895 17.7706 21.6376 17.7706C24.1675 17.7578 26.7037 17.7642 29.2336 17.7642C29.3328 17.7642 29.4382 17.7642 29.5932 17.7642C29.5498 17.3059 29.5312 16.8795 29.4754 16.453C29.1716 14.0917 28.2973 12.0104 26.5052 10.4383C24.862 8.99985 22.9522 8.31881 20.7881 8.74525C20.013 8.89801 19.2813 9.24807 18.5248 9.5154C18.1341 9.65542 17.7497 9.80818 17.359 9.9482C16.3979 10.2919 15.4306 10.2983 14.4694 9.96093C13.7067 9.69361 12.9564 9.39446 12.1999 9.10168C9.36615 8.0133 6.93542 8.78981 4.83954 10.8584C3.20252 12.475 2.47703 14.5563 2.26 16.8413C2.20419 17.4587 2.2414 18.0888 2.2414 18.7125C2.2414 18.8398 2.2414 18.9608 2.2414 19.1135C1.4973 19.1135 0.778001 19.1135 0.0215001 19.1135C0.0215001 18.3307 -0.0343073 17.5605 0.0339018 16.7967C0.24473 14.1872 1.04464 11.794 2.75606 9.80181C4.87055 7.33226 7.5183 6.14204 10.7303 6.37754C11.8651 6.46028 12.9068 6.93128 13.961 7.34499C14.085 7.39591 14.209 7.44047 14.364 7.49775ZM18.7356 24.8228C18.7232 24.8419 18.717 24.861 18.7046 24.8737C18.6612 24.9182 18.6178 24.9628 18.5682 25.0073C17.1792 26.1912 15.6166 26.5285 13.93 25.8539C12.2495 25.1792 11.2946 23.8617 11.0652 22.0223C11.028 21.7422 10.9598 21.6595 10.6807 21.6595C7.45629 21.6722 4.23186 21.6658 1.00743 21.6658C0.449357 21.6658 0.343943 21.7931 0.449357 22.3532C0.7718 24.059 1.26787 25.7075 1.94996 27.2923C3.0599 29.8892 4.5171 32.2569 6.43936 34.3C7.18345 35.0828 8.03917 35.7193 9.07471 36.0376C10.2405 36.4004 11.3876 36.2285 12.51 35.8148C13.1424 35.5857 13.7563 35.3056 14.3826 35.0574C15.4616 34.6309 16.5405 34.6373 17.6194 35.0701C18.1775 35.2929 18.7294 35.5348 19.2875 35.7512C20.3416 36.1585 21.4268 36.3685 22.5367 36.1267C23.7087 35.8721 24.6636 35.1974 25.4821 34.3254C28.0802 31.5504 29.8599 28.2852 30.9636 24.6191C31.0504 24.339 31.1186 24.0526 31.2055 23.7217C30.5482 23.7217 29.9281 23.7408 29.3142 23.7153C29.0042 23.7026 28.8739 23.7917 28.7809 24.1099C27.8508 27.1841 26.3626 29.9401 24.2605 32.3269C23.8513 32.7915 23.3428 33.1734 22.8467 33.5489C22.3073 33.9563 21.6624 34.039 21.0423 33.8672C20.2858 33.6571 19.5479 33.3834 18.8224 33.0779C17.297 32.4415 15.753 32.2187 14.1594 32.7279C13.4525 32.9506 12.758 33.2371 12.0759 33.5426C10.5195 34.2491 9.18632 33.9499 8.02677 32.6897C6.10451 30.602 4.67832 28.2025 3.66139 25.5356C3.43816 24.9564 3.25833 24.3581 3.0475 23.7471C3.17152 23.7344 3.23973 23.7153 3.30794 23.7153C5.15578 23.7153 7.00983 23.7153 8.85768 23.7089C9.07471 23.7089 9.13051 23.8171 9.19872 23.989C10.6373 27.8715 15.0151 29.6282 18.6178 27.7442C19.2565 27.4132 19.8207 26.9359 20.509 26.4713C20.8253 26.8022 21.1911 27.1905 21.5446 27.5596C21.6934 26.1085 21.8484 24.6382 21.9972 23.1616C20.571 23.3461 19.1635 23.5243 17.7063 23.7153C18.0783 24.059 18.4318 24.39 18.7914 24.7209C18.779 24.7655 18.7542 24.7973 18.7356 24.8228ZM41.9701 19.2026C43.2537 19.4381 44.531 19.4254 45.734 18.8462C47.061 18.2097 47.7245 17.1086 47.7555 15.6129C47.7865 14.149 47.1044 13.137 45.827 12.5641C45.1759 12.2714 44.4814 12.0804 43.8055 11.8513C43.1234 11.6221 42.4227 11.4248 41.7531 11.1575C41.1826 10.9284 40.8787 10.4638 40.916 9.80818C40.9594 9.13987 41.3376 8.71343 41.9267 8.54158C42.3607 8.41428 42.8444 8.36336 43.2971 8.38882C44.283 8.44611 45.1449 8.88528 45.951 9.45175C46.044 9.5154 46.1308 9.57904 46.2363 9.64906C46.6331 9.07622 47.0052 8.53521 47.3834 7.98784C47.3028 7.91783 47.2532 7.86691 47.1974 7.82235C46.1929 7.03948 45.0643 6.57485 43.8117 6.44119C42.646 6.31389 41.5112 6.403 40.4757 7.02039C39.2665 7.74598 38.7147 8.84709 38.7643 10.2792C38.8077 11.6476 39.4712 12.596 40.6803 13.0988C41.443 13.417 42.2491 13.6143 43.0304 13.8817C43.6567 14.0917 44.3078 14.2572 44.8907 14.5627C45.8456 15.0719 45.8518 16.4021 44.9279 16.975C44.655 17.1468 44.3202 17.2614 44.004 17.3123C42.5282 17.5223 41.2322 17.045 40.0664 16.1412C39.9052 16.0139 39.744 15.8866 39.5642 15.7402C39.1301 16.2685 38.7147 16.7776 38.2744 17.3187C39.3595 18.3116 40.5749 18.948 41.9701 19.2026ZM51.2403 17.7324C51.2713 17.796 51.2961 17.8724 51.3395 17.9233C52.9518 19.9155 55.7049 19.5272 57.0939 17.9933C58.5697 16.3767 58.7557 13.3979 57.497 11.5139C56.1204 9.44538 52.9456 8.90437 51.2837 11.2212C51.2589 11.2594 51.2155 11.2848 51.1225 11.3612C51.1225 10.8393 51.1225 10.381 51.1225 9.89728C50.5272 9.89728 49.9692 9.91638 49.4111 9.89092C49.1258 9.87819 49.07 9.98003 49.07 10.2537C49.0762 14.009 49.0762 17.7578 49.0762 21.5131C49.0762 21.6276 49.0886 21.7358 49.0886 21.8631C49.7769 21.8631 50.4342 21.8631 51.1287 21.8631C51.1287 20.4947 51.1287 19.1454 51.1287 17.796C51.1721 17.7706 51.2031 17.7515 51.2403 17.7324ZM51.8914 12.335C53.1316 11.0239 55.2027 11.3867 55.9468 13.0606C56.3808 14.0408 56.3746 15.0464 55.9157 16.0139C55.4445 17.0068 54.6322 17.5032 53.5594 17.4396C52.4619 17.3759 51.7116 16.7522 51.3147 15.7147C51.1659 15.3265 51.1287 14.9 51.0357 14.4863C51.0977 13.6589 51.3333 12.9269 51.8914 12.335ZM48.0283 35.662C46.3541 31.7286 44.6799 27.7951 43.0118 23.8553C42.9436 23.6962 42.8568 23.6325 42.6894 23.6325C42.2367 23.6453 41.7779 23.6516 41.3252 23.6325C41.071 23.6198 40.947 23.7026 40.8415 23.9508C39.1983 27.8333 37.5489 31.7031 35.8995 35.5857C35.8623 35.6811 35.8251 35.7766 35.7755 35.9103C36.4328 35.9103 37.0404 35.9039 37.6481 35.9166C37.8465 35.923 37.9396 35.8466 38.014 35.6684C38.3426 34.8537 38.6899 34.0518 39.0123 33.2371C39.0929 33.0334 39.1921 32.9761 39.403 32.9761C41.0896 32.9825 42.77 32.9825 44.4566 32.9761C44.6674 32.9761 44.7667 33.0461 44.8411 33.2434C45.1635 34.0581 45.4984 34.8664 45.8394 35.6748C45.8766 35.7702 45.9758 35.8975 46.044 35.9039C46.7199 35.923 47.402 35.9166 48.1089 35.9166C48.0655 35.7957 48.0531 35.7257 48.0283 35.662ZM43.9482 31.0539C42.584 31.0539 41.2756 31.0539 39.899 31.0539C40.5687 29.45 41.226 27.8715 41.9143 26.2167C42.6088 27.8652 43.2723 29.4373 43.9482 31.0539ZM68.9127 14.5563C68.9313 11.8195 66.8974 9.7318 64.1752 9.70634C61.5213 9.67452 59.4006 11.7876 59.3758 14.4863C59.351 17.1723 61.4097 19.279 64.0884 19.2981C66.7672 19.3172 68.8941 17.2359 68.9127 14.5563ZM61.4283 14.499C61.4283 12.7933 62.5568 11.5649 64.1256 11.5649C65.6758 11.5649 66.854 12.8506 66.8602 14.5309C66.8664 16.2239 65.7255 17.465 64.1566 17.465C62.6126 17.465 61.4283 16.1794 61.4283 14.499ZM59.6859 33.2943C58.6069 34.3445 57.4039 34.7328 56.0336 34.0899C55.2337 33.7144 54.8554 32.9825 54.7004 32.0723C54.8678 32.0723 54.9856 32.0723 55.1096 32.0723C57.0443 32.0723 58.9728 32.0659 60.9074 32.0787C61.2113 32.0787 61.3229 31.9832 61.2919 31.684C61.2423 31.1367 61.2547 30.5766 61.1368 30.0419C60.7834 28.4253 59.9401 27.1905 58.3155 26.7195C56.6971 26.2549 55.2089 26.5604 53.9935 27.8015C52.4433 29.38 52.1704 32.1996 53.3982 34.0645C54.5082 35.7512 56.1204 36.2858 58.0178 36.0503C59.1774 35.9039 60.1199 35.3374 60.895 34.3827C60.4734 34.0136 60.0827 33.6571 59.6859 33.2943ZM54.7252 30.6529C54.6446 29.52 55.7049 28.3234 56.8335 28.2598C58.148 28.1834 59.1898 29.2081 59.227 30.6529C57.714 30.6529 56.2196 30.6529 54.7252 30.6529ZM86.089 13.3916C85.4441 10.0055 81.86 8.54794 79.2991 10.6165C77.3644 12.1823 76.9552 15.4156 78.431 17.4523C79.5595 19.0053 81.5438 19.6609 83.4846 19.1263C84.4147 18.8717 85.165 18.3498 85.7975 17.5732C85.3945 17.2041 85.0038 16.8477 84.5946 16.4785C84.0675 16.9877 83.5032 17.3887 82.7963 17.516C82.0956 17.6433 81.4136 17.586 80.7873 17.1977C80.099 16.7586 79.7331 16.103 79.6153 15.2565C80.7315 15.2565 81.8042 15.2565 82.8831 15.2565C83.9683 15.2565 85.0472 15.2565 86.12 15.2565C86.244 14.8173 86.2254 14.1299 86.089 13.3916ZM79.6401 13.8307C79.5471 12.7296 80.5888 11.5394 81.705 11.4503C83.032 11.3485 84.0489 12.3286 84.1419 13.8307C82.6227 13.8307 81.1345 13.8307 79.6401 13.8307ZM72.9308 34.1472C72.503 34.0581 72.2611 33.8035 72.1929 33.358C72.1681 33.1989 72.1619 33.0397 72.1619 32.8806C72.1619 31.5886 72.1619 30.2965 72.1619 28.9981C72.1619 28.8962 72.1743 28.7944 72.1805 28.648C72.9804 28.648 73.7617 28.648 74.5492 28.648C74.5492 27.967 74.5492 27.3305 74.5492 26.6622C73.7555 26.6622 72.9804 26.6622 72.1619 26.6622C72.1619 25.8284 72.1619 25.0201 72.1619 24.2181C71.455 24.2181 70.7977 24.2181 70.1032 24.2181C70.1032 25.0392 70.1032 25.8411 70.1032 26.6813C69.6754 26.6813 69.2909 26.6813 68.9065 26.6813C68.9065 27.356 68.9065 27.9861 68.9065 28.6608C69.3095 28.6608 69.7002 28.6608 70.1156 28.6608C70.1156 28.8135 70.1156 28.9281 70.1156 29.0426C70.1156 30.462 70.1094 31.8813 70.1156 33.3071C70.1156 33.5807 70.1342 33.8608 70.1776 34.1281C70.3017 34.9174 70.6675 35.5602 71.4364 35.8466C72.4223 36.2094 73.4083 36.1458 74.357 35.6939C74.4314 35.6557 74.5368 35.5729 74.5368 35.5093C74.5492 34.981 74.543 34.4591 74.543 33.8863C73.9725 34.109 73.4703 34.2554 72.9308 34.1472ZM89.5862 18.7316C89.5862 17.7578 89.5738 16.784 89.5924 15.8038C89.5986 15.3583 89.6234 14.9128 89.704 14.4736C89.9955 12.9142 90.9628 12.0613 92.5006 11.9658C92.5812 11.9595 92.6556 11.9404 92.7301 11.9277C92.7301 11.1893 92.7301 10.4701 92.7301 9.7318C91.2171 9.69361 90.2683 10.4956 89.5738 11.7749C89.5738 11.1575 89.5738 10.5401 89.5738 9.91638C88.8793 9.91638 88.2221 9.91638 87.5586 9.91638C87.5586 12.9842 87.5586 16.0266 87.5586 19.0753C88.2345 19.0753 88.8793 19.0753 89.5862 19.0753C89.5862 18.9353 89.5862 18.8335 89.5862 18.7316ZM74.419 6.38391C74.0904 6.36481 74.0284 6.48574 74.0346 6.79762C74.047 10.6038 74.0408 14.4099 74.0408 18.2161C74.0408 18.4961 73.9725 18.8653 74.1152 19.0372C74.2392 19.1772 74.6174 19.0944 74.8841 19.0944C75.2809 19.1008 75.6778 19.0944 76.087 19.0944C76.087 14.8427 76.087 10.6483 76.087 6.39664C75.5104 6.39027 74.9647 6.40937 74.419 6.38391ZM51.1597 23.2316C50.4714 23.2316 49.8079 23.2316 49.1444 23.2316C49.1444 27.4642 49.1444 31.6649 49.1444 35.8848C49.8203 35.8848 50.4776 35.8848 51.1597 35.8848C51.1597 31.6522 51.1597 27.4387 51.1597 23.2316ZM66.0479 27.1205C65.4836 27.4769 65.1116 28.0052 64.8139 28.6035C64.7891 28.5907 64.7705 28.578 64.7457 28.5653C64.7457 27.967 64.7457 27.3623 64.7457 26.7449C64.0574 26.7449 63.3939 26.7449 62.7181 26.7449C62.7181 29.8001 62.7181 32.8361 62.7181 35.8784C63.4063 35.8784 64.0636 35.8784 64.7581 35.8784C64.7581 35.0192 64.7519 34.179 64.7581 33.3453C64.7643 32.7088 64.7457 32.0659 64.8325 31.4422C65.0806 29.6982 66.1843 28.718 67.6849 28.6735C67.7531 28.6735 67.8213 28.648 67.8957 28.6353C67.8957 27.9797 67.8957 27.3369 67.8957 26.6622C67.2199 26.6304 66.6122 26.764 66.0479 27.1205ZM70.1094 9.91638C70.1094 10.0628 70.1094 10.1901 70.1094 10.311C70.1094 12.6723 70.1094 15.0401 70.1094 17.4014C70.1094 17.866 70.1218 18.337 70.1032 18.8017C70.097 19.0244 70.1652 19.0944 70.3823 19.0881C70.8907 19.0753 71.393 19.0817 71.9015 19.0817C71.9821 19.0817 72.0565 19.0626 72.1433 19.0499C72.1433 15.9948 72.1433 12.9651 72.1433 9.91001C71.455 9.91638 70.7977 9.91638 70.1094 9.91638ZM72.1991 8.47793C72.1991 7.80963 72.1991 7.16678 72.1991 6.51757C71.4612 6.51757 70.7605 6.51757 70.035 6.51757C70.035 7.17314 70.035 7.80326 70.035 8.47793C70.7729 8.47793 71.4798 8.47793 72.1991 8.47793Z" fill="#0F190C"/>
</svg>
