<svg width="178" height="69" viewBox="0 0 178 69" fill="none" xmlns="http://www.w3.org/2000/svg">
<path d="M28.3643 14.2772C28.8022 7.41738 32.1281 2.7391 38.2828 0C38.6971 1.47863 39.064 2.82394 39.4546 4.21773C36.7086 5.50244 34.5663 7.47798 33.4183 10.4595C32.8738 11.8775 32.5424 13.9015 32.7199 14.8348C33.5366 14.5196 34.3415 14.2288 35.1463 13.9136C37.0992 13.1501 39.0403 12.3138 41.1471 12.1441C46.4614 11.7199 51.0656 13.4652 54.936 17.1618C58.6288 20.7008 60.6054 25.1488 61.3392 30.227C61.6825 32.5662 61.8126 34.9296 61.5878 37.2929C61.5168 38.0928 61.3392 38.2504 60.5462 38.2504C53.5275 38.2504 46.5088 38.2504 39.4783 38.2625C39.0285 38.2625 38.8391 38.1171 38.6734 37.6929C36.4956 32.2268 29.9503 30.3604 25.429 33.9115C25.3343 33.9842 25.2515 34.069 25.1094 34.1902C25.7604 34.8205 26.3877 35.4386 27.1215 36.1415C24.2336 36.4688 21.5468 36.7597 18.8364 37.0627C19.1205 34.3114 19.4045 31.5723 19.7004 28.712C20.4698 29.4877 21.2273 30.2513 22.0084 31.0391C23.4169 29.7907 24.9556 28.8696 26.6836 28.3C32.0808 26.5183 37.9869 28.5424 41.2418 33.2934C41.514 33.6812 41.7744 33.8388 42.2479 33.8388C47.0769 33.8145 51.9178 33.8266 56.7469 33.8266C56.9362 33.8266 57.1375 33.8266 57.4334 33.8266C57.3505 32.954 57.315 32.142 57.2085 31.3299C56.6285 26.8335 54.9596 22.8703 51.5391 19.8766C48.4025 17.1375 44.7571 15.8407 40.6263 16.6527C39.1468 16.9436 37.7502 17.6102 36.3062 18.1193C35.5606 18.3859 34.8267 18.6768 34.0811 18.9434C32.2465 19.5979 30.4001 19.61 28.5655 18.9676C27.1097 18.4586 25.6776 17.889 24.2336 17.3315C18.8246 15.259 14.1849 16.7376 10.1843 20.6766C7.05965 23.755 5.67484 27.7182 5.26059 32.0693C5.15406 33.2449 5.22508 34.4448 5.22508 35.6325C5.22508 35.8749 5.22508 36.1052 5.22508 36.3961C3.80477 36.3961 2.4318 36.3961 0.987816 36.3961C0.987816 34.9053 0.881293 33.4388 1.01149 31.9844C1.41391 27.0153 2.94074 22.4582 6.20746 18.6646C10.2435 13.9621 15.2975 11.6957 21.4285 12.1441C23.5944 12.3017 25.5829 13.1986 27.595 13.9864C27.8317 14.0833 28.0684 14.1682 28.3643 14.2772ZM36.7086 47.2676C36.685 47.304 36.6731 47.3403 36.6495 47.3646C36.5666 47.4494 36.4838 47.5343 36.3891 47.6191C33.7378 49.8734 30.7552 50.5158 27.5358 49.231C24.3283 47.9463 22.5055 45.4375 22.0676 41.9349C21.9966 41.4016 21.8664 41.244 21.3338 41.244C15.1791 41.2683 9.02441 41.2561 2.86973 41.2561C1.8045 41.2561 1.60328 41.4985 1.8045 42.5651C2.41996 45.8132 3.36684 48.9523 4.66879 51.9701C6.78742 56.9151 9.56886 61.4237 13.238 65.3141C14.6583 66.8049 16.2917 68.0169 18.2683 68.6229C20.4934 69.3137 22.6831 68.9865 24.8254 68.1987C26.0326 67.7624 27.2044 67.2291 28.3998 66.7564C30.4593 65.9444 32.5187 65.9565 34.5782 66.7807C35.6434 67.2048 36.6968 67.6654 37.762 68.0775C39.7742 68.8532 41.8454 69.2531 43.9641 68.7926C46.2011 68.3078 48.0238 67.023 49.5861 65.3626C54.5454 60.0784 57.9423 53.8608 60.0491 46.8798C60.2148 46.3465 60.345 45.8011 60.5107 45.1709C59.2561 45.1709 58.0725 45.2072 56.9007 45.1588C56.3089 45.1345 56.0604 45.3042 55.8828 45.9102C54.1075 51.7641 51.2668 57.012 47.2545 61.557C46.4733 62.4417 45.5027 63.1689 44.5559 63.884C43.5261 64.6597 42.2952 64.8172 41.1116 64.49C39.6676 64.09 38.2592 63.5689 36.8743 62.9871C33.9627 61.7751 31.0156 61.3509 27.9737 62.3205C26.6244 62.7447 25.2988 63.2901 23.9969 63.8719C21.026 65.2172 18.4813 64.6476 16.268 62.2478C12.5989 58.2725 9.8766 53.7033 7.93551 48.625C7.50941 47.5221 7.16617 46.3829 6.76375 45.2194C7.00047 45.1951 7.13066 45.1588 7.26086 45.1588C10.788 45.1588 14.3269 45.1588 17.854 45.1466C18.2683 45.1466 18.3748 45.3527 18.505 45.6799C21.2509 53.073 29.6071 56.4181 36.4838 52.8307C37.7029 52.2004 38.7799 51.2914 40.0937 50.4067C40.6974 51.0369 41.3957 51.7762 42.0703 52.4792C42.3544 49.7158 42.6503 46.9161 42.9343 44.1043C40.2121 44.4558 37.5253 44.7952 34.7439 45.1588C35.454 45.8132 36.1287 46.4435 36.8152 47.0737C36.7915 47.1585 36.7442 47.2191 36.7086 47.2676ZM81.0579 36.5657C83.5079 37.0142 85.9461 36.9899 88.2423 35.887C90.7752 34.675 92.0416 32.5783 92.1008 29.7301C92.16 26.9425 90.858 25.0155 88.4198 23.9247C87.177 23.3672 85.8514 23.0036 84.5613 22.5673C83.2594 22.1309 81.9219 21.7552 80.6436 21.2462C79.5547 20.8099 78.9747 19.9251 79.0458 18.6768C79.1286 17.4042 79.8506 16.5921 80.975 16.2649C81.8035 16.0225 82.7267 15.9256 83.5908 15.974C85.4727 16.0831 87.1179 16.9194 88.6565 17.9981C88.8341 18.1193 88.9998 18.2405 89.201 18.3738C89.9585 17.283 90.6686 16.2528 91.3906 15.2105C91.2368 15.0772 91.1421 14.9802 91.0356 14.8954C89.1181 13.4046 86.964 12.5199 84.5731 12.2653C82.348 12.0229 80.182 12.1926 78.2054 13.3683C75.8974 14.7499 74.844 16.8467 74.9387 19.5736C75.0215 22.1794 76.288 23.9853 78.596 24.9428C80.0518 25.5488 81.5905 25.9245 83.0818 26.4335C84.2772 26.8335 85.52 27.1486 86.6326 27.7303C88.4553 28.6999 88.4672 31.233 86.7036 32.3238C86.1828 32.651 85.5437 32.8692 84.94 32.9661C82.1231 33.3661 79.6494 32.4571 77.4242 30.7361C77.1165 30.4937 76.8088 30.2513 76.4655 29.9725C75.637 30.9785 74.844 31.9481 74.0037 32.9783C76.0749 34.869 78.3948 36.0809 81.0579 36.5657ZM98.7526 33.766C98.8118 33.8872 98.8591 34.0327 98.942 34.1296C102.019 37.9232 107.274 37.1839 109.926 34.263C112.743 31.1845 113.098 25.5124 110.695 21.9249C108.067 17.9859 102.007 16.9557 98.8354 21.3674C98.7881 21.4401 98.7052 21.4886 98.5277 21.634C98.5277 20.6402 98.5277 19.7676 98.5277 18.8464C97.3914 18.8464 96.3262 18.8828 95.261 18.8343C94.7165 18.8101 94.61 19.004 94.61 19.5252C94.6218 26.6759 94.6218 33.8145 94.6218 40.9653C94.6218 41.1834 94.6455 41.3895 94.6455 41.6319C95.9593 41.6319 97.2139 41.6319 98.5395 41.6319C98.5395 39.0261 98.5395 36.4567 98.5395 33.8872C98.6224 33.8388 98.6816 33.8024 98.7526 33.766ZM99.9954 23.4884C102.363 20.9917 106.316 21.6825 107.736 24.87C108.565 26.7365 108.553 28.6514 107.677 30.4937C106.777 32.3844 105.227 33.3297 103.179 33.2085C101.084 33.0873 99.6521 31.8996 98.8946 29.924C98.6105 29.1847 98.5395 28.3727 98.362 27.5849C98.4804 26.0093 98.9301 24.6155 99.9954 23.4884ZM92.6216 67.9078C89.4259 60.4177 86.2302 52.9276 83.0463 45.4254C82.9161 45.1224 82.7504 45.0012 82.4308 45.0012C81.5668 45.0254 80.691 45.0376 79.8269 45.0012C79.3417 44.977 79.1049 45.1345 78.9037 45.6072C75.7672 53.0003 72.6189 60.3692 69.4705 67.7624C69.3995 67.9442 69.3285 68.126 69.2338 68.3805C70.4884 68.3805 71.6483 68.3684 72.8082 68.3926C73.187 68.4047 73.3645 68.2593 73.5065 67.9199C74.1339 66.3686 74.7967 64.8415 75.4121 63.2901C75.566 62.9023 75.7554 62.7932 76.1578 62.7932C79.3772 62.8053 82.5847 62.8053 85.8041 62.7932C86.2065 62.7932 86.3959 62.9265 86.5379 63.3022C87.1534 64.8536 87.7925 66.3928 88.4435 67.932C88.5145 68.1138 88.7039 68.3562 88.8341 68.3684C90.1242 68.4047 91.4261 68.3926 92.7754 68.3926C92.6926 68.1623 92.6689 68.029 92.6216 67.9078ZM84.8335 59.133C82.2296 59.133 79.7322 59.133 77.1047 59.133C78.3829 56.0788 79.6376 53.073 80.9513 49.9219C82.277 53.0609 83.5434 56.0545 84.8335 59.133ZM132.485 27.7182C132.52 22.5067 128.638 18.5313 123.442 18.4828C118.377 18.4222 114.329 22.4461 114.281 27.5849C114.234 32.6995 118.163 36.7112 123.277 36.7475C128.39 36.7839 132.449 32.8207 132.485 27.7182ZM118.199 27.6091C118.199 24.361 120.353 22.0219 123.348 22.0219C126.307 22.0219 128.555 24.4701 128.567 27.6697C128.579 30.8936 126.401 33.257 123.407 33.257C120.46 33.257 118.199 30.8088 118.199 27.6091ZM114.873 63.3992C112.814 65.399 110.517 66.1383 107.902 64.9142C106.375 64.1991 105.653 62.8053 105.357 61.0722C105.677 61.0722 105.901 61.0722 106.138 61.0722C109.831 61.0722 113.512 61.0601 117.205 61.0843C117.785 61.0843 117.998 60.9025 117.939 60.3329C117.844 59.2906 117.868 58.224 117.643 57.2059C116.968 54.1275 115.358 51.7762 112.257 50.8793C109.168 49.9946 106.328 50.5763 104.008 52.9397C101.049 55.9455 100.528 61.3146 102.871 64.8657C104.99 68.0775 108.067 69.0956 111.689 68.6471C113.903 68.3684 115.702 67.2897 117.181 65.4717C116.376 64.7688 115.631 64.09 114.873 63.3992ZM105.404 58.3694C105.251 56.2121 107.274 53.9336 109.429 53.8124C111.938 53.6669 113.926 55.6182 113.997 58.3694C111.109 58.3694 108.257 58.3694 105.404 58.3694ZM165.27 25.5003C164.04 19.0525 157.198 16.277 152.31 20.216C148.617 23.1975 147.836 29.3544 150.653 33.2328C152.807 36.19 156.595 37.4384 160.299 36.4203C162.075 35.9355 163.507 34.9417 164.714 33.463C163.945 32.7601 163.199 32.0814 162.418 31.3784C161.412 32.348 160.335 33.1116 158.986 33.354C157.648 33.5964 156.346 33.4873 155.151 32.748C153.837 31.9117 153.139 30.6633 152.914 29.0514C155.044 29.0514 157.092 29.0514 159.151 29.0514C161.223 29.0514 163.282 29.0514 165.33 29.0514C165.566 28.2151 165.531 26.9062 165.27 25.5003ZM152.961 26.3365C152.784 24.2398 154.772 21.9734 156.902 21.8037C159.435 21.6098 161.376 23.4762 161.554 26.3365C158.654 26.3365 155.814 26.3365 152.961 26.3365ZM140.155 65.0233C139.338 64.8536 138.876 64.3688 138.746 63.5204C138.699 63.2174 138.687 62.9144 138.687 62.6114C138.687 60.1511 138.687 57.6907 138.687 55.2183C138.687 55.0244 138.711 54.8304 138.723 54.5517C140.249 54.5517 141.741 54.5517 143.244 54.5517C143.244 53.2548 143.244 52.0429 143.244 50.7703C141.729 50.7703 140.249 50.7703 138.687 50.7703C138.687 49.1826 138.687 47.6433 138.687 46.1162C137.338 46.1162 136.083 46.1162 134.757 46.1162C134.757 47.6797 134.757 49.2068 134.757 50.8066C133.941 50.8066 133.207 50.8066 132.473 50.8066C132.473 52.0913 132.473 53.2912 132.473 54.5759C133.242 54.5759 133.988 54.5759 134.781 54.5759C134.781 54.8668 134.781 55.0849 134.781 55.3031C134.781 58.0058 134.769 60.7086 134.781 63.4234C134.781 63.9446 134.817 64.4779 134.899 64.9869C135.136 66.4898 135.835 67.7139 137.302 68.2593C139.184 68.9501 141.066 68.8289 142.877 67.9684C143.019 67.8957 143.22 67.7381 143.22 67.6169C143.244 66.611 143.232 65.6171 143.232 64.5264C142.143 64.9506 141.184 65.2293 140.155 65.0233ZM171.946 35.6689C171.946 33.8145 171.922 31.9602 171.958 30.0937C171.97 29.2453 172.017 28.3969 172.171 27.5607C172.727 24.5913 174.574 22.9672 177.509 22.7854C177.663 22.7733 177.805 22.7369 177.947 22.7127C177.947 21.3068 177.947 19.9372 177.947 18.5313C175.059 18.4586 173.248 19.9857 171.922 22.4218C171.922 21.2462 171.922 20.0706 171.922 18.8828C170.597 18.8828 169.342 18.8828 168.076 18.8828C168.076 24.7246 168.076 30.5179 168.076 36.3233C169.366 36.3233 170.597 36.3233 171.946 36.3233C171.946 36.0567 171.946 35.8628 171.946 35.6689ZM142.995 12.1563C142.368 12.1199 142.25 12.3502 142.261 12.9441C142.285 20.1918 142.273 27.4395 142.273 34.6872C142.273 35.2204 142.143 35.9234 142.415 36.2506C142.652 36.5173 143.374 36.3597 143.883 36.3597C144.64 36.3718 145.398 36.3597 146.179 36.3597C146.179 28.2636 146.179 20.2766 146.179 12.1805C145.078 12.1684 144.037 12.2047 142.995 12.1563ZM98.5987 44.2376C97.2849 44.2376 96.0185 44.2376 94.752 44.2376C94.752 52.2974 94.752 60.2965 94.752 68.332C96.0422 68.332 97.2968 68.332 98.5987 68.332C98.5987 60.2723 98.5987 52.2489 98.5987 44.2376ZM127.017 51.6429C125.94 52.3216 125.23 53.3276 124.661 54.4668C124.614 54.4426 124.579 54.4184 124.531 54.3941C124.531 53.2548 124.531 52.1035 124.531 50.9278C123.217 50.9278 121.951 50.9278 120.661 50.9278C120.661 56.7454 120.661 62.5266 120.661 68.3199C121.975 68.3199 123.229 68.3199 124.555 68.3199C124.555 66.6837 124.543 65.0839 124.555 63.4962C124.567 62.2842 124.531 61.0601 124.697 59.8723C125.17 56.5515 127.277 54.685 130.141 54.6002C130.272 54.6002 130.402 54.5517 130.544 54.5274C130.544 53.2791 130.544 52.055 130.544 50.7703C129.254 50.7097 128.094 50.9642 127.017 51.6429ZM134.769 18.8828C134.769 19.1616 134.769 19.404 134.769 19.6342C134.769 24.1307 134.769 28.6393 134.769 33.1358C134.769 34.0206 134.793 34.9174 134.757 35.8022C134.746 36.2264 134.876 36.3597 135.29 36.3476C136.261 36.3233 137.219 36.3355 138.19 36.3355C138.344 36.3355 138.486 36.2991 138.651 36.2749C138.651 30.4573 138.651 24.6882 138.651 18.8707C137.338 18.8828 136.083 18.8828 134.769 18.8828ZM138.758 16.1437C138.758 14.8711 138.758 13.647 138.758 12.4108C137.35 12.4108 136.012 12.4108 134.627 12.4108C134.627 13.6591 134.627 14.859 134.627 16.1437C136.036 16.1437 137.385 16.1437 138.758 16.1437Z" fill="#0F190C"/>
</svg>
