<svg width="216" height="59" viewBox="0 0 216 59" fill="none" xmlns="http://www.w3.org/2000/svg">
<path d="M215.077 44.7042C215.203 46.2761 214.91 46.9498 213.823 47.3786C212.883 47.746 211.879 47.8277 210.876 47.6031C209.121 47.2152 209.12 47.1948 209.267 45.2962C210.019 45.6228 210.625 46.1128 211.42 46.1741C211.587 46.1945 211.754 46.2353 211.942 46.2353C212.653 46.2761 213.405 46.1128 213.531 45.4187C213.677 44.6021 212.778 44.6838 212.277 44.5204C211.691 44.3367 211.043 44.4184 210.479 44.1325C209.748 43.7651 209.246 43.2547 209.225 42.4177C209.183 41.5602 209.455 40.8253 210.249 40.3557C211.524 39.58 212.841 39.682 214.199 40.0903C215.161 40.3761 214.994 41.1111 214.868 41.744C214.785 42.1523 214.408 41.9481 214.137 41.8052C213.363 41.3765 212.548 40.9886 211.629 41.4173C211.252 41.5806 210.939 41.7848 210.96 42.2339C210.981 42.6626 211.357 42.7443 211.691 42.8056C212.297 42.928 212.883 43.071 213.489 43.1934C214.325 43.3568 215.015 43.7242 215.077 44.7042ZM214.68 25.5751C214.283 24.1257 213.28 23.1049 212.005 22.3291C210.521 21.4309 208.87 21.043 207.198 20.7572C205.379 20.4305 203.519 20.4509 201.784 19.7772C200.029 19.1035 199.757 17.3478 201.199 16.1637C201.826 15.6534 202.579 15.3675 203.373 15.2655C206.821 14.8163 210.019 15.4084 212.82 17.5316C213.008 17.6745 213.154 17.9603 213.426 17.8378C213.761 17.6949 213.572 17.3682 213.593 17.1233C213.614 16.3679 213.593 15.6329 213.593 14.8776C213.593 14.306 213.51 13.7139 213.614 13.1423C213.781 12.0399 213.301 11.4887 212.277 11.1212C208.201 9.6513 204.062 9.3859 199.903 10.6721C196.475 11.7336 194.532 14.2855 194.302 17.7765C194.03 21.6758 195.723 24.0848 199.569 25.2893C200.865 25.6976 202.202 25.9222 203.54 26.0855C204.961 26.2488 206.382 26.3713 207.72 26.9225C209.497 27.6575 209.706 29.5765 208.18 30.7402C207.49 31.2506 206.696 31.4751 205.86 31.5568C202.014 31.9243 198.461 31.1485 195.284 28.9436C195.075 28.8007 194.866 28.4537 194.594 28.5762C194.26 28.7191 194.427 29.1274 194.427 29.3928C194.406 30.7606 194.511 32.1284 194.385 33.4758C194.302 34.4762 194.741 34.9457 195.598 35.2928C199.945 37.1097 204.439 37.4364 208.974 36.3135C214.555 34.9457 215.997 30.4748 214.68 25.5751ZM100.603 39.9066C100.038 39.9066 99.8921 40.1516 99.913 40.6415C99.9339 41.6623 99.913 42.6831 99.913 43.7038C99.913 44.7246 99.9339 45.7453 99.913 46.7661C99.8921 47.3581 100.185 47.5215 100.728 47.5215C101.313 47.5419 101.418 47.2356 101.418 46.7661C101.418 44.7246 101.397 42.6831 101.418 40.6415C101.418 40.0495 101.146 39.9066 100.603 39.9066ZM110.99 39.9474C109.318 39.9474 107.646 39.9474 105.995 39.9066C105.347 39.8862 105.138 40.1108 105.159 40.7232C105.18 42.7239 105.201 44.7246 105.159 46.7253C105.138 47.4194 105.494 47.4806 106.058 47.501C106.601 47.501 106.852 47.3786 106.873 46.7661C106.957 44.6838 106.978 44.6021 109.047 44.6633C110.322 44.7042 110.259 44.0305 110.154 43.2139C110.092 43.2139 110.029 43.1934 109.966 43.173C109.277 43.173 108.587 43.173 107.897 43.2139C107.249 43.2343 106.789 43.2343 106.81 42.3564C106.81 41.499 107.166 41.3152 107.918 41.3969C108.461 41.4582 109.026 41.4173 109.569 41.3969C111.032 41.3765 111.032 41.3765 110.99 39.9474ZM93.6427 46.072C92.7649 46.1332 92.5767 45.7862 92.5976 45.0308C92.6395 43.5813 92.5976 42.1114 92.6185 40.6415C92.6185 40.0495 92.3468 39.8862 91.8034 39.9066C91.3227 39.927 90.9047 39.9066 90.9256 40.5803C90.9465 42.6422 90.9465 44.7246 90.9256 46.7865C90.9256 47.3173 91.1555 47.501 91.678 47.4806C92.8694 47.4602 94.0398 47.4806 95.2312 47.4602C96.6315 47.4602 96.6315 47.4398 96.5688 46.0516C95.5865 46.072 94.6041 45.9903 93.6427 46.072ZM50.9629 13.8772C50.4613 13.3669 50.1269 13.3464 49.6462 13.8977C48.7265 14.9592 47.786 16.0004 46.7827 16.9803C46.2184 17.5316 46.3229 17.8786 46.8454 18.3686C47.9114 19.3689 48.7474 20.5326 49.3745 21.8187C52.0707 27.3104 52.0498 32.8225 49.4999 38.3346C47.6397 42.3564 44.7344 45.5616 41.2649 48.2972C41.0141 48.5014 40.7215 48.8689 40.387 48.726C40.0317 48.5626 40.1989 48.1135 40.1571 47.7869C39.969 46.3986 39.7809 45.0308 39.6346 43.6426C39.133 39.0083 38.3179 34.4149 38.0879 29.7807C37.8998 26.2488 38.2342 22.7987 40.0944 19.6343C41.8292 16.6945 44.2328 14.3672 46.9081 12.3053C49.5835 10.2433 52.4678 8.46722 55.4566 6.85442C56.2927 6.40528 56.3554 6.01739 55.8538 5.30286C55.3521 4.56791 54.9341 3.79214 54.4743 3.01636C53.3665 1.13816 53.3665 1.09733 51.4855 2.19975C46.302 5.20079 41.2649 8.38555 37.3773 12.9994C34.5975 16.2862 32.8209 20.0018 32.2148 24.2686C31.5877 28.7395 32.2357 33.1492 32.7373 37.5589C33.3643 42.9485 34.0541 48.3381 34.7229 53.7277C34.9319 55.3609 35.1409 57.0145 35.3499 58.709C40.9305 56.0346 46.0512 52.9519 50.0433 48.3585C56.021 41.5194 58.759 33.7616 56.8779 24.7789C56.0001 20.5938 53.9727 16.9803 50.9629 13.8772ZM135.445 36.5381C135.528 36.5177 135.591 36.4768 135.675 36.4564C135.654 34.7211 135.633 32.9859 135.612 31.2506C131.453 31.2506 127.272 31.2506 123.113 31.2506C122.653 31.2506 122.131 31.3935 122.131 30.5973C122.152 23.9011 122.173 17.2253 122.173 10.5291C122.047 10.0188 121.545 10.3046 121.253 10.1413C119.581 10.1617 117.909 10.1617 116.258 10.1821L116.216 10.2025C116.195 10.815 116.132 11.4274 116.132 12.0195C116.132 19.716 116.132 27.4125 116.132 35.1294C116.132 35.4969 116.09 35.8644 116.069 36.2319C116.132 36.3135 116.195 36.4156 116.258 36.4973C122.632 36.5381 129.028 36.5381 135.445 36.5381ZM135.591 31.2301C135.612 31.2506 135.612 31.2506 135.591 31.2301V31.2301ZM5.00171 1.24024C4.52099 0.954427 4.35379 1.24024 4.14478 1.60771C3.41324 2.85304 2.68171 4.07795 1.90837 5.28245C1.53215 5.87449 1.55306 6.22154 2.26369 6.60943C5.79595 8.58971 9.22371 10.7333 12.3171 13.326C17.1661 17.3886 20.0295 22.3087 19.6951 28.7599C19.507 32.2305 18.9636 35.6602 18.5664 39.09C18.1902 42.3156 17.7304 45.5412 17.3124 48.7668C17.1661 48.7464 17.0825 48.7668 17.0407 48.726C16.8735 48.6239 16.6854 48.5014 16.539 48.3789C12.8814 45.5616 9.95524 42.1523 8.01145 37.9876C4.95991 31.3935 6.00496 23.0437 11.0839 18.0419C11.5228 17.6132 11.4601 17.3682 11.0839 16.9599C10.0597 15.8983 9.0565 14.8163 8.09506 13.6935C7.67704 13.2035 7.36352 13.2035 6.9246 13.6527C5.96316 14.6326 5.00171 15.6125 4.24928 16.7762C-0.787852 24.5952 -1.10137 32.7613 2.76531 41.0703C6.69469 49.4813 13.7801 54.6668 22.1405 58.6273C22.3704 56.9329 22.6003 55.2996 22.8093 53.6664C23.3528 49.5222 23.9171 45.3779 24.4187 41.2336C24.8785 37.4159 25.4847 33.6391 25.7146 29.8011C26.1117 23.3295 24.4396 17.5111 20.0504 12.5094C15.8702 7.71185 10.4778 4.42501 5.00171 1.24024ZM205.944 39.927C204.251 39.9474 202.537 39.9474 200.844 39.927C200.426 39.927 200.258 40.0699 200.217 40.4986C200.091 41.499 200.781 41.4377 201.387 41.3561C202.307 41.254 202.641 41.5806 202.537 42.4789C202.453 43.1118 202.516 43.7651 202.516 44.4184C202.516 45.1941 202.537 45.9699 202.516 46.7457C202.495 47.3173 202.704 47.5215 203.31 47.501C203.833 47.4806 204.271 47.501 204.251 46.7661C204.209 45.6229 204.251 44.4592 204.251 43.3159C204.251 41.5602 204.251 41.5398 205.964 41.3765C206.529 41.3152 206.529 41.0294 206.55 40.6415C206.529 40.2332 206.529 39.9066 205.944 39.927ZM76.5248 39.9066C76.483 39.927 76.4203 39.9474 76.3576 39.9474C76.3367 41.2132 76.3158 42.4585 76.3158 43.7242C76.3158 44.2754 76.1695 44.7858 75.9605 45.2962C75.7097 45.9291 75.1871 46.2353 74.4974 46.2557C73.7659 46.2761 73.2225 46.0107 72.9089 45.337C72.679 44.8471 72.5327 44.3367 72.5327 43.7651C72.5536 42.7035 72.5118 41.6623 72.5327 40.6007C72.5536 40.0495 72.261 39.927 71.7594 39.927C71.2996 39.9474 71.0488 40.0495 71.0488 40.5599C71.0697 42.1114 70.9861 43.6834 71.0906 45.235C71.1951 46.9703 73.1598 48.0523 75.1662 47.644C76.8801 47.2765 77.758 46.2149 77.758 44.4796C77.758 43.3976 77.6744 42.2952 77.7789 41.2132C77.8834 40.2332 77.5908 39.7433 76.5248 39.9066ZM87.6023 42.7035C87.5814 44.153 86.829 44.8267 85.1987 44.8471C85.136 44.8471 85.0524 44.8471 84.9897 44.8471C83.0877 44.8471 83.0459 44.8471 83.025 46.664C83.025 47.3581 82.7324 47.4806 82.1054 47.5215C81.3529 47.5419 81.3111 47.154 81.332 46.6436C81.332 46.1332 81.332 45.6229 81.332 45.1125C81.332 44.6429 81.332 44.153 81.332 43.6834C81.332 42.7239 81.3529 41.7848 81.332 40.8253C81.3111 40.1924 81.4992 39.9066 82.2099 39.927C83.2131 39.9883 84.2373 39.927 85.2405 39.9474C86.8081 39.9678 87.6232 40.9478 87.6023 42.7035ZM86.0975 42.2543C85.972 41.7848 85.6167 41.4377 85.0733 41.3765C84.8225 41.3561 84.5926 41.3765 84.3418 41.3765C84.1746 41.3765 83.9865 41.3969 83.8192 41.3765C82.7115 41.2744 83.0668 42.091 83.025 42.6218C82.9623 43.1934 83.0041 43.7038 83.882 43.6222C84.4045 43.5609 84.9061 43.5609 85.4077 43.3568C85.8884 43.1322 86.2229 42.7851 86.0975 42.2543ZM34.2631 5.52743C34.2631 2.83262 32.0685 0.750275 29.2677 0.750275C26.9268 0.382802 24.1679 2.50598 24.1679 5.60909C24.1679 8.26306 26.467 10.4883 29.1423 10.4883C31.964 10.5087 34.284 8.26306 34.2631 5.52743ZM178.166 43.2955C177.414 43.0097 176.62 42.9689 175.867 42.7851C175.449 42.6831 175.094 42.5606 175.073 42.1523C175.052 41.744 175.449 41.5602 175.804 41.3969C176.933 40.8661 177.853 41.5398 178.814 41.9277C179.19 40.3353 179.002 40.0495 177.497 39.9066C177.288 39.8862 177.079 39.8658 176.891 39.8249C175.052 39.6004 173.735 40.4374 173.547 41.744C173.296 43.3772 174.132 44.2346 176.076 44.3979C176.578 44.4388 177.017 44.6225 177.456 44.8062C178.062 45.0716 177.978 45.4595 177.581 45.827C177.267 46.1128 176.87 46.1945 176.431 46.2149C175.386 46.2761 174.529 45.7658 173.443 45.235C173.798 45.9903 173.066 46.8273 174.007 47.2356C175.303 47.7869 176.682 47.8685 178.062 47.4194C179.065 47.0927 179.587 46.2966 179.567 45.337C179.483 44.5 179.149 43.6834 178.166 43.2955ZM160.902 46.909C161.048 47.1336 161.32 47.4398 160.797 47.4602C160.066 47.501 159.251 47.6848 158.854 46.7661C158.666 46.3374 158.268 45.9903 158.122 45.5616C157.83 44.7042 157.161 44.7246 156.534 44.8879C155.865 45.0512 156.199 45.6841 156.178 46.0924C156.116 47.5419 156.157 47.5419 154.715 47.4602C154.715 47.399 154.694 47.3377 154.673 47.2765C154.694 44.8267 154.715 42.3973 154.715 39.9474C155.928 39.9474 157.14 39.9066 158.331 39.927C160.045 39.9474 160.923 40.8253 160.965 42.4789C160.965 42.7239 160.986 42.9485 161.007 43.1934C160.986 43.2547 160.986 43.3159 160.965 43.3976C160.693 43.7447 160.421 44.0713 160.129 44.4184C159.543 44.4796 159.418 44.7246 159.773 45.2145C160.17 45.7658 160.526 46.3374 160.902 46.909ZM159.272 42.4381C159.293 41.6011 158.749 41.4173 158.08 41.3765C157.704 41.3561 157.307 41.3969 156.931 41.3561C156.346 41.3152 156.157 41.5602 156.137 42.1319C156.116 43.418 156.074 43.3976 157.432 43.3976C157.641 43.3976 157.85 43.418 158.059 43.3976C158.666 43.3159 159.251 43.2547 159.272 42.4381ZM191.083 31.5364C190.351 34.1087 188.408 35.3948 185.92 36.0481C184.541 36.3952 183.12 36.4973 181.678 36.4973C177.853 36.4973 174.028 36.4973 170.203 36.5177C169.513 36.5177 169.262 36.3748 169.262 35.6398C169.304 27.4942 169.283 19.3281 169.283 11.1824C169.283 10.5291 169.346 10.2025 170.161 10.2025C174.299 10.2842 178.438 10.08 182.576 10.325C183.872 10.4067 185.126 10.6516 186.318 11.1416C188.805 12.1419 190.142 13.9793 190.393 16.572C190.644 19.1852 189.975 21.4309 187.467 22.8395C187.342 22.9008 187.258 23.0028 187.133 23.1049C190.937 24.9831 192.191 27.6983 191.083 31.5364ZM175.324 20.2059C175.324 20.6347 175.47 20.798 175.93 20.798C176.829 20.7776 177.748 20.798 178.647 20.798C179.232 20.798 179.838 20.8184 180.423 20.798C181.009 20.7776 181.615 20.7776 182.179 20.6551C183.705 20.2876 184.416 19.3893 184.332 17.9807C184.29 16.6333 183.454 15.8371 181.928 15.6125C179.922 15.3267 177.894 15.5309 175.888 15.4696C175.47 15.4492 175.345 15.6534 175.345 16.0208C175.345 17.4091 175.345 18.8177 175.324 20.2059ZM185.21 27.8412C184.959 26.7592 183.977 26.0243 182.472 25.861C180.319 25.6364 178.166 25.7997 176.013 25.7385C175.449 25.718 175.303 25.963 175.324 26.4734C175.345 27.8208 175.365 29.1886 175.324 30.536C175.303 31.1485 175.554 31.2914 176.118 31.271C177.121 31.2506 178.124 31.271 179.149 31.271C180.361 31.271 181.573 31.3322 182.785 31.1485C184.687 30.8627 185.607 29.5765 185.21 27.8412ZM188.658 39.9066C188.073 39.9066 187.864 40.1108 187.885 40.6824C187.927 41.6623 187.927 42.6422 187.885 43.6426C187.864 44.3775 187.802 45.1533 187.258 45.7045C186.756 46.1945 186.129 46.4395 185.377 46.1332C184.541 45.7862 184.207 45.1125 184.186 44.2959C184.144 43.2139 184.186 42.1319 184.165 41.0499C184.144 40.5803 184.436 39.9474 183.454 39.927C182.409 39.9066 182.702 40.5803 182.681 41.0907C182.66 42.2748 182.723 43.4588 182.66 44.6429C182.555 46.8069 183.705 47.3786 185.064 47.6235C187.3 48.0114 189.327 47.2969 189.369 44.3775C189.369 43.8059 189.369 43.2343 189.369 42.6422C189.369 41.9889 189.348 41.3561 189.369 40.7028C189.411 40.172 189.285 39.9066 188.658 39.9066ZM165.145 36.4973C164.246 36.4768 163.327 36.4973 162.428 36.4973C161.466 36.4768 160.296 36.7627 159.564 36.3544C158.77 35.9052 158.686 34.6599 158.31 33.7616C157.558 31.9855 157.579 31.9855 155.53 32.1692C153.294 32.0876 151.079 32.0672 148.842 32.1692C147.881 32.1488 146.898 32.1488 145.937 32.0876C145.456 32.0672 145.247 32.2917 145.101 32.6796C144.641 33.8841 144.16 35.0682 143.68 36.2727C143.596 36.3544 143.512 36.4564 143.408 36.5381C141.401 36.5381 139.374 36.5381 137.326 36.5381C137.451 36.0481 137.514 35.7623 137.577 35.4561C138.684 33.2717 139.625 31.0056 140.524 28.7395C140.795 28.4537 140.9 28.1066 140.962 27.7391C141.485 26.8205 141.924 25.8814 142.217 24.881C143.178 23.0232 143.972 21.1042 144.725 19.1648C145.08 18.5727 145.373 17.9603 145.519 17.2866C145.791 17.0008 145.937 16.6741 145.979 16.2862C146.48 15.3675 146.94 14.4284 147.233 13.4077C147.63 12.5503 148.069 11.7132 148.424 10.8354C148.633 10.3454 148.905 10.1617 149.427 10.1821C150.577 10.2229 151.726 10.2433 152.876 10.1821C153.921 10.1208 154.778 10.2433 155.092 11.3866C155.802 13.081 156.492 14.7755 157.223 16.4496C158.875 20.2059 160.547 23.9623 162.198 27.7187C162.511 28.7191 162.929 29.6786 163.452 30.5769C163.494 30.9648 163.64 31.2914 163.912 31.5772C163.891 31.6384 163.912 31.6997 163.954 31.7405C164.518 33.0879 165.061 34.4353 165.646 35.7623C165.856 36.3339 165.751 36.5177 165.145 36.4973ZM155.551 26.9634C154.193 23.6357 152.855 20.3897 151.455 16.9803C150.075 20.4101 148.738 23.6561 147.4 26.9634C150.159 26.9634 152.813 26.9634 155.551 26.9634ZM197.918 46.0516C197.123 46.072 196.308 46.0107 195.514 46.072C194.762 46.1332 194.573 45.827 194.594 45.1329C194.636 43.6426 194.573 42.1523 194.615 40.662C194.636 39.9474 194.239 39.927 193.716 39.927C193.173 39.9066 192.86 40.0087 192.901 40.6415C192.943 41.6623 192.922 42.6831 192.922 43.7038C192.922 44.7654 192.943 45.8066 192.922 46.8682C192.922 47.3377 193.069 47.5419 193.591 47.5419C195.054 47.5215 196.517 47.5215 197.959 47.5419C198.586 47.5419 198.566 47.1744 198.586 46.7457C198.607 46.2149 198.419 46.0312 197.918 46.0516ZM167.047 41.3765C167.883 41.3765 168.719 41.3561 169.555 41.3765C170.078 41.3969 170.391 41.2744 170.391 40.662C170.391 40.0699 170.182 39.9066 169.597 39.9066C168.176 39.927 166.754 39.927 165.312 39.9066C164.706 39.8862 164.434 40.0699 164.455 40.7028C164.497 41.6827 164.476 42.6626 164.476 43.663C164.476 44.7246 164.497 45.7658 164.476 46.8273C164.455 47.3581 164.685 47.5419 165.228 47.5215C166.692 47.501 168.155 47.501 169.618 47.5215C170.119 47.5215 170.391 47.4194 170.391 46.8478C170.391 46.317 170.287 46.0107 169.659 46.0516C168.719 46.0924 167.778 46.0312 166.838 46.072C166.253 46.0924 165.96 45.9699 165.981 45.2962C165.981 44.6225 166.211 44.3979 166.88 44.4592C167.507 44.5 168.134 44.4592 168.761 44.4796C169.304 44.5 169.576 44.3571 169.576 43.7447C169.576 43.1526 169.367 42.9689 168.782 43.0097C168.238 43.0505 167.674 43.0301 167.11 43.0301C166.503 43.0301 165.96 43.1322 165.981 42.1931C165.96 41.254 166.483 41.3765 167.047 41.3765ZM154.694 39.9474C154.715 39.9474 154.715 39.9474 154.694 39.9474V39.9474ZM119.581 39.927C118.703 39.9474 117.846 39.927 116.968 39.927C116.09 39.927 115.233 39.9474 114.356 39.927C113.833 39.9066 113.749 40.1516 113.708 40.6007C113.645 41.4173 114.167 41.3561 114.69 41.3561C116.216 41.3765 116.216 41.3969 116.216 42.9076C116.216 44.1938 116.237 45.4799 116.216 46.7865C116.216 47.3173 116.404 47.501 116.947 47.501C117.491 47.501 117.7 47.3173 117.7 46.8069C117.679 45.6433 117.7 44.5 117.7 43.3363C117.7 41.5398 117.7 41.5398 119.539 41.3561C119.581 41.3561 119.602 41.3561 119.643 41.3561C120.208 41.3765 120.208 41.009 120.229 40.6211C120.208 40.172 120.103 39.9066 119.581 39.927ZM123.761 39.9066C123.636 39.927 123.489 39.927 123.364 39.9474C123.364 42.1931 123.364 44.4388 123.322 46.6844C123.322 47.2765 123.489 47.5215 124.137 47.5215C124.827 47.5215 125.036 47.2765 125.036 46.6232C124.994 44.8267 124.973 43.0097 125.036 41.2132C125.078 40.2332 124.827 39.7433 123.761 39.9066ZM141.715 41.7848C142.948 40.9069 144.16 41.1723 145.393 41.846C145.602 41.9481 145.791 42.336 146.083 41.9889C146.459 41.5398 146.062 40.3149 145.477 40.1312C144.307 39.7841 143.094 39.6004 141.924 39.9678C140.691 40.3761 139.583 41.0498 139.228 42.3973C138.413 45.4391 140.252 47.7052 143.471 47.7052C145.812 47.7052 146.167 47.399 146.167 45.2554C146.167 43.3772 146.167 43.3772 144.223 43.3976C143.868 43.3976 143.533 43.3976 143.178 43.3976C142.802 43.3976 142.635 43.5405 142.593 43.9284C142.426 45.1125 143.282 44.8267 143.91 44.8675C144.223 44.8879 144.641 44.745 144.662 45.2962C144.683 45.7045 144.62 46.0107 144.16 46.1741C143.115 46.5211 141.485 45.8882 140.962 44.8675C140.377 43.8059 140.712 42.4993 141.715 41.7848ZM113.29 18.7156C111.492 18.6748 109.674 18.7361 107.876 18.6952C107.166 18.6748 106.434 18.5727 105.995 17.899C105.87 17.899 105.807 17.8378 105.828 17.7153L105.807 17.6745C105.744 17.6132 105.682 17.552 105.619 17.5111L105.598 17.4907C105.389 17.4295 105.305 17.2662 105.222 17.1028L105.18 17.0824C105.055 17.0824 104.992 17.0416 104.971 16.8987C104.908 16.8987 104.846 16.8783 104.783 16.8374C104.511 16.9395 104.344 16.715 104.135 16.6333C102.066 16.1433 100.247 16.6129 98.7007 18.0419C97.9274 18.7565 97.5721 19.7364 97.3213 20.7163C97.1332 21.4513 97.0078 22.227 97.0078 23.0232C97.0287 26.9021 96.9868 30.781 96.9868 34.6395C96.9868 35.1703 97.0078 35.7215 97.0078 36.2523C94.5205 36.2523 92.0333 36.2523 89.5252 36.2523C89.5252 35.5786 89.4625 34.9049 89.5252 34.2516C89.5879 33.4146 89.3998 33.0267 88.5011 33.435C88.1458 34.6803 87.0171 35.2519 86.0347 35.7623C84.8852 36.3748 83.5684 36.7831 82.2099 36.681C81.6455 36.9668 81.0812 36.9668 80.5378 36.681C80.3915 36.6606 80.2661 36.6606 80.1198 36.6402C79.6809 36.6198 79.221 36.8239 78.8239 36.4973C78.7612 36.4973 78.6985 36.4973 78.6567 36.4564C76.9428 36.2115 75.438 35.5582 74.2257 34.3128C73.9122 33.9862 73.5778 33.7208 73.2434 33.4146C73.2852 32.8838 72.5954 32.7205 72.5745 32.2101C72.888 31.6997 72.7417 31.3322 72.4909 30.9852C72.7208 31.3322 72.888 31.6997 72.5745 32.2101C71.7176 30.8014 71.1742 29.2295 71.1533 27.6371C71.0697 21.9617 71.1324 16.2862 71.1533 10.6108C72.9507 10.5904 74.7482 10.57 76.5666 10.5496C76.7129 10.5496 76.8383 10.5496 76.9846 10.5496C78.4477 10.6312 78.4477 10.6312 78.4477 12.0603C78.4477 15.6942 78.4477 19.3281 78.4477 22.962C78.4477 24.0032 78.3641 25.0443 78.594 26.0855C78.8448 27.4738 79.3882 28.7191 80.6423 29.5561C81.9173 30.3931 83.2967 30.5769 84.7598 30.0461C85.0733 29.9236 85.4077 29.8623 85.7421 29.7603H85.763C87.9576 28.1475 88.5011 25.861 88.4802 23.3499C88.4593 19.4302 88.4802 15.5309 88.4593 11.6112C88.4593 10.8558 88.6265 10.5291 89.4834 10.57C91.5735 10.6516 93.6636 10.6108 95.7537 10.6108C96.1299 11.652 95.8791 12.734 96.0672 13.9997C96.8614 13.224 97.5721 12.5298 98.3036 11.8153C98.429 11.8153 98.5753 11.7949 98.7007 11.7949C99.4323 10.917 100.561 10.7537 101.543 10.5087C103.592 9.97794 105.682 9.99835 107.709 10.7945C107.855 10.815 107.981 10.8354 108.127 10.8762C108.691 11.1212 109.339 11.1416 109.799 11.6316C110.008 11.6928 110.217 11.7745 110.426 11.8357C110.865 12.2849 111.325 12.734 111.764 13.1831C111.868 13.2852 111.994 13.3669 112.098 13.4689C113.143 14.7551 113.708 16.2454 114.126 17.8174C114.272 18.4502 114.063 18.7361 113.29 18.7156ZM77.3608 15.2451C77.4026 15.2655 77.4236 15.2859 77.4654 15.2859C77.4236 15.2655 77.4026 15.2655 77.3608 15.2451ZM106.037 11.0804C106.016 11.1008 106.016 11.1416 105.995 11.162C106.016 11.1212 106.016 11.1008 106.037 11.0804ZM135.884 31.1485C135.904 31.1281 135.925 31.0872 135.925 31.0668C135.904 31.1077 135.884 31.1281 135.884 31.1485ZM135.675 40.7232C135.675 40.1924 135.549 39.927 134.922 39.927C134.295 39.927 134.17 40.1924 134.191 40.7232C134.211 42.091 134.191 43.4588 134.191 44.8471C133.501 44.1325 133.041 43.3568 132.539 42.6218C131.62 41.2948 131.139 39.3554 128.798 39.9883C128.798 42.1931 128.777 44.3979 128.777 46.6028C128.777 47.1132 128.756 47.5215 129.509 47.5419C130.261 47.5623 130.261 47.1336 130.261 46.6232C130.261 45.1737 130.261 43.7242 130.261 42.091C130.554 42.4177 130.721 42.5606 130.846 42.7647C131.703 44.153 132.581 45.5208 133.396 46.9294C133.877 47.746 134.671 47.5623 135.34 47.4602C135.967 47.3581 135.675 46.7253 135.675 46.3374C135.695 44.4592 135.654 42.581 135.675 40.7232ZM128.777 39.9474C128.798 39.9474 128.798 39.9474 128.777 39.9474V39.9474Z" fill="#0F190C"/>
</svg>
