<svg width="119" height="32" viewBox="0 0 119 32" fill="none" xmlns="http://www.w3.org/2000/svg">
<path d="M118.968 24.2732C119.038 25.1405 118.876 25.5122 118.274 25.7487C117.754 25.9515 117.198 25.9965 116.643 25.8726C115.671 25.6586 115.671 25.6474 115.752 24.5998C116.169 24.7801 116.504 25.0504 116.944 25.0842C117.037 25.0954 117.129 25.118 117.233 25.118C117.627 25.1405 118.043 25.0504 118.112 24.6674C118.193 24.2169 117.696 24.2619 117.418 24.1718C117.094 24.0705 116.736 24.1155 116.423 23.9578C116.019 23.7551 115.741 23.4735 115.729 23.0117C115.706 22.5386 115.857 22.1331 116.296 21.8741C117.002 21.4461 117.731 21.5024 118.483 21.7276C119.015 21.8853 118.922 22.2908 118.853 22.64C118.807 22.8653 118.598 22.7526 118.448 22.6738C118.02 22.4372 117.569 22.2232 117.06 22.4598C116.851 22.5499 116.678 22.6625 116.689 22.9103C116.701 23.1468 116.909 23.1919 117.094 23.2257C117.43 23.2933 117.754 23.3721 118.089 23.4397C118.552 23.5298 118.934 23.7326 118.968 24.2732ZM118.749 13.7193C118.529 12.9195 117.974 12.3564 117.268 11.9284C116.447 11.4328 115.533 11.2188 114.607 11.0611C113.601 10.8808 112.571 10.8921 111.611 10.5204C110.639 10.1487 110.489 9.18005 111.287 8.52676C111.634 8.24517 112.051 8.08748 112.49 8.03117C114.399 7.78337 116.169 8.11001 117.719 9.28142C117.823 9.36026 117.904 9.51795 118.055 9.45037C118.24 9.37153 118.136 9.19131 118.147 9.05615C118.159 8.6394 118.147 8.23391 118.147 7.81716C118.147 7.50178 118.101 7.17514 118.159 6.85976C118.251 6.25152 117.985 5.94741 117.418 5.74466C115.162 4.93369 112.872 4.78726 110.57 5.49687C108.673 6.08257 107.597 7.49051 107.469 9.41658C107.319 11.5679 108.256 12.897 110.385 13.5616C111.102 13.7868 111.842 13.9107 112.583 14.0008C113.369 14.091 114.156 14.1585 114.896 14.4627C115.88 14.8681 115.995 15.9269 115.151 16.5689C114.769 16.8505 114.33 16.9744 113.867 17.0195C111.738 17.2222 109.772 16.7942 108.013 15.5777C107.897 15.4989 107.782 15.3074 107.631 15.375C107.446 15.4538 107.539 15.6791 107.539 15.8255C107.527 16.5802 107.585 17.3349 107.516 18.0783C107.469 18.6302 107.712 18.8892 108.187 19.0807C110.593 20.0832 113.08 20.2634 115.59 19.6439C118.679 18.8892 119.477 16.4225 118.749 13.7193ZM55.6081 21.6263C55.2958 21.6263 55.2148 21.7614 55.2264 22.0318C55.2379 22.5949 55.2264 23.1581 55.2264 23.7213C55.2264 24.2845 55.2379 24.8476 55.2264 25.4108C55.2148 25.7375 55.3767 25.8276 55.6775 25.8276C56.0014 25.8388 56.0593 25.6699 56.0593 25.4108C56.0593 24.2845 56.0477 23.1581 56.0593 22.0318C56.0593 21.7051 55.9089 21.6263 55.6081 21.6263ZM61.3576 21.6488C60.4321 21.6488 59.5067 21.6488 58.5928 21.6263C58.2341 21.615 58.1185 21.7389 58.13 22.0768C58.1416 23.1806 58.1532 24.2845 58.13 25.3883C58.1185 25.7713 58.3151 25.805 58.6275 25.8163C58.9283 25.8163 59.0671 25.7487 59.0786 25.4108C59.1249 24.2619 59.1365 24.2169 60.2818 24.2507C60.9874 24.2732 60.9527 23.9015 60.8949 23.451C60.8602 23.451 60.8255 23.4397 60.7908 23.4284C60.409 23.4284 60.0273 23.4284 59.6455 23.451C59.2869 23.4622 59.0324 23.4622 59.0439 22.9779C59.0439 22.5048 59.2406 22.4035 59.6571 22.4485C59.9578 22.4823 60.2702 22.4598 60.571 22.4485C61.3808 22.4372 61.3808 22.4372 61.3576 21.6488ZM51.7558 25.0279C51.2699 25.0617 51.1658 24.8702 51.1774 24.4534C51.2005 23.6537 51.1774 22.8427 51.189 22.0318C51.189 21.7051 51.0386 21.615 50.7378 21.6263C50.4717 21.6375 50.2404 21.6263 50.2519 21.998C50.2635 23.1356 50.2635 24.2845 50.2519 25.4221C50.2519 25.7149 50.3792 25.8163 50.6684 25.805C51.3278 25.7938 51.9756 25.805 52.635 25.7938C53.4101 25.7938 53.4101 25.7825 53.3754 25.0166C52.8317 25.0279 52.288 24.9828 51.7558 25.0279ZM28.1331 7.26524C27.8554 6.98366 27.6703 6.97239 27.4043 7.27651C26.8952 7.86221 26.3747 8.43665 25.8194 8.9773C25.507 9.28142 25.5649 9.4729 25.8541 9.74323C26.4441 10.2951 26.9068 10.9372 27.2539 11.6468C28.7462 14.6767 28.7346 17.7178 27.3233 20.759C26.2937 22.9779 24.6857 24.7463 22.7653 26.2556C22.6265 26.3682 22.4645 26.571 22.2794 26.4921C22.0828 26.402 22.1753 26.1542 22.1522 25.974C22.0481 25.2081 21.944 24.4534 21.863 23.6875C21.5853 21.1307 21.1342 18.5964 21.0069 16.0395C20.9028 14.091 21.0879 12.1874 22.1175 10.4416C23.0777 8.81961 24.408 7.53557 25.8888 6.39795C27.3696 5.26033 28.966 4.2804 30.6203 3.39058C31.083 3.14278 31.1177 2.92878 30.8401 2.53455C30.5624 2.12907 30.3311 1.70105 30.0766 1.27304C29.4634 0.236789 29.4634 0.214262 28.4223 0.822493C25.5533 2.47824 22.7653 4.23535 20.6136 6.78091C19.075 8.59434 18.0917 10.6443 17.7562 12.9984C17.4091 15.4651 17.7677 17.898 18.0454 20.331C18.3924 23.3045 18.7742 26.2781 19.1444 29.2517C19.2601 30.1528 19.3758 31.0651 19.4914 32C22.5802 30.5245 25.4145 28.8237 27.6241 26.2894C30.9326 22.5161 32.4481 18.2359 31.4069 13.28C30.9211 10.971 29.7989 8.9773 28.1331 7.26524ZM74.8927 19.7678C74.939 19.7565 74.9737 19.734 75.02 19.7227C75.0084 18.7653 74.9968 17.8079 74.9852 16.8505C72.6831 16.8505 70.3694 16.8505 68.0673 16.8505C67.8128 16.8505 67.5236 16.9294 67.5236 16.4901C67.5352 12.7956 67.5467 9.11247 67.5467 5.41802C67.4773 5.13643 67.1997 5.29412 67.0377 5.20401C66.1123 5.21528 65.1868 5.21528 64.2729 5.22654L64.2497 5.2378C64.2382 5.57571 64.2035 5.91362 64.2035 6.24026C64.2035 10.4866 64.2035 14.733 64.2035 18.9906C64.2035 19.1933 64.1803 19.3961 64.1688 19.5988C64.2035 19.6439 64.2382 19.7002 64.2729 19.7453C67.8012 19.7678 71.3412 19.7678 74.8927 19.7678ZM74.9737 16.8393C74.9737 16.8393 74.9737 16.8505 74.9737 16.8393C74.9852 16.8505 74.9852 16.8505 74.9737 16.8393C74.9852 16.8505 74.9737 16.8393 74.9737 16.8393ZM2.69407 0.293106C2.428 0.135417 2.33545 0.293106 2.21976 0.49585C1.81487 1.18293 1.40997 1.85874 0.981941 2.52329C0.773709 2.84993 0.785277 3.04141 1.1786 3.25542C3.13367 4.34798 5.03089 5.53066 6.74302 6.96113C9.4269 9.20257 11.0118 11.9171 10.8267 15.4764C10.7226 17.3912 10.4218 19.2835 10.202 21.1757C9.99375 22.9554 9.73925 24.735 9.50788 26.5147C9.4269 26.5034 9.38063 26.5147 9.35749 26.4921C9.26494 26.4358 9.16083 26.3682 9.07985 26.3006C7.05537 24.7463 5.43579 22.8653 4.35992 20.5675C2.67093 16.9294 3.24936 12.3226 6.06049 9.56301C6.30342 9.32647 6.26872 9.19131 6.06049 8.96604C5.49363 8.38034 4.93835 7.78337 4.4062 7.16387C4.17483 6.89355 4.0013 6.89355 3.75837 7.14135C3.22622 7.682 2.69407 8.22265 2.27761 8.86467C-0.510388 13.1786 -0.683915 17.684 1.45625 22.2683C3.63111 26.9089 7.55281 29.7698 12.1802 31.9549C12.3074 31.0201 12.4347 30.119 12.5504 29.2179C12.8512 26.9314 13.1635 24.6449 13.4411 22.3584C13.6957 20.2521 14.0311 18.1684 14.1584 16.0508C14.3782 12.4803 13.4527 9.27016 11.0233 6.51059C8.70966 3.86365 5.725 2.05022 2.69407 0.293106ZM113.913 21.6375C112.976 21.6488 112.027 21.6488 111.09 21.6375C110.859 21.6375 110.766 21.7164 110.743 21.9529C110.674 22.5048 111.056 22.471 111.391 22.426C111.9 22.3697 112.085 22.5499 112.027 23.0455C111.981 23.3946 112.016 23.7551 112.016 24.1155C112.016 24.5435 112.027 24.9715 112.016 25.3996C112.004 25.7149 112.12 25.8276 112.455 25.8163C112.745 25.805 112.988 25.8163 112.976 25.4108C112.953 24.7801 112.976 24.138 112.976 23.5073C112.976 22.5386 112.976 22.5274 113.925 22.4372C114.237 22.4035 114.237 22.2458 114.249 22.0318C114.237 21.8065 114.237 21.6263 113.913 21.6375ZM42.2813 21.6263C42.2581 21.6375 42.2234 21.6488 42.1887 21.6488C42.1772 22.3471 42.1656 23.0342 42.1656 23.7326C42.1656 24.0367 42.0846 24.3183 41.9689 24.5998C41.8301 24.949 41.5409 25.118 41.1591 25.1292C40.7542 25.1405 40.4535 24.9941 40.2799 24.6224C40.1527 24.3521 40.0717 24.0705 40.0717 23.7551C40.0833 23.1694 40.0601 22.5949 40.0717 22.0092C40.0833 21.7051 39.9213 21.6375 39.6437 21.6375C39.3892 21.6488 39.2503 21.7051 39.2503 21.9867C39.2619 22.8427 39.2156 23.71 39.2735 24.5661C39.3313 25.5235 40.4188 26.1204 41.5293 25.8952C42.4779 25.6924 42.9638 25.1067 42.9638 24.1493C42.9638 23.5523 42.9175 22.9441 42.9754 22.3471C43.0332 21.8065 42.8713 21.5362 42.2813 21.6263ZM48.4125 23.1694C48.401 23.9691 47.9845 24.3408 47.0822 24.352C47.0475 24.352 47.0012 24.352 46.9665 24.352C45.9138 24.352 45.8906 24.3521 45.8791 25.3545C45.8791 25.7375 45.7171 25.805 45.37 25.8276C44.9536 25.8388 44.9304 25.6248 44.942 25.3432C44.942 25.0617 44.942 24.7801 44.942 24.4985C44.942 24.2394 44.942 23.9691 44.942 23.71C44.942 23.1806 44.9536 22.6625 44.942 22.1331C44.9304 21.784 45.0346 21.6263 45.4279 21.6375C45.9832 21.6713 46.55 21.6375 47.1053 21.6488C47.9729 21.6601 48.4241 22.2007 48.4125 23.1694ZM47.5796 22.9216C47.5102 22.6625 47.3135 22.471 47.0128 22.4372C46.8739 22.426 46.7467 22.4372 46.6079 22.4372C46.5153 22.4372 46.4112 22.4485 46.3187 22.4372C45.7055 22.3809 45.9022 22.8315 45.8791 23.1243C45.8443 23.4397 45.8675 23.7213 46.3534 23.6762C46.6426 23.6424 46.9202 23.6424 47.1979 23.5298C47.4639 23.4059 47.649 23.2144 47.5796 22.9216ZM18.8899 2.65845C18.8899 1.17166 17.6752 0.0227812 16.125 0.0227812C14.8294 -0.179963 13.3023 0.991447 13.3023 2.70351C13.3023 4.16777 14.5749 5.39549 16.0556 5.39549C17.6174 5.40676 18.9015 4.16777 18.8899 2.65845ZM98.5386 23.496C98.1221 23.3383 97.6825 23.3158 97.2661 23.2144C97.0347 23.1581 96.838 23.0905 96.8265 22.8653C96.8149 22.64 97.0347 22.5386 97.2314 22.4485C97.8561 22.1557 98.3651 22.5274 98.8972 22.7414C99.1054 21.8628 99.0013 21.7051 98.1684 21.6263C98.0527 21.615 97.937 21.6037 97.8329 21.5812C96.8149 21.4573 96.0861 21.9191 95.982 22.64C95.8431 23.5411 96.3059 24.0141 97.3817 24.1043C97.6594 24.1268 97.9023 24.2282 98.1453 24.3295C98.4807 24.4759 98.4345 24.69 98.2147 24.8927C98.0412 25.0504 97.8214 25.0954 97.5784 25.1067C97 25.1405 96.5257 24.8589 95.9241 24.5661C96.1208 24.9828 95.7159 25.4446 96.2365 25.6699C96.9537 25.974 97.7172 26.0191 98.4808 25.7713C99.036 25.591 99.3252 25.1518 99.3137 24.6224C99.2674 24.1606 99.0823 23.71 98.5386 23.496ZM88.9831 25.4897C89.064 25.6136 89.2144 25.7825 88.9252 25.7938C88.5203 25.8163 88.0692 25.9177 87.8493 25.4108C87.7452 25.1743 87.5254 24.9828 87.4445 24.7463C87.2825 24.2732 86.9123 24.2845 86.5653 24.3746C86.1951 24.4647 86.3802 24.8139 86.3686 25.0391C86.3339 25.8388 86.357 25.8388 85.5588 25.7938C85.5588 25.76 85.5472 25.7262 85.5357 25.6924C85.5472 24.3408 85.5588 23.0004 85.5588 21.6488C86.2298 21.6488 86.9007 21.6263 87.5601 21.6375C88.5088 21.6488 88.9946 22.1331 89.0178 23.0455C89.0178 23.1806 89.0293 23.3045 89.0409 23.4397C89.0293 23.4735 89.0293 23.5073 89.0178 23.5523C88.8674 23.7438 88.717 23.924 88.555 24.1155C88.2311 24.1493 88.1617 24.2845 88.3584 24.5548C88.5782 24.8589 88.7748 25.1743 88.9831 25.4897ZM88.0807 23.0229C88.0923 22.5611 87.7915 22.4598 87.4213 22.4372C87.2131 22.426 86.9933 22.4485 86.785 22.426C86.4611 22.4035 86.357 22.5386 86.3455 22.854C86.3339 23.5636 86.3108 23.5523 87.0627 23.5523C87.1784 23.5523 87.2941 23.5636 87.4098 23.5523C87.7452 23.5073 88.0692 23.4735 88.0807 23.0229ZM105.688 17.0082C105.283 18.4274 104.207 19.137 102.83 19.4975C102.067 19.6889 101.28 19.7453 100.482 19.7453C98.3651 19.7453 96.248 19.7453 94.131 19.7565C93.7493 19.7565 93.6104 19.6777 93.6104 19.2722C93.6336 14.778 93.622 10.2726 93.622 5.77846C93.622 5.41802 93.6567 5.2378 94.1079 5.2378C96.3984 5.28286 98.689 5.17022 100.98 5.30539C101.697 5.35044 102.391 5.4856 103.05 5.75593C104.427 6.30784 105.167 7.32156 105.306 8.75203C105.445 10.1938 105.075 11.4328 103.687 12.2099C103.617 12.2437 103.571 12.3001 103.501 12.3564C105.607 13.3926 106.301 14.8907 105.688 17.0082ZM96.9653 10.7569C96.9653 10.9935 97.0463 11.0836 97.3008 11.0836C97.7982 11.0723 98.3072 11.0836 98.8047 11.0836C99.1286 11.0836 99.4641 11.0949 99.788 11.0836C100.112 11.0723 100.447 11.0723 100.76 11.0047C101.604 10.802 101.998 10.3064 101.951 9.52922C101.928 8.78582 101.465 8.34655 100.621 8.22265C99.5103 8.06496 98.3882 8.17759 97.2776 8.1438C97.0463 8.13254 96.9769 8.24517 96.9769 8.44792C96.9769 9.21384 96.9768 9.99102 96.9653 10.7569ZM102.437 14.9695C102.298 14.3725 101.755 13.9671 100.922 13.8769C99.7301 13.753 98.5386 13.8432 97.347 13.8094C97.0347 13.7981 96.9537 13.9333 96.9653 14.2149C96.9768 14.9582 96.9884 15.7129 96.9653 16.4563C96.9537 16.7942 97.0925 16.8731 97.4049 16.8618C97.9602 16.8505 98.5155 16.8618 99.0823 16.8618C99.7533 16.8618 100.424 16.8956 101.095 16.7942C102.148 16.6365 102.657 15.9269 102.437 14.9695ZM104.346 21.6263C104.022 21.6263 103.906 21.7389 103.918 22.0543C103.941 22.5949 103.941 23.1356 103.918 23.6875C103.906 24.093 103.872 24.521 103.571 24.8251C103.293 25.0954 102.946 25.2306 102.53 25.0617C102.067 24.8702 101.882 24.4985 101.87 24.0479C101.847 23.451 101.87 22.854 101.859 22.257C101.847 21.998 102.009 21.6488 101.465 21.6375C100.887 21.6263 101.049 21.998 101.037 22.2796C101.026 22.9328 101.061 23.5861 101.026 24.2394C100.968 25.4333 101.604 25.7487 102.356 25.8839C103.594 26.0979 104.716 25.7037 104.739 24.093C104.739 23.7776 104.739 23.4622 104.739 23.1356C104.739 22.7752 104.728 22.426 104.739 22.0655C104.762 21.7727 104.693 21.6263 104.346 21.6263ZM91.3315 19.7453C90.834 19.734 90.325 19.7453 89.8276 19.7453C89.2954 19.734 88.6476 19.8917 88.2427 19.6664C87.8031 19.4186 87.7568 18.7315 87.5486 18.2359C87.1321 17.256 87.1437 17.256 86.01 17.3574C84.7721 17.3123 83.5459 17.3011 82.3081 17.3574C81.7759 17.3461 81.2322 17.3461 80.7001 17.3123C80.434 17.3011 80.3183 17.425 80.2373 17.639C79.9828 18.3035 79.7167 18.9568 79.4507 19.6214C79.4044 19.6664 79.3581 19.7227 79.3003 19.7678C78.1897 19.7678 77.0676 19.7678 75.9339 19.7678C76.0033 19.4975 76.038 19.3398 76.0727 19.1708C76.6858 17.9656 77.2064 16.7154 77.7038 15.4651C77.8542 15.3074 77.9121 15.1159 77.9468 14.9132C78.236 14.4063 78.4789 13.8882 78.6409 13.3363C79.173 12.3113 79.6126 11.2525 80.0291 10.1825C80.2258 9.85586 80.3877 9.51795 80.4687 9.14626C80.6191 8.98857 80.7001 8.80835 80.7232 8.59434C81.0008 8.08748 81.2553 7.56936 81.4173 7.00618C81.6371 6.53311 81.88 6.07131 82.0767 5.58697C82.1924 5.31665 82.3428 5.21528 82.632 5.22654C83.2682 5.24907 83.9045 5.26033 84.5408 5.22654C85.1192 5.19275 85.5935 5.26033 85.767 5.89109C86.1604 6.82597 86.5421 7.76084 86.947 8.68445C87.8609 10.7569 88.7864 12.8294 89.7003 14.9019C89.8738 15.4538 90.1052 15.9832 90.3944 16.4788C90.4175 16.6928 90.4985 16.8731 90.6489 17.0307C90.6373 17.0645 90.6489 17.0983 90.6721 17.1208C90.9844 17.8642 91.2852 18.6076 91.6091 19.3398C91.7248 19.6551 91.6669 19.7565 91.3315 19.7453ZM86.0215 14.4852C85.2696 12.6492 84.5292 10.8583 83.7541 8.9773C82.9906 10.8696 82.2502 12.6605 81.5098 14.4852C83.0369 14.4852 84.5061 14.4852 86.0215 14.4852ZM109.471 25.0166C109.031 25.0279 108.58 24.9941 108.14 25.0279C107.724 25.0617 107.62 24.8927 107.631 24.5097C107.655 23.6875 107.62 22.8653 107.643 22.043C107.655 21.6488 107.435 21.6375 107.146 21.6375C106.845 21.6263 106.671 21.6826 106.694 22.0318C106.717 22.5949 106.706 23.1581 106.706 23.7213C106.706 24.307 106.717 24.8814 106.706 25.4671C106.706 25.7262 106.787 25.8388 107.076 25.8388C107.886 25.8276 108.696 25.8276 109.494 25.8388C109.841 25.8388 109.829 25.6361 109.841 25.3996C109.853 25.1067 109.748 25.0053 109.471 25.0166ZM92.3842 22.4372C92.8469 22.4372 93.3097 22.426 93.7724 22.4372C94.0616 22.4485 94.2351 22.3809 94.2351 22.043C94.2351 21.7164 94.1194 21.6263 93.7955 21.6263C93.0089 21.6375 92.2222 21.6375 91.424 21.6263C91.0885 21.615 90.9381 21.7164 90.9497 22.0655C90.9728 22.6062 90.9613 23.1468 90.9613 23.6988C90.9613 24.2845 90.9728 24.8589 90.9613 25.4446C90.9497 25.7375 91.0769 25.8388 91.3777 25.8276C92.1875 25.8163 92.9973 25.8163 93.8071 25.8276C94.0847 25.8276 94.2351 25.7713 94.2351 25.4559C94.2351 25.163 94.1773 24.9941 93.8302 25.0166C93.3097 25.0391 92.7891 25.0053 92.2685 25.0279C91.9446 25.0391 91.7826 24.9715 91.7942 24.5998C91.7942 24.2281 91.9214 24.1043 92.2916 24.138C92.6387 24.1606 92.9857 24.138 93.3328 24.1493C93.6336 24.1606 93.784 24.0817 93.784 23.7438C93.784 23.4172 93.6683 23.3158 93.3444 23.3383C93.0436 23.3609 92.7312 23.3496 92.4189 23.3496C92.0834 23.3496 91.7826 23.4059 91.7942 22.8878C91.7826 22.3697 92.0718 22.4372 92.3842 22.4372ZM85.5472 21.6488C85.5588 21.6488 85.5588 21.6488 85.5472 21.6488C85.5588 21.6488 85.5472 21.6488 85.5472 21.6488ZM66.1123 21.6375C65.6264 21.6488 65.1521 21.6375 64.6662 21.6375C64.1803 21.6375 63.706 21.6488 63.2201 21.6375C62.9309 21.6263 62.8847 21.7614 62.8615 22.0092C62.8268 22.4598 63.116 22.426 63.4052 22.426C64.2497 22.4372 64.2497 22.4485 64.2497 23.282C64.2497 23.9916 64.2613 24.7012 64.2497 25.4221C64.2497 25.7149 64.3539 25.8163 64.6546 25.8163C64.9554 25.8163 65.0711 25.7149 65.0711 25.4334C65.0595 24.7913 65.0711 24.1606 65.0711 23.5185C65.0711 22.5274 65.0711 22.5274 66.0891 22.426C66.1123 22.426 66.1238 22.426 66.147 22.426C66.4593 22.4372 66.4593 22.2345 66.4709 22.0205C66.4593 21.7727 66.4015 21.6263 66.1123 21.6375ZM68.4259 21.6263C68.3565 21.6375 68.2756 21.6375 68.2061 21.6488C68.2061 22.8878 68.2061 24.1268 68.183 25.3658C68.183 25.6924 68.2756 25.8276 68.6342 25.8276C69.0159 25.8276 69.1316 25.6924 69.1316 25.332C69.1085 24.3408 69.0969 23.3383 69.1316 22.3471C69.1548 21.8065 69.0159 21.5362 68.4259 21.6263ZM78.3632 22.6625C79.0458 22.1782 79.7167 22.3246 80.3993 22.6963C80.515 22.7526 80.6191 22.9666 80.781 22.7752C80.9893 22.5274 80.7695 21.8515 80.4455 21.7502C79.7977 21.5587 79.1267 21.4573 78.4789 21.6601C77.7964 21.8853 77.1833 22.257 76.9866 23.0004C76.5354 24.6787 77.5534 25.9289 79.335 25.9289C80.6306 25.9289 80.8273 25.76 80.8273 24.5773C80.8273 23.5411 80.8273 23.5411 79.7514 23.5523C79.5548 23.5523 79.3697 23.5523 79.173 23.5523C78.9648 23.5523 78.8722 23.6312 78.8491 23.8452C78.7566 24.4985 79.2309 24.3408 79.5779 24.3633C79.7514 24.3746 79.9828 24.2957 79.9944 24.5998C80.006 24.8251 79.9712 24.9941 79.7167 25.0842C79.1383 25.2757 78.236 24.9265 77.9468 24.3633C77.6229 23.7776 77.8079 23.0567 78.3632 22.6625ZM62.6301 9.9347C61.6353 9.91218 60.6288 9.94597 59.6339 9.92344C59.2406 9.91218 58.8357 9.85586 58.5928 9.48416C58.5234 9.48416 58.4887 9.45037 58.5002 9.38279L58.4887 9.36026C58.4539 9.32647 58.4192 9.29268 58.3845 9.27016L58.373 9.25889C58.2573 9.2251 58.211 9.13499 58.1647 9.04489L58.1416 9.03362C58.0722 9.03362 58.0375 9.0111 58.0259 8.93225C57.9912 8.93225 57.9565 8.92099 57.9218 8.89846C57.7714 8.95478 57.6789 8.83088 57.5632 8.78582C56.4179 8.5155 55.4114 8.77456 54.5554 9.56301C54.1274 9.95723 53.9307 10.4979 53.7919 11.0385C53.6878 11.444 53.6183 11.872 53.6183 12.3113C53.6299 14.4514 53.6068 16.5915 53.6068 18.7203C53.6068 19.0131 53.6183 19.3172 53.6183 19.6101C52.2417 19.6101 50.8651 19.6101 49.4768 19.6101C49.4768 19.2384 49.4421 18.8667 49.4768 18.5063C49.5115 18.0445 49.4074 17.8305 48.91 18.0557C48.7133 18.7428 48.0886 19.0582 47.5449 19.3398C46.9086 19.6777 46.1798 19.9029 45.4279 19.8466C45.1155 20.0043 44.8032 20.0043 44.5024 19.8466C44.4214 19.8354 44.352 19.8354 44.271 19.8241C44.0281 19.8128 43.7736 19.9255 43.5538 19.7453C43.5191 19.7453 43.4844 19.7453 43.4613 19.7227C42.5126 19.5876 41.6797 19.2271 41.0087 18.5401C40.8352 18.3598 40.6501 18.2134 40.465 18.0445C40.4882 17.7516 40.1064 17.6615 40.0948 17.3799C40.2684 17.0983 40.1874 16.8956 40.0486 16.7041C40.1758 16.8956 40.2684 17.0983 40.0948 17.3799C39.6205 16.6027 39.3198 15.7354 39.3082 14.8569C39.2619 11.7256 39.2966 8.59434 39.3082 5.46308C40.3031 5.45181 41.298 5.44055 42.3044 5.42929C42.3854 5.42929 42.4548 5.42929 42.5358 5.42929C43.3456 5.47434 43.3456 5.47434 43.3456 6.26279C43.3456 8.2677 43.3456 10.2726 43.3456 12.2775C43.3456 12.852 43.2993 13.4264 43.4265 14.0008C43.5654 14.7668 43.8661 15.4538 44.5603 15.9157C45.2659 16.3775 46.0294 16.4788 46.8392 16.186C47.0128 16.1184 47.1979 16.0846 47.383 16.0283H47.3945C48.6092 15.1385 48.91 13.8769 48.8984 12.4915C48.8869 10.3289 48.8984 8.17759 48.8868 6.01499C48.8868 5.59824 48.9794 5.41802 49.4537 5.44055C50.6105 5.4856 51.7674 5.46308 52.9242 5.46308C53.1325 6.03752 52.9936 6.63449 53.0978 7.33283C53.5374 6.90481 53.9307 6.52185 54.3356 6.12763C54.405 6.12763 54.486 6.11636 54.5554 6.11636C54.9603 5.63203 55.585 5.54192 56.1287 5.40676C57.2624 5.11391 58.4192 5.12517 59.5414 5.56445C59.6224 5.57571 59.6918 5.58697 59.7727 5.6095C60.0851 5.74466 60.4437 5.75593 60.6982 6.02625C60.8139 6.06004 60.9296 6.1051 61.0453 6.13889C61.2882 6.38669 61.5427 6.63448 61.7857 6.88228C61.8435 6.9386 61.9129 6.98365 61.9707 7.03997C62.5492 7.74958 62.8615 8.57182 63.0929 9.43911C63.1739 9.78828 63.0582 9.94597 62.6301 9.9347ZM42.744 8.0199C42.7671 8.03117 42.7787 8.04243 42.8018 8.04243C42.7787 8.03117 42.7671 8.03117 42.744 8.0199ZM43.0216 8.18886C42.9869 8.15506 42.9522 8.13254 42.9175 8.11001C42.9522 8.13254 42.9869 8.15506 43.0216 8.18886C43.0679 8.23391 43.1026 8.27896 43.1258 8.33528C43.1026 8.27896 43.0679 8.23391 43.0216 8.18886ZM58.6159 5.72214C58.6043 5.7334 58.6043 5.75593 58.5928 5.76719C58.5928 5.80098 58.5928 5.84604 58.5928 5.87983C58.5928 5.84604 58.5928 5.80098 58.5928 5.76719C58.6043 5.74466 58.6043 5.7334 58.6159 5.72214ZM75.1356 16.7942C75.1472 16.7829 75.1588 16.7604 75.1588 16.7492C75.1472 16.7717 75.1356 16.7829 75.1356 16.7942ZM75.02 22.0768C75.02 21.784 74.9505 21.6375 74.6035 21.6375C74.2564 21.6375 74.187 21.784 74.1986 22.0768C74.2102 22.8315 74.1986 23.5861 74.1986 24.352C73.8168 23.9578 73.5623 23.5298 73.2847 23.1243C72.7757 22.3922 72.5096 21.3222 71.2139 21.6713C71.2139 22.8878 71.2024 24.1043 71.2024 25.3207C71.2024 25.6023 71.1908 25.8276 71.6073 25.8388C72.0237 25.8501 72.0237 25.6136 72.0237 25.332C72.0237 24.5323 72.0237 23.7326 72.0237 22.8315C72.1857 23.0117 72.2782 23.0905 72.3476 23.2032C72.8219 23.9691 73.3078 24.7237 73.759 25.5009C74.0251 25.9515 74.4647 25.8501 74.8349 25.7938C75.1819 25.7375 75.02 25.3883 75.02 25.1743C75.0315 24.138 75.0084 23.1018 75.02 22.0768ZM71.2024 21.6488C71.2139 21.6488 71.2139 21.6488 71.2024 21.6488C71.2139 21.6488 71.2024 21.6488 71.2024 21.6488Z" fill="#0F190C"/>
</svg>
