<svg width="207" height="48" viewBox="0 0 207 48" fill="none" xmlns="http://www.w3.org/2000/svg">
<path fill-rule="evenodd" clip-rule="evenodd" d="M171.768 6.45207C173.402 6.45207 175.08 7.16409 176.123 7.87069V1.10573C174.714 0.621555 172.891 0.21875 170.979 0.21875C164.748 0.21875 162.076 4.52755 162.076 9.64603V11.4729H157.326V16.9955H162.076V36.7153H168.999V16.9955H176.765V11.4729H168.999V9.69688C169 7.66995 169.791 6.45207 171.768 6.45207ZM0.95166 0.516357H40.8309V41.7942H0.95166V0.516357ZM37.0839 4.36987H4.69879V7.12172H37.0839V4.36987ZM37.0839 11.2495H4.69879V13.7262H37.0839V11.2495ZM4.69879 23.0824H37.0839V25.8343H4.69879V23.0824ZM17.5458 28.311H4.69879V31.0628H17.5458V28.311ZM22.8987 28.311H37.0839V31.0628H22.8987V28.311ZM17.5458 16.478H4.69879V19.2299H17.5458V16.478ZM22.8987 16.478H37.0839V19.2299H22.8987V16.478ZM17.5458 35.1906H4.69879V37.6672H17.5458V35.1906ZM22.8987 35.1906H37.0839V37.6672H22.8987V35.1906ZM64.9961 1.95581H72.5409L84.642 34.9768H78.1085L75.7152 28.3702H61.5001L59.0608 34.9768H52.5259L64.9961 1.95581ZM63.1537 23.3219H74.1056L68.7666 8.70475L63.1537 23.3219ZM155.636 23.3227C155.636 15.546 150.311 9.77808 142.914 9.77808C135.602 9.77808 130.281 15.546 130.281 23.3227C130.281 30.9967 135.602 36.7161 142.914 36.7161C150.311 36.7161 155.636 30.9967 155.636 23.3227ZM149.544 23.3227C149.544 27.3304 146.885 30.4616 142.914 30.4616C139.03 30.4616 136.368 27.3304 136.368 23.3227C136.368 19.2116 139.03 16.0346 142.914 16.0346C146.885 16.0346 149.544 19.2116 149.544 23.3227ZM123.459 10.0092C124.024 9.85939 124.646 9.77808 125.338 9.77808C126.669 9.77808 127.814 10.1108 128.591 10.5046V17.5688C128.084 17.0219 126.374 16.3137 124.351 16.3137C121.269 16.3137 119.749 18.5724 119.749 22.5328V25.7904C119.748 25.789 119.747 25.7879 119.746 25.7869C119.744 25.7853 119.742 25.7842 119.74 25.7832C119.739 25.7825 119.738 25.7818 119.736 25.781V36.7161H113.378V10.0654H119.736V11.908C121.049 10.6489 123.222 10.0681 123.436 10.0139C123.438 10.0126 123.442 10.0126 123.442 10.0126C123.447 10.0105 123.459 10.0092 123.459 10.0092ZM198.779 11.5163L192.662 28.162L185.099 11.5156H177.61L189.408 35.9197L188.582 37.9998C187.613 40.2227 186.601 41.3303 184.377 41.314C181.674 41.2942 180.88 40.5029 180.181 39.8062C180.148 39.774 180.116 39.742 180.084 39.7103C180.05 39.6762 180.015 39.6423 179.98 39.6089V46.1679C181.21 46.7124 182.763 47.1433 184.377 47.1433C190.032 47.1433 193.275 44.2029 195.788 37.7317L206.345 11.5163H198.779ZM104.074 12.4922V9.83622V9.83557H110.842V33.6804C110.842 42.6363 105.525 47.1438 97.8857 47.1438C94.3856 47.1438 92.2722 46.6445 90.4655 45.8294V39.5328C92.181 40.5802 94.233 41.1852 97.9856 41.1852C101.164 41.1852 104.074 39.6177 104.074 35.1672V32.7589C102.286 34.3957 99.7242 35.473 96.4843 35.473C89.4277 35.473 84.642 29.6882 84.642 22.6767C84.642 15.5616 89.4277 9.77808 96.4843 9.77808C99.8682 9.77808 102.383 10.8039 104.074 12.4922ZM98.3706 29.2278C100.643 29.2278 102.771 28.1518 104.074 26.7726V18.534C102.912 17.2525 100.692 16.0253 98.3706 16.0253C94.1649 16.0253 91.5535 18.7863 91.5535 22.6774C91.5535 26.5143 94.212 29.2278 98.3706 29.2278Z" fill="#0F190C"/>
</svg>
