<svg viewBox="0 0 245 100" fill="none" xmlns="http://www.w3.org/2000/svg">
  <path
  d="M105.22 82.9807C104.856 83.3754 104.825 83.8129 104.752 84.229C104.296 87.0031 103.309 89.5317 101.689 91.8043C99.6025 94.7278 96.9548 96.8937 93.6635 98.2487C92.2722 98.8248 90.8394 99.1876 89.365 99.4757C88.254 99.6891 87.1535 99.6677 86.0425 99.7211C83.1768 99.8811 80.3008 99.7424 77.4351 99.8704C76.0957 99.9238 74.7667 99.8598 73.4481 99.8064C71.7453 99.7424 70.0322 99.7958 68.3294 99.6464C66.6266 99.497 64.955 99.2196 63.3145 98.5794C59.8466 97.2244 57.1263 94.9732 54.9771 91.9004C54.053 90.588 53.2847 89.201 52.6306 87.7393C52.2983 86.9817 52.1322 86.1602 51.9141 85.36C51.7065 84.5704 51.7584 83.7489 51.4677 82.9807C51.4365 82.8847 51.4158 82.778 51.4158 82.6819C51.395 81.0282 50.9901 79.4171 51.0627 77.7526C51.1043 76.8671 51.0212 75.9708 51.0005 75.0853C50.9589 73.4848 50.9382 71.8631 51.1458 70.2947C51.53 67.3926 52.2256 64.5545 53.6481 61.9832C55.0082 59.5292 56.8979 57.566 59.3379 56.2323C60.8226 55.4321 62.3904 54.8453 64.0309 54.4505C64.9342 54.2265 65.8479 54.0344 66.7616 53.853C68.1217 53.5863 69.4819 53.4369 70.842 53.2342C72.1295 53.0421 73.4066 53.0848 74.6837 52.9675C75.8985 52.8608 77.1029 52.8501 78.3177 52.8714C79.8959 52.9034 81.4948 52.8501 83.0522 53.0848C84.2255 53.2662 85.4091 53.2662 86.572 53.5116C87.4026 53.693 88.2644 53.789 89.1158 53.917C90.0399 54.0557 90.9432 54.2798 91.8465 54.5359C93.0301 54.8773 94.193 55.2721 95.2832 55.8696C97.2975 56.9792 99.0626 58.3876 100.443 60.2867C101.305 61.4817 102.167 62.6873 102.832 64.0104C103.423 65.1947 103.932 66.4217 104.181 67.7553C104.306 68.4489 104.7 69.0677 104.763 69.7825C104.773 69.8572 104.835 69.9106 104.918 69.9106C105.033 69.9106 105.105 69.8359 105.147 69.7399C105.261 69.4091 105.365 69.0677 105.479 68.7263C106.32 66.2083 107.223 63.7223 108.636 61.471C109.497 60.1053 110.567 58.9104 111.771 57.8541C113.007 56.7658 114.305 55.7735 115.748 54.9947C117.523 54.0451 119.351 53.2982 121.334 52.9461C122.746 52.69 124.168 52.5407 125.591 52.3806C129.069 51.9859 132.558 52.1352 136.046 52.1779C137.354 52.1993 138.652 52.434 139.95 52.562C140.978 52.6687 141.996 52.9034 143.023 53.0528C144.311 53.2342 145.578 53.5863 146.875 53.7783C147.613 53.885 148.319 54.0877 149.056 54.2051C149.752 54.3118 150.458 54.4505 151.143 54.6532C151.735 54.8239 152.347 54.9093 152.939 55.0693C153.531 55.2294 154.123 55.3788 154.694 55.6135C155.13 55.7949 155.306 56.0829 155.327 56.5311C155.327 56.5844 155.327 56.6378 155.327 56.6804C155.275 59.2731 155.556 61.8551 155.452 64.4478C155.452 64.4691 155.452 64.5012 155.452 64.5225C155.483 64.8106 155.327 65.184 155.691 65.3334C155.971 65.4507 156.178 65.184 156.397 65.024C158.494 63.4876 160.249 61.5777 161.972 59.6145C163.665 57.6727 165.315 55.6882 167.143 53.8637C167.537 53.4689 167.953 53.2769 168.513 53.2662C170.071 53.2129 171.628 53.2769 173.186 53.2235C175.459 53.1488 177.733 53.2875 180.007 53.2235C181.907 53.1702 183.807 53.0208 185.707 53.0315C188.448 53.0528 191.189 53.1915 193.93 53.2662C195.041 53.2982 196.163 53.3089 197.274 53.3089C197.969 53.3089 198.655 53.3622 199.34 53.4689C200.565 53.661 200.887 54.0024 201.095 55.5068C201.167 56.0509 201.126 56.6271 201.126 57.1819C201.126 61.9405 201.126 66.6991 201.126 71.4576C201.126 72.4392 200.845 72.6953 199.89 72.8874C199.184 73.0261 198.52 72.898 197.834 72.8874C195.311 72.8553 192.788 72.8767 190.265 72.8767C190.193 72.8767 190.12 72.8767 190.047 72.8767C189.144 72.9727 188.936 73.1861 188.936 74.1357C188.926 76.0882 188.999 78.0514 189.019 80.0039C189.071 85.4773 189.04 90.9401 189.03 96.4135C189.03 98.27 188.832 97.9713 187.514 97.9713C182.115 97.9819 176.716 97.9713 171.327 97.9713C170.04 97.9713 169.884 97.8112 169.884 96.4669C169.905 89.7771 169.925 83.0874 169.946 76.3976C169.946 75.5334 169.905 74.6692 169.905 73.8049C169.905 73.4208 169.853 73.1541 169.406 73.0261C169.126 72.9514 168.846 72.8553 168.555 72.8447C167.735 72.8233 166.904 72.8874 166.104 72.7487C163.914 72.3859 161.713 72.6846 159.511 72.5459C158.878 72.5033 158.868 72.5353 158.868 73.2074C158.868 76.6644 158.888 80.1213 158.847 83.5888C158.837 84.5491 158.608 85.488 158.411 86.4269C158.255 87.1631 158.027 87.878 157.788 88.5928C157.134 90.588 156.085 92.3378 154.766 93.9276C153.178 95.8587 151.164 97.1711 148.921 98.174C147.768 98.6861 146.574 99.0489 145.36 99.305C144.498 99.4863 143.626 99.6464 142.733 99.7104C136.898 100.18 131.062 99.9451 125.227 99.9131C123.576 99.9025 121.915 99.7744 120.275 99.6037C119.278 99.497 118.271 99.2303 117.295 98.8568C116.205 98.4514 115.177 97.9606 114.18 97.3738C111.833 95.9974 109.954 94.0983 108.438 91.815C106.933 89.5637 106.061 87.0564 105.583 84.389C105.521 83.9303 105.355 83.4608 105.22 82.9807ZM132.236 70.2627C130.959 70.284 129.806 70.2947 128.654 70.4974C127.553 70.6894 126.681 71.2016 125.923 72.0125C124.978 73.0261 124.635 74.2851 124.521 75.6187C124.324 77.9447 125.082 79.5131 127.21 80.6334C128.114 81.1028 129.121 81.2522 130.138 81.3909C132.194 81.6577 134.229 81.5616 136.275 81.2629C137.448 81.0922 138.486 80.58 139.358 79.7585C141.165 78.0407 141.248 74.7865 139.576 72.7593C138.247 71.1482 136.43 70.4654 134.437 70.2947C133.658 70.2307 132.89 70.316 132.236 70.2627ZM78.4111 70.252C77.4974 70.252 76.5837 70.2307 75.6701 70.252C74.393 70.284 73.2924 70.7748 72.3475 71.671C71.4339 72.5459 71.0289 73.6769 70.8109 74.8826C70.4371 77.0271 71.0289 79.033 73.0017 80.2173C73.9984 80.8148 75.0782 81.1562 76.21 81.2416C78.38 81.4016 80.55 81.4763 82.7096 81.0602C86.001 80.4307 87.548 77.7206 86.8108 74.6692C86.1359 71.8631 83.6752 70.5827 81.4429 70.2733C80.4462 70.1346 79.4183 70.252 78.4111 70.252ZM99.7063 45.2641C99.6959 45.7549 99.8517 46.203 99.9866 46.6618C100.184 47.3446 100.412 48.0168 100.589 48.6997C100.755 49.3825 100.443 49.8093 99.7686 49.8093C94.3488 49.8626 88.9289 49.852 83.5091 49.8306C82.9484 49.8306 82.5539 49.5746 82.3981 49.1158C82.2528 48.6677 82.0451 48.2089 82.0451 47.7287C82.0451 47.0993 81.8167 46.5231 81.6402 45.9576C81.3598 45.0614 81.1418 44.1651 80.9238 43.2582C80.8303 42.8848 80.7369 42.522 80.6227 42.1593C80.4773 41.7112 80.28 41.6471 79.8336 41.8392C78.1723 42.5434 76.646 43.493 75.099 44.3999C72.3268 46.011 69.5649 47.6434 66.8031 49.2758C66.1386 49.6706 65.4741 49.8626 64.6954 49.852C59.4521 49.7453 54.1984 49.8626 48.955 49.8413C48.6539 49.8413 48.3632 49.852 48.0621 49.82C47.626 49.7666 47.5534 49.5639 47.6053 49.1158C47.7299 48.0382 48.0621 47.0032 48.3217 45.9576C48.7058 44.4212 49.1004 42.8848 49.5157 41.3591C49.7753 40.3881 49.9622 39.3959 50.284 38.4463C50.5748 37.5928 50.772 36.7178 51.0108 35.8536C51.26 34.9681 51.5092 34.0718 51.7376 33.1756C52.0284 32.0019 52.371 30.8496 52.6409 29.6653C52.8694 28.6624 53.1497 27.6595 53.3989 26.6672C53.6377 25.7496 53.8453 24.8214 54.1361 23.9145C54.2918 23.4024 54.4475 22.8582 54.5202 22.3141C54.5825 21.8446 54.7694 21.3965 54.8732 20.927C55.247 19.3373 55.7558 17.7795 56.1296 16.1791C56.4307 14.8668 56.7941 13.5651 57.1159 12.2528C57.4793 10.7697 57.8843 9.30799 58.2788 7.82493C58.6214 6.51258 59.0575 5.21091 59.4625 3.9199C59.639 3.35442 59.857 2.79961 60.0958 2.2448C60.3865 1.59396 60.8641 1.35923 61.4767 1.28454C61.674 1.26321 61.8713 1.27388 62.0685 1.27388C65.4845 1.27388 68.9005 1.17785 72.3164 1.29521C76.5734 1.43392 80.8303 1.3699 85.0769 1.44459C85.8971 1.45526 86.3124 2.03141 86.5928 2.68225C87.1431 3.95191 87.5792 5.2856 87.9633 6.61928C88.7628 9.36133 89.5726 12.0927 90.3929 14.8348C91.0782 17.118 91.7842 19.3906 92.4798 21.6632C93.2586 24.2239 94.0373 26.7952 94.8264 29.3559C94.9094 29.612 95.0548 29.8467 95.2209 30.1775C95.4805 29.6227 95.3663 29.1425 95.304 28.6944C94.9821 26.6459 95.0236 24.5973 95.304 22.5488C95.3247 22.4208 95.3455 22.2927 95.3351 22.1647C95.2936 20.9911 95.5324 19.8281 95.7401 18.6971C96.01 17.1927 96.4149 15.699 96.9548 14.2586C97.7128 12.2101 98.7407 10.3323 100.09 8.63581C102.105 6.10715 104.565 4.17597 107.483 2.86363C108.604 2.36216 109.746 1.96739 110.93 1.65798C112.924 1.1245 114.928 0.900444 116.973 0.761741C118.645 0.655046 120.285 0.804419 121.936 0.879105C122.985 0.932452 124.044 1.10316 125.082 1.31655C125.798 1.46593 126.536 1.58329 127.252 1.73266C129.256 2.17011 131.187 2.79961 132.817 4.15463C133.689 4.89083 134.001 5.87242 133.585 7.00338C133.284 7.8356 133.087 8.68916 132.828 9.53204C132.35 11.0684 131.82 12.5835 131.146 14.0452C130.398 15.667 129.682 17.3101 129.027 18.9745C128.768 19.6254 128.477 20.2869 127.667 20.4469C127.221 20.5323 126.826 20.4042 126.442 20.2549C125.373 19.8494 124.272 19.5293 123.171 19.3159C121.811 19.0599 120.41 18.9745 119.049 19.2946C117.014 19.7641 115.54 21.0017 114.585 22.9436C114.045 24.0319 113.889 25.1522 113.889 26.3258C113.889 27.5314 114.388 28.481 115.364 29.1532C116.205 29.74 117.139 30.0601 118.125 30.3375C119.153 30.6149 120.181 30.6363 121.209 30.5402C123.182 30.3482 125.072 29.8254 126.795 28.7904C127.543 28.3423 127.958 28.4063 128.394 29.1532C129.412 30.8923 130.263 32.7168 131.146 34.5306C131.997 36.2697 132.838 38.0195 133.648 39.78C134.291 41.1777 134.883 42.5861 135.486 44.0051C135.714 44.5386 135.569 44.784 135.018 44.912C133.17 45.3601 131.343 45.8616 129.484 46.2564C128.425 46.4804 127.377 46.7258 126.328 46.9819C125.31 47.2273 124.282 47.4513 123.265 47.7181C122.632 47.8888 121.998 48.1022 121.323 48.1342C120.835 48.1555 120.368 48.3582 119.891 48.4756C118.375 48.849 116.848 49.1371 115.332 49.4785C113.609 49.8733 111.844 49.8626 110.089 49.852C109.622 49.852 109.144 49.8306 108.677 49.8306C107.41 49.8413 106.258 49.3718 105.126 48.881C103.216 48.0488 101.44 47.0032 100.049 45.3815C100.007 45.3281 99.9243 45.2961 99.862 45.2748C99.8309 45.2321 99.779 45.2534 99.7063 45.2641ZM77.0925 28.3316C77.0406 28.2463 77.0094 28.2036 76.9887 28.1609C76.7602 27.1793 76.3969 26.2511 76.1165 25.2909C75.6804 23.7758 75.1924 22.2927 74.6318 20.831C74.341 20.0521 74.0296 19.2733 73.4689 18.6544C73.0328 18.1636 72.6383 18.2277 72.2956 18.7931C72.2022 18.9425 72.1191 19.0919 72.0464 19.2519C71.5792 20.2549 71.2262 21.3111 70.8732 22.3674C70.3748 23.8185 70.0218 25.3015 69.5753 26.7632C69.295 27.6808 69.0977 28.6091 68.8485 29.5373C68.589 30.5189 68.319 31.4898 68.0491 32.4607C68.0179 32.5781 67.9452 32.7168 68.0802 32.8022C68.1944 32.8768 68.3086 32.8128 68.4228 32.7595C68.9108 32.5247 69.3988 32.29 69.8972 32.066C71.4442 31.3724 72.9913 30.7003 74.5279 29.9747C75.2444 29.644 75.9192 29.2172 76.6149 28.8331C76.8329 28.7051 77.0198 28.5557 77.0925 28.3316ZM14.4737 49.4892C10.6632 49.4892 6.75922 49.4892 2.84489 49.4892C2.69954 49.4892 2.54379 49.4892 2.39843 49.4785C1.33938 49.4039 0.643735 48.7317 0.602204 47.6434C0.47761 44.9333 0.218039 42.2233 0.269954 39.5026C0.290719 38.1582 0.207657 36.8139 0.0519141 35.4802C0.0311485 35.3308 0.0415313 35.1708 0.0415313 35.0214C0.0207657 24.9281 0.0207657 14.8241 0 4.73078C0 3.90923 0.0934455 3.10902 0.311485 2.33015C0.436079 1.90337 0.685267 1.54061 1.17326 1.38057C1.65087 1.22053 2.1181 1.14584 2.61647 1.14584C4.84878 1.15651 7.07071 1.16718 9.30301 1.14584C9.94675 1.13517 10.5801 1.28454 11.2238 1.28454C13.4042 1.28454 15.5742 1.08183 17.7443 1.11383C20.8176 1.15651 23.8805 1.10316 26.9538 1.16718C28.6566 1.20986 30.3594 1.41258 32.0518 1.39124C33.765 1.3699 35.4574 1.60463 37.1498 1.78601C39.3198 2.01007 41.3548 2.70358 43.0161 4.31467C43.8986 5.16823 44.4489 6.18183 44.7915 7.3128C45.238 8.75317 45.4664 10.2469 45.4353 11.794C45.3833 14.3546 44.6358 16.5952 42.8188 18.3984C42.663 18.5584 42.4969 18.7185 42.3516 18.8892C42.0608 19.2413 42.092 19.38 42.5281 19.54C43.4106 19.8601 44.2205 20.2975 44.9888 20.863C46.1932 21.7486 46.9927 22.9436 47.6572 24.2452C48.3528 25.6109 48.7993 27.0833 49.0796 28.5877C49.2873 29.7507 49.5157 30.935 49.4742 32.13C49.4534 32.7701 49.6091 33.389 49.6091 34.0185C49.6195 35.8003 49.5261 37.5821 49.1004 39.3105C48.3424 42.3513 46.9511 45.008 44.4489 46.9819C43.0057 48.1235 41.4171 48.9344 39.6936 49.4359C38.4268 49.8093 37.1082 49.852 35.8 49.7986C33.4016 49.6813 30.9927 49.8413 28.5943 49.7346C23.922 49.4999 19.2498 49.6386 14.4737 49.4892ZM23.6105 29.9961C22.946 29.9961 22.2712 29.9747 21.6067 29.9961C20.6722 30.0281 19.7274 29.9641 18.8033 30.1348C18.2426 30.2415 18.2115 30.2415 18.1699 30.8603C18.1388 31.3191 18.1492 31.7779 18.1077 32.226C17.9415 33.9011 18.0454 35.5762 18.0557 37.2513C18.0557 37.454 18.1388 37.6461 18.1492 37.8488C18.17 38.1156 18.3153 38.2009 18.5437 38.1902C19.3121 38.1262 20.07 38.3183 20.828 38.3183C22.728 38.3076 24.6385 38.3396 26.5385 38.3076C27.6183 38.2863 28.6878 38.2543 29.7468 37.9022C30.9824 37.4967 31.9272 36.8139 32.5294 35.6189C32.6851 35.3095 32.6228 34.9681 32.7994 34.68C33.0174 34.3066 32.9759 33.8691 32.872 33.485C32.6021 32.4821 32.0622 31.6819 31.1589 31.1591C29.8506 30.3909 28.4178 30.0921 26.9434 29.9961C25.8429 29.9427 24.7215 29.9961 23.6105 29.9961ZM21.7209 19.2519C21.7209 19.2413 21.7209 19.2413 21.7209 19.2306C22.3127 19.2306 22.9045 19.2306 23.5067 19.2306C24.3685 19.2306 25.2303 19.2413 26.0713 18.9318C26.8604 18.6438 27.5768 18.249 27.8779 17.3954C28.2101 16.4672 28.4282 15.571 28.1686 14.5254C27.8156 13.085 26.144 11.9113 24.9811 11.9113C22.8734 11.922 20.776 11.9327 18.6683 11.922C18.3257 11.922 18.1803 12.0394 18.1803 12.4021C18.1803 14.5147 18.1596 16.6272 18.1596 18.7398C18.1596 19.2199 18.2115 19.2413 18.6891 19.2413C19.6858 19.2519 20.7034 19.2519 21.7209 19.2519ZM0.446462 75.6721C0.446462 69.057 0.446462 62.4419 0.446462 55.8269C0.446462 55.3147 0.467227 54.7919 0.737181 54.3545C1.11096 53.7357 1.70278 53.4476 2.38805 53.3516C2.73068 53.3089 3.0837 53.3195 3.42633 53.3195C10.9539 53.3089 18.4814 53.2982 25.9986 53.2875C28.3244 53.2875 30.6501 53.2662 32.9759 53.3729C34.0245 53.4262 35.0732 53.597 36.1115 53.8317C37.1913 54.0771 38.2503 54.3758 39.2782 54.7813C41.7597 55.7308 43.9194 57.1819 45.7675 59.1237C47.4184 60.8522 48.7474 62.8047 49.5261 65.12C49.8999 66.2403 49.9829 67.4032 50.0348 68.5662C50.1283 70.6361 49.9518 72.674 49.1835 74.6158C48.3944 76.6217 47.1588 78.2221 45.3003 79.2997C45.0511 79.4491 44.8123 79.6198 44.5735 79.8012C44.1893 80.0786 44.1686 80.1959 44.397 80.6121C45.3107 82.2765 46.2347 83.9409 47.1588 85.6054C48.7681 88.5075 50.3359 91.4309 51.8311 94.397C52.1114 94.9625 52.3295 95.5493 52.4021 96.1788C52.506 97.0324 52.1737 97.8753 51.1354 97.95C50.8862 97.9713 50.6474 97.9926 50.3982 97.9926C44.9473 97.9926 39.5067 97.9926 34.0557 97.9926C33.8584 97.9926 33.6611 97.9926 33.4639 97.9819C32.872 97.9499 32.436 97.6405 32.1764 97.1071C31.3873 95.5066 30.4321 94.0129 29.5288 92.4978C28.3659 90.556 27.1926 88.6142 26.144 86.5976C25.7909 85.9148 25.386 85.2639 25.0434 84.5704C24.9188 84.325 24.7734 84.261 24.5242 84.2503C23.2783 84.1863 22.0635 84.4424 20.8383 84.6024C20.3192 84.6665 20.2154 84.8585 20.2154 85.4453C20.205 87.1418 20.2984 88.8382 20.4023 90.5347C20.5372 92.6579 20.5684 94.8025 20.4646 96.9363C20.4334 97.5979 20.1946 97.8432 19.582 97.9179C19.3847 97.9393 19.1875 97.9819 18.9902 97.9819C16.3218 97.9819 13.6534 98.3127 10.985 98.11C8.08822 97.8966 5.2018 98.046 2.30499 97.9926C1.64049 97.9819 1.0902 97.8112 0.726798 97.2137C0.498376 96.8296 0.47761 96.4029 0.436079 95.9761C0.40493 95.6453 0.425696 95.3146 0.425696 94.9838C0.446462 88.5395 0.446462 82.1058 0.446462 75.6721ZM19.8935 68.6622C19.9039 68.6622 19.9246 68.6622 19.935 68.6622C19.935 69.4945 19.8935 70.3374 19.9454 71.1696C19.9973 71.9271 20.2361 72.0978 20.9733 72.1725C21.9389 72.2579 22.9045 72.1832 23.8597 72.2365C24.8876 72.2899 25.8636 72.0338 26.8604 71.8738C27.3588 71.7991 27.8675 71.6284 28.3244 71.3723C28.9992 70.9882 29.6118 70.5507 29.8299 69.7185C30.2659 68.0648 29.3211 66.283 28.0233 65.5468C27.0784 65.0133 26.0713 64.7679 25.0019 64.6079C23.4548 64.3625 21.9597 64.5758 20.4749 64.992C20.3296 65.0346 20.1946 65.0773 20.1738 65.2694C20.1115 65.8242 19.8312 66.3256 19.8727 66.9018C19.9246 67.4993 19.8935 68.0754 19.8935 68.6622ZM155.472 11.6659C155.545 8.8492 155.389 6.03246 155.182 3.21572C155.099 2.1381 154.59 1.56195 153.562 1.57262C151.735 1.59396 149.907 1.35923 148.08 1.43392C147.685 1.45526 147.291 1.41258 146.896 1.41258C145.609 1.42325 144.332 1.35923 143.044 1.54061C141.861 1.71132 140.687 1.74333 139.504 1.46593C139.151 1.38057 138.756 1.41258 138.393 1.45526C137.707 1.55128 137.084 1.77534 136.929 2.59689C136.887 2.79961 136.856 3.00233 136.856 3.19438C136.877 5.23225 136.711 7.25945 136.68 9.28665C136.659 10.7377 136.742 12.1781 136.773 13.6291C136.804 15.4323 136.846 17.2354 136.69 19.0385C136.586 20.2335 136.773 21.4178 136.783 22.6128C136.815 24.4373 136.648 26.2618 136.669 28.0969C136.7 32.2153 136.669 36.3338 136.69 40.4628C136.69 41.6045 136.783 42.7461 136.846 43.8877C136.887 44.4852 137.033 44.5919 137.593 44.5066C138.403 44.3785 139.203 44.3038 140.023 44.2932C141.601 44.2505 143.19 44.3145 144.768 44.1438C145.328 44.0905 145.899 43.8664 146.46 44.0478C146.844 44.1758 147.229 44.1865 147.623 44.2078C148.568 44.2398 149.523 44.1545 150.437 44.3572C151.807 44.6559 153.209 44.4746 154.559 44.8266C155.026 44.944 155.14 44.7946 155.192 44.2505C155.265 43.493 155.317 42.7248 155.327 41.9779C155.369 40.1961 155.545 38.425 155.472 36.6432C155.462 36.4404 155.462 36.2377 155.472 36.035C155.483 35.8643 155.452 35.6616 155.67 35.5976C155.836 35.5549 155.95 35.6402 156.054 35.7576C156.21 35.9283 156.376 36.0777 156.532 36.2377C158.525 38.3396 160.332 40.6229 162.086 42.9275C163.446 44.72 164.724 46.5764 166.125 48.3369C167.029 49.4679 168.025 50.1934 169.51 50.0867C170.351 50.0227 171.192 50.0654 172.033 50.0654C175.698 50.076 179.363 50.0867 183.028 50.0974C183.496 50.0974 183.973 50.0867 184.441 50.0654C185.271 50.012 185.749 49.5746 185.873 48.7317C185.956 48.1235 185.894 47.5474 185.562 46.9925C185.365 46.6725 185.126 46.3844 184.929 46.075C184.036 44.6559 183.101 43.2689 182.208 41.8499C181.513 40.7509 180.744 39.7053 179.966 38.6704C178.74 37.0593 177.546 35.4268 176.332 33.8051C175.584 32.8022 174.826 31.8099 174.13 30.7643C173.622 29.9961 173.071 29.2492 172.521 28.513C171.535 27.19 170.548 25.867 169.531 24.5547C169.302 24.2666 169.271 24.0532 169.458 23.7438C169.78 23.2103 170.133 22.6982 170.465 22.1647C171.618 20.3189 172.864 18.5477 174.12 16.7659C174.785 15.827 175.491 14.9201 176.114 13.9492C177.827 11.2392 179.685 8.64648 181.44 5.96844C181.98 5.13622 182.561 4.33601 182.831 3.33308C183.101 2.30881 182.769 1.73266 181.762 1.73266C176.093 1.73266 170.424 1.73266 164.755 1.73266C164.215 1.73266 163.675 1.80735 163.135 1.87137C162.782 1.91404 162.491 2.10609 162.263 2.39417C161.868 2.88497 161.578 3.43978 161.276 3.99459C160.342 5.69104 159.273 7.30212 158.162 8.88121C157.341 10.0442 156.511 11.1965 155.639 12.4128C155.41 12.1141 155.472 11.8793 155.472 11.6659ZM223.49 98.5581C224.29 98.4301 225.1 98.334 225.878 98.1313C227.259 97.7686 228.599 97.2671 229.845 96.5096C232.16 95.1119 234.205 93.4368 235.534 90.9828C236.396 89.3717 236.957 87.6646 236.936 85.7974C236.926 85.3386 236.915 84.8798 236.936 84.4211C236.978 83.6208 236.708 82.874 236.552 82.1058C236.407 81.3269 236.085 80.58 235.742 79.8652C234.984 78.2648 234.029 76.8244 232.586 75.7468C231.34 74.8079 230 74.0183 228.713 73.1541C227.633 72.4179 226.429 71.9058 225.328 71.2016C224.944 70.9562 224.622 70.6894 224.342 70.316C224.155 70.06 224.196 69.8892 224.331 69.6438C224.612 69.1317 225.027 69.0037 225.567 69.0143C228.318 69.0357 231.059 69.0357 233.811 69.025C234.922 69.025 235.296 68.6516 235.264 67.5206C235.213 65.0773 235.483 62.6447 235.399 60.2014C235.399 60.052 235.431 59.9026 235.431 59.7426C235.441 57.9608 235.462 56.179 235.451 54.4078C235.451 53.7997 234.995 53.3942 234.423 53.3089C232.876 53.0848 231.319 53.1062 229.772 53.0742C226.439 53.0208 223.106 52.9568 219.763 53.2449C217.769 53.4156 215.786 53.5116 213.814 53.8637C212.889 54.0237 211.986 54.2585 211.114 54.5785C208.83 55.4321 206.795 56.7018 205.134 58.5796C203.805 60.084 202.953 61.8338 202.652 63.8076C202.226 66.5924 202.517 69.3238 203.69 71.9164C204.594 73.9223 205.84 75.5761 207.75 76.739C209.65 77.8913 211.561 79.001 213.429 80.1959C213.814 80.4413 214.239 80.6761 214.52 81.0815C214.945 81.6897 214.758 82.2552 214.052 82.4792C213.699 82.5859 213.326 82.6179 212.952 82.6393C211.612 82.7139 210.283 82.5005 208.954 82.5005C207.449 82.5005 205.933 82.5112 204.438 82.3298C202.88 82.1485 201.333 82.1911 199.776 82.1591C199.34 82.1485 199.153 82.3618 199.028 82.7246C198.966 82.8953 198.956 83.066 198.956 83.2474C198.945 84.133 198.925 85.0292 198.914 85.9148C198.883 88.4008 198.852 90.8974 198.81 93.3834C198.81 93.5648 198.8 93.7462 198.769 93.9169C198.551 94.9732 198.696 96.0401 198.675 97.1071C198.665 97.6299 199.101 98.1633 199.548 98.1847C200.357 98.2273 201.136 98.4941 201.967 98.4514C203.057 98.4087 204.147 98.4834 205.227 98.5048C206.66 98.5261 208.082 98.6115 209.505 98.7075C211.623 98.8355 213.762 98.7395 215.89 98.7395C218.413 98.7075 220.957 98.9742 223.49 98.5581ZM219.555 28.0329C219.555 27.8088 219.566 27.5741 219.545 27.3501C219.483 26.8593 219.306 26.6672 218.828 26.6459C218.309 26.6245 217.78 26.5925 217.271 26.6459C215.568 26.8379 213.855 26.6992 212.152 26.7312C211.457 26.7419 211.405 26.7632 211.394 27.4888C211.394 27.6381 211.394 27.7982 211.394 27.9475C211.384 30.1348 211.384 32.322 211.363 34.5093C211.363 35.1174 211.301 35.1814 210.74 35.1921C210.117 35.2135 209.505 35.2135 208.882 35.1921C208.352 35.1814 208.29 35.1174 208.28 34.5626C208.269 33.4957 208.28 32.4287 208.269 31.3618C208.259 30.0921 208.259 28.8224 208.228 27.5421C208.217 27.0193 208.03 26.8486 207.542 26.7206C207.252 26.6459 206.961 26.6245 206.66 26.6245C204.905 26.6245 203.14 26.6245 201.385 26.6245C201.084 26.6245 200.794 26.6672 200.503 26.7206C200.181 26.7846 200.046 26.966 199.984 27.2754C199.859 27.9262 199.838 28.5877 199.932 29.2492C200.004 29.7293 200.025 30.2201 199.963 30.6896C199.828 31.7779 199.859 32.8662 199.818 33.9545C199.766 35.2988 199.797 36.6538 199.807 37.9982C199.828 41.5298 199.849 45.072 199.88 48.6036C199.88 48.881 199.932 49.1585 199.953 49.4359C199.984 49.8093 200.202 50.012 200.524 50.012C201.531 49.9907 202.548 50.0867 203.555 49.9373C204.479 49.7986 205.424 49.7559 206.348 49.9907C206.618 50.0547 206.899 50.0654 207.158 50.0013C207.698 49.8733 207.958 49.4999 207.958 48.817C207.968 46.8859 207.989 44.9547 207.947 43.0128C207.937 42.2766 208.269 42.0312 208.861 42.0099C209.557 41.9886 210.252 42.0099 210.938 41.9992C211.218 41.9992 211.342 42.1379 211.353 42.4153C211.353 42.5647 211.363 42.7248 211.363 42.8741C211.384 44.7306 211.405 46.5871 211.415 48.4436C211.415 48.753 211.477 49.0411 211.571 49.3398C211.747 49.852 211.934 50.0227 212.453 50.0333C212.921 50.044 213.398 50.0333 213.865 50.0333C215.475 50.0333 217.084 50.0333 218.694 50.0333C219.067 50.0333 219.4 49.9693 219.503 49.5426C219.555 49.3505 219.535 49.1371 219.535 48.9344C219.535 45.4241 219.535 41.9139 219.535 38.4036C219.555 34.9467 219.555 31.4898 219.555 28.0329ZM199.506 13.5544C199.465 12.1781 199.61 10.7057 199.776 9.24397C199.984 7.33413 200.555 5.54166 201.77 4.03727C202.548 3.06635 203.483 2.33015 204.708 1.96739C205.268 1.80735 205.808 1.74333 206.369 1.67932C207.864 1.51927 209.37 1.32722 210.865 1.5086C212.287 1.67932 213.762 1.59396 215.111 2.26614C216.492 2.94898 217.499 4.00526 218.195 5.38162C219.047 7.0674 219.379 8.89188 219.493 10.7697C219.607 12.8503 219.659 14.9415 219.545 17.0113C219.41 19.4867 218.704 21.7593 216.742 23.4237C216.16 23.9145 215.475 24.2346 214.748 24.48C213.876 24.7787 213.004 24.7574 212.121 24.768C211.187 24.7787 210.273 25.0988 209.328 24.9601C208.01 24.7467 206.66 24.8854 205.352 24.6827C204.043 24.48 202.953 23.7331 202.039 22.7195C201.157 21.7379 200.575 20.5856 200.119 19.3586C199.973 18.9639 199.859 18.5264 199.828 18.1103C199.693 16.6272 199.392 15.1549 199.506 13.5544ZM207.688 13.277C207.688 13.8638 207.677 14.44 207.688 15.0268C207.698 16.0191 208.404 16.7659 209.318 16.8193C210.211 16.8726 211.259 16.2111 211.384 15.1655C211.54 13.7998 211.54 12.4341 211.384 11.0684C211.363 10.8657 211.291 10.695 211.197 10.503C210.906 9.87347 209.816 9.46803 209.048 9.67075C208.311 9.8628 207.708 10.5563 207.688 11.4419C207.677 12.0607 207.688 12.6689 207.688 13.277ZM221.019 38.2649C221.019 40.6015 221.009 42.9488 221.019 45.2854C221.019 46.4271 221.03 47.5794 221.071 48.721C221.113 49.7133 221.237 49.82 222.172 49.82C226.356 49.82 230.54 49.82 234.714 49.82C234.839 49.82 234.963 49.82 235.088 49.82C235.441 49.82 235.68 49.6279 235.856 49.3185C236.022 49.0411 236.022 48.7423 236.022 48.4329C236.022 46.7258 236.022 45.0294 236.022 43.3223C236.022 43.1195 236.012 42.9168 235.991 42.7141C235.877 41.9352 235.638 41.6898 234.88 41.6792C233.396 41.6685 231.911 41.6578 230.426 41.6898C229.107 41.7218 229.107 41.7432 229.149 40.4095C229.17 39.6733 229.191 39.6413 229.907 39.6093C230.893 39.5666 231.88 39.5559 232.876 39.5239C233.52 39.5026 233.645 39.3852 233.655 38.7024C233.666 38.1902 233.686 37.6781 233.645 37.1766C233.593 36.5045 233.458 36.4084 232.814 36.3978C231.776 36.3871 230.738 36.3871 229.699 36.3978C229.398 36.3978 229.242 36.3017 229.253 35.9603C229.274 35.5762 229.263 35.1921 229.253 34.8187C229.242 34.4879 229.377 34.3706 229.699 34.3812C230.239 34.3919 230.789 34.3599 231.329 34.3599C232.638 34.3599 233.956 34.3599 235.264 34.3599C235.825 34.3599 236.002 34.1679 236.033 33.6024C236.033 33.549 236.033 33.4957 236.033 33.453C236.033 31.5218 236.033 29.5906 236.033 27.6595C236.033 26.8806 235.836 26.6779 235.067 26.6565C234.995 26.6565 234.922 26.6565 234.849 26.6565C230.738 26.6565 226.636 26.6565 222.525 26.6565C222.327 26.6565 222.13 26.6459 221.933 26.6672C221.621 26.6992 221.362 26.8166 221.3 27.19C221.248 27.4568 221.102 27.7021 221.102 28.0009C221.102 28.7371 221.061 29.4733 221.061 30.2095C221.05 32.9089 221.061 35.5976 221.061 38.2969C221.04 38.2649 221.03 38.2649 221.019 38.2649ZM186.174 1.71132C184.503 1.71132 184.503 1.71132 184.492 3.41844C184.492 5.88309 184.492 8.34773 184.492 10.8231C184.492 10.9724 184.482 11.1325 184.503 11.2818C184.565 11.794 184.721 11.9327 185.209 11.9433C185.801 11.954 186.393 11.9433 186.995 11.9433C187.722 11.954 187.753 11.986 187.773 12.7115C187.773 12.8929 187.773 13.0636 187.773 13.245C187.773 16.8086 187.773 20.3616 187.773 23.9252C187.773 24.8321 187.919 24.9814 188.812 24.9814C190.888 24.9814 192.965 24.9921 195.052 24.9814C195.924 24.9814 196.007 24.8641 196.028 23.9572C196.1 20.6603 195.779 17.3634 195.882 14.0559C195.893 13.6718 195.882 13.2984 195.882 12.9143C195.882 12.7862 195.872 12.6582 195.893 12.5302C195.945 12.0927 196.059 11.9754 196.505 11.9647C196.879 11.954 197.243 11.954 197.616 11.9433C198.644 11.9113 198.686 11.8793 198.707 10.8231C198.707 10.695 198.707 10.567 198.707 10.4389C198.707 8.85987 198.717 7.28079 198.707 5.71238C198.696 4.64543 198.779 3.57848 198.624 2.51153C198.52 1.76467 198.499 1.72199 197.751 1.72199C195.696 1.72199 193.64 1.72199 191.594 1.72199C189.788 1.71132 187.981 1.71132 186.174 1.71132ZM191.542 26.9126C189.487 26.9126 187.431 26.9126 185.375 26.9126C184.856 26.9126 184.69 27.0513 184.596 27.5955C184.555 27.8409 184.503 28.0969 184.503 28.353C184.492 30.999 184.492 33.645 184.503 36.2911C184.503 36.9953 184.711 37.198 185.396 37.2193C185.967 37.23 186.538 37.2086 187.109 37.23C187.732 37.2513 187.784 37.3047 187.784 37.9342C187.794 38.7984 187.784 39.6626 187.784 40.5269C187.784 43.4503 187.784 46.3737 187.784 49.3078C187.784 50.0867 187.836 50.1294 188.583 50.1294C190.816 50.1294 193.038 50.1294 195.27 50.1294C196.017 50.1294 196.049 50.1187 196.028 49.3718C195.976 47.6434 196.049 45.9256 195.924 44.1972C195.779 42.0953 195.882 39.972 195.893 37.8595C195.893 37.326 195.945 37.294 196.443 37.2727C196.941 37.2513 197.429 37.262 197.928 37.2193C198.426 37.1766 198.623 36.9632 198.696 36.4725C198.727 36.2484 198.727 36.0137 198.727 35.7896C198.727 33.8264 198.738 31.8739 198.727 29.9107C198.727 29.1745 198.769 28.4383 198.644 27.7022C198.54 27.1047 198.499 27.0193 197.938 26.9553C197.762 26.934 197.596 26.9446 197.419 26.9446C195.467 26.9446 193.505 26.9446 191.553 26.9446C191.542 26.9233 191.542 26.9126 191.542 26.9126ZM232.388 13.8959C232.513 13.8745 232.627 13.8425 232.752 13.8212C233.707 13.5864 234.662 13.341 235.628 13.117C236.874 12.8289 238.099 12.4555 239.241 11.89C240.352 11.3459 241.307 10.599 242.034 9.52137C243.083 7.95296 243.508 6.13915 243.986 4.35735C244.329 3.09836 244.526 1.78601 244.786 0.505674C244.889 -0.00646085 244.827 -0.0811472 244.298 0.0682254C243.373 0.334962 242.429 0.537682 241.505 0.761741C240.124 1.10316 238.764 1.4766 237.455 2.03141C236.251 2.55421 235.14 3.23706 234.351 4.37869C233.458 5.68037 233.032 7.16342 232.669 8.67849C232.503 9.36133 232.388 10.0548 232.253 10.7484C232.087 11.6126 231.921 12.4875 231.797 13.149C231.786 13.9492 231.817 13.9812 232.388 13.8959ZM235.109 23.7544C236.978 23.1783 238.67 22.218 240.186 20.9484C241.525 19.8281 242.782 18.6438 243.851 17.2461C244.1 16.9153 243.945 16.8086 243.726 16.6806C243.623 16.6166 243.488 16.6166 243.373 16.5952C242.47 16.3605 241.557 16.1364 240.653 15.9017C239.21 15.539 237.746 15.3789 236.272 15.2402C235.503 15.1762 234.756 15.3256 233.998 15.4109C233.323 15.4856 232.69 15.667 232.067 15.891C229.741 16.7126 228.163 18.4411 226.844 20.4683C226.564 20.895 226.605 21.1831 226.927 21.5565C228.401 23.2957 230.25 24.1812 232.752 24.1812C233.396 24.2879 234.268 24.0105 235.109 23.7544ZM229.429 4.95484C229.149 3.70651 228.744 2.47953 228.391 1.25254C228.277 0.847097 228.121 0.793749 227.778 1.08183C226.096 2.50086 224.664 4.13329 223.501 6.04313C222.39 7.87828 221.798 9.84146 221.871 12.0074C221.954 14.2053 222.764 16.1151 224.072 17.8222C224.612 18.5371 224.736 18.5691 225.422 18.0036C225.972 17.5448 226.543 17.086 227.052 16.5846C228.973 14.6961 230.301 12.5302 230.104 9.5107C230.291 8.02765 229.772 6.50192 229.429 4.95484Z"
  fill="#0F190C" />
</svg>