<svg width="159" height="55" viewBox="0 0 159 55" fill="none" xmlns="http://www.w3.org/2000/svg">
<path d="M60.8291 47.5425V6.93457H85.3629V13.7783H68.3983V23.1353H82.7416V29.979H68.3983V47.4819H60.8291V47.5425Z" fill="#0F190C"/>
<path d="M89.9868 6.93457H103.034C111.104 6.93457 115.787 10.417 115.787 17.4121C115.787 20.955 114.108 23.8621 110.927 25.8304C115.08 28.5255 116.759 30.7664 116.759 35.8234C116.759 43.8481 111.516 47.5425 103.505 47.5425H89.9868V6.93457ZM97.5266 22.9839H102.592C105.979 22.9839 108.218 20.955 108.218 18.1691C108.218 15.2015 106.539 13.2938 102.975 13.2938H97.5266V22.9839ZM97.5266 41.0925H103.093C107.01 41.0925 109.101 38.7305 109.101 35.1572C109.101 31.2811 106.48 29.3734 102.563 29.3734H97.4971V41.0925H97.5266Z" fill="#0F190C"/>
<path d="M121.294 47.5425V6.93457H128.599L143.001 31.0389H143.118V6.93457H150.04V47.5728H143.825L128.392 21.379H128.275V47.5728H121.294V47.5425Z" fill="#0F190C"/>
<path d="M153.751 7.78257C153.692 7.44946 153.486 7.17692 153.25 7.17692C152.985 7.17692 152.808 7.29805 152.808 7.57059C152.808 8.41849 154.399 8.29737 154.399 9.69035C154.399 10.4171 153.957 10.8108 153.25 10.8108C152.543 10.8108 152.219 10.4777 152.102 9.69035L152.75 9.56922C152.808 9.96289 153.015 10.2354 153.339 10.2354C153.663 10.2354 153.839 10.0235 153.839 9.7812C153.839 8.87273 152.249 8.99386 152.249 7.66144C152.249 6.99523 152.632 6.60156 153.339 6.60156C154.045 6.60156 154.369 6.99523 154.428 7.66144L153.751 7.78257Z" fill="#0F190C"/>
<path d="M157.403 10.8108V7.78254L156.696 10.8108H156.254L155.547 7.78254V10.8108H154.958V6.72266H155.842L156.49 9.47836L157.197 6.72266H158.08V10.8108H157.403Z" fill="#0F190C"/>
<path d="M48.8713 7.96362H48.3706V5.41992H49.2837C49.9316 5.41992 50.1967 5.6319 50.1967 6.14669C50.1967 6.57064 49.9022 6.8129 49.6371 6.8129L50.1967 7.90306H49.6371L49.0775 6.8129H48.783V7.96362H48.8713ZM48.8713 6.51008H49.2837C49.6371 6.51008 49.7844 6.35867 49.7844 6.14669C49.7844 5.93472 49.6371 5.84387 49.2837 5.84387H48.8713V6.51008Z" fill="#0F190C"/>
<path d="M49.284 8.90356C48.0764 8.90356 47.1045 7.90427 47.1045 6.66272C47.1045 5.42117 48.0764 4.42188 49.284 4.42188C50.4915 4.42188 51.4635 5.42117 51.4635 6.66272C51.4929 7.87399 50.4326 8.90356 49.284 8.90356ZM49.284 4.90638C48.3709 4.90638 47.6052 5.69371 47.6052 6.63244C47.6052 7.57117 48.3709 8.35849 49.284 8.35849C50.197 8.35849 50.9628 7.57117 50.9628 6.63244C50.9922 5.69371 50.2264 4.90638 49.284 4.90638Z" fill="#0F190C"/>
<path opacity="0.6" d="M29.0798 26.073C27.1065 26.8603 25.0743 27.799 23.101 28.8892C21.9818 29.5554 20.9215 30.0399 19.8612 30.5547C19.8023 32.5836 20.0674 35.2484 21.1277 38.5188C22.453 42.3646 25.1332 46.4223 30.4935 47.9364C38.7401 50.2681 43.5997 45.2716 43.5997 45.2716V45.3322C48.4004 40.7596 51.3456 34.2491 51.3456 27.0723C51.3456 25.5582 51.1984 24.1046 50.9333 22.6511C43.5114 22.2272 36.0599 23.3173 29.0798 26.073Z" fill="#0F190C"/>
<path opacity="0.6" d="M4.36914 34.8847C5.07599 36.9742 5.98901 39.003 7.19655 40.82C7.75614 41.6981 8.46299 42.4249 9.3171 42.9094C10.5246 43.5756 12.6157 43.7876 14.2356 42.1221C17.3281 38.9425 17.4754 34.0974 17.6815 31.6143C11.0548 34.4608 6.04791 34.8241 4.36914 34.8847Z" fill="#0F190C"/>
<path opacity="0.7" d="M51.3452 28.0709C38.9458 26.4054 28.8142 31.7048 20.1553 35.0358C20.3614 36.126 20.656 37.2767 21.0094 38.5182C22.3347 42.364 25.0149 46.4218 30.4341 47.9359C38.6807 50.2676 43.5404 45.2711 43.5404 45.2711V45.3317C48.1055 40.9711 51.0507 34.8844 51.3452 28.0709Z" fill="#0F190C"/>
<path opacity="0.7" d="M9.34685 42.9392C10.5544 43.6054 12.5866 43.8174 14.2654 42.1519C15.8852 40.4864 16.7393 38.3062 17.1517 36.2773C11.5263 38.0942 7.72698 38.0942 5.51807 37.7914C6.01875 38.8815 6.57834 39.8808 7.19684 40.8195C7.81533 41.6371 8.43383 42.4244 9.34685 42.9392Z" fill="#0F190C"/>
<path d="M50.6978 33.8848C49.4313 38.306 46.9573 42.273 43.8059 45.392V45.3315C43.8059 45.3315 38.799 50.4794 30.3462 48.0871C25.4277 46.7244 22.7475 43.242 21.1865 39.7595C21.3338 39.699 21.481 39.699 21.5989 39.6081C23.0126 43.0906 25.6927 46.4822 30.464 47.8752C38.6223 50.116 43.423 45.2103 43.423 45.2103C46.6628 42.1821 49.0484 38.2454 50.256 33.7637C50.4327 33.794 50.5505 33.794 50.6978 33.8848Z" fill="#0F190C"/>
<path d="M9.2879 42.9401C10.4954 43.6668 12.6749 43.8182 14.2948 42.0619C14.501 41.8499 14.7071 41.5471 14.9427 41.2745C10.142 41.9407 7.75637 41.0626 7.19678 40.8506C7.72692 41.6985 8.43378 42.4253 9.2879 42.9401Z" fill="#0F190C"/>
<path opacity="0.3" d="M50.5502 33.6732C49.3426 38.1549 46.8981 42.2127 43.6584 45.3318V45.2712C43.6584 45.2712 38.7399 50.2678 30.4933 48.0269C25.5748 46.6642 22.8947 43.1818 21.481 39.6388C22.6001 39.2754 23.8077 38.8514 25.133 38.3366C36.207 33.9457 43.1577 32.2802 50.5502 33.6732Z" fill="#0F190C"/>
<path d="M39.3586 9.11523C38.5929 10.5688 33.91 18.9266 24.3086 19.9864C25.2216 20.4104 28.4319 21.6519 32.349 20.1984C37.0614 18.4723 39.3586 9.38777 39.3586 9.11523Z" fill="#0F190C"/>
<path d="M27.1652 0C12.6747 0 0.834961 12.143 0.834961 27.072C0.834961 42.0616 12.6747 54.144 27.1652 54.144C41.7441 54.144 53.4955 41.9707 53.4955 27.072C53.4955 12.1733 41.7735 0 27.1652 0ZM43.4523 45.1806C43.4523 45.1806 38.5927 50.1165 30.4933 47.7848C25.6337 46.4222 23.0125 43.0003 21.6282 39.5179C21.4809 39.1545 21.3337 38.7911 21.2159 38.4277C19.5371 33.3707 19.8905 29.6763 20.3029 27.8594C20.4501 27.284 20.6563 26.7086 20.8625 26.1938C21.2159 25.3157 21.5104 24.8312 21.9816 24.0136L22.7474 22.7114C23.0419 22.2875 23.3953 21.7121 23.6604 21.2579C23.8666 20.834 24.1611 20.4706 24.3084 20.0163C33.8803 18.9262 38.6221 10.5381 39.3879 9.08457L39.329 9.02401C34.8817 12.779 31.642 11.6283 28.2844 13.5057C26.0166 14.7473 25.2508 16.3219 25.0447 17.2001C25.1036 16.5339 25.1036 15.898 25.1036 15.3226C24.8974 13.2938 24.1316 11.3254 22.9241 9.81134L22.7179 9.8719C23.6899 11.4768 24.2789 13.4149 24.2789 15.2318C24.2789 16.5339 23.9255 17.836 23.3659 18.9868C23.4248 18.472 23.5131 17.1093 22.2467 16.2311C20.6857 15.141 18.5946 13.7783 18.359 12.3247L18.2118 12.3853C18.2118 12.4459 18.2118 12.5367 18.2118 12.6881C18.359 14.4142 19.1248 16.0191 20.3323 17.1698L22.9241 19.7135C22.7768 19.9255 22.6296 20.1375 22.5118 20.3797C22.2173 20.7431 21.9522 21.1065 21.6577 21.4699L20.7446 22.6206C20.1851 23.4079 19.6255 24.3467 19.1837 25.2248C18.2707 27.1023 17.77 29.1312 17.6227 31.2509C17.4165 33.5826 17.4165 38.6397 14.2357 41.9707C12.6158 43.6362 10.5836 43.4243 9.3761 42.758C8.52198 42.2433 7.81513 41.5165 7.25554 40.6686C4.42813 36.3383 2.89661 31.039 3.25004 25.3762C4.0158 12.8395 14.2357 2.69509 26.5762 2.42255C40.0653 2.08945 51.1982 13.324 51.1982 27.1326C51.1982 29.4643 50.9037 31.7052 50.2852 33.7946C49.0777 38.2158 46.692 42.1221 43.4523 45.1806Z" fill="#0F190C"/>
<path d="M22.9535 19.7441C21.746 19.5927 20.2145 19.2294 19.2132 18.0181C17.5934 15.9892 18.094 12.8097 18.1529 12.4463C18.1529 12.5069 18.1824 12.7794 18.2413 13.0216C18.4474 14.3237 19.1543 15.9892 20.3618 17.1702L22.9535 19.7441Z" fill="#0F190C"/>
</svg>
