<svg width="214" height="50" viewBox="0 0 214 50" fill="none" xmlns="http://www.w3.org/2000/svg">
<path d="M38.1793 9.23468C40.3324 6.5288 43.729 6.38701 45.9397 7.60406C46.7457 8.05308 47.4135 8.6557 47.9317 9.42374C48.1389 9.73096 48.2426 9.77822 48.4959 9.45919C49.5552 8.11216 50.8908 7.22595 52.5834 6.97781C56.003 6.46972 59.1924 8.01763 59.9178 12.0233C60.056 12.7913 60.1251 13.5712 60.1251 14.351C60.1251 17.1042 60.1251 19.8455 60.1251 22.5987C60.1251 23.1186 60.056 23.6148 59.699 24.0166C59.227 24.5483 58.6628 24.7137 58.041 24.4892C57.4193 24.2647 57.0393 23.733 57.0393 23.0004C57.0278 20.7672 57.0393 18.5221 57.0278 16.2889C57.0163 15.1191 57.1199 13.9375 56.8321 12.7795C56.3945 11.0071 55.3813 10.05 53.493 9.87275C52.0767 9.74277 50.5684 10.3927 49.7739 11.9051C49.3249 12.7559 49.1637 13.6539 49.1637 14.611C49.1637 17.2814 49.1637 19.9519 49.1637 22.6223C49.1637 23.1776 49.0831 23.6976 48.6686 24.1348C48.208 24.6192 47.6438 24.6783 47.0796 24.4892C46.4809 24.3002 46.124 23.8157 46.1125 23.1658C46.0894 21.3462 46.1124 19.5147 46.0779 17.6832C46.0549 16.2534 46.1585 14.8237 45.9973 13.3939C45.8016 11.657 44.7192 10.2745 43.2454 9.95546C41.4838 9.57735 39.7221 10.3454 38.8701 11.8815C38.398 12.7204 38.1562 13.6421 38.1562 14.611C38.1562 17.376 38.1562 20.1527 38.1562 22.9177C38.1562 23.5794 37.9029 24.1111 37.3157 24.4065C36.7861 24.6783 36.2334 24.631 35.7383 24.2884C35.2317 23.9339 35.0705 23.3903 35.0589 22.7995C35.0474 18.144 35.0474 13.4885 35.0589 8.84475C35.0589 7.80494 35.7268 7.06053 36.5903 7.04871C37.4654 7.03689 38.1332 7.81675 38.1562 8.85657C38.1677 8.93928 38.1677 9.03381 38.1793 9.23468ZM66.7917 8.92747C66.7917 7.81676 66.1124 7.01326 65.1797 7.04871C64.2701 7.07234 63.6599 7.80494 63.6599 8.89202C63.6599 15.2136 63.6599 21.5352 63.6599 27.8686C63.6599 28.9557 64.2701 29.6292 65.2258 29.6292C66.2045 29.6292 66.7917 28.9675 66.7917 27.8804C66.7917 26.108 66.7917 24.3474 66.7917 22.575C66.7917 22.4332 66.7111 22.2678 66.8838 22.1497C67.4941 22.7286 68.0698 23.3194 68.7837 23.7448C71.7888 25.5763 75.7842 24.9501 78.2482 22.1851C80.5971 19.5383 81.0576 16.3952 80.2171 13.0276C79.0657 8.37211 74.1722 5.72531 69.912 7.36774C68.703 7.84039 67.7934 8.72659 66.7802 9.70733C66.7917 9.35284 66.7917 9.14016 66.7917 8.92747ZM75.7612 20.3418C74.2528 21.7834 72.4451 22.2205 70.4647 21.5116C68.3807 20.7672 67.1602 19.2311 66.8032 17.0215C66.4233 14.6346 66.9644 12.5196 68.8988 10.9953C71.547 8.90383 74.6213 9.82549 76.1642 11.8342C77.0508 12.9922 77.3962 14.3865 77.4077 16.0644C77.3386 17.5296 77.0162 19.1484 75.7612 20.3418ZM93.9764 23.3903C94.1031 24.052 94.6442 24.5247 95.3006 24.5483C96.3714 24.5838 96.9586 23.993 96.9701 22.7995C96.9701 19.5619 96.9816 16.3243 96.9356 13.0867C96.8895 10.3927 95.0703 8.05308 92.5372 7.37956C89.7738 6.64696 87.0795 6.97781 84.4888 8.13579C83.6483 8.5139 83.3259 9.34103 83.6598 10.1091C83.9937 10.8535 84.7652 11.1489 85.5942 10.7826C87.045 10.1563 88.5418 9.82549 90.1192 9.95546C92.2954 10.1327 93.7807 11.208 93.9304 13.6421C93.9534 13.9966 93.8958 14.1147 93.4928 14.0202C91.4318 13.5357 89.3478 13.323 87.2522 13.7248C85.6403 14.032 84.1434 14.611 83.1302 16.0289C81.0807 18.9002 82.2551 22.8822 85.5481 24.1702C88.5648 25.3518 91.3512 24.8555 93.8843 22.6341C93.9189 22.9295 93.9304 23.1658 93.9764 23.3903ZM90.1538 21.9724C89.0369 22.1969 87.9431 22.1378 86.9183 21.6179C85.8475 21.0744 85.2488 20.2236 85.3179 18.9475C85.3869 17.7304 86.0202 16.9506 87.1025 16.5252C88.0467 16.1589 89.0254 16.0407 90.0271 16.088C91.1555 16.1353 92.2724 16.3007 93.3777 16.5134C93.8498 16.6079 94.0801 16.797 93.988 17.3051C93.9649 17.3996 93.988 17.5059 93.988 17.6005C94.1031 20.1173 92.2378 21.547 90.1538 21.9724ZM135.105 12.6023C134.114 10.1682 133.136 7.73404 132.134 5.31175C131.685 4.21285 131.305 3.09033 130.718 2.05051C130.315 1.32973 129.555 1.08159 128.841 1.34155C128.093 1.61332 127.713 2.2632 127.782 3.09033C127.816 3.43299 127.943 3.74021 128.07 4.03561C128.818 5.80802 129.589 7.56862 130.338 9.32921C132.341 14.0556 134.322 18.7939 136.325 23.5203C136.613 24.2056 137.143 24.5719 137.88 24.6428C138.732 24.7256 139.365 24.3947 139.779 23.6267C139.941 23.3194 140.079 23.0004 140.217 22.6814C141.61 19.3847 142.98 16.088 144.374 12.7913C145.663 9.75459 146.953 6.71786 148.254 3.68113C148.53 3.04306 148.553 2.42863 148.104 1.86145C147.31 0.857087 145.893 1.09341 145.318 2.38136C144.857 3.40936 144.477 4.47281 144.051 5.52444C142.186 10.1209 140.321 14.7055 138.444 19.302C138.363 19.5029 138.34 19.751 138.075 19.94C137.074 17.4705 136.095 15.0364 135.105 12.6023ZM178.49 15.9344C178.524 21.0744 182.566 25.0564 187.655 24.7846C191.685 24.5719 195.899 21.2871 195.91 15.769C195.922 10.7826 192.03 6.83602 187.217 6.87147C182.289 6.90692 178.455 10.8653 178.49 15.9344ZM192.71 15.0482C192.951 17.4114 192.272 19.4201 190.384 20.8144C186.953 23.3431 182.117 21.0271 181.702 16.7024C181.449 14.0793 182.197 11.9051 184.512 10.4872C185.306 10.0027 186.193 9.77822 187.079 9.81367C190.015 9.81367 192.399 12.0705 192.71 15.0482ZM201.668 8.31303C201.529 7.72223 201.172 7.32048 200.597 7.13142C200.01 6.94237 199.503 7.10779 199.077 7.54498C198.72 7.89947 198.628 8.34848 198.628 8.83294C198.628 13.5003 198.628 18.1795 198.628 22.8468C198.628 22.965 198.628 23.0831 198.639 23.2013C198.743 23.8393 199.077 24.3002 199.687 24.4774C200.263 24.6428 200.804 24.5838 201.265 24.0875C201.679 23.6503 201.725 23.1186 201.725 22.5632C201.725 19.9519 201.725 17.3405 201.725 14.7292C201.725 14.2211 201.76 13.713 201.886 13.2167C202.52 10.7471 204.431 9.73096 206.377 9.8373C208.829 9.96728 210.165 11.4797 210.199 13.9966C210.234 16.9269 210.222 19.8455 210.234 22.7759C210.234 23.8512 210.844 24.5365 211.811 24.5365C212.767 24.5365 213.389 23.8512 213.389 22.7759C213.389 19.9519 213.389 17.116 213.389 14.292C213.389 13.7839 213.366 13.2758 213.308 12.7677C212.733 7.28503 207.62 5.87892 204.051 7.45046C203.176 7.82857 202.485 8.45482 201.783 9.18742C201.737 8.84475 201.725 8.57298 201.668 8.31303ZM161.771 7.02508C160.044 7.32048 158.559 8.04126 157.695 9.70733C156.429 12.1533 157.223 14.6819 159.618 15.958C160.539 16.4543 161.529 16.7379 162.52 17.0215C163.567 17.3051 164.615 17.6123 165.536 18.2031C166.561 18.8648 166.688 20.2 165.836 21.0744C165.502 21.4171 165.099 21.6297 164.65 21.7479C163.349 22.0906 162.082 21.8779 160.839 21.4289C160.021 21.1335 159.284 20.6726 158.547 20.2354C157.833 19.8101 156.981 20.0109 156.567 20.6608C156.141 21.3343 156.337 22.1378 157.051 22.6459C157.96 23.2958 158.939 23.8393 159.998 24.1702C162.324 24.9028 164.638 25.1273 166.872 23.8512C168.53 22.9059 169.371 21.3934 169.405 19.4792C169.44 17.7186 168.553 16.4425 167.102 15.5681C166.354 15.1191 165.548 14.8355 164.719 14.5755C163.464 14.1856 162.197 13.843 161.034 13.1813C159.549 12.3423 160.01 10.7708 161.08 10.2154C161.437 10.0264 161.806 9.89638 162.209 9.8373C163.844 9.62461 165.295 10.1682 166.699 10.9244C167.574 11.3852 168.392 11.1962 168.795 10.4399C169.209 9.67188 168.91 8.82112 168.035 8.33666C166.446 7.46227 164.753 6.98963 162.785 6.93055C162.566 6.88329 162.163 6.966 161.771 7.02508ZM101.622 9.8373C98.133 13.9729 98.9966 19.9637 102.785 22.965C106.262 25.7181 111.351 25.3518 114.322 21.996C114.828 21.4289 114.817 20.5781 114.31 20.0228C113.758 19.4201 112.975 19.3965 112.364 19.9282C112.019 20.2354 111.662 20.5308 111.282 20.8026C108.818 22.5632 105.594 22.0551 103.786 19.6092C102.416 17.7541 102.29 15.6508 102.957 13.5239C103.925 10.4281 107.333 8.93928 110.2 10.2981C110.879 10.6172 111.466 11.0898 112.03 11.5861C112.756 12.2242 113.7 12.1533 114.276 11.4561C114.805 10.8062 114.713 9.9082 114.011 9.27013C112.318 7.71041 110.349 6.83602 108.185 6.88328C105.456 6.83602 103.28 7.87584 101.622 9.8373ZM118.052 19.7983C118.064 20.5899 118.167 21.358 118.49 22.0788C119.607 24.5719 123.637 25.659 125.79 24.0402C126.319 23.6385 126.504 22.9768 126.25 22.3742C125.986 21.7479 125.341 21.3934 124.707 21.5352C124.489 21.5825 124.258 21.6534 124.04 21.6888C122.255 21.9133 121.184 21.228 121.184 19.3847C121.196 16.4543 121.196 13.5357 121.184 10.6053C121.184 10.2272 121.299 10.1445 121.645 10.1563C122.762 10.18 123.867 10.18 124.984 10.1563C125.824 10.1327 126.423 9.48282 126.4 8.64388C126.389 7.84039 125.778 7.2614 124.938 7.2614C123.821 7.2614 122.716 7.24958 121.599 7.27322C121.265 7.28503 121.173 7.16687 121.184 6.83602C121.207 5.83165 121.196 4.82729 121.184 3.83474C121.173 2.88945 120.493 2.14504 119.63 2.13322C118.72 2.12141 118.052 2.83037 118.029 3.83474C118.018 4.63823 118.029 5.44172 118.029 6.24522C118.029 7.23777 118.029 7.23777 117.051 7.2614C116.106 7.28503 115.462 8.24213 115.784 9.16379C116.037 9.88457 116.509 10.18 117.523 10.1682C117.926 10.1563 118.041 10.2627 118.029 10.6881C118.006 12.236 118.018 13.7957 118.018 15.3436C118.052 16.8088 118.041 18.3094 118.052 19.7983ZM22.1286 26.3916C21.4954 26.6634 21.0233 27.1479 20.6779 27.7623C18.4672 31.638 16.245 35.5018 14.0227 39.3657C13.5507 40.181 13.0556 40.9845 12.9059 41.9298C12.8138 42.5324 12.6295 43.1823 13.0325 43.7494C13.7003 44.6829 15.1741 44.7892 15.9916 43.9976C16.268 43.7258 16.5213 43.4304 16.717 43.0877C19.2616 38.6449 21.8523 34.2257 24.3163 29.7238C24.5811 29.2393 24.7308 28.7194 24.7193 28.1995C24.7308 26.557 23.5794 25.7654 22.1286 26.3916ZM18.5017 11.4916C16.5789 11.1843 14.6215 11.0662 12.7101 10.7471C9.45165 10.1918 6.14711 9.92002 2.87712 9.43556C1.82934 9.29376 0.942754 9.66006 0.332508 10.5935C-0.335308 11.6097 0.516733 13.3467 1.553 13.4767C2.34747 13.583 3.14194 13.6893 3.94793 13.7957C7.1143 14.1974 10.2807 14.5992 13.4585 14.9773C14.9899 15.1664 16.5328 15.3672 18.0757 15.4618C19.5265 15.5563 20.0216 15.0364 20.0791 13.5712C20.0791 13.5121 20.0791 13.453 20.0791 13.5357C20.1367 12.1414 19.7567 11.6924 18.5017 11.4916ZM7.04521 28.2113C11.4321 26.6752 15.7729 24.9973 20.1022 23.2604C20.5167 23.0949 20.8966 22.8586 21.2075 22.5396C21.8178 21.8897 21.9214 21.0744 21.4954 20.2827C21.0348 19.4201 20.344 19.0775 19.4574 19.2429C18.7205 19.3847 18.0642 19.751 17.3618 19.9991C13.0556 21.5352 8.76081 23.1068 4.48909 24.7728C4.10912 24.9146 3.74067 25.0682 3.41828 25.3164C2.65835 25.8835 2.43958 26.7225 2.78501 27.7268C3.08437 28.5894 3.6025 28.8848 4.73088 28.8139C5.50233 28.9084 6.25074 28.4831 7.04521 28.2113ZM26.3543 48.4168C26.5961 49.0903 27.0912 49.4566 27.782 49.5275C28.4499 49.5984 28.991 49.3266 29.371 48.7831C29.6934 48.3223 29.9237 47.8023 30.0043 47.2234C30.2691 45.1674 30.3151 43.0877 30.4533 41.0199C30.5915 38.893 30.7412 36.7661 30.8678 34.6274C30.9369 33.3749 31.006 32.1224 30.983 30.8699C30.9715 29.5347 30.2921 28.8494 29.1062 28.8139C27.8281 28.7785 27.1142 29.3693 27.0221 30.6336C26.9185 32.0752 26.8494 33.5285 26.7688 34.9701C26.6767 36.4707 26.5961 37.9832 26.504 39.4838C26.3658 41.8116 26.2161 44.1394 26.0665 46.4553C26.0434 47.117 26.1125 47.7787 26.3543 48.4168ZM27.5633 18.853C27.5633 20.2236 27.5518 21.6061 27.5633 22.9768C27.5748 23.9221 28.2311 24.5483 29.1292 24.5483C30.1079 24.5483 30.7181 23.863 30.7181 22.7286C30.7181 17.6241 30.7181 12.5196 30.7181 7.41501C30.7181 5.96163 30.7181 4.50825 30.7181 3.05488C30.7181 2.47589 30.5569 1.9678 30.1079 1.6015C29.6013 1.19975 29.0256 1.10522 28.4384 1.41244C27.8396 1.71966 27.5518 2.23957 27.5518 2.93672C27.5518 6.25703 27.5518 9.57735 27.5518 12.8977C27.5633 14.8828 27.5633 16.8679 27.5633 18.853ZM150.614 22.8114C150.614 23.8748 151.247 24.5601 152.203 24.5601C153.17 24.5601 153.769 23.8984 153.769 22.7995C153.769 18.1676 153.769 13.5357 153.769 8.90383C153.769 7.81675 153.101 7.04871 152.18 7.04871C151.27 7.04871 150.614 7.82857 150.603 8.91565C150.603 11.208 150.603 13.5121 150.603 15.8044C150.614 18.1322 150.603 20.4718 150.614 22.8114ZM175.554 8.80931C175.577 7.97036 174.966 7.08416 173.999 7.04871C173.147 7.02508 172.422 7.89947 172.422 8.78567C172.468 13.4767 172.445 18.1676 172.445 22.8704C172.445 23.9221 173.032 24.5483 174.011 24.5483C174.955 24.5483 175.531 23.9221 175.531 22.8941C175.531 20.5545 175.531 18.2149 175.531 15.8871C175.542 13.5239 175.496 11.1725 175.554 8.80931ZM120.896 34.3438C119.791 34.592 119.123 35.3482 118.858 36.4235C118.582 37.546 118.87 38.574 119.768 39.3302C120.678 40.0865 121.714 40.2046 122.773 39.7201C123.096 39.5665 123.291 39.5311 123.556 39.8147C123.763 40.0392 124.063 40.0037 124.27 39.7792C124.466 39.5665 124.5 39.2948 124.258 39.1057C123.925 38.8458 124.028 38.6331 124.166 38.314C125.03 36.3526 123.717 34.2848 121.622 34.2611C121.38 34.2848 121.127 34.2848 120.896 34.3438ZM120.033 37.9596C119.595 37.0734 119.929 35.939 120.77 35.4664C121.564 35.0292 122.543 35.2773 123.015 36.0808C123.314 36.5771 123.395 37.1206 123.222 37.7114C123.13 38.0305 123.026 37.995 122.854 37.8178C122.739 37.7114 122.623 37.6169 122.508 37.5105C122.278 37.2979 122.036 37.2151 121.806 37.4633C121.576 37.7114 121.587 38.0068 121.806 38.255C121.967 38.444 122.163 38.5858 122.393 38.7867C121.38 39.2121 120.482 38.893 120.033 37.9596ZM76.2217 39.2121C76.2217 39.5784 76.2793 39.8856 76.7284 39.8974C77.2004 39.8974 77.2695 39.5902 77.2695 39.1884C77.258 37.8296 77.258 36.4825 77.2695 35.1237C77.2695 34.7692 77.258 34.4384 76.8435 34.3438C76.4635 34.2493 76.2448 34.462 76.0605 34.781C75.5885 35.5609 75.1049 36.3171 74.6098 37.1088C74.0686 36.258 73.562 35.4545 73.0669 34.6511C72.9057 34.3793 72.6754 34.2848 72.376 34.3438C72.0882 34.4029 71.95 34.6156 71.95 34.8992C71.9385 36.4117 71.9385 37.9241 71.95 39.4366C71.95 39.7674 72.1342 39.921 72.4682 39.9092C72.8136 39.8974 72.9517 39.7202 72.9517 39.3893C72.9517 38.704 72.9517 38.0186 72.9517 37.3215C72.9517 37.0497 72.9517 36.7661 72.9517 36.4944C73.3893 36.9906 73.7002 37.5105 74.0341 38.0068C74.4601 38.6567 74.7249 38.6449 75.174 37.9832C75.5194 37.4751 75.7497 36.8961 76.2217 36.3998C76.2333 37.3806 76.2333 38.2904 76.2217 39.2121ZM197.741 34.2729C196.256 34.2375 194.955 35.36 194.909 37.1561C194.874 38.7394 196.187 39.9919 197.741 39.9919C199.342 39.9919 200.597 38.7276 200.597 37.1088C200.597 35.4545 199.399 34.3084 197.741 34.2729ZM197.741 35.2773C198.731 35.2773 199.503 36.0926 199.491 37.1324C199.48 38.1722 198.697 38.9994 197.741 38.9876C196.763 38.9757 196.026 38.1722 196.026 37.1206C196.014 36.0572 196.74 35.2773 197.741 35.2773ZM96.9356 34.2729C95.3466 34.2729 94.1146 35.5136 94.1031 37.1206C94.0916 38.6803 95.3696 39.9801 96.924 39.9919C98.5245 40.0037 99.8026 38.7276 99.8026 37.1206C99.8026 35.4782 98.5936 34.2729 96.9356 34.2729ZM97.0046 35.2773C97.9488 35.2891 98.7087 36.1281 98.6972 37.1324C98.6857 38.1722 97.8912 38.9994 96.9356 38.9876C95.9338 38.9757 95.2084 38.1604 95.22 37.0497C95.2315 35.9981 95.9684 35.2655 97.0046 35.2773ZM104.27 39.9919C105.847 39.9919 107.137 38.6803 107.126 37.1088C107.114 35.4782 105.928 34.2848 104.316 34.2848C102.647 34.2848 101.461 35.4545 101.461 37.1088C101.461 38.7394 102.681 39.9919 104.27 39.9919ZM106.032 37.1088C106.032 38.1841 105.272 38.9994 104.27 38.9876C103.291 38.9757 102.566 38.1722 102.566 37.1088C102.566 36.0217 103.268 35.2773 104.282 35.2773C105.272 35.2891 106.032 36.0808 106.032 37.1088ZM109.002 39.2002C109.002 39.6611 109.221 39.8856 109.67 39.8856C110.211 39.8856 110.741 39.9092 111.282 39.8738C112.871 39.791 113.907 38.6567 113.896 37.0615C113.873 35.4782 112.836 34.4147 111.236 34.3557C110.775 34.3438 110.315 34.3557 109.854 34.3557C109.129 34.3557 109.014 34.4738 109.002 35.1946C109.002 35.8445 109.002 36.4944 109.002 37.1324C109.002 37.8296 109.002 38.5149 109.002 39.2002ZM110.073 36.6834C110.165 36.258 109.797 35.62 110.257 35.4191C111.132 35.041 112.226 35.5136 112.606 36.258C113.216 37.4633 112.526 38.7749 111.19 38.9403C110.085 39.0821 110.062 39.0585 110.062 37.9123C110.062 37.6523 110.062 37.4042 110.062 37.1442C110.073 36.9906 110.039 36.837 110.073 36.6834ZM163.533 39.2121C163.533 39.6611 163.752 39.8974 164.201 39.8974C164.742 39.8856 165.272 39.921 165.813 39.8856C167.206 39.8147 168.334 38.7867 168.415 37.546C168.519 35.8799 167.782 34.7338 166.342 34.4266C165.663 34.2848 164.961 34.3911 164.281 34.3557C163.729 34.332 163.521 34.6156 163.533 35.1473C163.544 35.7972 163.533 36.4471 163.533 37.097C163.533 37.7941 163.533 38.5031 163.533 39.2121ZM164.615 36.6716C164.707 36.2462 164.327 35.62 164.811 35.4191C165.698 35.0528 166.78 35.5136 167.171 36.2462C167.805 37.4633 167.045 38.8339 165.663 38.9403C164.604 39.023 164.604 39.023 164.604 37.9596C164.604 37.6878 164.604 37.416 164.604 37.1324C164.604 36.9788 164.581 36.8134 164.615 36.6716ZM204.097 36.8961C204.765 37.8532 205.456 38.7867 206.227 39.6729C206.423 39.8974 206.653 39.9565 206.895 39.8738C207.125 39.791 207.206 39.5784 207.206 39.3066C207.194 37.8296 207.194 36.3644 207.206 34.8874C207.206 34.5565 207.068 34.3438 206.757 34.3202C206.434 34.2966 206.273 34.5329 206.239 34.8283C206.204 35.041 206.227 35.2537 206.227 35.4782C206.227 36.2699 206.227 37.0497 206.227 38.0068C205.306 36.7898 204.488 35.7381 203.694 34.6747C203.464 34.3675 203.199 34.2493 202.842 34.3675C202.508 34.4856 202.497 34.781 202.497 35.0883C202.508 36.4471 202.508 37.7941 202.497 39.153C202.497 39.5311 202.52 39.8856 203.003 39.8856C203.498 39.8974 203.533 39.5429 203.533 39.1648C203.533 38.2077 203.533 37.2506 203.533 36.1281C203.775 36.4589 203.947 36.6716 204.097 36.8961ZM35.0474 39.2948C35.0474 39.6256 35.1511 39.8738 35.531 39.8856C35.9225 39.8974 36.0722 39.6611 36.0837 39.2948C36.0952 38.9639 36.0837 38.6331 36.0837 38.2904C36.0837 38.1604 36.0376 37.995 36.2449 37.995C36.6939 37.995 37.1545 37.8768 37.4654 38.3849C37.7417 38.8339 38.0756 39.2357 38.398 39.6493C38.6398 39.9683 38.9737 39.9919 39.2616 39.7674C39.5379 39.5429 39.4343 39.2475 39.2501 38.9876C39.1234 38.8103 39.0083 38.6331 38.8586 38.4913C38.375 38.0541 38.2829 37.6878 38.9852 37.4042C39.0658 37.3688 39.1119 37.2624 39.1695 37.1797C39.9755 36.0217 39.2846 34.5093 37.8453 34.3911C37.1084 34.332 36.3485 34.3675 35.6116 34.3557C35.1856 34.3557 35.0474 34.6038 35.0474 34.9937C35.0474 35.7027 35.0474 36.4117 35.0474 37.1088C35.0474 37.8414 35.0474 38.574 35.0474 39.2948ZM36.0837 36.2226C36.0837 36.0808 36.0952 35.9508 36.0837 35.809C36.0492 35.5018 36.1298 35.3364 36.4752 35.3718C36.8551 35.4073 37.2466 35.3718 37.6266 35.3837C38.1102 35.3955 38.375 35.6909 38.398 36.1517C38.4095 36.6125 38.1793 36.9434 37.6957 37.0025C37.4308 37.0379 37.166 37.0261 36.8897 37.0379C36.0837 37.0379 36.0837 37.0379 36.0837 36.2226ZM79.3766 39.2002C79.3766 39.6611 79.5954 39.8856 80.0444 39.8856C81.0231 39.8856 82.0018 39.8856 82.969 39.8856C83.2914 39.8856 83.5562 39.7556 83.5332 39.3893C83.5217 39.0585 83.2799 38.9403 82.969 38.9403C82.3933 38.9403 81.8176 38.9403 81.2419 38.9403C80.4704 38.9403 80.4704 38.9403 80.4704 38.125C80.4704 38.0895 80.4704 38.0423 80.4704 38.0068C80.4244 37.676 80.551 37.5578 80.8734 37.5814C81.4031 37.6051 81.9442 37.5933 82.4854 37.5814C82.8078 37.5814 83.1417 37.5224 83.1417 37.097C83.1417 36.6716 82.7963 36.6362 82.4854 36.6243C82.1054 36.6125 81.714 36.6243 81.334 36.6243C80.4359 36.6243 80.4474 36.6243 80.4704 35.7263C80.4819 35.4191 80.551 35.3246 80.8619 35.3364C81.5297 35.36 82.1975 35.3482 82.8769 35.3364C83.2108 35.3364 83.5101 35.2419 83.4871 34.8165C83.4641 34.4266 83.1993 34.3557 82.8769 34.3557C81.9557 34.3557 81.0346 34.3675 80.125 34.3557C79.5838 34.3438 79.3651 34.6038 79.3766 35.1473C79.3881 35.809 79.3766 36.4825 79.3766 37.1442C79.3766 37.8296 79.3766 38.5149 79.3766 39.2002ZM41.3917 39.2475C41.3802 39.7083 41.5989 39.8856 42.0134 39.8856C42.9921 39.8856 43.9708 39.8856 44.9495 39.8856C45.2604 39.8856 45.4907 39.7556 45.5022 39.4247C45.5137 39.0585 45.2604 38.9403 44.9265 38.9403C44.3738 38.9403 43.8096 38.9403 43.257 38.9403C42.4279 38.9403 42.451 38.9403 42.4279 38.1014C42.4164 37.676 42.5661 37.5578 42.9461 37.5814C43.4642 37.6169 43.9823 37.5933 44.5005 37.5814C44.8229 37.5814 45.1568 37.5224 45.1453 37.0852C45.1338 36.6952 44.8229 36.6362 44.5235 36.6243C43.9823 36.6125 43.4527 36.5889 42.9115 36.6243C42.474 36.6598 42.3819 36.4471 42.4395 36.069C42.4855 35.75 42.2322 35.2773 42.8885 35.3128C43.5563 35.3482 44.2241 35.3246 44.9035 35.3128C45.2144 35.3128 45.4907 35.1828 45.4792 34.8047C45.4677 34.462 45.2374 34.332 44.938 34.332C43.9363 34.332 42.9461 34.332 41.9444 34.332C41.5759 34.332 41.3917 34.5211 41.3917 34.9228C41.4032 35.6436 41.3917 36.3762 41.3917 37.097C41.4032 37.8296 41.4147 38.5385 41.3917 39.2475ZM170.372 39.2475C170.372 39.6493 170.557 39.8738 170.96 39.8856C171.95 39.8856 172.951 39.8856 173.942 39.8856C174.253 39.8856 174.483 39.7438 174.483 39.4129C174.483 39.0466 174.241 38.9285 173.896 38.9285C173.377 38.9403 172.859 38.9285 172.341 38.9285C171.363 38.9285 171.374 38.9285 171.386 37.9477C171.386 37.6405 171.478 37.5578 171.766 37.5696C172.295 37.5933 172.836 37.5696 173.377 37.5814C173.734 37.5814 174.08 37.5342 174.068 37.0852C174.057 36.6362 173.7 36.6125 173.354 36.6125C172.986 36.6125 172.629 36.6125 172.261 36.6125C171.362 36.6125 171.374 36.6125 171.386 35.6791C171.386 35.3718 171.466 35.3009 171.766 35.3128C172.433 35.3482 173.101 35.3128 173.78 35.3246C174.126 35.3246 174.414 35.2419 174.425 34.8401C174.437 34.4384 174.149 34.3438 173.803 34.3438C172.882 34.3557 171.961 34.3557 171.052 34.3438C170.557 34.3438 170.361 34.5802 170.372 35.0646C170.384 35.75 170.372 36.4353 170.372 37.1206C170.372 37.8414 170.372 38.5504 170.372 39.2475ZM185.962 35.75C185.836 36.6007 186.308 37.1679 187.436 37.5105C187.816 37.6287 188.208 37.7351 188.576 37.8768C188.783 37.9596 188.921 38.125 188.91 38.3731C188.898 38.5976 188.818 38.7985 188.599 38.8812C188.357 38.9757 188.115 39.0703 187.828 39.0112C187.367 38.9167 186.964 38.7158 186.584 38.444C186.319 38.255 186.054 38.3259 185.882 38.5858C185.709 38.8576 185.767 39.1057 186.043 39.283C186.837 39.8147 187.689 40.0983 188.645 39.8738C189.474 39.6729 189.923 39.1766 189.958 38.3968C189.992 37.546 189.681 37.1088 188.806 36.8134C188.334 36.6598 187.862 36.518 187.402 36.3526C187.137 36.258 186.999 36.0454 187.033 35.7618C187.068 35.4427 187.286 35.3009 187.586 35.2655C188.081 35.1946 188.53 35.3246 188.944 35.6082C189.232 35.7972 189.509 35.7972 189.693 35.49C189.889 35.1591 189.762 34.8874 189.463 34.6983C188.991 34.4029 188.484 34.2611 187.931 34.2729C186.791 34.2729 186.101 34.781 185.962 35.75ZM130.891 35.0528C130.902 34.6511 130.775 34.3084 130.349 34.3084C129.958 34.3084 129.843 34.6392 129.854 35.0174C129.866 35.8799 129.877 36.7425 129.854 37.6051C129.843 38.4204 129.371 38.9285 128.645 38.9639C127.793 38.9994 127.31 38.5385 127.287 37.6169C127.264 36.7189 127.275 35.809 127.275 34.911C127.275 34.5683 127.125 34.3202 126.792 34.3084C126.423 34.2848 126.204 34.5447 126.216 34.8874C126.239 35.9863 126.101 37.0852 126.296 38.1722C126.492 39.283 127.31 39.9565 128.496 39.9801C129.647 40.0156 130.522 39.342 130.787 38.2668C130.948 37.6287 130.833 36.9788 130.879 36.4353C130.891 35.9154 130.879 35.49 130.891 35.0528ZM209.278 35.5491C209.106 36.5534 209.52 37.1442 210.648 37.4987C211.028 37.6169 211.42 37.7232 211.788 37.8532C212.042 37.9477 212.214 38.125 212.191 38.4322C212.168 38.7276 211.984 38.8694 211.719 38.9521C211.051 39.1648 210.487 38.9048 209.958 38.5267C209.67 38.314 209.393 38.255 209.163 38.5858C208.921 38.9403 209.129 39.1884 209.405 39.3657C210.176 39.8619 210.994 40.1101 211.915 39.8856C212.686 39.6965 213.193 39.1412 213.239 38.4086C213.285 37.6169 212.963 37.1442 212.122 36.8488C211.673 36.6834 211.213 36.5771 210.764 36.4235C210.487 36.3171 210.246 36.1399 210.315 35.7736C210.384 35.4073 210.66 35.3009 210.994 35.2773C211.408 35.2537 211.788 35.3482 212.134 35.5727C212.445 35.7736 212.744 35.8799 212.963 35.49C213.205 35.0646 212.928 34.8283 212.606 34.6511C212.157 34.4029 211.685 34.2729 211.178 34.2848C210.13 34.2729 209.416 34.7574 209.278 35.5491ZM137.684 39.0821C137.074 37.676 136.44 36.2817 135.819 34.8874C135.68 34.5802 135.554 34.2848 135.139 34.2848C134.713 34.2848 134.541 34.5565 134.391 34.8874C133.781 36.2935 133.17 37.6996 132.572 39.1057C132.445 39.4011 132.399 39.7083 132.721 39.8501C133.044 39.9919 133.343 39.8738 133.435 39.4956C133.654 38.6567 134.195 38.4322 134.967 38.574C135.093 38.5976 135.231 38.5976 135.37 38.574C136.06 38.4676 136.544 38.6449 136.705 39.4247C136.763 39.6847 136.924 39.9328 137.246 39.8856C137.741 39.8856 137.914 39.5902 137.684 39.0821ZM134.644 37.6287C134.368 37.6405 134.299 37.5578 134.425 37.286C134.656 36.7779 134.874 36.258 135.116 35.6791C135.427 36.3408 135.726 36.9434 135.945 37.6169C135.473 37.6287 135.059 37.6169 134.644 37.6287ZM52.284 39.2475C51.6162 37.7114 50.9714 36.1635 50.269 34.6511C50.0042 34.0839 49.3134 34.1311 49.037 34.6983C48.7952 35.2064 48.5995 35.7381 48.3692 36.2462C47.9432 37.2033 47.5057 38.1604 47.0796 39.1175C46.953 39.4011 46.8954 39.7202 47.2523 39.8619C47.5632 39.9801 47.8626 39.9092 48.0123 39.5429C48.0583 39.4366 48.1274 39.3302 48.1504 39.2239C48.2656 38.6922 48.5649 38.4795 49.0946 38.574C49.2212 38.5976 49.3594 38.5858 49.4976 38.574C50.3727 38.4795 51.1786 38.4913 51.3974 39.6256C51.4089 39.6729 51.4435 39.732 51.4895 39.7674C51.6622 39.9447 51.881 39.921 52.0767 39.8383C52.2379 39.7674 52.3416 39.6138 52.307 39.2948C52.307 39.3539 52.307 39.2948 52.284 39.2475ZM50.4878 37.6287C50.0042 37.6287 49.5667 37.6169 49.1407 37.6287C48.8528 37.6405 48.8067 37.546 48.9219 37.286C49.1522 36.7779 49.3709 36.2699 49.6358 35.6791C49.9351 36.3526 50.1999 36.967 50.4878 37.6287ZM176.256 38.0541C176.901 40.0864 179.342 40.5355 180.793 39.2593C181.034 39.0466 181.08 38.7867 180.896 38.5385C180.723 38.314 180.482 38.2786 180.228 38.4204C180.113 38.4913 180.021 38.5976 179.906 38.6685C179.307 39.0585 178.674 39.1057 178.064 38.7394C177.43 38.3731 177.085 37.5224 177.212 36.8252C177.488 35.3482 178.778 34.8047 180.021 35.6554C180.355 35.8799 180.643 35.9272 180.862 35.5845C181.057 35.2655 180.965 34.9583 180.631 34.7338C180.113 34.4029 179.561 34.2139 178.996 34.2493C176.97 34.2729 175.646 36.1162 176.256 38.0541ZM153.988 2.68858C153.999 1.47152 153.331 0.786191 152.157 0.798007C151.052 0.798007 150.395 1.48334 150.384 2.6295C150.372 3.81111 151.04 4.52007 152.157 4.52007C153.308 4.52007 153.988 3.84655 153.988 2.68858ZM88.5648 39.2475C88.5648 39.602 88.6339 39.8738 89.0484 39.8856C89.4975 39.8974 89.5896 39.602 89.5896 39.2357C89.5896 38.8458 89.6126 38.4558 89.5896 38.0659C89.5781 37.7823 89.6702 37.6996 89.9465 37.7114C90.5222 37.7351 91.0979 37.7232 91.6736 37.7114C91.996 37.6996 92.2954 37.6287 92.2608 37.1797C92.2263 36.7898 91.973 36.7189 91.6506 36.7189C91.0749 36.7189 90.4992 36.7071 89.9235 36.7189C89.6932 36.7189 89.5666 36.6716 89.5896 36.3998C89.6126 36.2226 89.6126 36.0454 89.5896 35.8681C89.5435 35.5018 89.6587 35.3482 90.0501 35.3718C90.718 35.4073 91.3858 35.3955 92.0536 35.3718C92.3645 35.36 92.6063 35.23 92.5947 34.8401C92.5947 34.4266 92.353 34.3557 92.0306 34.3557C91.0979 34.3557 90.1538 34.3675 89.2211 34.3557C88.7721 34.3557 88.5533 34.5329 88.5648 35.0174C88.5879 35.7263 88.5648 36.4235 88.5648 37.1324C88.5648 37.8414 88.5648 38.5504 88.5648 39.2475ZM173.953 4.52007C175.116 4.52007 175.761 3.87019 175.772 2.70039C175.772 1.44789 175.151 0.786191 173.988 0.798007C172.871 0.798007 172.238 1.45971 172.238 2.6295C172.226 3.84655 172.836 4.52007 173.953 4.52007ZM154.851 34.6629C154.644 34.3557 154.379 34.1548 154.034 34.4029C153.665 34.6629 153.769 35.0055 153.999 35.3246C154.218 35.62 154.425 35.9272 154.656 36.2108C155.335 37.0615 155.888 37.9477 155.692 39.1175C155.669 39.283 155.726 39.472 155.784 39.6256C155.876 39.9092 156.129 39.8974 156.36 39.8856C156.601 39.8738 156.751 39.7201 156.774 39.4838C156.797 39.2475 156.809 39.0112 156.774 38.7749C156.694 38.0777 156.878 37.4751 157.315 36.9316C157.741 36.4117 158.133 35.8445 158.524 35.3009C158.743 34.9937 158.87 34.6511 158.478 34.3911C158.121 34.1548 157.88 34.3793 157.672 34.6747C157.212 35.3482 156.751 36.0099 156.268 36.7189C155.772 35.9981 155.3 35.3364 154.851 34.6629ZM149.716 39.1766C149.716 39.5547 149.774 39.8974 150.257 39.8974C150.729 39.8974 150.798 39.5902 150.798 39.1884C150.787 38.0541 150.81 36.9197 150.787 35.7854C150.787 35.4782 150.867 35.36 151.167 35.3837C151.455 35.4073 151.743 35.4073 152.03 35.3837C152.318 35.36 152.502 35.1473 152.491 34.8756C152.479 34.592 152.33 34.3675 151.984 34.3675C150.833 34.3793 149.693 34.3675 148.542 34.3675C148.219 34.3675 148.023 34.5211 148.012 34.8519C148.012 35.171 148.208 35.36 148.507 35.3837C148.749 35.4073 149.002 35.4073 149.255 35.3837C149.601 35.3482 149.739 35.4545 149.716 35.8327C149.682 36.3998 149.705 36.967 149.705 37.5342C149.716 38.0777 149.716 38.6213 149.716 39.1766ZM64.1665 39.2002C64.155 39.5784 64.2356 39.8738 64.6731 39.8856C65.1222 39.8974 65.1913 39.5902 65.1913 39.2239C65.1913 38.3022 65.1913 37.3806 65.1913 36.4589C65.1913 35.4191 65.1913 35.4191 66.2275 35.3837C66.2851 35.3837 66.3427 35.3837 66.4002 35.3837C66.7341 35.3482 66.9414 35.1946 66.9299 34.8165C66.9184 34.462 66.6881 34.3557 66.3772 34.3557C65.2488 34.3557 64.1205 34.3557 62.9921 34.3557C62.6697 34.3557 62.4739 34.5093 62.4624 34.8401C62.4624 35.1946 62.6697 35.3718 63.0151 35.3718C63.2799 35.3718 63.5563 35.3837 63.8211 35.3718C64.0859 35.3482 64.1895 35.4427 64.178 35.7263C64.155 36.3171 64.1665 36.9079 64.1665 37.4869C64.1665 38.0659 64.178 38.6331 64.1665 39.2002ZM139.549 39.2475C139.549 39.6256 139.699 39.8738 140.067 39.8738C141.023 39.8856 141.979 39.8856 142.934 39.8738C143.245 39.8738 143.452 39.6847 143.429 39.3539C143.406 39.0466 143.199 38.9285 142.911 38.9285C142.359 38.9403 141.794 38.893 141.242 38.9403C140.758 38.9757 140.574 38.8694 140.608 38.314C140.654 37.2388 140.62 36.1517 140.631 35.0764C140.631 34.6511 140.539 34.2848 140.067 34.2966C139.641 34.3084 139.526 34.6392 139.538 35.0528C139.561 35.7145 139.538 36.388 139.538 37.0497C139.549 37.7941 139.549 38.5267 139.549 39.2475ZM54.1493 39.2593C54.1378 39.6729 54.3105 39.8856 54.725 39.8856C55.6231 39.8856 56.5212 39.8856 57.4308 39.8856C57.7417 39.8856 57.9374 39.732 57.9489 39.4011C57.9604 39.0348 57.7417 38.9403 57.4193 38.9403C56.8205 38.9521 56.2333 38.9167 55.6346 38.9521C55.2661 38.9757 55.151 38.8694 55.151 38.4676C55.174 37.3333 55.151 36.1871 55.1625 35.0528C55.1625 34.6511 55.0589 34.3202 54.6213 34.3084C54.1838 34.2966 54.1378 34.6392 54.1378 35.0174C54.1493 35.7027 54.1378 36.388 54.1378 37.0734C54.1608 37.8059 54.1608 38.5385 54.1493 39.2593ZM183.936 34.9583C183.947 34.5802 183.798 34.332 183.441 34.3084C183.084 34.2848 182.854 34.5329 182.854 34.8874C182.842 36.3762 182.842 37.8532 182.854 39.342C182.854 39.7083 183.072 39.9092 183.452 39.8738C183.809 39.8501 183.936 39.6374 183.936 39.2948C183.924 38.574 183.936 37.8532 183.936 37.1206C183.936 36.4117 183.924 35.6909 183.936 34.9583ZM145.18 39.2357C145.18 39.6256 145.295 39.8738 145.721 39.8856C146.124 39.8974 146.262 39.6374 146.262 39.283C146.273 37.8532 146.262 36.4235 146.262 34.9819C146.262 34.6038 146.101 34.2966 145.698 34.3084C145.318 34.3202 145.156 34.592 145.168 34.9937C145.18 35.7027 145.168 36.4117 145.168 37.1088C145.18 37.8178 145.191 38.5267 145.18 39.2357ZM69.7854 34.9701C69.7854 34.5683 69.6127 34.3084 69.2212 34.3084C68.8297 34.3084 68.6685 34.592 68.6685 34.9819C68.6685 36.4117 68.6685 37.8414 68.6685 39.2711C68.6685 39.6256 68.8067 39.8738 69.1982 39.8856C69.6242 39.8974 69.7739 39.6611 69.7739 39.2593C69.7739 38.5504 69.7739 37.8532 69.7739 37.1442C69.7854 36.4235 69.7739 35.7027 69.7854 34.9701ZM191.904 39.1766C191.904 39.5665 191.95 39.8974 192.433 39.8856C192.894 39.8738 192.928 39.5547 192.917 39.2002C192.917 37.8059 192.905 36.4117 192.917 35.0292C192.917 34.6511 192.848 34.3202 192.433 34.3202C192.007 34.3202 191.881 34.6511 191.892 35.0646C191.904 35.7263 191.892 36.3998 191.892 37.0615C191.915 37.7587 191.915 38.4676 191.904 39.1766Z" fill="#0F190C"/>
</svg>
