<svg width="137" height="55" viewBox="0 0 137 55" fill="none" xmlns="http://www.w3.org/2000/svg">
<path d="M66.5657 46.1249C65.2506 46.1249 63.9662 46.1249 62.645 46.1249C62.6389 46.2376 62.6204 46.369 62.6204 46.4942C62.6204 48.4218 62.6143 50.3494 62.6266 52.277C62.6266 52.5274 62.5528 52.6776 62.3316 52.7902C61.3607 53.3034 60.402 53.8354 59.431 54.3548C58.8841 54.649 58.3126 54.4988 58.0484 54.0044C57.7718 53.4912 57.9439 52.8966 58.4847 52.5899C59.0992 52.2395 59.726 51.9015 60.3528 51.5761C60.5679 51.4634 60.6601 51.332 60.6601 51.0691C60.6478 49.4357 60.6478 47.7959 60.6601 46.1625C60.6601 45.8683 60.5679 45.7744 60.2975 45.7244C57.1266 45.0923 54.226 43.8343 51.5958 41.9192C47.878 39.2156 45.1863 35.6795 43.564 31.3236C42.0584 27.2869 41.745 23.1313 42.5377 18.9068C43.3366 14.676 45.1925 10.9585 48.0623 7.7917C51.307 4.21811 55.2646 1.85866 59.9472 0.894853C66.3199 -0.419429 72.2378 0.794717 77.5718 4.61239C81.5417 7.45374 84.3316 11.2464 85.8741 15.934C87.6808 21.4102 87.5026 26.855 85.2841 32.1685C82.9612 37.7448 79.0098 41.7502 73.5897 44.2411C72.1026 44.9233 70.5478 45.4177 68.9439 45.7244C68.6366 45.7807 68.5322 45.8934 68.5322 46.2251C68.5506 47.8397 68.5445 49.4544 68.5383 51.0691C68.5383 51.3195 68.5998 51.4634 68.8333 51.5823C69.4724 51.9078 70.0992 52.2582 70.726 52.615C71.0947 52.8215 71.2975 53.1469 71.273 53.585C71.2545 53.9731 71.064 54.2547 70.7199 54.4237C70.4249 54.5676 70.1238 54.5614 69.835 54.4112C68.821 53.8667 67.8132 53.3097 66.7992 52.7714C66.5964 52.665 66.5718 52.5086 66.5718 52.3083C66.578 50.3807 66.578 48.4531 66.5718 46.5255C66.5841 46.3815 66.5718 46.2501 66.5657 46.1249ZM85.0998 23.2689C85.0936 11.8785 76.1216 2.68478 65.1216 2.41566C53.5808 2.12777 44.3321 11.5155 44.1048 22.8371C43.8713 34.4153 53.0031 44.1535 64.6176 44.1472C76.0478 44.1347 85.1121 34.6594 85.0998 23.2689ZM16.7891 27.9878C14.626 24.8523 12.4628 21.7231 10.2936 18.5876C8.87401 16.5223 7.44831 14.4632 6.02876 12.3979C5.75222 11.9974 5.34663 11.8222 4.94105 11.9348C4.4863 12.06 4.23434 12.3604 4.17289 12.8423C3.99468 14.2254 3.81032 15.6023 3.62596 16.9792C3.31255 19.3386 2.99914 21.6981 2.69188 24.0575C2.38462 26.3857 2.0835 28.7138 1.77624 31.0482C1.56115 32.6754 1.33992 34.3026 1.12484 35.9299C0.87903 37.8074 0.63322 39.6849 0.38741 41.5625C0.28294 42.3573 0.16618 43.1459 0.0678562 43.9407C-0.00588693 44.529 0.368974 45.0359 0.897466 45.0985C1.51199 45.1674 1.9606 44.8232 2.04663 44.2098C2.06506 44.0784 2.0835 43.9407 2.10194 43.8093C2.40305 41.4811 2.70417 39.1467 3.01143 36.8186C3.30641 34.5905 3.60138 32.3688 3.89635 30.1408C4.24663 27.4872 4.59077 24.8398 4.94105 22.1862C5.16842 20.4338 5.39579 18.6815 5.62931 16.9291C5.67848 16.5348 5.73993 16.1468 5.81367 15.6774C5.93043 15.8339 5.99188 15.9152 6.04719 15.9966C7.93993 18.7378 9.83882 21.479 11.7316 24.2265C13.1695 26.3043 14.626 28.3696 16.0271 30.4662C16.5249 31.211 17.4774 31.2047 17.8891 30.4725C18.012 30.2534 18.1718 30.0657 18.3131 29.8591C21.6316 25.2091 24.9439 20.5528 28.2623 15.9027C28.3176 15.8276 28.3791 15.7588 28.4835 15.6461C28.5081 15.79 28.5204 15.8589 28.5265 15.934C28.8277 18.3372 29.1226 20.7405 29.4299 23.1438C29.7064 25.353 29.9891 27.556 30.2718 29.7652C30.5422 31.8806 30.8064 33.996 31.0707 36.1113C31.2612 37.6196 31.4455 39.1217 31.636 40.63C31.7897 41.8441 31.9372 43.0645 32.1154 44.2787C32.1953 44.8545 32.6869 45.1799 33.2584 45.0923C33.7623 45.0109 34.131 44.5227 34.0696 43.9783C33.9897 43.2836 33.9036 42.5951 33.8115 41.9004C33.4673 39.1843 33.1232 36.4681 32.7791 33.7582C32.4657 31.2485 32.1522 28.7451 31.8388 26.2355C31.5131 23.6319 31.1936 21.0347 30.8617 18.4311C30.6282 16.5536 30.3947 14.676 30.1366 12.7985C30.1059 12.5794 29.9768 12.3354 29.8232 12.1789C29.3562 11.6907 28.6802 11.8472 28.2131 12.4981C26.9288 14.3068 25.6444 16.1092 24.3601 17.9117C22.2707 20.8469 20.1813 23.7759 18.0858 26.7111C17.7293 27.218 17.3606 27.7125 16.9735 28.2444C16.8997 28.138 16.8383 28.0629 16.7891 27.9878ZM115.888 29.2082C116.336 29.9593 116.779 30.6915 117.215 31.43C119.612 35.4417 122.008 39.4534 124.405 43.4651C124.724 43.997 124.675 44.4977 124.294 44.8545C123.962 45.1674 123.409 45.2112 123.047 44.9296C122.912 44.8232 122.795 44.6855 122.703 44.5353C120.527 40.8991 118.358 37.2566 116.182 33.6205C115.414 32.3312 114.64 31.042 113.872 29.7527C113.78 29.6025 113.681 29.5149 113.485 29.5149C108.839 29.5212 104.193 29.5212 99.5473 29.5212C99.4797 29.5212 99.406 29.5274 99.3015 29.5337C99.2953 29.6839 99.283 29.8216 99.283 29.9655C99.283 34.6343 99.283 39.3032 99.283 43.9657C99.283 44.7105 98.8283 45.1674 98.1769 45.0985C97.7221 45.0485 97.378 44.7168 97.3166 44.2599C97.2981 44.1472 97.2981 44.0346 97.2981 43.9157C97.2981 33.6455 97.2981 23.3691 97.292 13.0989C97.292 12.7296 97.335 12.3729 97.6545 12.1539C97.8389 12.0287 98.0786 11.916 98.2937 11.916C103.185 11.9035 108.077 11.866 112.962 11.9223C115.033 11.9473 116.852 12.7672 118.364 14.2192C120.484 16.2594 121.596 18.7566 121.431 21.7544C121.32 23.8259 120.343 25.522 118.966 26.999C118.137 27.894 117.166 28.6012 116.053 29.0956C116.01 29.1269 115.967 29.1644 115.888 29.2082ZM99.3138 27.4809C99.4674 27.4809 99.5965 27.4809 99.7316 27.4809C104.5 27.4809 109.269 27.4872 114.038 27.4684C114.425 27.4684 114.837 27.3808 115.193 27.2306C116.434 26.7048 117.405 25.8224 118.21 24.7459C118.997 23.682 119.501 22.5054 119.482 21.1411C119.464 19.8143 119.138 18.5626 118.438 17.4423C117.037 15.2205 115.064 13.9626 112.428 13.9501C108.175 13.9313 103.923 13.9438 99.6702 13.9438C99.5534 13.9438 99.4367 13.9438 99.3138 13.9438C99.3138 18.4812 99.3138 22.9685 99.3138 27.4809ZM134.047 38.5271C134.047 40.3671 134.047 42.2134 134.047 44.0534C134.047 44.6792 134.471 45.1236 135.048 45.1173C135.657 45.111 136.05 44.6417 136.05 43.9094C136.05 35.6044 136.05 27.2994 136.05 19.0007C136.05 17.023 136.05 15.0453 136.05 13.0676C136.05 12.3917 135.669 11.9411 135.091 11.916C134.483 11.8848 134.047 12.3291 134.047 12.9925C134.047 18.162 134.047 23.3378 134.047 28.5073C134.047 31.8493 134.047 35.1851 134.047 38.5271ZM58.6199 20.6153C58.626 21.2725 59.0869 21.7544 59.7076 21.7732C60.3221 21.7982 60.8506 21.3351 60.8629 20.6904C60.8875 19.7016 60.8936 18.7128 60.8629 17.7239C60.8383 17.048 60.3344 16.6287 59.6707 16.6537C59.0623 16.6788 58.626 17.1544 58.6199 17.8053C58.6137 18.2621 58.6199 18.719 58.6199 19.1759C58.6137 19.6578 58.6137 20.1334 58.6199 20.6153ZM70.7752 19.2009C70.7752 18.7503 70.7936 18.306 70.769 17.8553C70.7568 17.6238 70.7014 17.3734 70.5908 17.1732C70.3512 16.7288 69.8411 16.5473 69.3433 16.6725C68.864 16.7914 68.526 17.217 68.5199 17.7865C68.5014 18.7315 68.5137 19.6828 68.5199 20.6279C68.5199 20.7906 68.5629 20.9596 68.6305 21.1098C68.8333 21.5791 69.3372 21.842 69.8411 21.7544C70.3266 21.673 70.726 21.2725 70.7568 20.7593C70.7875 20.2398 70.7629 19.7204 70.7629 19.2009C70.7629 19.2009 70.769 19.2009 70.7752 19.2009Z" fill="#0F190C"/>
</svg>
