<svg width="182" height="73" viewBox="0 0 182 73" fill="none" xmlns="http://www.w3.org/2000/svg">
<path d="M181.124 0.359375C181.124 24.4233 181.124 48.4624 181.124 72.5513C121.07 72.5513 61.0153 72.5513 0.936523 72.5513C0.936523 48.4873 0.936523 24.4482 0.936523 0.359375C60.9669 0.359375 121.021 0.359375 181.124 0.359375ZM179.358 2.19898C120.489 2.19898 61.6202 2.19898 2.77542 2.19898C2.77542 25.0697 2.77542 47.8907 2.77542 70.7117C61.6686 70.7117 120.489 70.7117 179.358 70.7117C179.358 47.841 179.358 25.0448 179.358 2.19898Z" fill="#0F190C"/>
<path d="M168.276 46.3494C167.139 46.3494 166.074 46.3742 165.01 46.3245C164.865 46.3245 164.647 46.0262 164.574 45.8025C163.655 43.1177 162.76 40.408 161.864 37.6983C161.719 37.2508 161.526 37.052 161.042 37.1017C160.606 37.1514 160.171 37.1017 159.663 37.1017C159.663 40.2091 159.663 43.2171 159.663 46.2997C158.549 46.2997 157.485 46.2997 156.372 46.2997C156.372 39.1153 156.372 31.9558 156.372 24.6968C156.711 24.6968 157.025 24.6968 157.34 24.6968C159.203 24.7217 161.114 24.6222 162.953 24.8211C165.494 25.0945 166.825 26.5115 167.357 29.0721C167.623 30.4393 167.623 31.8315 167.284 33.1987C166.97 34.4666 166.268 35.4858 165.179 36.1321C164.792 36.3559 164.695 36.5796 164.865 37.0271C165.905 39.8362 166.921 42.6702 167.938 45.5042C168.083 45.7528 168.155 46.0014 168.276 46.3494ZM159.711 34.4168C160.679 34.3671 161.598 34.3671 162.518 34.2428C163.34 34.1434 163.969 33.5965 164.042 32.7513C164.139 31.6077 164.139 30.4393 164.042 29.2709C163.969 28.4754 163.437 27.9037 162.663 27.8042C161.695 27.6551 160.727 27.6302 159.711 27.5556C159.711 29.9173 159.711 32.1049 159.711 34.4168Z" fill="#0F190C"/>
<path d="M136.362 46.3494C135.297 46.3494 134.329 46.3742 133.337 46.3245C133.216 46.3245 133.023 46.0759 132.974 45.9019C132.684 44.6589 132.418 43.3911 132.176 42.1233C132.103 41.7752 131.958 41.6758 131.643 41.6758C130.434 41.7007 129.248 41.7007 128.038 41.6758C127.675 41.6758 127.53 41.8001 127.482 42.173C127.24 43.3911 126.974 44.6092 126.732 45.8273C126.659 46.2251 126.49 46.3494 126.127 46.3494C125.232 46.3245 124.312 46.3494 123.344 46.3494C123.368 46.1257 123.393 45.9516 123.417 45.7776C125.062 38.9164 126.708 32.0801 128.329 25.2188C128.425 24.8211 128.571 24.6719 128.982 24.6968C129.538 24.7217 130.095 24.7465 130.651 24.6968C131.111 24.6719 131.281 24.8211 131.377 25.2686C132.079 28.2766 132.805 31.2846 133.531 34.2677C134.45 38.1458 135.37 41.999 136.313 45.8771C136.313 46.0262 136.338 46.1505 136.362 46.3494ZM129.877 31.1603C129.829 31.1603 129.78 31.1603 129.756 31.1603C129.224 33.6711 128.716 36.2067 128.183 38.7673C129.345 38.7673 130.385 38.7673 131.474 38.7673C130.918 36.2067 130.41 33.6711 129.877 31.1603Z" fill="#0F190C"/>
<path d="M11.6312 40.2588C12.599 40.2588 13.5427 40.2588 14.6073 40.2588C14.6073 40.6069 14.6073 40.93 14.6073 41.2532C14.6557 43.0928 16.5188 44.0872 18.0431 43.1425C18.527 42.8442 18.769 42.347 18.7932 41.8001C18.8416 40.7809 18.8416 39.7368 18.8174 38.7175C18.7932 37.9718 18.3335 37.4746 17.6802 37.2011C16.8817 36.8531 16.0832 36.4802 15.2606 36.1819C12.9861 35.3366 11.8005 33.6959 11.728 31.21C11.6796 29.8676 11.8005 28.55 12.3812 27.3319C13.3733 25.2188 15.6719 24.1499 18.0431 24.6968C20.2692 25.194 21.8661 27.1579 21.9145 29.4201C21.9387 29.9173 21.9145 30.4145 21.9145 30.9365C20.8983 30.9365 19.9304 30.9365 18.8658 30.9365C18.8658 30.5388 18.89 30.141 18.8658 29.7433C18.7448 28.2517 17.7044 27.4562 16.301 27.7297C15.5267 27.8788 14.9702 28.4257 14.8492 29.3704C14.7525 30.141 14.7767 30.9117 14.825 31.6823C14.8734 32.3784 15.3332 32.8258 15.9381 33.0993C16.8333 33.497 17.7528 33.8948 18.6722 34.2428C20.5837 34.9389 21.7209 36.2813 21.8177 38.3695C21.8903 39.7368 21.9145 41.1538 21.6725 42.521C21.116 45.6782 18.9142 46.7969 16.18 46.5483C13.0829 46.2251 11.1231 43.5154 11.6312 40.2588Z" fill="#0F190C"/>
<path d="M36.1418 41.7007C34.8594 41.7007 33.6254 41.6758 32.4156 41.7255C32.2704 41.7255 32.0284 41.9493 32.0042 42.1233C31.7381 43.2917 31.5445 44.4849 31.3025 45.6782C31.2542 45.8771 31.2058 46.1008 31.1574 46.3245C30.1411 46.3245 29.1733 46.3245 28.1329 46.3245C29.7056 39.1153 31.2542 31.9558 32.8269 24.7465C33.6012 24.7465 34.3754 24.7217 35.1255 24.7714C35.2465 24.7714 35.4159 25.0697 35.4643 25.2686C36.1901 28.5252 36.8918 31.7569 37.5935 35.0135C38.392 38.643 39.1663 42.2476 39.9647 45.8522C39.9889 45.9765 39.9889 46.0759 40.0373 46.3245C39.7228 46.3494 39.4324 46.3743 39.1663 46.3743C38.6097 46.3743 38.0532 46.3494 37.4725 46.3743C37.1338 46.3743 37.0128 46.2748 36.9402 45.9268C36.6983 44.5098 36.4321 43.1425 36.1418 41.7007ZM34.1577 31.21C34.1093 31.21 34.0609 31.21 34.0125 31.21C33.5528 33.7208 33.0689 36.2316 32.5849 38.7424C33.6254 38.7424 34.569 38.7424 35.561 38.7424C35.1013 36.2067 34.6174 33.6959 34.1577 31.21Z" fill="#0F190C"/>
<path d="M66.2174 43.242C68.2015 43.242 70.1372 43.242 72.1213 43.242C72.1213 44.2861 72.1213 45.2804 72.1213 46.3245C71.9519 46.3494 71.7583 46.3743 71.5647 46.3743C68.9516 46.3743 66.3384 46.3743 63.7252 46.3743C63.2413 46.3743 63.0961 46.25 63.0961 45.7528C63.1203 38.9413 63.0961 32.1298 63.0961 25.3183C63.0961 25.1443 63.1203 24.9702 63.1203 24.7714C66.1206 24.7714 69.0726 24.7714 72.0729 24.7714C72.0729 25.716 72.0729 26.6358 72.0729 27.6551C71.8551 27.6551 71.6373 27.6551 71.4438 27.6551C69.8468 27.6551 68.2257 27.6551 66.6288 27.6551C66.2416 27.6551 66.1206 27.7794 66.1206 28.1523C66.1448 29.9173 66.1448 31.6823 66.1206 33.4473C66.1206 33.8451 66.2416 33.9942 66.653 33.9942C67.9837 33.9694 69.3145 33.9942 70.6453 33.9942C70.8631 33.9942 71.0566 33.9942 71.2986 33.9942C71.2986 34.9886 71.2986 35.9084 71.2986 36.9028C69.6049 36.9028 67.9111 36.9028 66.169 36.9028C66.2174 39.0159 66.2174 41.104 66.2174 43.242Z" fill="#0F190C"/>
<path d="M108.512 24.7465C111.803 24.7465 115.045 24.7465 118.336 24.7465C118.336 25.6912 118.336 26.6358 118.336 27.6302C116.182 27.6302 114.053 27.6302 111.875 27.6302C111.875 29.8178 111.875 31.9558 111.875 34.1683C113.738 34.1683 115.602 34.1683 117.513 34.1683C117.513 35.1875 117.513 36.1321 117.513 37.1265C115.626 37.1265 113.763 37.1265 111.827 37.1265C111.827 40.2091 111.827 43.242 111.827 46.2997C110.69 46.2997 109.625 46.2997 108.512 46.2997C108.512 39.1401 108.512 31.9806 108.512 24.7465Z" fill="#0F190C"/>
<path d="M46.8848 24.7465C49.8851 24.7465 52.837 24.7465 55.8373 24.7465C55.8373 25.6912 55.8373 26.611 55.8373 27.6302C53.8774 27.6302 51.9176 27.6302 49.9335 27.6302C49.9335 29.8427 49.9335 31.9806 49.9335 34.1683C51.6514 34.1683 53.3451 34.1683 55.063 34.1683C55.063 35.1875 55.063 36.1073 55.063 37.1265C53.3451 37.1265 51.6514 37.1265 49.9093 37.1265C49.9093 40.2091 49.9093 43.242 49.9093 46.3245C48.8689 46.3245 47.901 46.3245 46.8848 46.3245C46.8848 39.1401 46.8848 31.9806 46.8848 24.7465Z" fill="#0F190C"/>
<path d="M147.25 46.3245C146.161 46.3245 145.121 46.3245 144.008 46.3245C144.008 39.1401 144.008 31.9806 144.008 24.7714C145.072 24.7714 146.137 24.7714 147.25 24.7714C147.25 31.9309 147.25 39.1153 147.25 46.3245Z" fill="#0F190C"/>
<path d="M89.0827 27.8539C89.7118 27.8539 90.2441 27.8539 90.849 27.8539C90.849 30.0416 90.849 32.1795 90.849 34.4168C93.0024 34.4168 95.1075 34.4168 97.2367 34.4168C97.2367 35.0135 97.2367 35.5107 97.2367 36.1073C95.1317 36.1073 93.0266 36.1073 90.8732 36.1073C90.8732 38.3695 90.8732 40.582 90.8732 42.7945C90.2683 42.7945 89.7118 42.7945 89.1069 42.7945C89.1069 40.582 89.1069 38.3695 89.1069 36.1073C86.9292 36.1073 84.8 36.1073 82.6465 36.1073C82.6465 35.5355 82.6465 35.0135 82.6465 34.4417C84.7758 34.4417 86.905 34.4417 89.0827 34.4417C89.0827 32.2292 89.0827 30.0664 89.0827 27.8539Z" fill="#0F190C"/>
<path d="M99.2692 61.0413C98.9547 61.0413 98.6401 61.0413 98.2772 61.0413C98.2772 59.5995 98.2772 58.1825 98.2772 56.7655C98.2288 56.7655 98.1804 56.7407 98.1562 56.7407C97.89 57.5859 97.6239 58.4062 97.3335 59.2266C97.2609 59.4006 97.0674 59.5249 96.9222 59.6741C96.777 59.5249 96.5834 59.3758 96.5109 59.2017C96.2205 58.3814 95.9785 57.561 95.5914 56.7655C95.5914 58.1825 95.5914 59.5746 95.5914 61.0165C95.2285 61.0165 94.9381 61.0165 94.5752 61.0165C94.5752 58.5305 94.5752 56.0197 94.5752 53.5338C95.422 53.2852 95.5188 53.3349 95.8092 54.1801C96.1721 55.2242 96.5109 56.2683 96.9222 57.4616C97.4061 56.0446 97.8416 54.7768 98.2772 53.4841C98.6159 53.4841 98.9063 53.4841 99.2692 53.4841C99.2692 55.9949 99.2692 58.5057 99.2692 61.0413Z" fill="#0F190C"/>
<path d="M118.19 60.9916C117.247 61.1905 117.247 61.1905 116.957 60.3453C116.545 59.1769 116.134 58.0085 115.602 56.8401C115.602 58.2322 115.602 59.5995 115.602 61.0413C115.214 61.0413 114.9 61.0413 114.561 61.0413C114.561 58.5305 114.561 56.0446 114.561 53.5586C115.505 53.3598 115.505 53.3598 115.819 54.2298C116.231 55.3734 116.618 56.5418 117.126 57.6853C117.126 56.318 117.126 54.9259 117.126 53.5089C117.537 53.5089 117.852 53.5089 118.19 53.5089C118.19 56.0197 118.19 58.5057 118.19 60.9916Z" fill="#0F190C"/>
<path d="M71.347 61.0662C71.347 58.5057 71.347 56.0197 71.347 53.5089C72.0245 53.5089 72.702 53.4343 73.3552 53.5338C74.1779 53.6332 74.686 54.2298 74.7102 55.0751C74.7586 56.5169 74.7586 57.9836 74.7102 59.4255C74.686 60.3204 74.1295 60.8425 73.2585 61.0165C73.0649 61.0413 72.8713 61.0662 72.6778 61.0662C72.2664 61.0662 71.8309 61.0662 71.347 61.0662ZM72.4116 59.9724C73.4762 60.047 73.6698 59.8729 73.6698 58.8288C73.6698 57.735 73.6698 56.6412 73.6698 55.5474C73.6698 54.6027 73.3794 54.379 72.4116 54.5779C72.4116 56.3678 72.4116 58.1576 72.4116 59.9724Z" fill="#0F190C"/>
<path d="M68.3225 57.2876C68.3225 57.9588 68.3467 58.63 68.3225 59.3012C68.2983 60.3453 67.5966 61.0662 66.6046 61.0911C65.6125 61.1159 64.8382 60.4447 64.7899 59.4255C64.7415 57.9836 64.7415 56.5418 64.7899 55.0751C64.814 54.031 65.5883 53.3846 66.6046 53.4095C67.5966 53.4343 68.2983 54.1553 68.3225 55.1994C68.3467 55.8954 68.3225 56.5915 68.3225 57.2876ZM65.8787 57.213C65.8787 57.8842 65.8787 58.5554 65.8787 59.2266C65.8787 59.6989 66.0964 59.9972 66.5804 59.9724C67.0159 59.9724 67.2579 59.6989 67.2821 59.2515C67.3062 57.909 67.3062 56.5666 67.2821 55.2242C67.2821 54.7519 67.0159 54.4784 66.5562 54.5033C66.0964 54.5282 65.9029 54.8016 65.9029 55.2491C65.8787 55.9203 65.8787 56.5666 65.8787 57.213Z" fill="#0F190C"/>
<path d="M91.5507 57.2876C91.5507 57.9836 91.5749 58.6797 91.5507 59.3758C91.5265 60.3701 90.8006 61.0911 89.8569 61.1159C88.8407 61.1408 88.0664 60.4696 88.0422 59.4503C87.9939 58.0085 87.9939 56.5666 88.0422 55.0999C88.0664 54.0558 88.8407 53.4095 89.8569 53.4343C90.8248 53.4592 91.5265 54.1553 91.5507 55.1745C91.5749 55.8706 91.5507 56.5666 91.5507 57.2876ZM89.0827 57.213C89.0827 57.8593 89.0827 58.5305 89.0827 59.1769C89.0827 59.6741 89.252 59.9972 89.7844 59.9972C90.2925 59.9972 90.486 59.6741 90.486 59.1769C90.486 57.8842 90.486 56.5915 90.486 55.3237C90.486 54.8265 90.2683 54.5282 89.7602 54.5282C89.2762 54.5282 89.0827 54.8513 89.0827 55.2988C89.0827 55.9451 89.0827 56.5915 89.0827 57.213Z" fill="#0F190C"/>
<path d="M61.8379 57.2876C61.8379 57.9836 61.8621 58.6797 61.8379 59.3758C61.7895 60.4198 61.0879 61.1159 60.0716 61.1159C59.0796 61.1159 58.3295 60.4198 58.3053 59.3758C58.2811 57.9588 58.2811 56.5666 58.3053 55.1496C58.3295 54.1055 59.0554 53.4095 60.0716 53.4095C61.0637 53.4095 61.7895 54.1055 61.8379 55.1496C61.8379 55.1994 61.8379 55.2739 61.8379 55.3237C61.8621 55.97 61.8621 56.6412 61.8379 57.2876ZM60.7733 57.213C60.7733 56.5666 60.7733 55.8954 60.7733 55.2491C60.7733 54.8016 60.5555 54.5282 60.0958 54.5282C59.6119 54.5282 59.3941 54.7767 59.3699 55.2739C59.3699 56.5915 59.3699 57.9339 59.3699 59.2515C59.3699 59.7238 59.5877 60.0221 60.0716 59.9972C60.5314 59.9972 60.7491 59.6989 60.7733 59.2266C60.7733 58.5554 60.7733 57.8842 60.7733 57.213Z" fill="#0F190C"/>
<path d="M89.0827 13.162C89.5666 13.162 89.9295 13.162 90.3409 13.162C90.3409 12.093 90.3409 11.0738 90.3409 9.97999C90.728 9.97999 91.0425 9.97999 91.3813 9.97999C91.3813 12.4659 91.3813 14.927 91.3813 17.4627C91.0667 17.4627 90.7522 17.4627 90.3893 17.4627C90.3893 16.3937 90.3893 15.3248 90.3893 14.2061C89.9295 14.2061 89.5424 14.2061 89.0827 14.2061C89.0827 15.2999 89.0827 16.3689 89.0827 17.4875C88.7197 17.4875 88.4052 17.4875 88.0664 17.4875C88.0664 15.0016 88.0664 12.5157 88.0664 10.0048C88.381 10.0048 88.6955 10.0048 89.0827 10.0048C89.0827 11.0241 89.0827 12.0682 89.0827 13.162Z" fill="#0F190C"/>
<path d="M102.39 61.0413C102.39 58.5057 102.39 56.0197 102.39 53.5089C103.092 53.5089 103.77 53.4592 104.423 53.5338C105.125 53.6084 105.584 54.0807 105.705 54.8016C105.778 55.2988 105.826 55.8209 105.778 56.3429C105.705 57.4864 105.052 58.0831 103.939 58.1079C103.794 58.1079 103.673 58.1079 103.455 58.1328C103.455 59.1023 103.455 60.047 103.455 61.0413C103.068 61.0413 102.753 61.0413 102.39 61.0413ZM103.479 57.0141C103.939 57.0141 104.52 57.1881 104.641 56.6909C104.786 56.0943 104.738 55.3982 104.568 54.8016C104.52 54.6027 103.891 54.553 103.455 54.4287C103.479 55.3734 103.479 56.1689 103.479 57.0141Z" fill="#0F190C"/>
<path d="M109.432 53.4841C109.77 53.4841 110.012 53.4841 110.327 53.4841C110.859 55.97 111.416 58.4808 111.948 60.9668C110.98 61.1905 110.932 61.1656 110.738 60.2707C110.545 59.3509 110.545 59.3509 109.165 59.4503C109.117 59.6989 109.044 59.9475 108.996 60.221C108.802 61.1408 108.802 61.1408 107.762 60.9916C108.343 58.5057 108.875 56.0197 109.432 53.4841ZM109.383 58.3317C109.746 58.3317 110.036 58.3317 110.375 58.3317C110.23 57.5362 110.085 56.7655 109.94 56.0197C109.891 56.0197 109.843 56.0197 109.819 56.0197C109.674 56.7904 109.528 57.5113 109.383 58.3317Z" fill="#0F190C"/>
<path d="M97.3577 13.162C97.3577 13.5598 97.3577 13.8332 97.3577 14.2061C96.777 14.2061 96.2205 14.2061 95.6156 14.2061C95.6156 14.9767 95.6156 15.6728 95.6156 16.3937C96.2931 16.3937 96.9222 16.3937 97.6239 16.3937C97.6239 16.7666 97.6239 17.0898 97.6239 17.4627C96.5834 17.4627 95.5672 17.4627 94.5268 17.4627C94.5268 14.9767 94.5268 12.5157 94.5268 9.97999C95.543 9.97999 96.5592 9.97999 97.6239 9.97999C97.6239 10.2783 97.6239 10.5766 97.6239 10.9495C96.9464 10.9495 96.3173 10.9495 95.6156 10.9495C95.6156 11.6953 95.6156 12.3914 95.6156 13.162C96.1721 13.162 96.7528 13.162 97.3577 13.162Z" fill="#0F190C"/>
<path d="M85.1145 55.622C84.7758 55.622 84.4612 55.622 84.1467 55.622C84.1225 55.3982 84.1467 55.1496 84.0257 55.0253C83.8321 54.8265 83.5902 54.5779 83.3482 54.553C83.1788 54.553 82.8643 54.9011 82.8401 55.1248C82.7917 56.5418 82.8159 57.9339 82.8159 59.3509C82.8159 59.7238 82.9853 59.9724 83.3724 59.9972C83.7595 60.0221 83.9773 59.8232 84.0741 59.4255C84.0983 59.2763 84.0983 59.1023 84.1225 58.9034C84.437 58.9034 84.7758 58.9034 85.0903 58.9034C85.3323 59.9475 84.7032 60.9419 83.7595 61.0662C82.6223 61.2402 81.7997 60.5939 81.7755 59.4006C81.7271 58.0085 81.7271 56.6164 81.7513 55.2242C81.7755 53.9812 82.5255 53.2852 83.6628 53.3846C84.6548 53.5338 85.2597 54.4039 85.1145 55.622Z" fill="#0F190C"/>
<path d="M52.4983 53.4841C53.5629 53.4841 54.5549 53.4841 55.5954 53.4841C55.5954 53.8072 55.5954 54.1055 55.5954 54.5033C54.9421 54.5033 54.2888 54.5033 53.5871 54.5033C53.5871 55.2988 53.5871 55.9949 53.5871 56.7904C54.1436 56.7904 54.7001 56.7904 55.305 56.7904C55.305 57.1384 55.305 57.4616 55.305 57.8345C54.7485 57.8345 54.192 57.8345 53.5629 57.8345C53.5629 58.9283 53.5629 59.9724 53.5629 61.0413C53.1758 61.0413 52.8612 61.0413 52.4983 61.0413C52.4983 58.5057 52.4983 56.0197 52.4983 53.4841Z" fill="#0F190C"/>
<path d="M123.344 61.0413C122.885 61.0413 122.594 61.0413 122.11 61.0413C122.618 58.3565 121.602 55.97 120.755 53.5835C121.772 53.3349 121.844 53.3598 122.11 54.2796C122.304 54.9508 122.497 55.6468 122.739 56.4672C123.054 55.3982 123.32 54.4536 123.586 53.5089C123.949 53.5089 124.264 53.5089 124.699 53.5089C123.925 55.97 122.788 58.3317 123.344 61.0413Z" fill="#0F190C"/>
<path d="M85.4775 9.97999C85.4775 10.3032 85.4775 10.5766 85.4775 10.8998C85.3807 10.9246 85.2839 10.9495 85.2113 10.9744C84.2677 11.0241 84.2677 11.0241 84.2677 11.9687C84.2677 13.7835 84.2677 15.6231 84.2677 17.4875C83.9047 17.4875 83.5902 17.4875 83.203 17.4875C83.203 15.3496 83.203 13.2117 83.203 11.0241C82.7917 11.0241 82.4288 11.0241 82.0174 11.0241C82.0174 10.6512 82.0174 10.3529 82.0174 10.0048C83.1788 9.97999 84.2919 9.97999 85.4775 9.97999Z" fill="#0F190C"/>
</svg>
