<svg width="167" height="66" viewBox="0 0 167 66" fill="none" xmlns="http://www.w3.org/2000/svg">
<path d="M26.0199 13.7718C26.4303 7.32745 29.5472 2.93255 35.3153 0.359375C35.7035 1.74843 36.0474 3.01225 36.4134 4.32161C33.84 5.5285 31.8323 7.38437 30.7563 10.1853C30.2461 11.5174 29.9355 13.4188 30.1019 14.2955C30.8672 13.9995 31.6215 13.7262 32.3758 13.4302C34.206 12.7129 36.0252 11.9273 37.9996 11.7679C42.9801 11.3694 47.2951 13.0089 50.9223 16.4816C54.3831 19.8062 56.2355 23.9848 56.9232 28.7554C57.2449 30.9528 57.3669 33.1731 57.1562 35.3933C57.0896 36.1447 56.9232 36.2928 56.1801 36.2928C49.6023 36.2928 43.0245 36.2928 36.4356 36.3041C36.0141 36.3041 35.8366 36.1675 35.6813 35.769C33.6403 30.634 27.5062 28.8806 23.2689 32.2167C23.1802 32.285 23.1026 32.3647 22.9695 32.4785C23.5795 33.0706 24.1674 33.6513 24.8552 34.3116C22.1486 34.6191 19.6306 34.8923 17.0905 35.177C17.3567 32.5924 17.6229 30.0192 17.9002 27.3322C18.6212 28.0609 19.3311 28.7782 20.0632 29.5182C21.3832 28.3455 22.8253 27.4802 24.4447 26.9451C29.5029 25.2714 35.038 27.1728 38.0884 31.636C38.3435 32.0003 38.5875 32.1484 39.0312 32.1484C43.5569 32.1256 48.0937 32.137 52.6194 32.137C52.7969 32.137 52.9855 32.137 53.2628 32.137C53.1851 31.3172 53.1518 30.5543 53.052 29.7915C52.5085 25.5674 50.9444 21.8443 47.7387 19.032C44.7993 16.4588 41.3828 15.2405 37.5116 16.0034C36.125 16.2766 34.8161 16.9028 33.4628 17.3811C32.764 17.6315 32.0763 17.9048 31.3775 18.1553C29.6582 18.7701 27.9277 18.7815 26.2084 18.1781C24.8441 17.6999 23.5019 17.1647 22.1486 16.641C17.0794 14.694 12.7312 16.0831 8.98195 19.7834C6.05356 22.6754 4.75575 26.3986 4.36752 30.486C4.26769 31.5904 4.33424 32.7176 4.33424 33.8334C4.33424 34.0612 4.33424 34.2775 4.33424 34.5507C3.00316 34.5507 1.71644 34.5507 0.363168 34.5507C0.363168 33.1503 0.263336 31.7726 0.385352 30.4063C0.762494 25.7382 2.19341 21.4571 5.25491 17.8934C9.03741 13.4757 13.7739 11.3466 19.5197 11.7679C21.5496 11.9159 23.4131 12.7584 25.2989 13.4985C25.5207 13.5896 25.7425 13.6693 26.0199 13.7718ZM33.84 44.7637C33.8178 44.7979 33.8067 44.8321 33.7845 44.8548C33.7069 44.9345 33.6292 45.0142 33.5405 45.0939C31.0558 47.2117 28.2605 47.8151 25.2434 46.6082C22.2374 45.4013 20.5291 43.0445 20.1187 39.754C20.0522 39.253 19.9301 39.105 19.431 39.105C13.6629 39.1278 7.8949 39.1164 2.12686 39.1164C1.12854 39.1164 0.939972 39.3441 1.12854 40.3461C1.70535 43.3975 2.59274 46.3464 3.8129 49.1814C5.79844 53.8268 8.40515 58.0623 11.8438 61.7171C13.1749 63.1176 14.7056 64.2561 16.5581 64.8254C18.6434 65.4744 20.6955 65.167 22.7032 64.4269C23.8347 64.017 24.9328 63.5161 26.0531 63.072C27.9832 62.3092 29.9133 62.3205 31.8434 63.0948C32.8417 63.4933 33.8289 63.9259 34.8272 64.3131C36.7129 65.0417 38.6541 65.4175 40.6396 64.9848C42.7361 64.5294 44.4443 63.3225 45.9085 61.7626C50.5562 56.7985 53.7397 50.9576 55.7142 44.3994C55.8695 43.8984 55.9915 43.3861 56.1468 42.794C54.971 42.794 53.8617 42.8282 52.7636 42.7826C52.209 42.7599 51.976 42.9193 51.8097 43.4885C50.1458 48.9879 47.4836 53.9179 43.7233 58.1875C42.9912 59.0187 42.0816 59.7018 41.1942 60.3736C40.2292 61.1023 39.0756 61.2503 37.9664 60.9429C36.6131 60.5671 35.2931 60.0776 33.9953 59.531C31.2666 58.3925 28.5046 57.994 25.6538 58.9048C24.3893 59.3033 23.1469 59.8157 21.9268 60.3622C19.1426 61.626 16.7577 61.0909 14.6834 58.8365C11.2448 55.102 8.69355 50.8096 6.8744 46.0389C6.47507 45.0028 6.15339 43.9326 5.77625 42.8396C5.9981 42.8168 6.12012 42.7826 6.24213 42.7826C9.54766 42.7826 12.8643 42.7826 16.1698 42.7712C16.5581 42.7712 16.6579 42.9648 16.7799 43.2722C19.3533 50.2175 27.1846 53.36 33.6292 49.9898C34.7718 49.3977 35.7812 48.5438 37.0124 47.7127C37.5781 48.3047 38.2326 48.9992 38.8648 49.6596C39.1311 47.0637 39.4084 44.4336 39.6746 41.7921C37.1233 42.1223 34.6054 42.4411 31.9987 42.7826C32.6642 43.3975 33.2965 43.9895 33.9398 44.5816C33.9176 44.6613 33.8733 44.7182 33.84 44.7637ZM75.4032 34.7101C77.6993 35.1314 79.9843 35.1086 82.1362 34.0725C84.51 32.934 85.6969 30.9642 85.7524 28.2886C85.8078 25.6699 84.5877 23.8595 82.3026 22.8348C81.1379 22.3111 79.8956 21.9695 78.6865 21.5596C77.4664 21.1497 76.2129 20.7968 75.0149 20.3186C73.9944 19.9087 73.4509 19.0775 73.5175 17.9048C73.5951 16.7093 74.2717 15.9464 75.3255 15.639C76.102 15.4113 76.9672 15.3202 77.7769 15.3658C79.5406 15.4682 81.0825 16.2539 82.5245 17.2672C82.6909 17.3811 82.8462 17.4949 83.0347 17.6202C83.7446 16.5954 84.4102 15.6276 85.0868 14.6485C84.9426 14.5232 84.8539 14.4321 84.754 14.3524C82.9571 12.952 80.9383 12.1208 78.6976 11.8817C76.6122 11.654 74.5823 11.8134 72.7299 12.9178C70.5669 14.2158 69.5797 16.1855 69.6684 18.7473C69.746 21.1953 70.9329 22.8917 73.0959 23.7912C74.4603 24.3605 75.9023 24.7135 77.3 25.1917C78.4203 25.5674 79.585 25.8634 80.6277 26.4099C82.3359 27.3208 82.347 29.7004 80.6942 30.7251C80.2062 31.0325 79.6072 31.2375 79.0415 31.3286C76.4015 31.7043 74.0832 30.8504 71.9978 29.2336C71.7094 29.0059 71.421 28.7782 71.0993 28.5163C70.3229 29.4613 69.5797 30.3722 68.7921 31.34C70.7333 33.1161 72.9074 34.2547 75.4032 34.7101ZM91.9863 32.08C92.0417 32.1939 92.0861 32.3305 92.1638 32.4216C95.0478 35.9853 99.9728 35.2908 102.457 32.5469C105.097 29.6549 105.43 24.3263 103.178 20.9562C100.716 17.2558 95.0367 16.288 92.0639 20.4324C92.0196 20.5007 91.9419 20.5463 91.7755 20.6829C91.7755 19.7493 91.7755 18.9295 91.7755 18.0642C90.7107 18.0642 89.7123 18.0984 88.714 18.0528C88.2038 18.03 88.1039 18.2122 88.1039 18.7018C88.115 25.4194 88.115 32.1256 88.115 38.8432C88.115 39.0481 88.1372 39.2417 88.1372 39.4694C89.3685 39.4694 90.5443 39.4694 91.7866 39.4694C91.7866 37.0214 91.7866 34.6077 91.7866 32.1939C91.8643 32.1483 91.9197 32.1142 91.9863 32.08ZM93.151 22.4249C95.3695 20.0795 99.0743 20.7285 100.405 23.7229C101.182 25.4763 101.171 27.2753 100.35 29.0059C99.5069 30.7821 98.0538 31.6701 96.1348 31.5563C94.1715 31.4424 92.8293 30.3266 92.1194 28.4708C91.8532 27.7762 91.7866 27.0134 91.6202 26.2733C91.7312 24.7932 92.1527 23.4838 93.151 22.4249ZM86.2404 64.1537C83.2455 57.1173 80.2505 50.0809 77.2667 43.0331C77.1447 42.7485 76.9894 42.6346 76.6899 42.6346C75.8801 42.6574 75.0593 42.6688 74.2496 42.6346C73.7948 42.6118 73.5729 42.7599 73.3843 43.2039C70.4449 50.1492 67.4943 57.0717 64.5437 64.017C64.4772 64.1878 64.4106 64.3586 64.3219 64.5977C65.4977 64.5977 66.5847 64.5863 67.6718 64.6091C68.0267 64.6205 68.1931 64.4838 68.3262 64.165C68.9141 62.7077 69.5353 61.2731 70.1121 59.8157C70.2563 59.4513 70.4338 59.3489 70.8109 59.3489C73.828 59.3603 76.8341 59.3603 79.8512 59.3489C80.2284 59.3489 80.4058 59.4741 80.5389 59.8271C81.1157 61.2844 81.7147 62.7304 82.3248 64.1764C82.3914 64.3472 82.5688 64.5749 82.6909 64.5863C83.8999 64.6205 85.1201 64.6091 86.3846 64.6091C86.307 64.3928 86.2848 64.2675 86.2404 64.1537ZM78.9416 55.9104C76.5013 55.9104 74.1608 55.9104 71.6983 55.9104C72.8963 53.0412 74.0721 50.2175 75.3033 47.2572C76.5457 50.2061 77.7326 53.0184 78.9416 55.9104ZM123.6 26.3986C123.633 21.5027 119.995 17.7682 115.125 17.7226C110.377 17.6657 106.584 21.4458 106.539 26.2733C106.495 31.0781 110.178 34.8468 114.97 34.8809C119.762 34.9151 123.566 31.1919 123.6 26.3986ZM110.211 26.2961C110.211 23.2447 112.23 21.0473 115.036 21.0473C117.809 21.0473 119.917 23.3472 119.928 26.353C119.939 29.3816 117.898 31.6018 115.092 31.6018C112.33 31.6018 110.211 29.3019 110.211 26.2961ZM107.094 59.9182C105.164 61.7968 103.012 62.4913 100.561 61.3414C99.1298 60.6696 98.4531 59.3603 98.1758 57.7321C98.4753 57.7321 98.6861 57.7321 98.9079 57.7321C102.369 57.7321 105.818 57.7207 109.279 57.7435C109.823 57.7435 110.023 57.5727 109.967 57.0376C109.878 56.0584 109.9 55.0564 109.69 54.1C109.057 51.2081 107.549 48.9992 104.643 48.1567C101.748 47.3255 99.0854 47.8721 96.9113 50.0923C94.1382 52.9159 93.6501 57.9598 95.8464 61.2958C97.832 64.3131 100.716 65.2695 104.11 64.8482C106.185 64.5863 107.871 63.573 109.257 61.8651C108.503 61.2048 107.804 60.5671 107.094 59.9182ZM98.2202 55.1931C98.076 53.1664 99.9728 51.0259 101.992 50.912C104.343 50.7754 106.207 52.6085 106.273 55.1931C103.567 55.1931 100.893 55.1931 98.2202 55.1931ZM154.326 24.315C153.172 18.2578 146.76 15.6504 142.179 19.3508C138.719 22.1517 137.986 27.9356 140.626 31.5791C142.645 34.3572 146.195 35.5299 149.667 34.5735C151.331 34.1181 152.673 33.1845 153.804 31.7954C153.083 31.135 152.384 30.4974 151.652 29.837C150.709 30.7479 149.7 31.4652 148.435 31.6929C147.182 31.9206 145.962 31.8182 144.842 31.1236C143.61 30.338 142.956 29.1653 142.745 27.651C144.742 27.651 146.661 27.651 148.591 27.651C150.532 27.651 152.462 27.651 154.381 27.651C154.603 26.8654 154.57 25.6357 154.326 24.315ZM142.789 25.1006C142.623 23.1308 144.487 21.0017 146.483 20.8423C148.857 20.6601 150.676 22.4135 150.842 25.1006C148.125 25.1006 145.463 25.1006 142.789 25.1006ZM130.787 61.4438C130.022 61.2844 129.589 60.829 129.467 60.032C129.423 59.7474 129.412 59.4627 129.412 59.1781C129.412 56.8668 129.412 54.5555 129.412 52.2328C129.412 52.0506 129.434 51.8684 129.445 51.6066C130.876 51.6066 132.274 51.6066 133.683 51.6066C133.683 50.3883 133.683 49.2497 133.683 48.0542C132.263 48.0542 130.876 48.0542 129.412 48.0542C129.412 46.5627 129.412 45.1167 129.412 43.6821C128.147 43.6821 126.972 43.6821 125.729 43.6821C125.729 45.1509 125.729 46.5855 125.729 48.0884C124.964 48.0884 124.276 48.0884 123.588 48.0884C123.588 49.2953 123.588 50.4225 123.588 51.6293C124.309 51.6293 125.008 51.6293 125.752 51.6293C125.752 51.9026 125.752 52.1075 125.752 52.3125C125.752 54.8515 125.74 57.3905 125.752 59.9409C125.752 60.4305 125.785 60.9315 125.862 61.4097C126.084 62.8215 126.739 63.9715 128.114 64.4838C129.878 65.1328 131.642 65.019 133.339 64.2106C133.472 64.1423 133.66 63.9943 133.66 63.8804C133.683 62.9354 133.671 62.0018 133.671 60.977C132.651 61.3755 131.752 61.6374 130.787 61.4438ZM160.582 33.8676C160.582 32.1256 160.559 30.3836 160.593 28.6302C160.604 27.8332 160.648 27.0362 160.792 26.2505C161.314 23.461 163.044 21.9353 165.795 21.7646C165.939 21.7532 166.072 21.719 166.205 21.6962C166.205 20.3755 166.205 19.0889 166.205 17.7682C163.499 17.6999 161.802 19.1345 160.559 21.423C160.559 20.3186 160.559 19.2142 160.559 18.0984C159.317 18.0984 158.141 18.0984 156.954 18.0984C156.954 23.5863 156.954 29.0287 156.954 34.4824C158.163 34.4824 159.317 34.4824 160.582 34.4824C160.582 34.2319 160.582 34.0498 160.582 33.8676ZM133.45 11.7793C132.862 11.7451 132.751 11.9614 132.762 12.5193C132.784 19.328 132.773 26.1367 132.773 32.9454C132.773 33.4463 132.651 34.1067 132.906 34.4141C133.128 34.6646 133.805 34.5166 134.282 34.5166C134.991 34.528 135.701 34.5166 136.433 34.5166C136.433 26.9109 136.433 19.4077 136.433 11.802C135.402 11.7907 134.426 11.8248 133.45 11.7793ZM91.8421 41.9173C90.6108 41.9173 89.4239 41.9173 88.2371 41.9173C88.2371 49.4888 88.2371 57.0034 88.2371 64.5522C89.4461 64.5522 90.6219 64.5522 91.8421 64.5522C91.8421 56.9806 91.8421 49.4433 91.8421 41.9173ZM118.475 48.874C117.465 49.5116 116.8 50.4566 116.268 51.5269C116.223 51.5041 116.19 51.4813 116.146 51.4586C116.146 50.3883 116.146 49.3067 116.146 48.2022C114.914 48.2022 113.727 48.2022 112.518 48.2022C112.518 53.6674 112.518 59.0984 112.518 64.5408C113.75 64.5408 114.925 64.5408 116.168 64.5408C116.168 63.0037 116.157 61.5008 116.168 60.0092C116.179 58.8707 116.146 57.7207 116.301 56.6049C116.744 53.4852 118.719 51.7318 121.403 51.6521C121.525 51.6521 121.647 51.6066 121.78 51.5838C121.78 50.4111 121.78 49.2611 121.78 48.0542C120.571 47.9973 119.484 48.2364 118.475 48.874ZM125.74 18.0984C125.74 18.3602 125.74 18.5879 125.74 18.8043C125.74 23.0284 125.74 27.2639 125.74 31.488C125.74 32.3191 125.763 33.1617 125.729 33.9928C125.718 34.3913 125.84 34.5166 126.228 34.5052C127.138 34.4824 128.037 34.4938 128.946 34.4938C129.09 34.4938 129.223 34.4597 129.379 34.4369C129.379 28.9717 129.379 23.5521 129.379 18.087C128.147 18.0984 126.972 18.0984 125.74 18.0984ZM129.479 15.5252C129.479 14.3297 129.479 13.1797 129.479 12.0184C128.159 12.0184 126.905 12.0184 125.607 12.0184C125.607 13.1911 125.607 14.3183 125.607 15.5252C126.927 15.5252 128.192 15.5252 129.479 15.5252Z" fill="#0F190C"/>
</svg>
